<svg width="119" height="50" viewBox="0 0 119 50" fill="none" xmlns="http://www.w3.org/2000/svg">
<g clip-path="url(#clip0_68_565)">
<path d="M-182 0H118.042V50H-182V0Z" fill="#004C8F"/>
<path d="M-131.989 0H118.042V50H-131.989V0Z" fill="#004C8F"/>
<path d="M7.29981 18.4956C8.02446 18.4636 8.75034 18.5162 9.4628 18.6524C9.89439 18.7732 10.2778 19.0252 10.56 19.3734C10.8393 19.7228 10.9872 20.1591 10.978 20.6064C10.9861 20.8903 10.9281 21.1722 10.8083 21.4298C10.6886 21.6873 10.5106 21.9134 10.2883 22.0902C9.52988 22.5506 8.64249 22.7523 7.75959 22.6649H4.8233V18.4852L7.29981 18.4956ZM9.25383 36.8342C10.5579 36.8682 11.8624 36.7843 13.1514 36.5834C13.9472 36.3874 14.721 36.1108 15.4607 35.7579C16.1039 35.4593 16.6934 35.0569 17.2057 34.5667C17.8214 33.9865 18.2936 33.271 18.5851 32.4768C18.919 31.5995 19.0856 30.6674 19.0762 29.7287C19.1286 28.4584 18.7614 27.2062 18.0313 26.1654C17.3128 25.2102 16.2929 24.5254 15.1368 24.2219C16.0619 23.7475 16.8416 23.032 17.3934 22.1509C17.9452 21.2698 18.2486 20.256 18.2716 19.2166C18.3029 18.2458 18.0683 17.2849 17.5932 16.4378C17.118 15.5906 16.4204 14.8894 15.5757 14.41C14.1824 13.5601 12.0264 13.1386 9.10752 13.1456H-2.7002V36.8028L9.25383 36.8342ZM7.9999 26.9178C9.04933 26.8011 10.1095 27.0051 11.0407 27.5029C11.2744 27.7098 11.4615 27.964 11.5897 28.2486C11.7179 28.5332 11.7842 28.8418 11.7842 29.154C11.7842 29.4661 11.7179 29.7747 11.5897 30.0593C11.4615 30.3439 11.2744 30.5981 11.0407 30.8049C10.1301 31.3182 9.0793 31.5269 8.04171 31.4006H4.90691V26.9178H8.04171" fill="white"/>
<path d="M36.1709 28.8821H31.218L33.6631 20.2719L36.1709 28.8821ZM28.8564 36.834L29.7551 33.6992H37.498L38.4071 36.834H46.1396L37.6548 13.1768H29.7551L21.2598 36.834H28.8564Z" fill="white"/>
<path d="M49.4521 36.834V13.1768H56.704L64.8858 25.8413V13.1768H72.3362V36.834H64.9381L56.9339 24.4725V36.834H49.4521Z" fill="white"/>
<path d="M77.53 36.834V13.1768H85.0639V20.9719L92.1068 13.1768H101.24L92.577 22.0796L102.149 36.834H92.8383L87.1434 27.4296L85.0535 29.4672V36.8549H77.5195" fill="white"/>
</g>
<defs>
<clipPath id="clip0_68_565">
<rect width="300.042" height="50" fill="white" transform="translate(-182)"/>
</clipPath>
</defs>
</svg>
