<svg width="192" height="50" viewBox="0 0 192 50" fill="none" xmlns="http://www.w3.org/2000/svg">
<g clip-path="url(#clip0_68_557)">
<path fill-rule="evenodd" clip-rule="evenodd" d="M29.2716 50.0001C13.1461 50.0001 0 38.7805 0 25C0 11.2196 13.1461 0 29.2716 0C45.397 0 58.5737 11.2196 58.5737 25C58.5737 38.7805 45.397 50.0001 29.2716 50.0001Z" fill="#004A8F"/>
<path fill-rule="evenodd" clip-rule="evenodd" d="M48.0688 27.4395L51.3246 27.5919C49.3895 41.0675 36.5199 42.0431 30.0391 28.9944L30.8682 27.5919C37.5948 31.8297 45.458 33.4151 48.0688 27.4395Z" fill="white"/>
<path fill-rule="evenodd" clip-rule="evenodd" d="M25.9234 7.9269L32.435 5.82324L32.7114 42.5001L25.6162 44.8781L25.9234 7.9269Z" fill="#ED1C24"/>
<path fill-rule="evenodd" clip-rule="evenodd" d="M48.2223 22.5909H51.2938C50.1266 16.4933 46.9937 12.5605 40.9121 12.0117C35.8441 12.0117 31.6975 15.0605 27.981 20.7617C25.6466 24.2983 21.838 29.9081 17.3229 30.5178C16.2494 30.8109 15.1122 30.7792 14.057 30.4267C13.0018 30.0741 12.0766 29.4168 11.4002 28.539C10.7237 27.6612 10.3268 26.6029 10.2602 25.4997C10.1936 24.3966 10.4603 23.2988 11.0263 22.3471C11.9659 21.154 13.2013 20.2233 14.6119 19.6461C16.0225 19.069 17.56 18.8651 19.0737 19.0544C21.4545 19.2324 23.7641 19.941 25.8309 21.1275V15.9141C24.7038 14.8416 23.4569 13.9006 22.1145 13.1092C20.3575 12.1734 18.338 11.8411 16.3708 12.1641C8.07769 13.9629 6.57264 20.7007 8.1084 29.6641C11.3335 40.0299 21.3774 40.8228 27.1518 34.1764C31.114 29.4508 40.9428 13.597 48.1915 22.5909H48.2223Z" fill="white"/>
<path fill-rule="evenodd" clip-rule="evenodd" d="M92.4522 31.4943C93.6042 31.627 94.7715 31.5175 95.878 31.1729C96.9846 30.8284 98.0056 30.2564 98.8748 29.4943C99.7439 28.7322 100.442 27.7971 100.923 26.7497C101.404 25.7023 101.657 24.566 101.667 23.415C101.667 20.9892 100.696 18.6627 98.9679 16.9475C97.2399 15.2322 94.8961 14.2686 92.4522 14.2686C90.0084 14.2686 87.6648 15.2322 85.9367 16.9475C84.2086 18.6627 83.2377 20.9892 83.2377 23.415C83.2472 24.566 83.5009 25.7023 83.982 26.7497C84.463 27.7971 85.1607 28.7322 86.0299 29.4943C86.899 30.2564 87.9201 30.8284 89.0266 31.1729C90.1331 31.5175 91.3003 31.627 92.4522 31.4943ZM92.4522 27.7138C90.0257 27.7138 88.9508 25.5796 88.9508 23.415C88.9508 21.2503 90.0257 18.8723 92.4522 18.8723C94.8787 18.8723 95.9845 21.0064 95.9845 23.415C95.9845 25.8235 94.8787 27.7138 92.4522 27.7138ZM101.114 19.3905H104.185V25.4881C104.185 29.2381 105.537 31.4027 110.328 31.4027C111.68 31.4027 112.509 31.1285 113.584 31.1285L113.308 27.6223C112.755 27.6223 112.233 27.8968 111.68 27.8968C110.052 27.8968 109.53 26.8297 109.53 24.848V19.2076H113.308V15.4577H109.53V10.0918L104.431 12.1955V15.6711H101.175V19.4211L101.114 19.3905ZM132.075 31.2198H137.511V23.415H137.757L142.088 31.2198H148.599L142.641 22.6222L148.047 15.6406H142.211L137.88 22.0735H137.634V10.2747L132.075 12.1955V31.2503V31.2198ZM68.8018 31.2198H74.2075V23.415L78.5384 31.2198H85.0192L79.337 22.6222L84.7429 15.6406H78.9377L74.3304 22.0735V10.2747L68.9246 11.8907V31.2198H68.8018ZM130.232 31.2198C130.003 29.9835 129.91 28.7261 129.955 27.4699V21.5552C129.955 16.7077 126.454 15.0918 122.369 15.0918C120.268 15.0424 118.178 15.4157 116.226 16.1894V19.9393C117.826 19.1841 119.584 18.8184 121.355 18.8723C123.26 18.8723 124.887 19.3906 124.887 21.5552C124.093 21.3132 123.259 21.22 122.43 21.2808C119.359 21.2808 114.076 21.8296 114.076 26.6467C114.076 30.1528 117.147 31.4943 120.004 31.4943C121.028 31.5543 122.05 31.3361 122.959 30.8635C123.868 30.3908 124.63 29.6815 125.164 28.8114C125.164 29.604 125.41 30.3967 125.41 31.2198H130.232ZM119.144 26.1284C119.144 24.7565 120.772 24.2382 122.645 24.2382H124.826C124.878 25.16 124.567 26.0657 123.96 26.765C123.353 27.4643 122.496 27.9028 121.57 27.9881C120.219 27.9881 119.144 27.1955 119.144 26.1284Z" fill="#ED1C24"/>
<path fill-rule="evenodd" clip-rule="evenodd" d="M150.504 11.0674C150.945 11.0742 151.377 11.1894 151.763 11.4027C152.173 11.6102 152.506 11.941 152.715 12.3478C152.936 12.7279 153.052 13.1591 153.052 13.5979C153.052 14.0368 152.936 14.4678 152.715 14.8478C152.508 15.2457 152.187 15.5743 151.794 15.793C151.397 16.0064 150.955 16.1214 150.504 16.1283C150.062 16.1214 149.63 16.0062 149.244 15.793C148.851 15.5743 148.53 15.2457 148.323 14.8478C148.102 14.4678 147.985 14.0368 147.985 13.5979C147.985 13.1591 148.102 12.7279 148.323 12.3478C148.524 11.9357 148.86 11.6028 149.275 11.4027C149.649 11.1895 150.072 11.0741 150.504 11.0674ZM150.504 11.4943C150.138 11.4986 149.779 11.5928 149.459 11.7685C149.132 11.9403 148.864 12.2059 148.691 12.5307C148.492 12.8515 148.386 13.2209 148.384 13.5979C148.385 13.9614 148.48 14.3184 148.661 14.6344C148.845 14.9581 149.113 15.2276 149.437 15.415C149.761 15.6025 150.129 15.7014 150.504 15.7016C150.879 15.701 151.249 15.6066 151.579 15.4271C151.907 15.2428 152.174 14.9673 152.346 14.6344C152.527 14.3184 152.623 13.9614 152.623 13.5979C152.619 13.2253 152.524 12.8592 152.346 12.5307C152.161 12.2048 151.883 11.9399 151.548 11.7685C151.23 11.5891 150.87 11.4946 150.504 11.4943ZM149.398 15.0002V12.1954H150.35H151.026C151.172 12.2505 151.3 12.3457 151.394 12.4699C151.499 12.5997 151.556 12.7608 151.556 12.9271C151.556 13.0933 151.499 13.2547 151.394 13.3845C151.235 13.5317 151.028 13.6179 150.811 13.6283L151.056 13.7808C151.208 13.9389 151.342 14.1126 151.456 14.2991L151.794 14.8478H151.241L150.995 14.421C150.883 14.1811 150.727 13.9641 150.534 13.7808C150.425 13.7412 150.306 13.7412 150.197 13.7808H149.92V14.9394L149.398 15.0002ZM149.828 13.4759H150.504C150.675 13.5226 150.855 13.5226 151.026 13.4759C151.064 13.3777 151.064 13.2692 151.026 13.171C151.049 13.1018 151.049 13.0269 151.026 12.9576C151.007 12.9212 150.981 12.8889 150.949 12.8627C150.918 12.8365 150.881 12.817 150.841 12.8052H149.889V13.6283L149.828 13.4759Z" fill="#004A8F"/>
<path d="M75.713 45.7322H74.2693L70.5835 41.4943L70.3379 41.1895V45.7322H69.3242V36.5858H70.3379V40.9456L70.5835 40.6407L74.1465 36.5858H75.4365L71.3821 41.0371L75.713 45.854V45.7322ZM76.2044 42.6834C76.1505 41.7282 76.4695 40.7892 77.095 40.0615C77.4192 39.7387 77.8085 39.4877 78.2373 39.3248C78.6661 39.1619 79.1246 39.0909 79.583 39.1164C80.0099 39.1014 80.4354 39.1749 80.8321 39.3324C81.2287 39.4899 81.5878 39.7279 81.8866 40.031C82.4732 40.7412 82.7693 41.6446 82.716 42.5615C82.7684 43.4888 82.4481 44.3988 81.8253 45.0919C81.5216 45.4178 81.1499 45.674 80.7361 45.8425C80.3223 46.011 79.8762 46.0878 79.4294 46.0675C78.9951 46.0828 78.5625 46.0065 78.1601 45.8436C77.7577 45.6807 77.3946 45.4349 77.095 45.1224C76.4864 44.4573 76.1664 43.581 76.2044 42.6834ZM77.218 42.6834C77.1892 43.366 77.4071 44.0364 77.8324 44.5736C78.0425 44.8011 78.2992 44.9813 78.5852 45.1023C78.8713 45.2232 79.1801 45.282 79.4909 45.2748C79.7983 45.2904 80.1052 45.2353 80.3876 45.1136C80.67 44.992 80.9202 44.8072 81.1187 44.5736C81.5426 44.0254 81.7501 43.3423 81.7023 42.6529C81.7387 41.9553 81.5327 41.2664 81.1187 40.7016C80.9187 40.4717 80.6674 40.2914 80.3848 40.175C80.1021 40.0585 79.7961 40.0093 79.4909 40.031C79.1801 40.0237 78.8713 40.0825 78.5852 40.2035C78.2992 40.3244 78.0425 40.5046 77.8324 40.7321C77.4075 41.293 77.1905 41.9822 77.218 42.6834ZM87.4768 45.7322C87.1862 45.8915 86.8559 45.9655 86.5246 45.9456C85.3574 45.9456 84.8046 45.3053 84.8046 44.0249V40.031H83.6374V39.1772H84.8046V37.5615L85.7875 37.2261V39.1772H87.4768V40.031H85.7875V43.8419C85.7582 44.1852 85.8447 44.5284 86.0332 44.8176C86.1314 44.9188 86.2518 44.9961 86.3849 45.0437C86.5181 45.0912 86.6605 45.1077 86.8011 45.0919C87.0453 45.1067 87.2861 45.0305 87.4768 44.8784V45.7322ZM89.1047 39.6346C89.7713 39.2044 90.5519 38.9814 91.3469 38.9943C92.8826 38.9943 93.6813 39.8176 93.6813 41.4335V45.7322H92.6676V44.6955C92.4731 45.0689 92.1775 45.381 91.8139 45.5965C91.4503 45.812 91.0332 45.9223 90.6098 45.9151C90.3249 45.933 90.0393 45.8936 89.7701 45.7993C89.5009 45.705 89.2537 45.5578 89.0433 45.3663C88.8569 45.1907 88.7111 44.9772 88.6156 44.7403C88.5202 44.5035 88.4774 44.2491 88.4904 43.9943C88.4904 42.7748 89.1969 42.043 90.6712 41.8296L92.6984 41.5553C92.6984 40.3968 92.2376 39.8175 91.2854 39.8175C90.4882 39.8045 89.7174 40.0998 89.1355 40.6407V39.6346H89.1047ZM91.0091 42.6834C90.5869 42.7119 90.1818 42.8601 89.8419 43.1103C89.6238 43.3418 89.5026 43.6468 89.5026 43.9638C89.5026 44.2808 89.6238 44.586 89.8419 44.8176C90.1098 45.0336 90.4494 45.1423 90.794 45.1224C91.0407 45.1284 91.2859 45.0828 91.5135 44.9882C91.7412 44.8936 91.946 44.7523 92.1148 44.5736C92.4825 44.1872 92.6812 43.6721 92.6676 43.1408V42.4699L91.0091 42.6834ZM101.176 45.7322H99.732L96.6605 42.6834V45.7322H95.6471V35.976H96.6605V42.0736L99.5172 39.0248H100.838L97.7664 42.0736L101.145 45.4882L101.176 45.7322ZM113.953 45.7322V39.6346C113.953 39.1468 113.953 38.5674 113.953 37.8357C113.902 38.1416 113.809 38.4392 113.677 38.72L110.575 45.7322H110.114L106.858 38.5979C106.745 38.2995 106.653 37.994 106.582 37.6833C106.623 38.272 106.623 38.863 106.582 39.4517V45.7322H105.599V36.5858H106.919L109.991 43.1103C110.17 43.4652 110.324 43.8319 110.452 44.2078L110.912 43.0797L113.984 36.5858H115.274V45.7322H113.953ZM117.455 39.6346C118.132 39.2036 118.923 38.9808 119.728 38.9943C121.263 38.9943 122.062 39.8176 122.062 41.4335V45.7322H121.048V44.6955C120.859 45.0665 120.569 45.3774 120.211 45.593C119.852 45.8085 119.44 45.9201 119.021 45.9151C118.736 45.933 118.451 45.8936 118.182 45.7993C117.912 45.705 117.665 45.5578 117.455 45.3663C117.258 45.1977 117.102 44.9861 117.001 44.7482C116.9 44.5102 116.855 44.2522 116.871 43.9943C116.871 42.7748 117.608 42.043 119.083 41.8296L121.11 41.5553C121.11 40.3968 120.618 39.8175 119.697 39.8175C118.893 39.8179 118.117 40.1109 117.516 40.6407V39.6346H117.455ZM119.39 42.6834C118.96 42.7188 118.546 42.866 118.192 43.1103C118.072 43.2292 117.98 43.3727 117.921 43.5306C117.863 43.6886 117.84 43.8572 117.854 44.0249C117.849 44.1763 117.88 44.3268 117.944 44.4644C118.008 44.602 118.103 44.7229 118.223 44.8176C118.49 45.0336 118.83 45.1423 119.175 45.1224C119.421 45.1284 119.667 45.0828 119.894 44.9882C120.122 44.8936 120.327 44.7523 120.495 44.5736C120.863 44.1872 121.062 43.6721 121.048 43.1408V42.4699L119.39 42.6834ZM129.556 45.7322H128.574V41.9212C128.574 40.5187 128.052 39.8175 126.976 39.8175C126.721 39.8187 126.468 39.8736 126.235 39.9787C126.002 40.0838 125.794 40.2367 125.625 40.4273C125.255 40.8593 125.068 41.4165 125.103 41.9822V45.7322H124.089V35.976H125.103V40.2444C125.314 39.8556 125.629 39.5327 126.014 39.3119C126.4 39.0912 126.839 38.9812 127.284 38.9943C128.789 38.9943 129.526 39.8785 129.526 41.7077V45.7322H129.556ZM131.492 36.5858C131.488 36.4058 131.554 36.2312 131.676 36.0981C131.801 35.9824 131.966 35.918 132.137 35.918C132.308 35.918 132.472 35.9824 132.597 36.0981C132.666 36.1593 132.721 36.2344 132.758 36.3186C132.795 36.4028 132.814 36.494 132.812 36.5858C132.816 36.6736 132.798 36.7608 132.761 36.8404C132.723 36.92 132.667 36.9896 132.597 37.0432C132.537 37.1038 132.466 37.1513 132.386 37.1828C132.307 37.2143 132.222 37.2291 132.137 37.2261C132.05 37.2358 131.961 37.2258 131.879 37.1971C131.796 37.1684 131.721 37.1215 131.659 37.06C131.597 36.9985 131.55 36.924 131.521 36.8419C131.492 36.7598 131.482 36.6723 131.492 36.5858ZM131.492 45.7322V39.1164H132.505V45.7322H131.492ZM140.184 45.7322H139.17V41.9517C139.17 40.5188 138.648 39.8175 137.604 39.8175C137.343 39.8143 137.084 39.8671 136.846 39.9723C136.607 40.0776 136.394 40.2329 136.222 40.4273C135.87 40.8572 135.684 41.398 135.699 41.9517V45.7322H134.686V39.1164H135.699V40.2139C135.91 39.8251 136.226 39.5024 136.611 39.2816C136.996 39.0608 137.436 38.9509 137.88 38.964C138.197 38.948 138.513 39.0026 138.805 39.124C139.097 39.2453 139.359 39.4303 139.57 39.6651C140.004 40.2546 140.212 40.9794 140.153 41.7077V45.7322H140.184ZM147.863 45.7322H146.849V44.6041C146.629 45.0163 146.296 45.3582 145.888 45.5902C145.481 45.8222 145.015 45.9348 144.545 45.9151C144.164 45.9294 143.784 45.8541 143.437 45.6951C143.09 45.5362 142.786 45.2982 142.549 45.0005C142.013 44.3136 141.741 43.4597 141.781 42.5918C141.725 41.6415 142.032 40.7053 142.641 39.9699C142.905 39.6423 143.242 39.3808 143.626 39.2061C144.011 39.0313 144.43 38.9484 144.853 38.964C145.257 38.9349 145.661 39.0231 146.015 39.218C146.37 39.4128 146.659 39.706 146.849 40.0615V35.976H147.863V45.7322ZM146.849 41.7688C146.858 41.2473 146.659 40.7433 146.296 40.3663C146.12 40.1882 145.91 40.0477 145.678 39.9534C145.445 39.859 145.196 39.8128 144.945 39.8175C144.639 39.8056 144.335 39.8656 144.057 39.9928C143.78 40.12 143.537 40.3107 143.348 40.5492C142.953 41.1333 142.759 41.8285 142.795 42.531C142.76 43.1858 142.956 43.8322 143.348 44.3602C143.512 44.5849 143.73 44.7663 143.982 44.8885C144.233 45.0107 144.511 45.0701 144.791 45.0615C145.073 45.0735 145.353 45.0188 145.61 44.9022C145.866 44.7856 146.091 44.6103 146.265 44.3907C146.664 43.9477 146.873 43.3683 146.849 42.7749V41.7688ZM153.483 40.1528C153.25 39.9922 152.968 39.9168 152.685 39.9394C152.448 39.9368 152.214 39.9978 152.009 40.1158C151.803 40.2338 151.634 40.4047 151.518 40.6102C151.192 41.1304 151.031 41.736 151.057 42.3481V45.7322H150.043V39.1164H151.057V40.4883C151.192 40.0676 151.435 39.689 151.763 39.3906C152.053 39.1403 152.423 38.9999 152.808 38.9943C153.021 38.9553 153.24 38.9553 153.453 38.9943V40.0615L153.483 40.1528ZM154.804 39.6041C155.471 39.1739 156.252 38.951 157.047 38.964C158.613 38.964 159.381 39.7871 159.381 41.4029V45.7322H158.367V44.6955C158.176 45.0712 157.881 45.3853 157.516 45.6012C157.152 45.817 156.733 45.9259 156.309 45.9151C155.735 45.9412 155.173 45.7444 154.743 45.3663C154.556 45.1907 154.41 44.9772 154.315 44.7403C154.22 44.5035 154.177 44.2491 154.19 43.9943C154.19 42.7748 154.927 42.043 156.371 41.8296L158.398 41.5553C158.398 40.3968 157.937 39.8175 157.016 39.8175C156.212 39.8179 155.436 40.1109 154.835 40.6407V39.6346L154.804 39.6041ZM156.739 42.6529C156.307 42.6756 155.89 42.824 155.541 43.0797C155.422 43.1987 155.329 43.3421 155.271 43.5001C155.213 43.658 155.19 43.8267 155.204 43.9943C155.199 44.1458 155.229 44.2963 155.293 44.4339C155.357 44.5715 155.453 44.6924 155.572 44.787C155.831 44.9985 156.159 45.1071 156.494 45.0919C156.745 45.0984 156.995 45.0531 157.227 44.9586C157.46 44.8641 157.671 44.7226 157.845 44.5431C158.191 44.1455 158.377 43.6354 158.367 43.1103V42.4394L156.739 42.6529ZM164.664 45.7016V36.5553H167.275C167.949 36.5173 168.615 36.7231 169.148 37.1346C169.375 37.3252 169.556 37.5638 169.679 37.8328C169.801 38.1018 169.861 38.3945 169.855 38.6895C169.879 39.1734 169.726 39.6498 169.425 40.031C169.141 40.436 168.731 40.7361 168.258 40.8845C168.833 40.9118 169.374 41.164 169.763 41.5859C170.143 42.0132 170.342 42.5709 170.315 43.1408C170.329 43.5019 170.262 43.8614 170.118 44.1936C169.975 44.5258 169.759 44.8223 169.486 45.0615C168.875 45.5634 168.098 45.8239 167.305 45.7932L164.664 45.7016ZM165.677 37.3785V40.4273H166.814C167.33 40.4545 167.84 40.3037 168.258 40.0004C168.436 39.846 168.575 39.6529 168.666 39.436C168.756 39.2192 168.795 38.9847 168.78 38.7505C168.78 37.8359 168.196 37.3785 166.967 37.3785H165.677ZM165.677 41.3724V44.7565H167.182C167.733 44.7889 168.277 44.627 168.718 44.2993C168.9 44.1464 169.044 43.9543 169.14 43.7377C169.236 43.5211 169.281 43.2856 169.271 43.0492C169.271 41.9212 168.472 41.3724 166.937 41.3724H165.677ZM172.251 39.5736C172.928 39.1426 173.719 38.92 174.523 38.9334C176.059 38.9334 176.827 39.7566 176.827 41.3724V45.7322H175.844V44.6955C175.655 45.0665 175.364 45.3774 175.006 45.593C174.648 45.8085 174.236 45.9201 173.817 45.9151C173.532 45.933 173.247 45.8936 172.977 45.7993C172.708 45.705 172.461 45.5578 172.251 45.3663C172.053 45.1977 171.898 44.9861 171.797 44.7482C171.696 44.5102 171.651 44.2522 171.667 43.9943C171.667 42.7748 172.404 42.043 173.878 41.8296L175.875 41.5553C175.875 40.3968 175.414 39.8175 174.493 39.8175C173.689 39.8179 172.913 40.1109 172.312 40.6407V39.6346L172.251 39.5736ZM174.186 42.6223C173.755 42.6577 173.342 42.805 172.988 43.0492C172.868 43.1682 172.775 43.3116 172.717 43.4696C172.659 43.6275 172.636 43.7962 172.65 43.9638C172.645 44.1153 172.676 44.2658 172.74 44.4033C172.804 44.5409 172.899 44.6619 173.018 44.7565C173.286 44.9726 173.626 45.0815 173.971 45.0615C174.217 45.0676 174.462 45.0217 174.69 44.9272C174.918 44.8326 175.123 44.6913 175.291 44.5126C175.469 44.3197 175.607 44.094 175.697 43.8481C175.786 43.6021 175.826 43.341 175.813 43.0797V42.4089L174.186 42.6223ZM184.352 45.6711H183.339V41.8907C183.339 40.4577 182.816 39.7565 181.772 39.7565C181.515 39.7515 181.261 39.8037 181.027 39.9093C180.793 40.0148 180.586 40.1709 180.421 40.3663C180.044 40.7842 179.846 41.3307 179.868 41.8907V45.7322H178.885V39.1164H179.868V40.2139C180.086 39.825 180.408 39.5029 180.798 39.2825C181.188 39.0622 181.631 38.9521 182.079 38.964C182.392 38.9435 182.705 38.9962 182.993 39.118C183.281 39.2398 183.536 39.4273 183.738 39.6651C184.173 40.2546 184.38 40.9794 184.322 41.7077V45.7322L184.352 45.6711ZM191.877 45.6711H190.434L187.362 42.6223V45.6711H186.349V35.976H187.362V42.0736L190.219 39.0248H191.539L188.468 42.0736L191.877 45.4882V45.6711Z" fill="#003974"/>
</g>
<defs>
<clipPath id="clip0_68_557">
<rect width="192" height="50" fill="white"/>
</clipPath>
</defs>
</svg>
