<svg width="155" height="50" viewBox="0 0 155 50" fill="none" xmlns="http://www.w3.org/2000/svg">
<g clip-path="url(#clip0_68_541)">
<path fill-rule="evenodd" clip-rule="evenodd" d="M0 0H154.386V49.3798H0V0Z" fill="#005BAA"/>
<path fill-rule="evenodd" clip-rule="evenodd" d="M0 41.6504H154.386V49.9996H0V41.6504Z" fill="#F58220"/>
<path fill-rule="evenodd" clip-rule="evenodd" d="M119.99 22.8527H122.541H122.827C122.827 22.8527 123.971 15.0045 124.162 13.4778C124.177 13.2623 124.234 13.0517 124.328 12.8575C126.474 15.243 129.596 18.2009 131.884 20.5149L134.268 23.0912C134.444 22.4915 134.564 21.8765 134.625 21.2544L135.436 15.6007C135.817 13.2152 136.294 10.4719 136.556 7.991H133.481C133.481 7.991 132.337 16.6504 132.218 16.9605C132.099 17.2706 132.218 16.9605 132.218 17.1275L129.072 14.0979C128.81 13.8593 128.714 13.7163 128.452 13.4539C128.19 13.1915 127.57 12.6428 127.141 12.2373L126.545 11.6409L125.878 11.0206L123.351 8.63513C122.97 8.2296 122.445 7.87177 122.064 7.44238L120.014 22.972L119.99 22.8527Z" fill="white"/>
<path fill-rule="evenodd" clip-rule="evenodd" d="M96.655 20.5625L97.2509 16.2687C98.2256 16.0896 99.2321 16.2407 100.111 16.698C100.479 16.8784 100.779 17.1739 100.964 17.5399C101.149 17.9058 101.209 18.3221 101.136 18.7256C101.092 19.1289 100.924 19.5087 100.655 19.8121C100.386 20.1156 100.029 20.3278 99.6346 20.4194C98.6841 20.6584 97.6959 20.707 96.7266 20.5625H96.655ZM98.1567 10.114C99.7061 10.114 101.255 10.5673 100.922 12.3564C100.852 12.6546 100.712 12.9317 100.513 13.1642C100.314 13.3967 100.061 13.5778 99.7776 13.6923C99.091 14.0033 98.3344 14.1268 97.5847 14.0502L98.1567 10.114ZM93.2227 22.9003C96.1783 22.9003 100.231 23.2581 102.4 21.7553C102.819 21.4643 103.174 21.0906 103.444 20.6572C103.714 20.2237 103.892 19.7397 103.968 19.2348C104.044 18.7299 104.016 18.2147 103.885 17.721C103.755 17.2273 103.525 16.7656 103.21 16.364C103.042 16.1086 102.832 15.883 102.59 15.6962C102.316 15.5068 102.067 15.2822 101.851 15.0282C102.584 14.605 103.15 13.943 103.453 13.1528C103.757 12.3626 103.78 11.492 103.52 10.6865C103.341 10.1681 103.038 9.70129 102.638 9.32678C101.817 8.54283 100.744 8.07765 99.6107 8.01479C98.3712 7.87166 96.5598 8.01479 95.2488 8.01479L93.2227 22.948V22.9003Z" fill="white"/>
<path fill-rule="evenodd" clip-rule="evenodd" d="M28.8418 20.539C28.8418 20.0142 30.1291 10.6631 30.2482 10.4007C32.5127 10.4007 33.7283 10.186 35.1584 11.5219C35.7602 12.1044 36.2047 12.8299 36.4506 13.6308C36.6965 14.4317 36.7359 15.2818 36.5648 16.102C36.3975 17.2737 35.8322 18.352 34.9641 19.1557C34.0959 19.9594 32.9778 20.4394 31.7976 20.5151C30.8217 20.5865 29.8417 20.5865 28.8657 20.5151L28.8418 20.539ZM25.5525 22.9245C28.693 23.2043 31.8584 22.9625 34.9201 22.2089C36.0739 21.6817 37.0738 20.868 37.8247 19.8451C38.5757 18.8221 39.0528 17.6239 39.2106 16.3644C39.5678 14.9377 39.3985 13.43 38.7339 12.1183C38.2019 11.0049 37.3781 10.0568 36.3503 9.37491C33.7998 7.72891 30.8679 8.01515 27.5309 8.01515L25.5049 22.9245H25.5525Z" fill="white"/>
<path fill-rule="evenodd" clip-rule="evenodd" d="M54.8229 10.4243C55.0249 10.3632 55.2406 10.3632 55.4426 10.4243C56.1055 10.3654 56.7732 10.455 57.3972 10.6866C57.7463 10.883 58.0145 11.197 58.1542 11.5726C58.2938 11.9482 58.2959 12.3613 58.16 12.7383C57.7786 14.4797 56.2054 14.6705 54.2508 14.6227L54.8229 10.5435V10.4243ZM50.0557 22.9003H53.1067L53.7502 18.2725C53.7502 18.0101 53.7502 17.7478 53.7502 17.4854C53.7391 17.2254 53.8055 16.968 53.9409 16.7459C54.4653 16.7459 54.5845 17.3422 55.1089 18.1532C55.6333 18.9643 57.9216 22.9242 58.1123 22.9242H61.0918C60.8772 22.4233 60.4482 21.8031 60.1621 21.3021L57.3256 16.5311C58.3296 16.3792 59.2458 15.872 59.908 15.1016C60.5701 14.3312 60.9342 13.3488 60.9342 12.3326C60.9342 11.3165 60.5701 10.334 59.908 9.56361C59.2458 8.79324 58.3296 8.28602 57.3256 8.13412C55.6035 8.01519 53.8753 8.01519 52.1532 8.13412L50.0557 22.9003Z" fill="white"/>
<path fill-rule="evenodd" clip-rule="evenodd" d="M136.438 22.9011H139.536L140.227 17.9394C140.371 16.8898 140.227 17.176 140.752 16.5319C141.133 16.6989 144.828 21.3028 145.519 21.9946C145.769 22.2501 145.992 22.5299 146.186 22.8296H149.714C149.714 22.5434 145.185 17.0567 144.78 16.5558L143.159 14.4565C143.374 14.1703 148.069 9.90019 148.761 9.20839C149.452 8.5166 149.547 8.54043 150.072 7.99177C148.929 7.90639 147.782 7.90639 146.639 7.99177C146.639 7.99177 144.852 9.56625 144.756 9.68552C144.61 9.84163 144.45 9.98524 144.28 10.1149C143.636 10.6158 141.395 12.8343 140.966 13.049L141.658 7.94415H138.678C138.464 7.94415 138.511 8.34963 138.44 8.77902L138.058 11.6178C137.558 15.0767 136.843 19.6091 136.485 22.9011H136.438Z" fill="white"/>
<path fill-rule="evenodd" clip-rule="evenodd" d="M68.4572 17.2705C68.7909 16.6503 69.22 16.0778 69.6252 15.4099C69.9882 14.7576 70.4026 14.1353 70.8646 13.5492L71.985 17.3183H68.4572V17.2705ZM61.4971 22.8765H64.9056L66.9079 19.7038H72.7239L73.7965 22.9003H76.8236C76.7044 22.447 71.9373 8.01476 71.6274 7.39453C71.4043 7.68504 71.1974 7.98768 71.0076 8.30103L62.7366 20.9204C62.2814 21.5448 61.8673 22.1982 61.4971 22.8765Z" fill="white"/>
<path fill-rule="evenodd" clip-rule="evenodd" d="M110.408 17.2711C110.813 16.6747 111.218 16.0068 111.6 15.3866L112.816 13.5258L113.96 17.2949L110.408 17.2711ZM103.472 22.8771H106.88C107.166 22.3284 107.548 21.7797 107.905 21.2311L108.43 20.3961C108.573 20.1575 108.763 19.7043 109.049 19.7043H114.698L115.676 22.9008H118.775L113.626 7.41895C113.316 7.72906 105.45 19.7998 104.711 20.9448L103.472 22.8771Z" fill="white"/>
<path fill-rule="evenodd" clip-rule="evenodd" d="M39.0908 22.8766L47.9817 22.8289L48.2915 20.5149H42.3564L42.9523 16.221H44.883H48.9113L49.2688 13.7401H43.3575L43.8342 10.3527H49.7932L50.1507 7.94336L41.1646 7.96721L39.0908 22.8766Z" fill="white"/>
<path fill-rule="evenodd" clip-rule="evenodd" d="M14.7549 22.9003H23.6457L23.9317 20.5148H17.9965L18.5924 16.2448H23.0498C23.5477 16.3179 24.0536 16.3179 24.5515 16.2448L24.9329 13.8593H19.0692L19.5221 10.4958H25.4811L25.8148 8.11035H16.8286L14.7787 23.0434L14.7549 22.9003Z" fill="white"/>
<path fill-rule="evenodd" clip-rule="evenodd" d="M4.91016 22.8297H7.7943C7.98498 22.7104 7.79431 22.8297 7.96117 22.5196L8.15189 21.2315C8.29491 20.2534 8.74776 16.6751 8.93845 16.198H13.9917L14.4446 13.8125H9.27219C9.27219 13.4546 9.65352 10.8545 9.74887 10.449H14.9213L15.2073 8.06348H7.15075L5.02931 22.949L4.91016 22.8297Z" fill="white"/>
<path fill-rule="evenodd" clip-rule="evenodd" d="M77.4434 22.8294L85.5953 22.8533L85.8813 20.4916H80.8757L82.4489 7.96777L79.5648 7.99163L77.4434 22.8294Z" fill="white"/>
<path d="M6.57911 32.5617C6.31691 32.1561 6.00699 31.6551 5.62561 31.1064L5.07743 30.3193L4.52917 29.5798L4.3623 29.3412H5.45881C5.5079 29.4827 5.57179 29.6186 5.64947 29.7466L5.98321 30.3193L6.31688 30.844C6.60291 31.3211 6.86515 31.7028 7.10351 32.0368C7.31803 31.7267 7.55636 31.345 7.81856 30.9157L8.19994 30.3193C8.34296 30.1046 8.43832 29.9137 8.50982 29.7944C8.58768 29.6497 8.6515 29.498 8.70048 29.3412H9.53476L9.3441 29.5798L8.8197 30.3193L8.29531 31.0588L7.41331 32.3947V34.1599C7.41331 34.4223 7.41331 34.637 7.41331 34.804H6.50761C6.52467 34.5897 6.52467 34.3743 6.50761 34.1599V32.5617H6.57911ZM13.3009 34.9472C12.4387 35.002 11.5874 34.7294 10.9172 34.1838C10.6201 33.9494 10.3829 33.6475 10.2254 33.3032C10.0679 32.9589 9.99463 32.5821 10.0115 32.2038C10.0008 31.8067 10.0787 31.4123 10.2395 31.0492C10.4003 30.686 10.6399 30.3633 10.9411 30.1045C11.6337 29.6003 12.4683 29.3288 13.3247 29.3288C14.1812 29.3288 15.0157 29.6003 15.7084 30.1045C16.0055 30.3389 16.2426 30.6408 16.4001 30.9851C16.5576 31.3294 16.6309 31.7062 16.614 32.0845C16.6282 32.4821 16.5519 32.8776 16.3908 33.2413C16.2298 33.605 15.9883 33.9273 15.6845 34.1838C15.0167 34.7383 14.1681 35.027 13.3009 34.9948V34.9472ZM13.3009 34.6131C13.6226 34.6214 13.9425 34.5643 14.2416 34.4454C14.5406 34.3265 14.8125 34.1481 15.0409 33.9213C15.2691 33.6704 15.4454 33.3769 15.56 33.0576C15.6745 32.7383 15.725 32.3995 15.7084 32.0607C15.7229 31.7364 15.6712 31.4127 15.5565 31.1092C15.4417 30.8056 15.2662 30.5287 15.0409 30.2954C14.8105 30.0728 14.5378 29.899 14.2388 29.7842C13.9399 29.6694 13.6209 29.6161 13.3009 29.6274C12.9775 29.6223 12.6564 29.6832 12.3573 29.8062C12.0581 29.9292 11.7872 30.1118 11.5608 30.343C11.1146 30.8475 10.8835 31.507 10.9172 32.1799C10.8995 32.5024 10.9474 32.8252 11.058 33.1286C11.1687 33.4321 11.3397 33.7098 11.5608 33.9451C11.7912 34.1677 12.064 34.3416 12.363 34.4563C12.6619 34.5711 12.9809 34.6245 13.3009 34.6131ZM23.0259 32.4661C23.0537 32.8004 23.0108 33.1368 22.8999 33.4533C22.789 33.7698 22.6127 34.0593 22.3824 34.303C22.1233 34.5319 21.8212 34.7067 21.4938 34.8173C21.1664 34.9279 20.8202 34.9721 20.4756 34.9472C19.8008 35.0124 19.1267 34.8159 18.5924 34.3984C18.3763 34.1852 18.209 33.9276 18.102 33.6435C17.995 33.3593 17.9508 33.0553 17.9727 32.7524V30.3669C17.9727 30.0329 17.9727 29.8183 17.9727 29.6752C17.9727 29.532 17.9727 29.4605 17.9727 29.3889H18.8784C18.8611 29.4916 18.8611 29.5964 18.8784 29.699C18.8784 29.8183 18.8784 30.0329 18.8784 30.3669C18.8784 30.7009 18.8784 31.4881 18.8784 32.1799V32.49C18.8317 33.0452 18.9931 33.5981 19.3313 34.0407C19.5212 34.22 19.7467 34.3572 19.9931 34.4435C20.2395 34.5298 20.5014 34.5632 20.7616 34.5415C21.0294 34.5637 21.2988 34.526 21.5502 34.4312C21.8017 34.3363 22.029 34.1866 22.2155 33.9929C22.57 33.5126 22.7316 32.9167 22.6684 32.323V30.3669C22.6852 30.1366 22.6852 29.9054 22.6684 29.6752C22.6849 29.5804 22.6849 29.4836 22.6684 29.3889H23.3121C23.3204 29.5001 23.3204 29.6117 23.3121 29.7229C23.3121 29.7229 23.3121 30.0568 23.3121 30.3669C23.3121 30.677 23.3121 31.4881 23.3121 32.1799V32.4661H23.0259ZM24.7422 33.8737C24.7422 33.3488 24.7422 32.7762 24.7422 32.1321C24.7422 31.4881 24.7422 30.8917 24.7422 30.3669C24.7422 29.8421 24.7422 29.7944 24.7422 29.6513C24.7422 29.5081 24.7422 29.4366 24.7422 29.3889H26.6729C27.1846 29.3543 27.6959 29.4616 28.1507 29.699C28.3066 29.8081 28.4322 29.9551 28.5156 30.1262C28.599 30.2973 28.6375 30.4869 28.6274 30.677C28.6237 30.9057 28.5542 31.1286 28.4274 31.319C28.3006 31.5093 28.1219 31.6591 27.9124 31.7505C27.5698 31.9509 27.1872 32.0732 26.792 32.1084L27.8647 33.3488L28.3653 33.8737C28.699 34.2315 28.9135 34.4939 29.0565 34.6131L29.2948 34.8516H28.1745L27.9124 34.47C27.7488 34.2617 27.5736 34.0626 27.3879 33.8737L26.9112 33.3012L25.8624 32.1799H25.5525C25.5525 32.8001 25.5525 33.3727 25.5525 33.8737C25.5525 34.3746 25.5525 34.4461 25.5525 34.5893C25.5461 34.6766 25.5461 34.7643 25.5525 34.8516H24.6469C24.6469 34.8516 24.6469 34.7085 24.6469 34.5893C24.6469 34.47 24.6469 34.2315 24.6469 33.8737H24.7422ZM25.5049 31.8222H25.9101C26.3655 31.8543 26.8205 31.7549 27.2211 31.5358C27.3689 31.4593 27.4921 31.3427 27.5765 31.1991C27.6608 31.0556 27.7029 30.8912 27.6978 30.7248C27.7051 30.5847 27.6761 30.4452 27.6134 30.3197C27.5508 30.1943 27.4565 30.0873 27.3402 30.0092C27.0123 29.8299 26.6406 29.7471 26.2677 29.7705H25.5049V31.8222ZM32.6557 33.8737C32.6557 33.3488 32.6557 32.7762 32.6557 32.1321C32.6557 31.4881 32.6557 30.8917 32.6557 30.3908C32.6726 30.1525 32.6726 29.9134 32.6557 29.6752C32.6709 29.5803 32.6709 29.4837 32.6557 29.3889H34.491C35.0443 29.3454 35.5985 29.4614 36.0881 29.7229C36.2639 29.8323 36.4058 29.9883 36.4984 30.1735C36.591 30.3588 36.6305 30.5662 36.6125 30.7725C36.6172 31.0041 36.5628 31.2329 36.4543 31.4375C36.3459 31.642 36.1869 31.8155 35.9927 31.9414C35.4709 32.2375 34.8756 32.3782 34.2766 32.3469H33.3708C33.3708 32.9194 33.3708 33.4443 33.3708 33.8975C33.3708 34.3508 33.3708 34.4939 33.3708 34.6131C33.3708 34.7324 33.3708 34.8278 33.3708 34.8755H32.465C32.4806 34.7888 32.4806 34.6999 32.465 34.6131C32.4813 34.3749 32.4813 34.1358 32.465 33.8975L32.6557 33.8737ZM33.4424 31.9653H34.0383C34.4612 31.9861 34.8794 31.8689 35.2301 31.6313C35.3737 31.54 35.4911 31.4127 35.5705 31.262C35.6499 31.1114 35.6886 30.9428 35.6828 30.7725C35.6916 30.6255 35.6635 30.4787 35.601 30.3453C35.5386 30.212 35.4438 30.0965 35.3254 30.0092C34.9837 29.8189 34.5956 29.7279 34.205 29.7466H33.3708V31.9175L33.4424 31.9653ZM37.4229 34.8994C37.4394 34.8047 37.4394 34.7079 37.4229 34.6131C37.4229 34.6131 37.4229 34.2552 37.4229 33.9213C37.4229 33.5873 37.4229 32.7763 37.4229 32.1084C37.4229 31.4405 37.4229 30.8441 37.4229 30.3193C37.4229 29.7945 37.4229 29.7466 37.4229 29.6035C37.4386 29.5168 37.4386 29.4279 37.4229 29.3412H37.9473H40.0926H40.6407C40.609 29.5146 40.609 29.6925 40.6407 29.866H40.1164H38.281V31.8459H39.878H40.4263C40.4263 31.8459 40.4263 32.0129 40.4263 32.1321C40.4263 32.2514 40.4263 32.3231 40.4263 32.3947H39.878H38.281C38.281 33.2534 38.281 33.9929 38.281 34.6131H40.021H40.6407C40.629 34.7082 40.629 34.8043 40.6407 34.8994C40.6277 34.9864 40.6277 35.0748 40.6407 35.1618H40.0687H37.9711H37.4229V34.8994ZM42.071 33.8737V30.3669C42.071 30.0329 42.071 29.7944 42.071 29.6513C42.0774 29.5639 42.0774 29.4763 42.071 29.3889H44.0017C44.5139 29.3478 45.027 29.4555 45.4795 29.699C45.6415 29.8036 45.773 29.9491 45.8608 30.1208C45.9487 30.2925 45.9898 30.4843 45.98 30.677C45.9773 30.9092 45.9056 31.1352 45.774 31.3264C45.6424 31.5176 45.4568 31.6653 45.2411 31.7505C44.907 31.9505 44.5324 32.0728 44.1447 32.1084L45.2172 33.3488L45.694 33.8737L46.3853 34.6131L46.6236 34.8516H45.5271C45.4475 34.7133 45.3515 34.5852 45.2411 34.47C45.0874 34.2605 44.9203 34.0613 44.7406 33.8737L44.24 33.3012C43.8586 32.8718 43.5249 32.49 43.2151 32.1799H42.9052C42.9052 32.8001 42.9052 33.3727 42.9052 33.8737C42.9052 34.3746 42.9052 34.4461 42.9052 34.5893C42.9052 34.7324 42.9052 34.8039 42.9052 34.8516H41.9994C42.0058 34.7643 42.0058 34.6766 41.9994 34.5893C41.9994 34.4461 41.9994 34.2315 41.9994 33.8737H42.071ZM42.8336 31.8222H43.2389C43.6943 31.8543 44.1493 31.7549 44.5499 31.5358C44.6942 31.4552 44.8145 31.3376 44.8983 31.1951C44.9821 31.0525 45.0264 30.8902 45.0266 30.7248C45.034 30.5821 45.0023 30.4401 44.9351 30.314C44.8679 30.188 44.7677 30.0826 44.6452 30.0092C44.3193 29.8247 43.946 29.7416 43.5727 29.7705H42.9052V31.8222H42.8336ZM47.3625 33.8737C47.3625 33.3488 47.3625 32.7525 47.3625 32.1084C47.3625 31.4643 47.3625 30.8441 47.3625 30.3193C47.3625 29.7945 47.3625 29.7466 47.3625 29.6035C47.3782 29.5168 47.3782 29.4279 47.3625 29.3412H47.9584H50.056H50.6042C50.5724 29.5146 50.5724 29.6925 50.6042 29.866H50.0799H48.1492C48.1492 30.4147 48.1492 31.0588 48.1492 31.8222H49.8653H50.4136C50.4136 31.8222 50.4136 31.9891 50.4136 32.0845C50.4136 32.1799 50.4136 32.2753 50.4136 32.3469H49.913H48.1492C48.1492 32.991 48.1492 33.5636 48.1492 34.0645C48.1492 34.5655 48.1492 34.6609 48.1492 34.7802C48.1335 34.8669 48.1335 34.9558 48.1492 35.0425H47.2434C47.259 34.9558 47.259 34.8669 47.2434 34.7802C47.2434 34.637 47.2434 34.4224 47.2434 34.0645L47.3625 33.8737ZM51.7484 34.8994C51.74 34.8042 51.74 34.7084 51.7484 34.6131C51.7484 34.6131 51.7484 34.2552 51.7484 33.9213C51.7484 33.5873 51.7484 32.7763 51.7484 32.1084C51.7484 31.4405 51.7484 30.8441 51.7484 30.3193C51.7484 29.7945 51.7484 29.7466 51.7484 29.6035C51.7395 29.5163 51.7395 29.4284 51.7484 29.3412H52.2727H54.3942H54.9662C54.9344 29.5146 54.9344 29.6925 54.9662 29.866H54.418H52.6065V31.8459H54.1796H54.7516C54.7376 31.9408 54.7376 32.0372 54.7516 32.1321C54.7386 32.2191 54.7386 32.3077 54.7516 32.3947H54.1796H52.6065C52.6065 33.2534 52.6065 33.9929 52.6065 34.6131H54.3465H54.9662C54.9545 34.7082 54.9545 34.8043 54.9662 34.8994C54.9532 34.9864 54.9532 35.0748 54.9662 35.1618H54.3942H52.2966H51.7484V34.8994ZM61.1398 34.0407C61.1308 34.1199 61.1308 34.1999 61.1398 34.2791C61.1398 34.2791 61.1398 34.4222 61.1398 34.5176C60.8423 34.6609 60.5308 34.7728 60.2102 34.8516C59.8457 34.8902 59.4781 34.8902 59.1137 34.8516C58.3041 34.8925 57.51 34.619 56.8969 34.0883C56.6155 33.8431 56.3923 33.5382 56.2439 33.1956C56.0954 32.853 56.0254 32.4816 56.0389 32.1084C56.0218 31.7128 56.0944 31.3184 56.2513 30.9548C56.4081 30.5913 56.6452 30.268 56.9447 30.0092C57.6067 29.4443 58.4594 29.1541 59.3283 29.198C59.6769 29.1606 60.0285 29.1606 60.377 29.198C60.7024 29.2551 61.0216 29.3429 61.3304 29.4604C61.2839 29.5692 61.2441 29.6807 61.2113 29.7944V30.1284H61.0682C60.8669 29.9031 60.6131 29.731 60.3293 29.6274C60.0428 29.5052 59.735 29.4404 59.4235 29.4367C59.1026 29.4229 58.7825 29.4797 58.4859 29.6034C58.1893 29.727 57.9236 29.9145 57.7074 30.1523C57.4729 30.3939 57.2922 30.6825 57.1771 30.9991C57.0621 31.3157 57.0153 31.653 57.0399 31.989C57.0286 32.3093 57.082 32.6286 57.1966 32.9278C57.3113 33.227 57.485 33.5 57.7074 33.7305C57.9214 33.9566 58.1805 34.1349 58.468 34.2541C58.7555 34.3733 59.0648 34.4306 59.3758 34.4223C59.726 34.4189 60.073 34.3543 60.4009 34.2314C60.7108 34.136 60.9957 33.9732 61.2351 33.7544L61.1398 34.0407ZM63.5234 33.8737C63.5234 33.3488 63.5234 32.7762 63.5234 32.1321C63.5234 31.4881 63.5234 30.4384 63.5234 29.7466H62.1886H61.5927C61.6245 29.5732 61.6245 29.3954 61.5927 29.2219H62.6891H65.0727H66.1692C66.1051 29.391 66.1051 29.5776 66.1692 29.7466H65.5494H64.3576C64.3576 30.3907 64.3576 31.1779 64.3576 32.1321V33.8975C64.3576 34.2554 64.3576 34.47 64.3576 34.6131C64.3512 34.7005 64.3512 34.7882 64.3576 34.8755H63.4518C63.4518 34.8755 63.4518 34.7324 63.4518 34.6131V33.8975L63.5234 33.8737ZM69.6492 33.8737C69.6492 33.3488 69.6492 32.7762 69.6492 32.1321C69.6492 31.4881 69.6492 30.8917 69.6492 30.3669C69.6492 29.8421 69.6492 29.7944 69.6492 29.6513C69.6492 29.5081 69.6492 29.4366 69.6492 29.3889H71.3416C71.889 29.3571 72.4362 29.4551 72.9385 29.6752C73.101 29.7631 73.236 29.8943 73.3286 30.0543C73.4211 30.2143 73.4677 30.3968 73.463 30.5817C73.4579 30.7917 73.3951 30.9962 73.2816 31.1729C73.1681 31.3496 73.0082 31.4917 72.8194 31.5835C72.5705 31.7356 72.2959 31.8408 72.009 31.8936C72.3759 31.9255 72.7326 32.031 73.0578 32.2038C73.247 32.3157 73.4022 32.4769 73.5071 32.6701C73.612 32.8634 73.6628 33.0814 73.6537 33.3012C73.6526 33.5336 73.5874 33.7612 73.4655 33.959C73.3435 34.1568 73.1695 34.317 72.9624 34.4223C72.4278 34.7318 71.8155 34.8809 71.1986 34.8516H69.6492C69.6492 34.8516 69.6492 34.7085 69.6492 34.5893C69.6492 34.47 69.6492 34.2315 69.6492 33.8737ZM70.4119 29.8422V31.7505H70.9603C71.3618 31.7737 71.7609 31.6739 72.1043 31.4643C72.236 31.3854 72.3449 31.2735 72.4202 31.1396C72.4954 31.0057 72.5344 30.8545 72.5334 30.7009C72.5371 30.5653 72.5036 30.4313 72.4363 30.3135C72.3691 30.1957 72.2707 30.0986 72.1521 30.033C71.8316 29.8569 71.4683 29.7742 71.1033 29.7944C70.8735 29.7699 70.6417 29.7699 70.4119 29.7944V29.8422ZM70.4119 32.2277V34.47H70.9603C71.4259 34.4996 71.89 34.3918 72.2951 34.1599C72.4425 34.061 72.5618 33.9254 72.6412 33.7665C72.7206 33.6076 72.7574 33.4308 72.748 33.2534C72.7553 33.0894 72.7168 32.9267 72.6368 32.7834C72.5568 32.6401 72.4384 32.5219 72.2951 32.4423C71.899 32.2359 71.453 32.145 71.0078 32.1799L70.4119 32.2277ZM74.8931 33.9451C75.1791 33.4442 75.4652 32.8479 75.7989 32.2038C76.3471 31.1303 76.7761 30.2238 77.1098 29.4843H77.3244L78.6115 32.2038C78.9214 32.8479 79.2074 33.4442 79.4934 33.9451L79.9941 34.9233H79.0168C79.0243 34.7882 79.0243 34.6527 79.0168 34.5176L78.7545 33.9451L78.2541 32.8955C77.8811 32.8687 77.5067 32.8687 77.1337 32.8955C76.77 32.8449 76.4011 32.8449 76.0373 32.8955C75.8466 33.2772 75.6797 33.6112 75.5367 33.9451C75.3937 34.2791 75.3461 34.3746 75.2984 34.4939L75.1554 34.9233H74.4402L74.6071 34.6846L75.0123 33.9451H74.8931ZM77.0384 30.6055C76.7477 31.1156 76.4851 31.6411 76.2518 32.1799V32.3708C76.5373 32.3958 76.8244 32.3958 77.1098 32.3708H77.9918V32.1799L77.2291 30.6055H77.0384ZM81.591 33.9451C81.591 34.2791 81.591 34.5178 81.591 34.637C81.591 34.7563 81.591 34.8756 81.591 34.9233H81.0428C81.0493 34.8359 81.0493 34.7483 81.0428 34.6609C81.0428 34.5178 81.0428 34.303 81.0428 33.9451C81.0428 33.5873 81.0428 32.8479 81.0428 32.2038C81.0428 31.5597 81.0428 30.9634 81.0428 30.4624C81.0428 29.9615 81.0428 29.8659 81.0428 29.7466C81.0493 29.6593 81.0493 29.5716 81.0428 29.4843H81.305C82.0678 30.2476 83.0451 31.1781 84.2369 32.2754L85.6909 33.6589V30.4385C85.6909 30.1046 85.6909 29.866 85.6909 29.7229C85.7065 29.6361 85.7065 29.5472 85.6909 29.4604H86.3107C86.3107 29.4604 86.3107 29.6036 86.3107 29.7229C86.3107 29.8422 86.3107 30.1046 86.3107 30.4385C86.3107 30.7725 86.3107 31.5597 86.3107 32.2515C86.3107 33.3489 86.3107 34.2791 86.3107 35.0186H86.0722C85.3095 34.2553 84.3323 33.3011 83.1643 32.2038L81.6626 30.8201V32.1799C81.6626 32.8478 81.6626 33.4203 81.6626 33.9451H81.591ZM88.7418 33.9451C88.7418 34.303 88.7418 34.5178 88.7418 34.6609C88.7418 34.804 88.7418 34.8756 88.7418 34.9233H87.8361C87.8425 34.8359 87.8425 34.7483 87.8361 34.6609C87.8361 34.5416 87.8361 34.303 87.8361 33.9451V30.4385C87.8361 30.1046 87.8361 29.866 87.8361 29.7229C87.8425 29.6356 87.8425 29.5477 87.8361 29.4604H88.7418C88.7418 29.4604 88.7418 29.6036 88.7418 29.7229C88.7418 29.8422 88.7418 30.1046 88.7418 30.4385C88.7418 30.7725 88.7418 31.4165 88.7418 31.989C89.147 31.6789 89.6 31.2972 90.1244 30.8201C90.6488 30.343 91.1493 29.8421 91.483 29.4843H92.4127C92.2948 29.554 92.1831 29.6339 92.0789 29.7229L91.197 30.4624L90.5773 31.011L89.6476 31.8222L90.625 32.8718L91.6022 33.8975L92.3172 34.6609L92.5796 34.8755H91.4353C91.3557 34.7372 91.2597 34.6091 91.1493 34.4939L90.6011 33.8975L90.1482 33.4204C89.6477 32.8956 89.2187 32.4424 88.8611 32.1084C88.8611 32.7525 88.8611 33.325 88.8611 33.8498L88.7418 33.9451ZM93.366 33.9451V30.4385C93.366 30.1046 93.366 29.866 93.366 29.7229C93.3817 29.6361 93.3817 29.5472 93.366 29.4604H94.2718C94.2718 29.4604 94.2718 29.6036 94.2718 29.7229C94.2718 29.8422 94.2718 30.1046 94.2718 30.4385C94.2718 30.7725 94.2718 31.5358 94.2718 32.1799C94.2718 32.824 94.2718 33.4203 94.2718 33.9451C94.2718 34.47 94.2718 34.5178 94.2718 34.6609C94.2718 34.804 94.2718 34.8756 94.2718 34.9233H93.366C93.3817 34.8365 93.3817 34.7477 93.366 34.6609C93.366 34.5178 93.366 34.303 93.366 33.9451ZM96.4171 33.9451C96.4171 34.2791 96.4171 34.5178 96.4171 34.637C96.3972 34.7314 96.3972 34.8289 96.4171 34.9233H95.7735C95.7799 34.8359 95.7799 34.7483 95.7735 34.6609C95.7735 34.5178 95.7735 34.303 95.7735 33.9451C95.7735 33.5873 95.7735 32.8479 95.7735 32.2038C95.7735 31.5597 95.7735 30.9634 95.7735 30.4624C95.7735 29.9615 95.7735 29.8659 95.7735 29.7466C95.7799 29.6593 95.7799 29.5716 95.7735 29.4843H96.0357C96.7984 30.2476 97.7758 31.1781 98.9676 32.2754L100.422 33.6589V32.2515C100.422 31.5836 100.422 30.9633 100.422 30.4385C100.437 30.2002 100.437 29.9612 100.422 29.7229C100.437 29.6361 100.437 29.5472 100.422 29.4604H101.041C101.041 29.4604 101.041 29.6036 101.041 29.7229C101.041 29.8422 101.041 30.1046 101.041 30.4385C101.041 30.7725 101.041 31.5597 101.041 32.2515C101.041 33.3489 101.041 34.2791 101.041 35.0186H100.803C100.04 34.2553 99.0629 33.3011 97.8949 32.2038L96.4171 30.8201V32.1799C96.4171 32.8478 96.4171 33.4203 96.4171 33.9451ZM105.499 35.0186C104.636 35.0759 103.784 34.803 103.115 34.2553C102.822 34.0184 102.59 33.7155 102.436 33.3713C102.283 33.0272 102.213 32.6517 102.233 32.2754C102.223 31.8807 102.298 31.4883 102.455 31.1258C102.611 30.7632 102.845 30.4393 103.139 30.1762C103.806 29.6196 104.655 29.3305 105.522 29.365C105.951 29.3252 106.381 29.3252 106.81 29.365C107.191 29.4417 107.56 29.57 107.906 29.7466C107.899 29.8499 107.899 29.9535 107.906 30.0568C107.906 30.0568 107.906 30.2715 107.906 30.3908H107.763C107.508 30.1462 107.208 29.952 106.881 29.8183C106.55 29.6737 106.194 29.5928 105.832 29.5798C105.493 29.5613 105.154 29.6155 104.837 29.7389C104.521 29.8624 104.234 30.0521 103.997 30.2954C103.762 30.5428 103.58 30.8353 103.461 31.155C103.342 31.4748 103.29 31.8152 103.306 32.156C103.298 32.4779 103.355 32.7983 103.473 33.0976C103.592 33.3969 103.77 33.669 103.997 33.8975C104.497 34.3528 105.157 34.5927 105.832 34.5654C106.338 34.5605 106.839 34.4635 107.31 34.2791V33.7305C107.31 33.3727 107.31 33.1102 107.31 32.9194V32.2754H108.24C108.223 32.3861 108.223 32.4986 108.24 32.6093C108.24 32.7285 108.24 32.9433 108.24 33.2534V33.3965C108.224 33.6587 108.224 33.9216 108.24 34.1838C108.227 34.3107 108.227 34.4385 108.24 34.5654C107.426 34.7976 106.583 34.9101 105.737 34.8994L105.499 35.0186ZM112.077 33.9451C112.077 33.4203 112.077 32.8479 112.077 32.2038C112.077 31.5597 112.077 30.9634 112.077 30.4624C112.094 30.2242 112.094 29.9849 112.077 29.7466C112.093 29.6518 112.093 29.5552 112.077 29.4604H113.913C114.466 29.4169 115.02 29.5328 115.51 29.7944C115.682 29.9076 115.821 30.0643 115.913 30.2487C116.005 30.433 116.047 30.6383 116.034 30.844C116.039 31.0756 115.984 31.3044 115.876 31.509C115.768 31.7135 115.609 31.887 115.414 32.0129C114.885 32.3122 114.281 32.4531 113.674 32.4185H112.912C112.912 32.9911 112.912 33.5158 112.912 33.969C112.912 34.4223 112.912 34.5654 112.912 34.6846C112.912 34.8039 112.912 34.8994 112.912 34.9472H112.03C112.045 34.8604 112.045 34.7714 112.03 34.6846C112.046 34.4464 112.046 34.2073 112.03 33.969L112.077 33.9451ZM112.84 32.0368H113.436C113.866 32.0528 114.29 31.9362 114.652 31.7028C114.791 31.6067 114.904 31.4785 114.983 31.329C115.062 31.1795 115.104 31.0131 115.104 30.844C115.108 30.6952 115.076 30.5478 115.009 30.4147C114.943 30.2815 114.844 30.1668 114.723 30.0806C114.384 29.884 113.994 29.7927 113.603 29.8183H112.84V31.989V32.0368ZM116.868 33.9451C117.155 33.4442 117.44 32.8479 117.774 32.2038C118.322 31.1303 118.752 30.2238 119.085 29.4843H119.3L120.587 32.2038C120.897 32.8479 121.183 33.4442 121.445 33.9451L121.969 34.9233H120.992C121 34.7882 121 34.6527 120.992 34.5176C120.992 34.5176 120.849 34.2075 120.73 33.9451L120.229 32.8955C119.856 32.8687 119.482 32.8687 119.109 32.8955C118.737 32.8457 118.36 32.8457 117.989 32.8955L117.512 33.9451C117.512 34.1837 117.321 34.3746 117.274 34.4939L117.131 34.9233H116.416C116.416 34.9233 116.415 34.8039 116.582 34.6846C116.749 34.5654 116.773 34.303 116.988 33.9451H116.868ZM119.014 30.6055C118.723 31.1156 118.46 31.6411 118.227 32.1799V32.3708C118.512 32.3958 118.8 32.3958 119.085 32.3708H119.967V32.1799L119.204 30.6055H119.014Z" fill="white"/>
<path d="M122.994 33.8266C122.994 33.3017 122.994 32.7293 122.994 32.0852C122.994 31.4411 122.994 30.8448 122.994 30.3199C123.01 30.0817 123.01 29.8425 122.994 29.6042C123.01 29.5174 123.01 29.4286 122.994 29.3418H124.925C125.437 29.3007 125.95 29.4084 126.403 29.6519C126.565 29.7565 126.696 29.902 126.784 30.0737C126.872 30.2454 126.913 30.4374 126.903 30.6301C126.901 30.8622 126.829 31.0883 126.697 31.2794C126.566 31.4706 126.38 31.6182 126.165 31.7034C125.83 31.9034 125.456 32.0257 125.068 32.0613C125.354 32.4191 125.712 32.8486 126.141 33.3018L126.617 33.8266L127.309 34.566L127.547 34.8047H126.331C126.252 34.6664 126.156 34.5381 126.045 34.4229C125.892 34.2134 125.724 34.0142 125.545 33.8266L125.044 33.2541C124.663 32.8247 124.329 32.4429 124.019 32.1328H123.709C123.709 32.753 123.709 33.3256 123.709 33.8266C123.709 34.3275 123.709 34.399 123.709 34.5422C123.709 34.6853 123.709 34.757 123.709 34.8047H122.804C122.81 34.7173 122.81 34.6295 122.804 34.5422V33.8266H122.994ZM123.781 31.7751H124.186C124.641 31.8072 125.097 31.7079 125.497 31.4888C125.642 31.4082 125.762 31.2905 125.845 31.148C125.929 31.0054 125.974 30.8431 125.974 30.6777C125.981 30.535 125.949 30.393 125.882 30.2669C125.815 30.1409 125.715 30.0355 125.592 29.9621C125.267 29.7776 124.893 29.6946 124.52 29.7236H123.781V31.7751ZM129.716 33.8266C129.716 33.3017 129.716 32.7293 129.716 32.0852C129.716 31.4411 129.716 30.3915 129.716 29.6997H128.357H127.762C127.826 29.5306 127.826 29.3439 127.762 29.1748H128.882H131.265H132.338C132.306 29.3483 132.306 29.5262 132.338 29.6997H131.718H130.527C130.527 30.3438 130.527 31.131 130.527 32.0852C130.527 33.0394 130.527 33.3256 130.527 33.8504C130.527 34.3752 130.527 34.4229 130.527 34.566C130.527 34.7092 130.527 34.7807 130.527 34.8284H129.621C129.636 34.7416 129.636 34.6528 129.621 34.566C129.637 34.3278 129.637 34.0887 129.621 33.8504L129.716 33.8266ZM133.983 33.8266C133.966 34.0568 133.966 34.288 133.983 34.5183C133.966 34.613 133.966 34.71 133.983 34.8047H133.482C133.498 34.7179 133.498 34.6289 133.482 34.5422C133.498 34.3039 133.498 34.0648 133.482 33.8266C133.482 33.3017 133.482 32.7293 133.482 32.0852C133.482 31.4411 133.482 30.8446 133.482 30.3437C133.499 30.1054 133.499 29.8663 133.482 29.6281C133.498 29.5413 133.498 29.4525 133.482 29.3657H133.744C134.507 30.129 135.484 31.0593 136.652 32.1567L138.13 33.5403V32.1328C138.13 31.4649 138.13 30.8448 138.13 30.3199C138.13 29.7951 138.13 29.7473 138.13 29.6042C138.146 29.5174 138.146 29.4286 138.13 29.3418H138.75C138.734 29.4286 138.734 29.5174 138.75 29.6042C138.75 29.7473 138.75 29.986 138.75 30.3199V32.1328C138.75 33.2301 138.75 34.1605 138.75 34.9001H138.249C137.511 34.1367 136.533 33.1825 135.341 32.0852L133.864 30.7016V32.0613C133.864 32.7292 133.864 33.3017 133.864 33.8266H133.983ZM140.085 34.8523C140.085 34.8523 140.085 34.7092 140.085 34.566C140.085 34.4229 140.085 34.2083 140.085 33.8743C140.085 33.5403 140.085 32.7292 140.085 32.0613C140.085 31.3934 140.085 30.797 140.085 30.2722C140.085 29.7474 140.085 29.6997 140.085 29.5566C140.085 29.4134 140.085 29.3419 140.085 29.2942H140.609H142.754H143.303C143.271 29.4677 143.271 29.6454 143.303 29.8189H142.778H140.943V31.7989H142.54H143.112C143.098 31.8938 143.098 31.9903 143.112 32.0852C143.099 32.1722 143.099 32.2606 143.112 32.3476H142.54H140.943C140.943 33.2063 140.943 33.9458 140.943 34.566H142.683H143.303C143.291 34.6611 143.291 34.7572 143.303 34.8523C143.29 34.9393 143.29 35.0277 143.303 35.1147H142.731H140.633H140.085V34.8523ZM144.852 33.8266V30.3199C144.852 29.986 144.852 29.7473 144.852 29.6042C144.858 29.5168 144.858 29.4292 144.852 29.3418H146.807C147.311 29.304 147.815 29.4116 148.261 29.6519C148.423 29.7565 148.554 29.902 148.642 30.0737C148.73 30.2454 148.771 30.4374 148.761 30.6301C148.758 30.8622 148.687 31.0883 148.555 31.2794C148.423 31.4706 148.238 31.6182 148.022 31.7034C147.691 31.9107 147.315 32.0337 146.926 32.0613C147.212 32.4191 147.569 32.8486 147.998 33.3018L148.475 33.8266C148.833 34.1844 149.047 34.4468 149.166 34.566L149.405 34.8047H148.308C148.221 34.6719 148.125 34.5443 148.022 34.4229C147.868 34.2134 147.701 34.0142 147.522 33.8266L147.021 33.2541C146.64 32.8247 146.306 32.4429 145.996 32.1328H145.4C145.4 32.753 145.4 33.3256 145.4 33.8266C145.4 34.3275 145.4 34.399 145.4 34.5422C145.4 34.6853 145.4 34.757 145.4 34.8047H144.494C144.501 34.7173 144.501 34.6295 144.494 34.5422C144.494 34.399 144.494 34.1844 144.494 33.8266H144.852ZM145.615 31.7751H146.02C146.475 31.8072 146.93 31.7079 147.331 31.4888C147.475 31.4082 147.596 31.2905 147.679 31.148C147.763 31.0054 147.807 30.8431 147.808 30.6777C147.815 30.535 147.783 30.393 147.716 30.2669C147.649 30.1409 147.549 30.0355 147.426 29.9621C147.1 29.7776 146.727 29.6946 146.354 29.7236H145.4V31.7751H145.615Z" fill="white"/>
</g>
<defs>
<clipPath id="clip0_68_541">
<rect width="154.386" height="50" fill="white"/>
</clipPath>
</defs>
</svg>
