<svg width="200" height="50" viewBox="0 0 200 50" fill="none" xmlns="http://www.w3.org/2000/svg">
<path d="M81.3603 38.9302H82.5122C83.3497 39.0001 84.1872 38.7957 84.8983 38.3479C85.1561 38.1079 85.3552 37.8119 85.4803 37.4826C85.6054 37.1534 85.6532 36.7998 85.6198 36.4492C85.6409 36.2222 85.6024 35.9935 85.508 35.786C85.4137 35.5784 85.2668 35.3991 85.0819 35.2656C84.5232 34.981 83.8968 34.8562 83.2717 34.9049H82.2781L81.392 38.9239L81.3603 38.9302ZM79.873 45.8289H81.316C82.1276 45.9057 82.9389 45.6803 83.5945 45.196C83.8539 44.9216 84.0518 44.5951 84.1751 44.2383C84.2984 43.8814 84.3443 43.5024 84.3097 43.1264C84.3352 42.8759 84.2996 42.623 84.2059 42.3893C84.1122 42.1556 83.9632 41.9481 83.7717 41.7846C83.2125 41.4678 82.5701 41.3287 81.93 41.3859H80.8477L79.873 45.8543V45.8289ZM76.0186 48.2657L79.4236 32.5694H83.854C85.6325 32.5694 86.911 32.8289 87.6894 33.3669C88.0888 33.6628 88.4055 34.0561 88.6094 34.5093C88.8133 34.9625 88.8975 35.4605 88.854 35.9555C88.9082 37.0185 88.578 38.0654 87.9236 38.9049C87.2328 39.6804 86.2691 40.1588 85.2337 40.2403C85.9336 40.3458 86.5707 40.7038 87.0249 41.2467C87.4402 41.8471 87.645 42.5682 87.6072 43.2973C87.618 44.1076 87.454 44.9107 87.1261 45.6517C86.8454 46.3153 86.3851 46.8873 85.797 47.3036C85.2245 47.6849 84.5772 47.9396 83.8983 48.0505C82.6997 48.2229 81.4887 48.2949 80.2781 48.2657H76.0186ZM93.7401 47.1327C93.4011 47.5251 92.9854 47.8439 92.5186 48.0695C92.0633 48.2748 91.5687 48.3785 91.0692 48.3732C90.6903 48.3881 90.3122 48.3275 89.9569 48.195C89.6016 48.0624 89.2761 47.8605 88.9996 47.6011C88.7363 47.3497 88.5292 47.0455 88.3918 46.7085C88.2543 46.3715 88.1897 46.0092 88.2021 45.6454C88.2021 44.0631 88.624 42.9281 89.4679 42.2403C90.3118 41.5526 91.7359 41.2045 93.7401 41.196H94.373H94.8224C94.8857 40.8479 94.93 40.5631 94.9553 40.3732C94.977 40.2138 94.9897 40.0532 94.9933 39.8922C95.0168 39.5868 94.919 39.2843 94.7211 39.0505C94.6116 38.9525 94.4833 38.8778 94.3441 38.831C94.2048 38.7842 94.0574 38.7663 93.911 38.7783C93.7441 38.7695 93.5773 38.796 93.4214 38.856C93.2654 38.916 93.1239 39.0081 93.0059 39.1264C92.7523 39.4231 92.5935 39.7891 92.5502 40.177H89.5059C89.536 39.7115 89.6644 39.2576 89.8826 38.8453C90.1008 38.4329 90.4038 38.0714 90.7717 37.7846C91.7032 37.22 92.7863 36.9569 93.873 37.0315C94.9744 36.944 96.0767 37.1887 97.0376 37.734C97.3774 37.9916 97.6467 38.3309 97.8204 38.7204C97.9941 39.1098 98.0667 39.5369 98.0312 39.9619C98.0273 40.25 98.0041 40.5376 97.9616 40.8226C97.9193 41.1545 97.8602 41.4841 97.7844 41.8099L96.835 46.0441C96.7591 46.4175 96.6895 46.7846 96.6452 47.1517C96.6009 47.5188 96.5502 47.8859 96.5186 48.2657H93.5692L93.7148 47.1327H93.7401ZM94.5059 42.9049H94.2211C93.4372 42.841 92.6536 43.0319 91.9869 43.4492C91.7421 43.6602 91.5507 43.9262 91.4286 44.2255C91.3065 44.5247 91.257 44.8487 91.2844 45.1707C91.2645 45.5051 91.3558 45.8366 91.5439 46.1137C91.627 46.2238 91.7353 46.3124 91.8598 46.3719C91.9843 46.4313 92.1212 46.46 92.2591 46.4555C92.5519 46.4468 92.8371 46.3601 93.0852 46.2044C93.3333 46.0486 93.5354 45.8294 93.6705 45.5694C94.1181 44.7457 94.4018 43.843 94.5059 42.9112V42.9049ZM97.873 48.2657L99.8097 39.3226C99.911 38.8606 99.9869 38.4745 100.044 38.1707C100.101 37.8669 100.151 37.5758 100.183 37.3226H103.164L102.968 38.5884C103.263 38.1148 103.675 37.7247 104.164 37.4555C104.675 37.2043 105.24 37.0826 105.81 37.1011C106.479 37.0533 107.142 37.2564 107.67 37.6707C107.892 37.8912 108.063 38.157 108.172 38.4497C108.281 38.7424 108.326 39.0553 108.303 39.3669C108.3 39.6229 108.283 39.8786 108.253 40.1327C108.231 40.3693 108.193 40.604 108.139 40.8353L106.55 48.2846H103.386L105.006 40.81C105.05 40.5948 105.076 40.4239 105.095 40.3036C105.101 40.2173 105.101 40.1305 105.095 40.0441C105.112 39.8149 105.039 39.5879 104.892 39.4112C104.808 39.3324 104.708 39.2724 104.599 39.2353C104.49 39.1982 104.374 39.1848 104.259 39.196C104.042 39.2059 103.83 39.2687 103.643 39.379C103.455 39.4893 103.297 39.6438 103.183 39.8289C102.825 40.3232 102.585 40.8924 102.481 41.4935L100.993 48.3163L97.873 48.2657ZM108.069 48.2657L111.462 32.5694H114.626L112.727 41.3543L116.221 37.3226H119.62L115.506 42.1644L117.734 48.2657H114.487L112.588 42.0694L111.253 48.2657H108.069ZM121.854 44.8922C121.859 44.4897 121.89 44.088 121.949 43.6897C122.012 43.2277 122.101 42.7087 122.227 42.1454C122.356 41.5237 122.523 40.9107 122.727 40.31C122.873 39.8672 123.068 39.4425 123.31 39.0441C123.681 38.3949 124.23 37.8656 124.892 37.5188C125.639 37.1825 126.453 37.0223 127.272 37.0505C128.348 36.9719 129.415 37.3069 130.253 37.9872C130.607 38.3433 130.881 38.7708 131.056 39.2412C131.232 39.7116 131.306 40.214 131.272 40.715C131.267 41.1171 131.239 41.5186 131.189 41.9176C131.126 42.3606 131.044 42.8479 130.93 43.3732C130.797 43.9887 130.626 44.5954 130.417 45.1897C130.267 45.6495 130.069 46.0927 129.829 46.5125C129.451 47.1572 128.901 47.6834 128.24 48.0315C127.498 48.3703 126.688 48.5307 125.873 48.4998C124.797 48.5779 123.73 48.248 122.886 47.5758C122.529 47.2293 122.251 46.8092 122.073 46.3446C121.895 45.8801 121.82 45.3823 121.854 44.8859V44.8922ZM127.208 38.9618C126.91 38.951 126.619 39.0527 126.392 39.2467C126.134 39.5001 125.946 39.8164 125.848 40.1644C125.776 40.3715 125.716 40.5829 125.67 40.7973C125.601 41.0821 125.531 41.3986 125.462 41.753L125.272 42.658C125.051 43.5446 124.892 44.4456 124.797 45.3543C124.772 45.7029 124.868 46.0495 125.069 46.3353C125.168 46.4493 125.292 46.5389 125.432 46.5971C125.571 46.6553 125.722 46.6805 125.873 46.6707C126.177 46.6794 126.473 46.5731 126.702 46.3732C126.971 46.1163 127.167 45.7933 127.272 45.4365C127.354 45.2024 127.455 44.8479 127.576 44.3796C127.696 43.9112 127.81 43.3732 127.924 42.7783C128.038 42.1834 128.126 41.7403 128.183 41.3099C128.238 40.9644 128.267 40.6154 128.272 40.2656C128.299 39.9246 128.207 39.5847 128.012 39.3036C127.911 39.1938 127.786 39.1083 127.647 39.0535C127.507 38.9987 127.358 38.976 127.208 38.9872V38.9618ZM131.392 48.2657L133.291 39.234H131.557L131.974 37.3353H133.702L134.019 35.7213C134.144 34.7597 134.566 33.8613 135.227 33.1517C135.89 32.5815 136.747 32.291 137.62 32.3416C137.949 32.3416 138.253 32.3416 138.588 32.3796C138.924 32.4175 139.221 32.4429 139.538 32.4935L139.12 34.6011L138.689 34.5315C138.586 34.5235 138.483 34.5235 138.379 34.5315C138.07 34.5111 137.765 34.6134 137.531 34.8163C137.291 35.0734 137.137 35.3983 137.088 35.7467L136.759 37.3606H138.55L138.152 39.2593H136.36L134.462 48.291L131.392 48.2657ZM145.683 38.9302H146.835C147.664 39.0001 148.494 38.7955 149.196 38.3479C149.451 38.1064 149.648 37.81 149.772 37.481C149.896 37.1521 149.944 36.7992 149.911 36.4492C149.932 36.2222 149.893 35.9935 149.799 35.786C149.705 35.5784 149.558 35.3991 149.373 35.2656C148.824 34.9806 148.205 34.8556 147.588 34.9049H146.576L145.702 38.9239L145.683 38.9302ZM144.208 45.8289H145.639C146.442 45.9042 147.245 45.6787 147.892 45.196C148.147 44.919 148.341 44.5918 148.462 44.2354C148.583 43.879 148.628 43.5013 148.595 43.1264C148.619 42.8766 148.584 42.6245 148.491 42.3911C148.399 42.1577 148.252 41.9498 148.063 41.7846C147.512 41.4694 146.878 41.3303 146.246 41.3859H145.177L144.208 45.8543V45.8289ZM140.411 48.2657L143.778 32.5694H148.208C149.968 32.5694 151.227 32.8289 152.006 33.3669C152.402 33.6654 152.715 34.0596 152.916 34.5124C153.118 34.9652 153.201 35.4618 153.158 35.9555C153.21 37.0173 152.883 38.063 152.234 38.9049C151.555 39.6784 150.601 40.1573 149.576 40.2403C150.268 40.3472 150.897 40.7055 151.341 41.2467C151.757 41.8471 151.961 42.5682 151.924 43.2973C151.933 44.1068 151.772 44.9092 151.449 45.6517C151.17 46.313 150.715 46.8846 150.133 47.3036C149.576 47.6806 148.946 47.9351 148.284 48.0505C147.101 48.2226 145.904 48.2946 144.708 48.2657H140.411ZM157.898 47.1327C157.566 47.5246 157.157 47.8435 156.696 48.0695C156.247 48.2749 155.759 48.3786 155.265 48.3732C154.89 48.3876 154.516 48.3266 154.165 48.194C153.814 48.0614 153.493 47.8598 153.221 47.6011C152.961 47.3481 152.756 47.0434 152.621 46.7065C152.486 46.3696 152.423 46.0081 152.436 45.6454C152.436 44.0631 152.858 42.9281 153.702 42.2403C154.546 41.5526 155.951 41.2045 157.917 41.196H158.55H158.987C159.05 40.8479 159.095 40.5631 159.12 40.3732C159.142 40.2138 159.154 40.0532 159.158 39.8922C159.18 39.5879 159.085 39.2866 158.892 39.0505C158.783 38.953 158.656 38.8786 158.518 38.8318C158.38 38.785 158.234 38.7668 158.088 38.7783C157.923 38.7701 157.759 38.7969 157.605 38.8569C157.451 38.9169 157.312 39.0088 157.196 39.1264C156.944 39.4237 156.787 39.7897 156.746 40.177H153.74C153.767 39.7154 153.889 39.2643 154.099 38.8524C154.31 38.4406 154.603 38.077 154.962 37.7846C155.88 37.221 156.95 36.9578 158.025 37.0315C159.106 36.9482 160.187 37.193 161.126 37.734C161.464 37.993 161.731 38.3329 161.902 38.7223C162.073 39.1117 162.144 39.538 162.107 39.9619C162.103 40.2497 162.081 40.5371 162.044 40.8226C162 41.1391 161.936 41.4555 161.86 41.8099L160.955 46.0188C160.879 46.3922 160.816 46.7593 160.765 47.1264C160.715 47.4935 160.677 47.8606 160.645 48.2403H157.734L157.873 47.1074L157.898 47.1327ZM158.658 42.9049H158.379C157.603 42.841 156.828 43.0321 156.17 43.4492C155.929 43.6621 155.74 43.9288 155.62 44.2278C155.501 44.5268 155.453 44.8498 155.481 45.1707C155.459 45.5043 155.548 45.8358 155.734 46.1137C155.815 46.2241 155.922 46.313 156.046 46.3726C156.169 46.4321 156.306 46.4606 156.443 46.4555C156.733 46.4457 157.015 46.3576 157.259 46.2005C157.503 46.0434 157.7 45.8231 157.829 45.5631C158.274 44.7388 158.555 43.8361 158.658 42.9049ZM161.987 48.2657L163.81 39.734C163.892 39.3226 163.974 38.9175 164.038 38.5125C164.101 38.1074 164.164 37.7087 164.202 37.3226H167.202L166.943 38.9049C167.258 38.3881 167.692 37.9541 168.208 37.6391C168.715 37.3638 169.284 37.2263 169.86 37.2403H170.145H170.316L169.753 39.9619H169.62C169.364 39.921 169.106 39.8956 168.848 39.8859C168.537 39.8677 168.227 39.9146 167.936 40.0236C167.645 40.1326 167.38 40.3013 167.158 40.5188C166.663 41.1445 166.345 41.8924 166.24 42.6834L165.063 48.2403L161.987 48.2657ZM169.272 44.8922C169.28 44.4899 169.311 44.0883 169.367 43.6897C169.436 43.2277 169.525 42.7087 169.651 42.1454C169.784 41.5234 169.955 40.9104 170.164 40.31C170.314 39.8679 170.511 39.4435 170.753 39.0441C171.135 38.3929 171.695 37.8639 172.367 37.5188C173.127 37.1813 173.953 37.0212 174.784 37.0505C175.875 36.9719 176.955 37.3063 177.81 37.9872C178.168 38.3404 178.446 38.7672 178.624 39.2381C178.802 39.709 178.876 40.2128 178.841 40.715C178.84 41.1172 178.812 41.5189 178.759 41.9176C178.702 42.3606 178.614 42.8479 178.5 43.3732C178.362 43.9882 178.188 44.5946 177.981 45.1897C177.823 45.649 177.622 46.092 177.379 46.5125C176.995 47.1603 176.435 47.6867 175.765 48.0315C175.008 48.3713 174.183 48.5315 173.354 48.4998C172.264 48.5762 171.184 48.2471 170.322 47.5758C169.96 47.2323 169.678 46.8132 169.497 46.3482C169.315 45.8832 169.238 45.3839 169.272 44.8859V44.8922ZM174.715 38.9618C174.413 38.9509 174.117 39.0524 173.886 39.2467C173.628 39.5011 173.438 39.8169 173.335 40.1644C173.284 40.291 173.227 40.4935 173.151 40.7973C173.076 41.1011 173.012 41.3986 172.943 41.753C172.898 41.9682 172.829 42.2656 172.746 42.658C172.522 43.5441 172.361 44.4452 172.265 45.3543C172.239 45.704 172.337 46.0518 172.544 46.3353C172.644 46.4494 172.769 46.539 172.91 46.5972C173.05 46.6553 173.202 46.6805 173.354 46.6707C173.664 46.6786 173.965 46.5728 174.202 46.3732C174.473 46.116 174.674 45.7935 174.784 45.4365C174.867 45.2024 174.968 44.8479 175.088 44.3796C175.208 43.9112 175.322 43.3732 175.443 42.7783C175.563 42.1834 175.645 41.7403 175.708 41.3099C175.763 40.9644 175.793 40.6154 175.797 40.2656C175.826 39.9236 175.731 39.5825 175.531 39.3036C175.428 39.1931 175.3 39.1074 175.159 39.0526C175.018 38.9978 174.866 38.9755 174.715 38.9872V38.9618ZM184.841 39.196C184.692 39.1894 184.544 39.2123 184.403 39.2634C184.263 39.3144 184.135 39.3926 184.025 39.4935C183.755 39.8038 183.56 40.1719 183.455 40.5694C183.193 41.4231 182.981 42.2918 182.822 43.1707C182.683 43.8566 182.602 44.5533 182.582 45.253C182.558 45.573 182.647 45.8914 182.835 46.1517C182.932 46.2566 183.051 46.3384 183.183 46.391C183.316 46.4436 183.459 46.4657 183.601 46.4555C183.879 46.4584 184.148 46.3568 184.354 46.1707C184.624 45.9103 184.84 45.5982 184.987 45.253C185.105 44.9383 185.204 44.6171 185.284 44.291C185.392 43.8859 185.506 43.4049 185.62 42.8606C185.734 42.3163 185.81 41.8289 185.86 41.4302C185.914 41.1122 185.943 40.7906 185.949 40.4682C185.973 40.1295 185.877 39.7932 185.677 39.5188C185.579 39.4093 185.457 39.3234 185.321 39.2675C185.185 39.2116 185.039 39.1872 184.892 39.196H184.841ZM184.626 47.2213C184.363 47.626 184.002 47.9571 183.576 48.1834C183.119 48.3926 182.621 48.4944 182.12 48.4808C181.744 48.5113 181.366 48.466 181.009 48.3475C180.651 48.229 180.321 48.0397 180.038 47.791C179.538 47.2028 179.292 46.4401 179.354 45.6707C179.361 45.1896 179.401 44.7096 179.474 44.234C179.554 43.6602 179.668 43.0273 179.816 42.3353C179.955 41.6791 180.129 41.0305 180.335 40.3922C180.478 39.9224 180.673 39.4702 180.917 39.0441C181.213 38.4756 181.648 37.9919 182.183 37.6391C182.71 37.331 183.313 37.1754 183.924 37.1897C184.421 37.1768 184.914 37.2924 185.354 37.5251C185.803 37.7919 186.181 38.1632 186.455 38.6074L187.721 32.5884H190.816L187.829 46.5125C187.784 46.7403 187.74 46.9998 187.689 47.291C187.639 47.5821 187.601 47.9239 187.563 48.2593H184.398L184.576 47.215L184.626 47.2213ZM194.797 47.1327C194.463 47.5248 194.051 47.8436 193.588 48.0695C193.14 48.2761 192.651 48.3799 192.158 48.3732C191.783 48.3872 191.409 48.3261 191.058 48.1935C190.707 48.0609 190.386 47.8595 190.114 47.6011C189.854 47.3472 189.651 47.0422 189.516 46.7056C189.381 46.369 189.317 46.0079 189.329 45.6454C189.329 44.0631 189.751 42.9281 190.595 42.2403C191.436 41.5441 192.848 41.196 194.81 41.196H195.443H195.879C195.949 40.8479 195.993 40.5631 196.019 40.3732C196.028 40.2131 196.028 40.0524 196.019 39.8922C196.045 39.5875 195.949 39.285 195.753 39.0505C195.645 38.9523 195.517 38.8775 195.379 38.8307C195.241 38.7839 195.094 38.766 194.949 38.7783C194.784 38.7705 194.619 38.7975 194.466 38.8575C194.312 38.9175 194.173 39.0091 194.057 39.1264C193.805 39.423 193.65 39.7897 193.613 40.177H190.601C190.627 39.7146 190.75 39.2629 190.961 38.8508C191.173 38.4388 191.468 38.0756 191.829 37.7846C192.744 37.2211 193.813 36.9578 194.886 37.0315C195.967 36.9482 197.047 37.193 197.987 37.734C198.324 37.993 198.591 38.3329 198.763 38.7223C198.934 39.1117 199.005 39.538 198.968 39.9619C198.966 40.2499 198.945 40.5375 198.905 40.8226C198.862 41.1545 198.803 41.4841 198.727 41.8099L197.822 46.0188C197.746 46.3922 197.677 46.7593 197.633 47.1264C197.588 47.4935 197.538 47.8606 197.512 48.2403H194.595L194.74 47.1074L194.797 47.1327ZM195.55 42.9049H195.272C194.498 42.8401 193.724 43.0313 193.069 43.4492C192.825 43.6608 192.635 43.9271 192.514 44.2263C192.393 44.5256 192.345 44.8492 192.373 45.1707C192.35 45.5054 192.442 45.8378 192.632 46.1137C192.712 46.2241 192.818 46.3129 192.941 46.3726C193.064 46.4322 193.199 46.4607 193.335 46.4555C193.626 46.4449 193.908 46.3565 194.153 46.1995C194.398 46.0425 194.596 45.8228 194.727 45.5631C195.167 44.737 195.447 43.835 195.55 42.9049Z" fill="#F37321"/>
<path fill-rule="evenodd" clip-rule="evenodd" d="M76.7402 9.87976H81.3162L79.1137 6.91143L81.0124 5.37344L83.6516 9.87976H84.3415L82.3605 4.48736L84.8478 3.3418L86.2782 9.87976H102.424L102.12 11.1456H96.4555L95.8225 13.7658C98.3542 12.1266 101.152 12.5443 100.886 15.5696C100.747 16.8211 100.412 18.0429 99.8922 19.1899C99.5577 19.9652 99.0031 20.6253 98.2972 21.0886C97.2402 21.7532 96.3985 21.5823 95.3036 21.3671C94.9618 21.3038 94.9428 21.3671 95.0567 21.0253L95.2213 20.5633C95.2846 20.3798 95.2656 20.4114 95.4554 20.4114C95.7183 20.4201 95.9799 20.3704 96.2213 20.2658C96.62 20.0823 96.9174 19.3671 97.1326 18.5696C97.3478 17.7722 98.0694 15.3102 97.6263 14.557C97.4365 14.2279 96.8858 14.1899 96.3605 14.4747C95.9681 14.7233 95.6318 15.0509 95.3732 15.4367L93.4744 23.2152H90.7466L91.4428 20.3861C91.121 20.7647 90.7243 21.0726 90.2777 21.2904C89.8311 21.5083 89.3443 21.6314 88.8478 21.6519H88.6073C88.2352 21.6684 87.8646 21.5957 87.5263 21.4398C87.1881 21.284 86.892 21.0494 86.6628 20.7558C86.4336 20.4622 86.278 20.1181 86.2089 19.7521C86.1398 19.3861 86.1592 19.0089 86.2656 18.6519L86.8985 15.7215C87.1139 14.8932 87.5891 14.1556 88.2542 13.6168C88.9194 13.0781 89.7396 12.7666 90.5947 12.7279H90.8858C91.3335 12.6989 91.7784 12.8175 92.1522 13.0656C92.5261 13.3137 92.8082 13.6775 92.9554 14.1013L93.7466 11.1266H85.9871L82.9111 23.2659H80.2149L80.9365 20.4367C80.1832 21.2139 79.1574 21.6678 78.0757 21.7026H77.7719C77.3927 21.7314 77.0121 21.6681 76.6626 21.5182C76.3131 21.3683 76.005 21.1362 75.7645 20.8416C75.524 20.547 75.3582 20.1987 75.2813 19.8263C75.2043 19.4538 75.2185 19.0683 75.3225 18.7025L76.0124 15.7722C76.2584 14.9276 76.7659 14.1828 77.4619 13.6449C78.1579 13.107 79.0065 12.8037 79.8858 12.7785H80.1896C80.6774 12.7513 81.1621 12.8713 81.5808 13.123C81.9995 13.3746 82.3329 13.7464 82.5377 14.1899L83.3035 11.1772H76.4428L76.7402 9.91142V9.87976ZM80.7719 14.2532H80.9175C81.7403 14.2532 82.1833 15.1266 81.8858 16.1962L81.4871 17.6646L79.2845 15.1329C79.4535 14.8875 79.6743 14.682 79.9313 14.5311C80.1882 14.3802 80.4752 14.2875 80.7719 14.2595V14.2532ZM80.9554 19C80.7869 19.2883 80.5531 19.5329 80.2728 19.7143C79.9925 19.8957 79.6735 20.0087 79.3415 20.0443H79.2023C78.3795 20.0443 77.9365 19.1709 78.2276 18.1013L78.7213 16.2848L80.9175 19.0507L80.9554 19ZM87.3858 6.51269H89.9175L89.4744 8.79749H86.9428L87.3795 6.51269H87.3858ZM91.7276 14.4367C91.8491 14.4559 91.9656 14.4991 92.0702 14.5638C92.1748 14.6285 92.2654 14.7135 92.3367 14.8137C92.408 14.9139 92.4586 15.0274 92.4855 15.1474C92.5125 15.2674 92.5151 15.3916 92.4934 15.5127L91.3352 19.4557C91.2378 19.6949 91.0516 19.8871 90.8157 19.9921C90.5797 20.0971 90.3123 20.1067 90.0694 20.019C89.9481 20.0007 89.8318 19.9582 89.7272 19.8941C89.6227 19.83 89.532 19.7456 89.4606 19.6459C89.3892 19.5462 89.3385 19.4332 89.3116 19.3135C89.2846 19.1939 89.2818 19.0701 89.3035 18.9494L90.5061 15C90.606 14.7629 90.7925 14.5726 91.0276 14.468C91.2627 14.3634 91.5288 14.3522 91.7719 14.4367H91.7276ZM113.879 16.1772C114.666 16.0824 115.398 15.7298 115.963 15.1744C116.527 14.619 116.892 13.8922 117 13.1076L117.044 12.6709C117.093 12.2774 117.055 11.878 116.935 11.5002C116.815 11.1223 116.615 10.7748 116.348 10.4816C116.081 10.1883 115.754 9.95611 115.389 9.8009C115.024 9.6457 114.63 9.57114 114.234 9.58231H109.272L108.867 11.1709H112.266C112.508 11.1631 112.748 11.2118 112.968 11.3133C113.188 11.4147 113.381 11.5661 113.533 11.7554C113.684 11.9447 113.789 12.1666 113.839 12.4035C113.889 12.6405 113.884 12.8859 113.823 13.1203L113.766 13.3988C113.649 13.9345 113.359 14.4166 112.94 14.7703C112.521 15.124 111.997 15.3293 111.449 15.3545H108.392L108.196 16.1646H113.892L113.879 16.1772ZM113.829 16.1772C115.405 16.3165 116.247 17.7279 115.728 19.4304L115.582 19.8924C115.279 20.7883 114.719 21.5752 113.971 22.1548C113.224 22.7345 112.323 23.0812 111.379 23.1519H105.81L106.221 21.538H110.107C110.682 21.4927 111.227 21.2659 111.664 20.8905C112.1 20.515 112.407 20.0103 112.538 19.4494L112.601 19.1519C112.867 18 112.202 17.0633 111.133 17.0633H108L108.215 16.1709H113.848L113.829 16.1772ZM118.411 9.8861H143.588L143.291 11.1519H137.974L137.253 14.0127C139.639 12.595 141.348 12.9874 141.924 14.057C142.316 14.7912 142.038 15.4874 141.841 16.2279L140.323 21.8671H137.443L138.835 16.4367C139.468 14.2848 138.202 14.1709 136.936 15.3102L134.974 23.0886L131.917 23.1899L132.905 19.4684C130.512 20.8924 128.797 20.5064 128.221 19.4684C127.829 18.7279 128.107 18.0317 128.297 17.2912L129.917 11.1836H127.633L124.468 23.2089H121.785L124.949 11.1836H122.588L119.424 23.2089H116.74L118.392 16.9874H116.006L116.436 15.3102H118.835L119.93 11.1709H118.12L118.417 9.90508L118.411 9.8861ZM135.126 11.1519H132.816L131.31 17.0886C130.677 19.2658 131.981 19.3608 133.253 18.1836L135.107 11.1899L135.126 11.1519ZM127.721 22.1519H130.253L129.81 24.4367H127.278L127.721 22.1519ZM120.677 5.55065H123.36C123.24 5.86078 123.088 6.60129 123.31 6.90509C123.696 7.43674 125.126 7.39877 125.626 6.82914C125.861 6.45421 126.029 6.04067 126.12 5.60761H129.069C128.797 6.87343 128.329 8.00635 127.095 8.29748C125.206 8.59251 123.281 8.57113 121.398 8.23421C119.981 7.95573 120.417 6.78483 120.652 5.58862L120.677 5.55065ZM150.12 9.8861H170.006L167.772 6.91774L169.671 5.37977L172.31 9.8861H173.006L171.019 4.4937L173.512 3.34813L174.943 9.8861H193.5L193.196 11.1519H191.538L188.373 23.1772H185.69L188.854 11.1519H186.5L185.424 14.2152C184.285 14.2152 182.671 13.9494 181.576 14.1646C180.658 14.3418 180.462 14.7975 180.164 15.5886C179.605 17.2457 179.153 18.937 178.81 20.6519C178.924 21.7848 179.519 21.9937 180.664 21.9177C180.569 20.8102 180.829 19.2532 182.152 18.6266C183.031 18.2026 184.569 18.1709 184.892 19.2215C185.348 20.7152 183.791 22.1772 182.715 22.2975C183.006 23.1962 183.683 23.2785 184.652 23.6899L181.842 25.1899C181.205 24.5379 180.806 23.6909 180.709 22.7848C179.49 23.2735 178.13 23.2735 176.911 22.7848C176.628 22.6403 176.39 22.4215 176.221 22.1519C175.755 21.426 175.562 20.5577 175.677 19.7026C175.757 18.7055 175.939 17.7192 176.221 16.7595C176.488 15.6842 177.062 14.7098 177.873 13.9557C179.291 12.6899 180.778 12.7848 183.006 12.8924L183.538 11.1139H175.626L172.462 23.1393H169.747L172.911 11.1139H170.715L169.481 15.2469L166.835 15.3228L166.652 14.3228C166.045 14.099 165.393 14.0294 164.753 14.1203C164.006 14.2595 163.854 14.7089 163.639 15.3861C163.424 16.0633 163.373 16.7659 163.867 16.9557C164.696 17.2722 166.12 17.1076 166.993 17.0696C168.107 17.0696 168.785 17.4747 168.721 18.5443C168.615 19.5894 168.296 20.6017 167.785 21.519C167.583 22.0646 167.186 22.5158 166.671 22.7848C165.519 23.2595 163.436 23.1076 162.24 23.1139C161.607 23.1139 160.936 23.1139 160.342 23.038C160.08 23.0134 159.828 22.9266 159.607 22.7848C159.376 22.6223 159.189 22.4048 159.063 22.1519C158.93 21.922 158.849 21.6656 158.826 21.4009C158.803 21.1362 158.839 20.8697 158.93 20.6203L159.164 19.5633L162.379 19.6266C162.031 20.4304 161.936 20.9937 162.152 21.3228C162.601 22 164.215 21.6646 164.766 21.3228L165.398 19.2405C165.544 18.7532 165.253 18.5443 164.81 18.4431C164.202 18.3554 163.587 18.3279 162.974 18.3608C162.342 18.3608 161.468 18.4684 160.905 18.1076C159.968 17.4747 160.202 15.8924 160.55 14.8671C160.65 14.4774 160.839 14.1159 161.101 13.8108C161.364 13.5057 161.693 13.2651 162.063 13.1076C163.886 12.2722 166.728 12.4747 167.297 13.5633L167.842 11.095H159.367L156.272 23.1962H153.576L154.297 20.3671C153.544 21.1442 152.518 21.5981 151.436 21.6329H151.133C150.753 21.6617 150.373 21.5985 150.023 21.4486C149.674 21.2987 149.366 21.0666 149.125 20.772C148.885 20.4774 148.719 20.1291 148.642 19.7566C148.565 19.3842 148.579 18.9987 148.683 18.6329L149.367 15.7595C149.613 14.915 150.12 14.1702 150.816 13.6323C151.512 13.0943 152.361 12.791 153.24 12.7659H153.544C154.031 12.7373 154.516 12.8568 154.934 13.1087C155.352 13.3606 155.684 13.7331 155.886 14.1772L156.658 11.1646H149.816L150.12 9.89877V9.8861ZM154.152 14.2595H154.297C155.12 14.2595 155.563 15.1329 155.266 16.2026L154.867 17.6709L152.664 15.1393C152.833 14.8938 153.054 14.6883 153.311 14.5374C153.568 14.3865 153.855 14.2938 154.152 14.2659V14.2595ZM154.335 19.0064C154.167 19.2946 153.933 19.5393 153.653 19.7206C153.372 19.902 153.053 20.0151 152.721 20.0507H152.582C151.759 20.0507 151.316 19.1772 151.607 18.1076L152.101 16.2912L154.297 19.057L154.335 19.0064ZM161.424 24.2912H163.955L163.512 26.538H160.981L161.424 24.2912Z" fill="#F37321"/>
<path fill-rule="evenodd" clip-rule="evenodd" d="M59.4935 10.9616C59.3553 12.0806 59.131 13.1873 58.8226 14.2718C58.1897 15.6578 58.1897 15.6578 57.7403 16.43C56.9369 17.5752 55.9928 18.615 54.9302 19.5249C53.9302 20.2971 53.9302 20.2971 52.8226 21.0566C51.4845 21.8058 50.1046 22.4778 48.6897 23.0692C48.1139 23.1944 47.5551 23.3877 47.0251 23.6452C47.0251 23.7844 47.0251 23.7844 47.0631 23.8287C48.797 24.0131 50.4583 24.6241 51.8985 25.6072C52.635 26.1969 53.3151 26.8538 53.9302 27.5692C54.6346 28.5662 55.2049 29.6514 55.6264 30.7971C55.7276 31.2718 55.8352 31.7338 55.9365 32.1958C56.0061 32.949 56.0061 33.6958 56.0061 34.449C55.7433 36.5839 54.9894 38.629 53.8036 40.4237C53.0504 41.4743 53.0504 41.4743 52.3099 42.411C51.0441 43.7528 49.4618 45.2654 47.753 46.0376C46.4871 46.968 44.8226 47.5502 43.3922 48.1452C42.4871 48.4047 41.5441 48.7148 40.6454 48.9996C39.8771 49.1069 39.1162 49.2612 38.3669 49.4617C37.6983 49.5004 37.0326 49.5786 36.3732 49.6958C27.2656 50.0756 18.0694 49.9047 8.96182 49.9173C8.86688 49.7275 8.79726 49.4553 9.03777 49.3477C13.4049 49.1642 17.8036 48.9553 22.1643 48.8034C23.0394 48.8384 23.9159 48.8003 24.7846 48.6895C27.6865 48.6407 30.5824 48.4103 33.4555 47.9996C33.6264 47.9173 34.3985 47.7654 35.5504 47.4553C41.2466 45.6199 46.3922 42.0186 48.7719 36.373C48.8463 36.0948 48.9503 35.8253 49.0821 35.5692C49.2086 34.9363 49.3352 34.3034 49.4745 33.6705C49.5061 32.1009 49.5061 32.1009 49.4745 31.487C49.2745 29.947 48.7033 28.4787 47.8099 27.2085C47.4175 26.7654 47.0251 26.3287 46.6454 25.892C44.9325 24.409 42.8043 23.4896 40.5504 23.2591C40.5504 23.0756 40.6074 23.0502 40.772 22.9553C41.2527 22.842 41.7228 22.6874 42.177 22.4933C45.9745 20.8477 49.3352 18.6388 51.4682 15.0059C51.677 14.5186 51.8985 14.0249 52.1011 13.5249C52.4696 12.3155 52.7072 11.0699 52.8099 9.80974C52.7593 9.25911 52.7276 8.70213 52.6897 8.13884C52.5757 7.77808 52.4745 7.41101 52.3669 7.04392C51.9747 6.06263 51.3844 5.17277 50.6327 4.42999C49.341 3.37496 47.8258 2.62819 46.2023 2.24644C46.1972 2.20864 46.1972 2.17032 46.2023 2.13252C47.117 2.044 48.0389 2.06311 48.9492 2.18948C49.5596 2.3067 50.1769 2.38491 50.7973 2.42365L52.2656 2.73379C53.828 3.10958 55.3139 3.7519 56.658 4.63253L57.8479 5.69581C58.1707 6.19581 58.4808 6.67683 58.8162 7.16417C58.9681 7.63886 59.1264 8.10088 59.2909 8.5629C59.3859 9.3667 59.4745 10.1642 59.4998 10.9869L59.4935 10.9616ZM46.5378 8.86037C46.2466 10.4743 46.2466 10.4743 46.0188 11.5123C45.4833 12.9022 44.7775 14.2203 43.9175 15.4363L43.7909 15.5059C41.3961 18.1726 38.3395 20.1595 34.9302 21.2654C34.234 21.43 34.234 21.43 34.1517 21.487V21.6452C34.3859 21.8794 34.8352 21.8351 35.1327 21.8414C35.3571 21.9175 35.592 21.9581 35.8289 21.9616C37.1117 22.3395 38.3443 22.8707 39.4998 23.5439C39.5884 23.6578 40.1327 24.0376 41.0314 24.854C41.2973 25.1831 41.5631 25.4869 41.8289 25.8034C42.3714 26.632 42.8133 27.5222 43.1454 28.4553C43.2466 28.9426 43.3542 29.43 43.4555 29.8983C43.5053 30.5299 43.5201 31.1638 43.4998 31.7971C43.3859 32.468 43.2719 33.1262 43.1707 33.7844C42.9935 34.1768 42.9238 34.487 42.6137 35.2844C41.9491 36.658 41.1202 37.9459 40.1454 39.1199C38.9137 40.372 37.5893 41.5293 36.1833 42.5819C35.8967 42.6806 35.6337 42.838 35.4112 43.0439C33.2647 44.198 31.0221 45.1637 28.7086 45.93C27.2529 46.2275 25.7973 46.5059 24.3226 46.7021C21.5947 46.8477 21.5947 46.8477 20.8226 46.93C18.4302 46.9996 9.18967 47.4616 9.02512 47.43C8.96957 47.3338 8.94032 47.2246 8.94032 47.1135C8.94032 47.0024 8.96957 46.8933 9.02512 46.7971C11.4935 46.0819 14.0378 45.2528 16.5378 44.6389C16.7466 44.5439 20.9682 43.335 21.3859 43.1705C23.2846 42.7781 25.139 42.0439 27.0061 41.5566C27.4239 41.4047 29.6643 40.7971 31.7403 40.1705C33.5757 39.7338 35.5378 39.1578 37.3036 38.5439C37.368 38.4401 37.3928 38.3165 37.3732 38.1958L37.234 38.0946C37.0631 38.0946 34.6707 38.7275 23.4998 41.4047C23.4563 41.4367 23.4096 41.4643 23.3606 41.4869C21.3099 41.8794 19.253 42.4806 17.2087 42.9427C17.0504 42.9996 16.8985 43.0566 16.7466 43.1009C8.99346 44.949 8.99346 44.949 8.81625 44.9996H8.60106C8.4365 44.7908 8.34789 44.7591 8.37953 44.468C9.03579 44.0366 9.71393 43.6394 10.4112 43.2781C10.7783 43.1199 14.3226 41.1072 14.6833 40.949C17.4998 39.2654 20.4302 37.7085 23.2593 36.0439C25.6327 34.7781 28.0251 33.3794 30.4049 32.0756L30.6454 31.8857C32.4555 30.9616 34.2213 29.9173 35.9998 28.9237C36.8549 28.5415 37.671 28.0773 38.4365 27.5376C38.4665 27.4977 38.4858 27.4507 38.4924 27.4013C38.4991 27.3518 38.4929 27.3015 38.4744 27.2551C38.456 27.2087 38.426 27.1678 38.3872 27.1363C38.3484 27.1049 38.3022 27.084 38.253 27.0756C36.5314 27.9616 34.8226 28.854 33.1137 29.7275C32.9174 29.7816 32.7328 29.8718 32.5694 29.9933C27.677 32.5249 27.677 32.5249 27.2719 32.6642C26.7213 32.9933 25.2403 33.7338 25.1137 33.8414C22.9935 34.8983 20.8542 36.0186 18.7846 37.1515C18.7203 37.171 18.6548 37.1857 18.5884 37.1958C17.4492 37.9616 16.0567 38.4616 14.8859 39.1958C12.8416 40.2085 10.753 41.2591 8.74663 42.3604C8.51246 42.4173 6.9555 43.4869 7.12638 42.4363C7.84157 41.7718 8.56309 41.0882 9.27828 40.4047C9.53863 40.1215 9.82466 39.863 10.1327 39.6325C10.9047 38.709 11.7796 37.8766 12.7403 37.1515C12.7973 37.0692 12.8669 36.9933 12.9365 36.8983C14.8036 35.1768 16.6833 33.3983 18.4745 31.5882C23.8162 26.4743 29.1876 21.3878 34.5884 16.3287C34.7331 16.1058 34.9255 15.9177 35.1517 15.7781C38.4302 12.6135 38.639 12.392 42.5188 8.70214C42.7719 8.50594 42.772 8.50594 42.8669 8.3667C42.8669 7.73379 42.4935 8.0186 42.1454 8.27177C41.1897 9.23379 40.1517 10.0946 39.1707 11.0186C38.8036 11.5376 38.1454 11.9237 37.7023 12.43C36.7342 13.4085 35.7024 14.3218 34.6137 15.1642C33.8217 15.9638 32.9759 16.7081 32.0821 17.392C29.0125 20.3351 25.6517 23.0123 22.5884 25.9806C21.0884 27.1578 19.7909 28.6578 18.2719 29.8097C17.8669 30.2528 17.8669 30.2528 15.1517 32.7781L14.8669 32.9743C11.8416 35.7654 8.73397 38.5123 5.65169 41.2401C5.31624 41.2401 5.22764 41.1578 5.25929 40.7971C8.95549 35.4237 12.658 30.0376 16.3099 24.6199C17.7846 22.3794 19.253 20.0819 20.8226 17.8983C21.9302 16.2591 22.0188 16.0756 22.4112 15.5439C25.2656 11.3097 28.253 7.06291 31.0441 2.7781C31.3795 2.44266 31.2909 2.22746 30.8416 2.27176C28.4745 5.59455 26.0125 8.88569 23.6833 12.2465C23.2909 12.7401 22.5314 13.8604 14.6011 24.9743C14.4238 25.2781 11.5757 29.1642 11.3669 29.4047C8.83523 32.9806 6.25296 36.5819 3.64537 40.1009C3.50613 40.2085 3.36687 40.3224 3.19599 40.2085V39.873C5.05042 35.0313 6.99347 30.1642 9.0441 25.3857C12.0125 17.949 14.9555 10.4743 17.9682 3.05025C17.9715 2.94403 17.9354 2.84031 17.8669 2.7591C17.8135 2.75552 17.76 2.76325 17.7098 2.78179C17.6596 2.80033 17.6139 2.82927 17.5757 2.8667C15.2909 8.01227 12.9112 13.1515 10.6137 18.2844C10.5188 18.411 8.08208 23.8287 7.40486 25.2085C7.10107 25.9363 6.86056 26.3794 6.55043 27.1072C4.57575 31.2654 2.69599 35.4996 0.803584 39.7021C0.693863 39.7583 0.57239 39.7875 0.449155 39.7875C0.325921 39.7875 0.204448 39.7583 0.0947266 39.7021C0.352165 38.4441 0.673265 37.1998 1.05676 35.9743C1.13904 35.7971 1.40485 34.7085 1.4808 34.5313C1.55042 34.1452 1.63271 33.9616 2.55676 30.3983C3.0441 28.6199 3.5251 26.8414 4.0251 25.0629C4.08839 24.6832 8.63904 8.32873 8.67069 8.07557C8.82259 7.55658 8.97447 7.03758 9.1327 6.51859C9.71498 4.22745 10.3226 2.08822 10.7973 0.271759C10.838 0.170459 10.9115 0.0857606 11.0061 0.03125C19.1074 0.03125 27.2213 0.03125 35.3226 0.03125C37.8305 0.108091 40.3017 0.655579 42.6074 1.64519C42.8613 1.84655 43.1399 2.01458 43.4365 2.14519C43.972 2.52831 44.4776 2.95147 44.9492 3.41101C45.2023 3.78443 45.4618 4.15152 45.7213 4.51861C45.8732 4.90468 46.0251 5.28443 46.1833 5.66418C46.3036 6.22114 46.4175 6.77176 46.5314 7.31607C46.5314 7.8224 46.5314 8.31606 46.5314 8.81606L46.5378 8.86037Z" fill="#F37321"/>
</svg>
