<svg width="144" height="50" viewBox="0 0 144 50" fill="none" xmlns="http://www.w3.org/2000/svg">
<g clip-path="url(#clip0_68_532)">
<path fill-rule="evenodd" clip-rule="evenodd" d="M94.1523 0.0136719H112.777C119.039 0.0136719 126.381 5.45317 126.381 11.9508C126.381 13.45 126.483 14.5758 126.381 16.3186C126.178 19.7663 122.998 23.6254 120.949 23.6254C124.137 23.6254 127.325 28.1962 128.107 31.357C130.002 39.04 125.972 49.9785 112.777 49.9785H94.1523V0.0136719ZM104.141 9.13361H111.448C114.195 9.13361 116.441 11.4637 116.441 14.316V15.0575C116.441 17.4931 114.517 19.4957 112.162 19.4957H109.156V28.7374H112.674C115.859 28.7374 118.462 31.4436 118.462 34.7425C118.462 38.0441 115.859 40.7476 112.674 40.7476H104.141V9.13361Z" fill="#271E79" stroke="black" stroke-width="0.0416863" stroke-miterlimit="22.93"/>
<path fill-rule="evenodd" clip-rule="evenodd" d="M49.41 24.7375C49.3992 19.9241 47.9825 15.2188 45.3341 11.1995C42.6856 7.18027 38.9207 4.02224 34.502 2.11346C30.0832 0.20468 25.2031 -0.371707 20.4613 0.455121C15.7194 1.28195 11.3224 3.47598 7.81046 6.76762C4.29851 10.0593 1.82462 14.3051 0.692755 18.9835C-0.439112 23.662 -0.179655 28.5691 1.43926 33.1021C3.05817 37.6351 5.96602 41.5964 9.8055 44.4993C13.645 47.4023 18.2489 49.1204 23.0515 49.4426V30.3096C21.6963 29.9238 20.5264 29.061 19.7574 27.8804C18.9884 26.6997 18.6721 25.2809 18.8669 23.8855C19.0617 22.49 19.7545 21.212 20.8174 20.2872C21.8804 19.3623 23.2419 18.8529 24.6508 18.8529C26.0598 18.8529 27.4213 19.3623 28.4843 20.2872C29.5472 21.212 30.24 22.49 30.4348 23.8855C30.6296 25.2809 30.3133 26.6997 29.5443 27.8804C28.7753 29.061 27.6053 29.9238 26.2502 30.3096V49.4426C32.5249 49.0337 38.4091 46.2533 42.7091 41.6653C47.0091 37.0774 49.4028 31.0255 49.4046 24.7375H49.41Z" fill="#00B6F0"/>
<path fill-rule="evenodd" clip-rule="evenodd" d="M84.4145 14.4377L88.9068 5.45581C80.4039 -2.49505 64.2505 -2.14324 58.9842 9.24451C57.5797 12.2782 57.6311 15.6393 58.968 19.1736C59.6148 20.8785 60.7785 23.0056 62.6241 24.5292C63.5686 25.3086 67.1922 27.1055 70.123 28.4343C72.8671 29.6764 76.6423 30.5695 78.3743 33.0186C80.3552 35.8195 79.132 39.2781 74.5368 39.9086C71.9632 40.2604 68.1312 39.1915 62.4211 34.5828L56.3809 42.4876C75.595 59.2391 93.3207 44.5714 89.1666 31.5356C88.1112 28.2259 85.9381 25.6793 83.2481 23.7363C79.0887 20.7297 74.7452 19.9151 71.8442 18.6513C66.4101 16.2834 67.1787 9.61526 74.7128 10.0239C79.4811 10.281 81.0128 11.6476 84.4145 14.4513V14.4377Z" fill="#271E79" stroke="black" stroke-width="0.0416863" stroke-miterlimit="22.93"/>
<path fill-rule="evenodd" clip-rule="evenodd" d="M133.086 0.0136719H143.619V49.9866H133.086V0.0136719Z" fill="#271E79" stroke="black" stroke-width="0.0416863" stroke-miterlimit="22.93"/>
</g>
<defs>
<clipPath id="clip0_68_532">
<rect width="143.632" height="50" fill="white"/>
</clipPath>
</defs>
</svg>
