<svg width="197" height="50" viewBox="0 0 197 50" fill="none" xmlns="http://www.w3.org/2000/svg">
<g clip-path="url(#clip0_68_522)">
<path d="M0 50H49.6291V0H0V50Z" fill="#176FC1"/>
<path d="M50.9092 49.9997H196.16V0.101562H50.9092V49.9997Z" fill="#176FC1"/>
<path d="M183.927 35.9785V36.1312V36.2912V36.4439L183.869 36.5967L183.826 36.7421L183.76 36.8876L183.68 37.0112L183.607 37.1494L183.513 37.2658L183.411 37.3821L183.302 37.4767L183.178 37.5639L183.12 37.6149L183.047 37.6512H182.989L182.931 37.6876H182.851L182.786 37.7239H182.706H182.633H182.502H182.269H182.117H182.051H181.993H181.927H181.862H181.811L181.746 37.6876H181.695L181.651 37.6512L181.6 37.6003L181.549 37.5567L181.513 37.513V37.4621L181.469 37.4185L181.404 37.3021L181.353 37.1858L181.309 37.0476V36.9239V36.4803V36.3276L181.353 36.1676V36.0148L181.411 35.8767L181.484 35.7458L181.549 35.6076L181.637 35.4767L181.738 35.3748L181.84 35.2512L181.949 35.1349L182.066 35.0476L182.124 35.0112L182.189 34.9676L182.262 34.9312L182.327 34.8949H182.386H182.473H182.531H182.611H182.735H182.975H183.062H183.12H183.193H183.237H183.309H183.367H183.426L183.484 34.9385H183.535L183.571 34.9894L183.629 35.033H183.666V35.0985L183.702 35.1494L183.76 35.2585L183.818 35.3821V35.513V35.6512V35.9276L183.927 35.9785ZM184.466 32.873L184.342 33.5494L184.284 33.4549L184.218 33.353L184.153 33.2803L184.087 33.193L183.993 33.1276L183.92 33.0476L183.833 32.9894L183.724 32.9385L183.622 32.8876L183.535 32.8294L183.433 32.793L183.324 32.7494H183.229H183.12H183.011H182.895H182.502H182.349H182.189H182.037H181.877L181.738 32.8003L181.578 32.8512L181.433 32.9239L181.28 32.9821L181.149 33.0621L180.997 33.164L180.873 33.2512L180.727 33.353L180.604 33.4694L180.466 33.593L180.349 33.7239L180.204 33.8548L180.102 34.0003L179.986 34.1458L179.877 34.2912L179.782 34.4439L179.68 34.5967L179.578 34.7421L179.506 34.8949L179.426 35.0621L179.367 35.2221L179.295 35.3821L179.222 35.5567V35.7239L179.164 35.913L179.113 36.0803V36.2694V36.4367V36.6185V36.793V37.4621L179.149 37.6149V37.7821L179.193 37.9421V38.0803L179.244 38.2403L179.309 38.393L179.353 38.5239L179.426 38.6621L179.506 38.8003L179.578 38.9312L179.666 39.0476L179.767 39.164L179.869 39.273L179.964 39.3676L180.073 39.4621L180.189 39.5348L180.306 39.6149L180.437 39.673L180.56 39.7312L180.691 39.7749L180.829 39.8185H180.967H181.142H181.295H181.455H181.542H181.593H181.753H181.877H182L182.102 39.7821H182.233L182.357 39.7458L182.487 39.6803L182.589 39.6294H182.647L182.713 39.593L182.829 39.5203L182.938 39.4476L183.033 39.3676L183.135 39.2803L183.229 39.1785L183.331 39.0621L183.404 38.953L183.258 39.6803H185.353L186.611 32.8803L184.466 32.873ZM179.077 30.9094L179.142 30.7858L179.2 30.6694L179.258 30.5458L179.295 30.4076L179.338 30.2476V29.7239V29.6149L179.295 29.4912L179.251 29.3894L179.186 29.2949L179.106 29.193L179.04 29.1203L178.953 29.0403L178.858 28.9894L178.764 28.9385H178.662H178.553H178.32H178.197H178.073L177.971 28.9821L177.862 29.0476L177.746 29.113L177.637 29.193L177.527 29.2876L177.426 29.3894L177.346 29.4912L177.258 29.6149L177.2 29.7312L177.127 29.8548L177.084 29.9858L177.033 30.1094V30.2549V30.3858V30.5239V30.6476V30.7639V30.8876L177.077 30.9894L177.127 31.0985L177.2 31.2076L177.273 31.3021L177.331 31.3821L177.433 31.4549L177.513 31.5058L177.622 31.5567H177.724H178.182H178.298L178.407 31.5058L178.524 31.4549L178.64 31.3821L178.742 31.3021L178.837 31.2076L178.946 31.0985L179.04 30.9894L179.077 30.9094ZM175.375 39.6367L176.618 32.8367H178.735L177.469 39.7021L175.375 39.6367ZM172.698 35.9421V36.0949V36.2549L172.655 36.4076L172.611 36.5603L172.56 36.7058L172.502 36.8512L172.422 36.9749L172.327 37.113L172.247 37.2294L172.146 37.3458L172.022 37.4403L171.913 37.5276L171.84 37.5785L171.797 37.6149H171.724L171.651 37.6512H171.586L171.513 37.6876H171.455H171.375H171.258H170.946H170.887H170.793H170.72H170.611H170.538H170.495L170.429 37.6512H170.386L170.335 37.6149L170.298 37.5639L170.24 37.5203L170.197 37.4767V37.4258L170.16 37.3821L170.102 37.2658L170.037 37.1494L170 37.0112V36.8876V36.7494V36.6039V36.4439V36.2912L170.037 36.1312L170.073 35.9785L170.138 35.8403L170.197 35.7094L170.269 35.5712L170.349 35.4403L170.451 35.3385L170.553 35.2148L170.669 35.0985L170.793 35.0112L170.858 34.9749L170.917 34.9312L170.975 34.8949L171.04 34.8585H171.113H171.178H171.266H171.317H171.44H171.76H171.833H171.906H171.964H172.037H172.102H172.153H172.211L172.262 34.9021H172.298L172.349 34.953L172.393 34.9967H172.444L172.48 35.0621V35.113L172.538 35.2221L172.597 35.3458L172.633 35.4767V35.6149V35.753L172.698 35.9421ZM173.993 28.633L173.098 33.513L173.047 33.4185L172.982 33.3167L172.924 33.2439L172.837 33.1567L172.677 33.0112L172.589 32.953L172.487 32.9021L172.393 32.8512L172.298 32.793L172.189 32.7567L172.095 32.713H171.986L171.767 32.6694H171.666H171.28H171.12H170.946H170.8H170.64L170.487 32.7203L170.342 32.7712L170.197 32.8439L170.044 32.9021L169.906 32.9821L169.76 33.0839L169.622 33.1712L169.498 33.273L169.36 33.3894L169.229 33.513L169.098 33.644L168.975 33.7749L168.851 33.9203L168.749 34.0658L168.633 34.2112L168.538 34.3639L168.429 34.6112L168.349 34.7567L168.269 34.9094L168.182 35.0767L168.102 35.2367L168.051 35.3967L167.978 35.5712L167.935 35.7385L167.877 35.9276L167.833 36.0949V36.2839V36.4512V36.633V36.8076V37.3167V37.4767V37.6294L167.869 37.7967L167.906 37.9567L167.942 38.0949L167.993 38.2549L168.044 38.4076L168.102 38.5385L168.167 38.6767L168.247 38.8149L168.335 38.9458L168.429 39.0621L168.509 39.1785L168.611 39.2876L168.713 39.3821L168.822 39.4767L168.931 39.5494L169.047 39.6294L169.178 39.6876L169.302 39.7458L169.447 39.7894L169.586 39.833H169.731H169.884H170.044H170.189H170.298H170.466H170.575H170.698L170.829 39.7967H170.946L171.062 39.7603L171.178 39.6948L171.317 39.644H171.353L171.433 39.6076L171.535 39.5348L171.651 39.4621L171.738 39.3821L171.847 39.2949L171.942 39.193L172.029 39.0767L172.131 38.9676L171.986 39.6948H174.095L176.109 28.6912L173.993 28.633ZM166.975 34.2112V34.8803V35.1785V35.3385V35.484L166.153 39.7021H164.066L164.669 36.3785V36.2985V36.2403V36.0658V35.993V35.8694V35.7312V35.6294V35.3385V35.2439V35.1494V35.0548V34.9676V34.9312V34.8803V34.8439H164.618H164.575L164.495 34.8003H164.393H164.277H163.927H163.847H163.789H163.717H163.658L163.6 34.8367H163.542H163.491L163.44 34.873L163.375 34.9167L163.338 34.9676L163.287 35.0185L163.244 35.0694L163.207 35.1203L163.135 35.2439L163.062 35.3748L162.997 35.4985L162.931 35.6367L162.88 35.7749L162.837 35.913V36.073V36.2258L162.029 39.7021H159.927L161.171 32.9021H163.273L163.106 33.7676L163.237 33.6221L163.36 33.4985L163.477 33.3676L163.593 33.2585L163.724 33.164L163.847 33.0694L163.964 32.9894L164.095 32.9239L164.218 32.873L164.342 32.8221L164.48 32.7785H164.618H164.757H164.895H165.047H165.484H165.629H165.753L165.862 32.8149L165.986 32.8512L166.087 32.8949H166.197L166.277 32.9603L166.364 33.0112L166.444 33.0839L166.604 33.2294L166.662 33.3167L166.713 33.3967L166.757 33.4912L166.807 33.593L166.844 33.6876V33.804L166.88 33.9058V34.0221V34.1458V34.2621L166.975 34.2112ZM158.073 29.6803L156.233 39.7021H158.502L160.335 29.7094L158.073 29.6803ZM153.338 28.6694L153.237 28.633H153.135H153.018H152.924H152.531H152.378H152.233H152.087L151.935 28.6912L151.804 28.7276L151.637 28.7785L151.498 28.8439L151.353 28.9239L151.215 29.004L151.069 29.0912L150.938 29.1858L150.807 29.2949L150.677 29.4039L150.546 29.5276L150.429 29.6585L150.364 29.7094L150.313 29.7749L150.269 29.8403L150.226 29.8839L150.175 29.9494L150.131 30.0076L150.087 30.073L150.051 30.1167L149.971 30.2403L149.906 30.3421L149.84 30.4512L149.789 30.5676L149.738 30.6912L149.702 30.8003L149.651 30.9094V31.0185L149.593 31.2585L149.527 31.5058L149.477 31.7603L149.426 32.0294L149.266 32.8949H148.538L148.167 34.8803H148.895L147.986 39.7021H150.095L150.982 34.8876H152.437L152.807 32.9021H151.353L151.542 31.8185L151.578 31.673V31.5494L151.615 31.4185L151.658 31.3021L151.702 31.2076L151.746 31.113L151.804 31.0185L151.84 30.9458L151.898 30.873L151.957 30.8294L152.029 30.7785H152.102L152.189 30.7349H152.262H152.364H152.597H152.662H152.72H152.786H152.837H152.902L152.967 30.7712H153.011H153.062H153.113H153.157L153.535 28.713L153.447 28.6621L153.338 28.5967V28.6694ZM145.287 35.9785V36.1312V36.2912V36.4439L145.251 36.5967L145.186 36.7421L145.12 36.8876L145.047 37.0112L144.967 37.1494L144.778 37.3821L144.662 37.4767L144.538 37.5639L144.48 37.6149L144.422 37.6512H144.357L144.284 37.6876H144.218L144.146 37.7239H144.087H144H143.869H143.557H143.506H143.433H143.36H143.295H143.229H143.171L143.113 37.6876H143.069L143.018 37.6512L142.967 37.6003L142.924 37.5567L142.887 37.513L142.807 37.4185L142.735 37.3021L142.691 37.1858L142.655 37.0476V36.9239V36.7858V36.4803V36.3276L142.691 36.1676L142.735 36.0148L142.786 35.8767L142.844 35.7458L142.917 35.6076L143.004 35.4767L143.106 35.3748L143.207 35.2512L143.324 35.1349L143.44 35.0476L143.506 35.0112L143.557 34.9676L143.629 34.9312L143.702 34.8949H143.76H143.833H143.898H143.971H144.102H144.415H144.48H144.553H144.618H144.684H144.735H144.8H144.851L144.917 34.9385H144.96L145.018 34.9894L145.055 35.033L145.098 35.0985L145.135 35.1494L145.186 35.2585L145.229 35.3821L145.28 35.513V35.6512V35.7894V35.9276L145.287 35.9785ZM147.527 35.0985V34.9239L147.491 34.7494L147.455 34.5894L147.411 34.4294L147.346 34.2767L147.273 34.1239L147.207 33.993L147.113 33.8548L147.011 33.7312L146.902 33.6003L146.793 33.4985L146.677 33.3821L146.56 33.2803L146.437 33.1858L146.175 33.033L146.029 32.953L145.884 32.8949L145.738 32.8367L145.586 32.7858L145.433 32.7421H145.273H145.12H144.946H144.597H144.429H144.247H144.073H143.942H143.76L143.6 32.7858L143.426 32.8294L143.258 32.8876L142.924 33.0258L142.771 33.0985L142.604 33.1858L142.451 33.273L142.284 33.3748L142.131 33.4912L141.964 33.593L141.818 33.7239L141.687 33.8476L141.542 33.9858L141.404 34.1167L141.287 34.2694L141.171 34.4221L141.062 34.5821L140.858 34.9167L140.786 35.0912L140.706 35.2876L140.633 35.4549L140.56 35.6585L140.502 35.8621L140.458 36.0585L140.415 36.2839V36.5021V36.713V36.9094V37.2876V37.4694V37.6512L140.451 37.8258L140.502 37.9858L140.553 38.1458L140.611 38.2839L140.677 38.4367L140.764 38.5821L140.844 38.7058L140.938 38.8367L141.047 38.953L141.157 39.0694L141.273 39.1712L141.404 39.273L141.535 39.3676L141.666 39.4476L141.789 39.5276L141.942 39.5858L142.087 39.6585L142.226 39.7094L142.378 39.7676H142.524L142.684 39.804H142.851H143.026H143.2H143.367H143.549H143.724H143.891H144.029L144.211 39.7676H144.386L144.429 39.7021L144.604 39.644L144.764 39.5785L144.938 39.5203L145.091 39.4403L145.411 39.2658L145.571 39.164L145.738 39.0476L145.884 38.9385L146.182 38.6985L146.32 38.5603L146.451 38.4294L146.567 38.2694L146.684 38.1167L146.793 37.9712L146.895 37.7967L146.982 37.6367L147.077 37.4549L147.164 37.273L147.229 37.0912L147.295 36.8876L147.353 36.7058L147.397 36.4803L147.484 36.0512V35.8548V35.6512V35.0839L147.527 35.0985ZM134.306 32.8367L131.687 35.2949L132.909 28.633H130.829L128.815 39.6294H130.895L131.411 36.8658L133.186 39.6294H136.095L133.629 35.993L137.164 32.8658L134.306 32.8367ZM128.24 34.1821V34.0585V33.9349V33.8258V33.7094V33.6003L128.204 33.5058L128.16 33.4112L128.117 33.3094L128.058 33.2221L127.993 33.1349L127.927 33.0694L127.847 32.9894L127.775 32.9239L127.68 32.873L127.586 32.8149L127.484 32.7712L127.375 32.7349L127.258 32.6985H127.149H127.018H126.887H126.742H126.444H126.306H126.153H126.022H125.884L125.746 32.7349L125.491 32.8439L125.36 32.9094L125.237 32.9894L125.12 33.0767L124.997 33.1785L124.873 33.2876L124.749 33.4185L124.633 33.5494L124.517 33.6876H124.48L124.655 32.8221H122.553L121.309 39.6149H123.397L124.044 36.1021V35.9494L124.087 35.7967L124.124 35.6512L124.189 35.5058L124.24 35.3748L124.306 35.2512L124.364 35.1203L124.451 34.9967L124.487 34.9385L124.575 34.8367L124.626 34.8003L124.677 34.7494H124.727H124.778L124.844 34.713H124.909H124.967H125.033H125.098H125.171H125.527H125.637H125.746L125.833 34.7567H125.869H125.906L125.942 34.793V34.8367V34.873V34.9167V35.004V35.0985V35.193V35.2876V35.5785V35.6803V35.7458V35.8185V35.8767V35.9494V36.0003V36.073V36.1312V36.2039V36.313L125.338 39.6221H127.433L128.211 35.433V35.2876V35.1276V34.9894V34.8367V34.7058V34.5603V34.4294V34.2985V34.1748L128.24 34.1821ZM118.415 35.9421V36.0876V36.2476L118.378 36.4076L118.327 36.5603L118.277 36.7058L118.211 36.8512L118.138 36.9821L118.058 37.1058L117.964 37.2148L117.862 37.3385L117.746 37.4403L117.629 37.5276L117.564 37.5712L117.513 37.6149H117.44L117.367 37.6512H117.302H117.244H117.164H117.091H116.967H116.815H116.735H116.589H116.517H116.444H116.393H116.327H116.269L116.204 37.6149H116.16L116.117 37.5712L116.066 37.5203L116.022 37.484L115.971 37.433L115.927 37.3821V37.3312L115.862 37.2294L115.811 37.0985L115.775 36.9749V36.8439V36.713V36.553V36.4076V36.2403V36.0876L115.811 35.9421L115.877 35.804L115.942 35.6658L116.015 35.5421L116.087 35.4039L116.189 35.2876L116.298 35.1712L116.407 35.0621L116.531 34.9676L116.589 34.9239L116.647 34.8876L116.72 34.8512H116.786H116.851H116.924H116.997H117.084H117.215H117.52H117.6H117.666H117.731H117.797H117.862L117.92 34.8876H117.978L118.022 34.9239L118.08 34.9676L118.117 35.0112L118.167 35.0548L118.211 35.0912V35.1567L118.247 35.2003L118.313 35.324L118.364 35.4403L118.4 35.5639V35.7094V35.9858L118.415 35.9421ZM118.829 33.5058L118.771 33.4112L118.706 33.3167L118.64 33.2439L118.56 33.164L118.495 33.0839L118.4 33.004L118.313 32.953L118.211 32.8949L118.117 32.8439L118.015 32.793L117.92 32.7494H117.811H117.709H117.6H117.491H117.389H117.324H116.997H116.829H116.677H116.517L116.364 32.7858L116.218 32.8294L116.066 32.8876L115.913 32.953L115.767 33.0185L115.629 33.0985L115.484 33.193L115.353 33.2876L115.215 33.3967L115.084 33.513L114.953 33.6367L114.822 33.7603L114.698 33.8912L114.582 34.0294L114.473 34.1821L114.357 34.3276L114.255 34.473L114.167 34.6258L114.08 34.7858L113.993 34.9312L113.913 35.0985L113.847 35.2585L113.775 35.4258L113.717 35.593L113.658 35.7676L113.607 35.9421L113.564 36.1239V36.2985V36.473V36.6621V36.8294V37.3458V37.4985V37.6512V37.8185L113.6 37.9785L113.637 38.1167L113.687 38.2694L113.731 38.4294L113.804 38.5603L113.877 38.6985L113.957 38.8294L114.022 38.9749L114.211 39.2003L114.298 39.3094L114.407 39.4039L114.517 39.4985L114.633 39.5785L114.749 39.6512L114.873 39.7021L115.004 39.7676L115.135 39.804L115.28 39.8476H115.426H115.571H115.731H116.066H116.189H116.313H116.429H116.553L116.669 39.8112L116.793 39.7021L116.902 39.6512L117.018 39.5858H117.077H117.149L117.266 39.5058L117.36 39.4258L117.477 39.3385L117.571 39.2512L117.666 39.1494L117.76 39.0403L117.847 38.9312L117.709 39.6585H119.804L121.055 32.8658H118.975L118.829 33.5058ZM110.633 32.4658V32.6039V32.7494V32.8876L110.575 33.004L110.524 33.1058L110.487 33.164L110.444 33.2003V33.2439L110.4 33.2803H110.357H110.298H110.255L110.153 33.324L110.051 33.3603H109.949H109.847H109.746H109.644H109.513H109.433H109.382H109.12L109.484 31.4258H110.058H110.146H110.24H110.32L110.415 31.4621L110.495 31.5058H110.582H110.618V31.5567V31.6076V31.6585V31.6948V31.8112V31.9276L110.633 32.4658ZM110.517 36.2839V36.4294V36.5967V36.7349L110.48 36.8658L110.429 36.9821L110.371 37.0839L110.298 37.1858L110.218 37.2658L110.138 37.3385L110.044 37.3894L109.949 37.4403L109.84 37.4912L109.746 37.5276L109.527 37.5858L109.426 37.6221H109.324H109.222H108.269L108.669 35.4403H109.622H109.724H109.833H109.942H110.037L110.131 35.484L110.233 35.5203L110.32 35.5639H110.371V35.6076V35.6512V35.7021V35.7458V35.804V36.0658V36.1312V36.2621L110.517 36.2839ZM112.8 31.0258V30.9094L112.764 30.7858V30.6767L112.72 30.5749L112.669 30.4803L112.611 30.393L112.546 30.3058L112.473 30.233L112.393 30.1676L112.313 30.0949L112.226 30.0367L112.146 29.9785L112.044 29.9276L111.942 29.8767L111.84 29.8258L111.738 29.7894L111.622 29.753H111.506H111.382H111.258H111.127H110.989H107.491L105.651 39.7385H109.426H109.571H109.717H109.862H110H110.146L110.298 39.7021L110.437 39.6585L110.575 39.6221L110.713 39.5639L110.858 39.5058L110.989 39.4549L111.127 39.3967L111.28 39.3167L111.411 39.2439L111.527 39.164L111.658 39.0839L111.775 38.9821L111.898 38.8876L112.007 38.7785L112.109 38.6621L112.197 38.5385L112.284 38.4076L112.378 38.2767L112.451 38.1239L112.517 37.9712L112.582 37.804L112.647 37.6294L112.698 37.4549L112.735 37.2658L112.771 37.0839L112.822 36.8294V36.5821V36.3494V36.1239V36.0148V35.8112L112.786 35.7167L112.749 35.5276L112.677 35.353L112.633 35.2658L112.597 35.193L112.546 35.113L112.495 35.0476L112.437 34.9749L112.364 34.9239L112.306 34.8585L112.226 34.8076L112.146 34.7494L112.066 34.7058H111.971L111.884 34.6549H111.797H111.695H111.586H111.469L111.622 34.5676L111.753 34.4803L111.884 34.393L111.993 34.2912L112.109 34.1821L112.197 34.0585L112.298 33.9494L112.378 33.8112L112.451 33.673L112.517 33.5348L112.582 33.3967L112.633 33.2439L112.698 33.0912L112.735 32.9385L112.771 32.7785L112.815 32.6039V32.4294V32.2621V32.1021V31.9421V31.644V31.5203V31.3821L112.8 31.0258ZM98.1602 39.6294H100.24L102.247 28.633H100.16L98.1602 39.6294ZM95.3893 35.9421V36.0876V36.2476L95.3093 36.5603L95.2511 36.7058L95.1857 36.8512L95.1056 36.9821L95.0257 37.1058L94.9384 37.2148L94.8366 37.3385L94.7202 37.4403L94.6111 37.5276L94.5384 37.5712L94.4802 37.6149H94.4148L94.3493 37.6512H94.2838H94.2111H94.1384H94.0584H93.9275H93.7747H93.702H93.5493H93.4838H93.4111H93.3529H93.2875H93.2365L93.1784 37.6149H93.1202L93.0693 37.5712L93.0184 37.5276V37.4912L92.9747 37.4403L92.9311 37.3894V37.3385L92.8584 37.2367L92.8147 37.1058L92.7711 36.9821V36.8512V36.7203V36.5603V36.4149V36.2476L92.8075 36.0949L92.8511 35.9494L92.9093 35.8112L92.9675 35.673L93.0547 35.5494L93.1275 35.4112L93.2365 35.2949L93.3238 35.1785L93.4475 35.0694L93.5566 34.9749L93.6293 34.9312L93.6875 34.8949L93.7529 34.8585H93.8184H93.8838H93.9566H94.0293H94.1238H94.2475H94.5602H94.6329H94.7057H94.7638H94.8366H94.902L94.9529 34.8949H95.0111L95.0547 34.9312L95.1056 34.9749L95.1638 35.0185L95.2438 35.0985V35.164L95.2802 35.2076L95.3457 35.3312L95.3966 35.4476V35.5712V35.7167V35.993L95.3893 35.9421ZM95.7966 33.5058L95.7311 33.4112L95.6802 33.3167L95.6075 33.2439L95.5347 33.164L95.4547 33.0839L95.3747 33.004L95.2802 32.953L95.1857 32.8949L95.0911 32.8439L94.982 32.793L94.8875 32.7494H94.7784H94.6766L94.4729 32.7058H94.3566H94.2911H93.9638H93.8038H93.6438H93.4911L93.3384 32.7421L93.1857 32.7858L93.0329 32.8439L92.8875 32.9094L92.742 32.9749L92.6038 33.0548L92.4584 33.1494L92.3202 33.2439L92.182 33.353L92.0511 33.4694L91.9202 33.593L91.7966 33.7167L91.6729 33.8476L91.5566 33.9858L91.4329 34.1385L91.3311 34.2839L91.2293 34.4294L91.142 34.5821L91.0402 34.7421L90.9675 34.8876L90.8802 35.0548L90.8075 35.2148L90.7348 35.3821L90.6911 35.5494L90.6329 35.7239L90.582 35.8985L90.5384 36.0803V36.2549V36.4294V36.6185V36.7858V37.4549V37.6076V37.7749L90.582 37.9349L90.6256 38.073L90.6693 38.2258L90.7202 38.3858L90.8511 38.6549L90.9311 38.7858L91.0184 38.9312L91.0911 39.0403L91.2002 39.1567L91.2875 39.2658L91.3893 39.3603L91.5057 39.4549L91.6147 39.5348L91.7384 39.6076L91.862 39.6585L91.9857 39.7239L92.1238 39.7603L92.262 39.804H92.4075H92.5602H92.7129H93.062H93.1857H93.2947H93.4184H93.542L93.6584 39.7676L93.7747 39.7239L93.8984 39.673L94.022 39.6076H94.0729H94.1311L94.2475 39.5276L94.3638 39.4476L94.4656 39.3603L94.5529 39.273L94.662 39.1712L94.7493 39.0621L94.8366 38.953L94.7057 39.6803H96.7856L98.0366 32.8876H95.9202L95.7966 33.5567V33.5058ZM90.3857 32.7785H90.7929L90.3638 35.0839H90.3202L90.2475 35.0476L90.1529 35.0112H90.0729H89.9929H89.9202H89.8257H89.5493H89.3311H89.2366H89.142H89.0547H88.9602L88.8729 35.0476H88.7929L88.7202 35.0912L88.6329 35.1349L88.5748 35.1785L88.5093 35.2367L88.4438 35.2949L88.3857 35.353L88.3275 35.4185L88.2838 35.484L88.182 35.644L88.0947 35.804L88.0147 35.9785L87.942 36.1458L87.8766 36.3421L87.8184 36.5385L87.7602 36.7494L87.7238 36.953L87.2075 39.6803H85.1275L86.3857 32.8876H88.4293L88.2257 33.993L88.3275 33.8548L88.4293 33.7167L88.5457 33.593L88.6693 33.4621L88.7929 33.3603L88.9238 33.2585L89.0547 33.1785L89.3311 33.033L89.4693 32.9676L89.6147 32.9167L89.7602 32.8803L89.9057 32.8439H90.0438H90.1966L90.3857 32.7785ZM85.6729 32.8658H84.4947L84.8729 30.8149H82.7711L82.4002 32.8658H81.7238L81.3602 34.8585H82.0366L81.1566 39.6294H83.2511L84.1311 34.8294H85.3093L85.6729 32.8658ZM80.4293 34.1821V34.0585L80.3929 33.9349V33.8258V33.7094V33.6003L80.3493 33.5058L80.3129 33.4112L80.2548 33.3094L80.2038 33.2221L80.1384 33.1349L80.0729 33.0694L79.9929 32.9894L79.9202 32.9239L79.8257 32.873L79.7311 32.8149L79.6366 32.7712L79.5275 32.7349L79.4184 32.6985H79.2875H79.1638H79.0329H78.8948H78.5966H78.4511H78.2984H78.1602H78.0293L77.8984 32.7349L77.6366 32.8439L77.5129 32.9094L77.3966 32.9894L77.2656 33.0767L77.142 33.1785L77.0184 33.2876L76.902 33.4185L76.7856 33.5494L76.662 33.6876L76.8293 32.8221H74.6111L73.3529 39.6149H75.4547L76.102 36.1021V35.9494L76.1384 35.7967L76.1893 35.6512L76.2402 35.5058L76.2984 35.3748L76.3566 35.2512L76.4293 35.1203L76.5093 34.9967L76.5457 34.9385L76.5893 34.8949L76.6402 34.8367L76.6838 34.8003L76.742 34.7494H76.7856H76.8366L76.8948 34.713H76.9602L77.0911 34.6694H77.1566H77.2293H77.5784H77.702H77.7966L77.8911 34.713L77.9275 34.7494H77.9638V34.793V34.8294V34.873V34.9603V35.0548V35.1494V35.2439V35.5348V35.6367V35.7021V35.7749V35.833V35.9058V35.9567V36.0294V36.1603V36.2694L77.3529 39.5785H79.4475L80.2257 35.3894L80.2693 35.0839V34.9458V34.793V34.6621V34.2549L80.4293 34.1821ZM68.8511 35.2512H71.2729V35.1349V35.0185V34.9094V34.8221L71.2366 34.7276L71.1857 34.633L71.1275 34.553L71.062 34.4658L70.982 34.4076L70.9166 34.3494L70.8293 34.2985L70.742 34.2621H70.6547H70.5529H70.4584H70.2402H70.1311H70.0147H69.9129L69.8038 34.313L69.6947 34.3494L69.6075 34.4149L69.5057 34.473L69.4111 34.5312L69.3166 34.6258L69.2366 34.713L69.1566 34.8003L69.0984 34.9094L69.0257 35.0185L68.9675 35.1276L68.9238 35.2658L68.8511 35.2512ZM73.0984 35.0112V35.5712V35.7749V35.9785L73.062 36.1894V36.393L73.0111 36.6403H68.6475V36.8367V36.9967V37.1567V37.3021V37.433L68.6838 37.5567L68.7348 37.673V37.7239V37.7749L68.7711 37.8403L68.8075 37.8839H68.8584L68.9093 37.9203L68.9529 37.9567H69.0038H69.062H69.1275H69.1784H69.2438H69.302H69.4547H69.862H69.9275H70.0002H70.0657H70.1238L70.1966 37.9203L70.2693 37.8694L70.3275 37.8258L70.3929 37.7821L70.4584 37.7312L70.5166 37.6585L70.5893 37.593L70.6475 37.5203L70.6984 37.4403H72.7202L72.6547 37.593L72.582 37.7312L72.5166 37.8621L72.4511 38.0076L72.3711 38.1312L72.2911 38.2549L72.2038 38.3712L72.1166 38.4876L72.0293 38.5967L71.9275 38.6912L71.8329 38.793L71.702 38.9749L71.6075 39.0621L71.3747 39.2221L71.2584 39.2876L71.1347 39.3603L71.0038 39.4112L70.8875 39.4694L70.7638 39.5348L70.6475 39.5785L70.5238 39.6294L70.4002 39.673H70.2693H70.1456H70.0511H69.9202L69.7966 39.7094H69.6729H69.542H68.9384H68.7711L68.6038 39.673H68.4438L68.2911 39.6367L68.1456 39.5712L67.9929 39.5276L67.862 39.4767L67.5929 39.324L67.462 39.2367L67.2438 39.0548L67.1202 38.9458L67.0329 38.8439L66.9311 38.713L66.8366 38.5967L66.7638 38.4585L66.6984 38.3203L66.6111 38.2476L66.5529 38.1021L66.5166 37.9349L66.4802 37.7821V37.6003V37.433V36.8585V36.6549V36.4367V36.2185L66.5166 36.0148L66.5748 35.8112L66.6329 35.6076L66.6838 35.4258L66.7493 35.2367L66.822 35.0548L66.902 34.8803L66.9966 34.713L67.0911 34.5458L67.1857 34.3858L67.2729 34.233L67.3893 34.0876L67.5057 33.9421L67.6293 33.8185L67.7529 33.6803L67.8911 33.5639L68.022 33.4403L68.1602 33.3312L68.3202 33.2367L68.4584 33.1349L68.6038 33.0476L68.7566 32.9676L68.9093 32.9094L69.0693 32.8367L69.222 32.7858L69.3893 32.7203H69.5493H69.7166H69.8911H70.0147H70.0584H70.2329H70.6111H70.7856H70.9675H71.1347H71.2947L71.4475 32.7639L71.6002 32.8149L71.7457 32.8876L71.8766 32.9385L72.0002 33.0185L72.1238 33.1058L72.2329 33.193L72.342 33.3021L72.4438 33.4112L72.5311 33.5203L72.6184 33.6367L72.6984 33.7749L72.7638 33.913L72.8293 34.0439L72.8875 34.1967L72.9311 34.3494L72.9747 34.5021L73.0111 34.6694V34.8439V35.0112H73.0984ZM66.7929 29.8839L66.5675 29.7821L66.3347 29.6803L66.102 29.5858L65.8838 29.5203H65.7602L65.6293 29.484H65.5057H65.2438H65.1129H64.9893H64.8511H64.7493H64.5238H64.2984L64.0729 29.5203L63.8475 29.5712L63.622 29.6294L63.382 29.7167L63.1566 29.804L62.9238 29.8985L62.6984 30.0148L62.4729 30.1385L62.2547 30.2767L62.0438 30.4076L61.8402 30.553L61.6438 30.7276L61.4475 30.8876L61.2511 31.0548L60.8948 31.4403L60.7275 31.644L60.5529 31.8476L60.4075 32.0658L60.262 32.2767L60.0657 32.4294L59.9347 32.6694L59.8184 32.9167L59.7093 33.1567L59.6002 33.3894L59.5057 33.644L59.4329 33.8839L59.3529 34.1385L59.302 34.3858L59.2438 34.6403L59.2002 34.9239V35.193V35.4549V35.7167V35.9712V36.2258V36.473V36.7203L59.2511 36.9458L59.302 37.1858L59.382 37.4039L59.4693 37.6294L59.5638 37.8258L59.6802 38.0367L59.8038 38.233L59.942 38.4221L60.0802 38.5894L60.2329 38.7421L60.3857 38.9021L60.5457 39.0403L60.7129 39.1712L60.8875 39.2949L61.0693 39.4039L61.2511 39.4985L61.4475 39.5858L61.6511 39.6658L61.8547 39.7239L62.0511 39.7749L62.2693 39.8258H62.4802H62.6984H62.9311H63.0475H63.1566H63.3747H63.4838H63.5929H63.702H63.8111H63.9493L64.0947 39.7749L64.2402 39.7312H64.3784L64.5384 39.6803L64.6838 39.6367L64.8438 39.5712L65.0038 39.5276L65.5711 36.4149L65.4547 36.5385L65.3384 36.6476L65.222 36.7639L65.1566 36.793L65.0184 36.8876L64.8875 36.9676L64.7566 37.0621L64.6038 37.1276L64.4729 37.2076L64.3202 37.2585L64.1747 37.3094H64.0511H63.8984H63.7675H63.1056H63.0038H62.8875H62.7784L62.6766 37.2658L62.5748 37.2294L62.4729 37.1712L62.3857 37.1058L62.2984 37.0621L62.2184 36.9821L62.1384 36.9094L62.0584 36.8294L62.0002 36.7421L61.8766 36.553L61.8257 36.4512L61.7602 36.3421L61.7238 36.233L61.6875 36.1239L61.6438 36.0003V35.8912L61.6075 35.7749V34.9894V34.8512V34.6985L61.6438 34.553L61.6802 34.4221V34.2694L61.7166 34.1385L61.7675 34.0076L61.8257 33.8767L61.8693 33.753L62.0002 33.5058L62.0657 33.3821L62.1529 33.273L62.2475 33.1567L62.3347 33.0403L62.4293 32.9385L62.5166 32.8367L62.6111 32.7203L62.7057 32.6258L62.8075 32.5385L62.9166 32.4512L63.0184 32.3785L63.1202 32.313L63.2366 32.2403L63.3457 32.1821L63.462 32.1312L63.5856 32.0803L63.6947 32.0367H63.8111H63.9275H64.0511H64.1747H64.2984H64.5748H64.7129H64.8584H64.982L65.1129 32.0803L65.2438 32.1239L65.3602 32.1894L65.4838 32.2476L65.6075 32.3276L65.702 32.4076L65.8111 32.4949L65.9057 32.5894L65.9929 32.6985L66.0729 32.8076L66.1529 32.9312L66.2038 33.0548L66.7856 29.9421L66.7929 29.8839Z" fill="white"/>
<path d="M180.458 18.342L180.727 15.4983H179.069L179.142 15.6001L179.222 15.7092L179.273 15.8329L179.317 15.9565V16.0801V16.2183V16.5238V16.6329V16.7347V16.8438L179.28 16.9456L179.237 17.0401V17.1201L179.171 17.2219L179.047 17.3747L178.975 17.4692L178.88 17.5347H178.844L178.793 17.5783L178.691 17.6438L178.597 17.7092L178.487 17.7747L178.371 17.8256L178.204 17.8983L178.037 17.9565L177.862 18.0001L177.68 18.0583H177.506L177.309 18.0947H177.135H176.931V18.2692V18.4365V18.5892L176.967 18.7347L177.011 18.8728L177.069 18.9892L177.142 19.0983L177.229 19.2074L177.273 19.2438H177.317L177.367 19.2874H177.426L177.535 19.3528L177.666 19.4038L177.811 19.4474H177.957H178.109H178.291H178.437H178.611H178.764H178.815H178.909L179.055 19.3965L179.207 19.3456L179.338 19.2729L179.477 19.2001L179.615 19.1129L179.746 19.0183L179.884 18.9019L180 18.8001L180.124 18.6838L180.255 18.5456L180.364 18.4074L180.458 18.342ZM170.429 13.6147V13.251V13.142L170.393 13.0474V12.9601L170.342 12.8728L170.277 12.8074L170.226 12.7419L170.146 12.6838L170.051 12.6183L169.964 12.5819L169.862 12.5383H169.746L169.629 12.4947H169.513H169.367H169.229H169.069H168.727H168.546H168.364H168.167H167.789L167.455 12.5383H167.127L166.822 12.5819L166.538 12.6474L166.298 12.7056L166.175 12.7492H166.051L165.949 12.7856L165.855 12.8365L165.746 12.8801L165.658 12.9238L165.578 12.9747L165.498 13.0328L165.426 13.0765L165.36 13.1347L165.295 13.2001L165.237 13.2583L165.186 13.3238L165.142 13.3892V13.462L165.098 13.5274V13.6074V13.6801V13.7529V13.8401V14.2547L165.135 14.342V14.3856H165.229H165.266V14.342H170.044L169.986 14.2765L170.095 14.211L170.182 14.1456L170.262 14.051L170.335 13.971L170.393 13.8838L170.437 13.7965V13.6874V13.5783L170.429 13.6147ZM172.037 14.3783H187.92L187.804 15.4983H186.727L186.131 21.8547H184.087L184.677 15.4983H182.764L182.182 21.8547H180.124L180.255 20.4001L180.102 20.5092L179.949 20.6038L179.818 20.6983L179.673 20.771L179.506 20.8583L179.353 20.9238L179.215 20.982L179.055 21.0474L178.902 21.1056H178.793H178.749H178.597L178.291 21.1565H178.138H177.986H177.833H177.571H177.317L177.084 21.1201L176.858 21.0838L176.757 21.0474H176.64H176.546L176.444 21.011L176.342 20.9601L176.255 20.9092L176.16 20.8583L176.073 20.8074L175.978 20.7565L175.898 20.691L175.818 20.6329L175.746 20.5674L175.666 20.502L175.593 20.4292L175.527 20.3492L175.447 20.2692V20.182L175.367 20.1019L175.317 20.0147L175.258 19.9129L175.157 19.7165L175.062 19.5056L174.975 19.3383L174.909 19.1274L174.858 18.9165V18.691V18.4438V18.1892V17.6583L175.178 17.4983H175.367H175.513H175.666H175.949H176.087H176.233H176.349L176.487 17.4474L176.604 17.411L176.757 17.3456L176.88 17.2801L176.997 17.2001L177.062 17.1492V17.1056L177.106 17.0619L177.142 17.0038V16.9674V16.9092V16.8583V16.8001V16.7347V16.6692V16.3274V16.2329V16.1529V16.0801V16.0074L177.098 15.9347V15.8692L177.047 15.811L177.011 15.7601L176.946 15.7019L176.887 15.651L176.822 15.6001L176.757 15.5492H173.12L172.96 17.2801H169.287H169.207H169.157H169.113H169.077L169.011 17.331V17.3747V17.4183V17.4547V17.491V17.7238V17.7747V17.8329V17.8692H169.055L169.091 17.9056H169.142H169.193H169.317H169.389H171.695H171.891H171.978L172.073 17.9419H172.16H172.255L172.342 17.9783L172.415 18.022L172.575 18.131L172.662 18.182L172.742 18.2329L172.815 18.2983L172.895 18.371L172.96 18.4365L173.018 18.5165L173.091 18.5965L173.149 18.6547L173.193 18.7565L173.229 18.8292L173.266 18.9165V19.011V19.0983V19.1928V19.2874V19.8038V19.9347V20.0801L173.229 20.211V20.342V20.4729L173.193 20.5965L173.135 20.7201L173.077 20.8365L173.018 20.9456L172.953 21.0619L172.8 21.2656L172.713 21.3819L172.626 21.4838L172.531 21.571L172.437 21.6729L172.197 21.8474L172.066 22.2474L171.942 22.3129L171.826 22.3856L171.673 22.451L171.542 22.4947L171.389 22.5601L171.258 22.5965L171.084 22.6401L170.938 22.6765L170.618 22.7201H170.451H169.818H169.535L169.251 22.6838L168.953 22.6401L168.56 22.5601L168.175 22.4656L167.833 22.3783L167.513 22.2765L167.215 22.1747L166.953 22.0729L166.815 22.0074L166.698 21.9565L166.575 21.8838L166.48 21.8401L166.393 21.7892L166.32 21.731L166.24 21.6583L166.146 21.5929L166.066 21.5274L165.986 21.4474L165.898 21.3456L165.818 21.2656L166.509 19.571V19.6438V19.6801L166.582 19.7456L166.677 19.8256L166.8 19.9129L166.953 20.0147L167.142 20.1165L167.36 20.2474L167.607 20.371L167.869 20.502L168.109 20.6038L168.357 20.6983L168.604 20.7856L168.851 20.8438L169.091 20.8947L169.317 20.9383H169.484H169.637H169.789H170.066H170.204H170.327H170.444H170.538H170.662L170.742 20.8947H170.837L170.909 20.8583L170.982 20.8001L171.033 20.7565L171.098 20.6838L171.142 20.6256L171.178 20.5529V20.4583V20.3856V20.3201V20.2547V20.1965V20.1383V20.0801L171.142 20.0292L171.098 19.9783L171.033 19.9274L170.967 19.8765L170.917 19.8329H170.851L170.8 19.7965H170.72H170.633H168.677H168.589H168.48H168.291H168.189H168.109L168.022 19.7601L167.927 19.7165L167.746 19.6438L167.702 19.3383L167.622 19.2801L167.542 19.2292L167.447 19.1638L167.367 19.0983L167.295 19.0256L167.207 18.9601L167.135 18.8801L167.069 18.8001L167.026 18.7201L166.96 18.6401L166.917 18.5601L166.873 18.4874V18.4001V18.3056V18.2183V18.1383V17.6729V17.5856V17.491V17.4038V17.3092L166.917 17.2219L166.953 17.142L167.018 17.0619L167.062 16.982L167.127 16.9092L167.193 16.8292L167.258 16.7565L167.346 16.6838L167.426 16.6038L167.498 16.5383L167.593 16.4801L167.702 16.4292L167.884 16.342L168.073 16.2547L168.262 16.1892L168.451 16.1383H168.64H168.837H169.047H171.033L171.084 15.6001H165.266L164.662 21.9565H162.611L163.207 15.6001H162.131L162.255 14.4801H163.055V14.4147V14.3492V14.2838V14.1892V14.1092V14.022V13.9419V13.8474V13.6656L163.091 13.491V13.3092L163.135 13.1347L163.193 12.9674L163.266 12.8147L163.346 12.662L163.418 12.5238L163.52 12.3856L163.615 12.2474L163.724 12.131L163.847 12.0074L163.978 11.891L164.109 11.7747L164.255 11.6801L164.407 11.5856L164.575 11.491L164.742 11.411L164.924 11.3238L165.12 11.2583L165.317 11.1928L165.527 11.1347L165.738 11.0765L165.964 11.0256L166.197 10.9892L166.429 10.9529H166.684H166.953H167.222H167.498H168.095H168.407H168.713H169.011H169.302L169.564 10.9892L169.833 11.0328L170.08 11.0765L170.313 11.1274L170.538 11.1856L170.757 11.251L170.946 11.3238L171.135 11.4038L171.295 11.491L171.455 11.5783L171.6 11.6729L171.731 11.7747L171.818 11.8692L171.92 11.9492L172 12.051L172.073 12.1601L172.131 12.2619L172.204 12.3638L172.255 12.4874L172.298 12.611L172.357 12.8583V13.0038V13.1347V13.2874V13.4329V13.5929V13.7529V13.8401V13.9129V14.0001V14.0729V14.1383V14.1965V14.2547L172.32 14.3056L172.211 14.4292L172.037 14.3783ZM162.357 13.5201L162.466 13.4183L162.553 13.3092L162.64 13.2074L162.706 13.091L162.771 12.9601V12.8365L162.815 12.6983V12.5601V12.4074V12.2765V12.1383V12.022L162.771 11.8983L162.706 11.7892L162.633 11.6729L162.546 11.571L162.458 11.4838L162.349 11.4038L162.24 11.3238L162.131 11.2801L162.007 11.2219H161.877H161.753H161.317L161.186 11.2583L161.047 11.302L160.909 11.3456L160.786 11.4256L160.669 11.4983L160.531 11.5929L160.415 11.6874L160.327 11.8038L160.233 11.9201L160.153 12.0438L160.087 12.1674L160.044 12.3129L160.007 12.4438V12.6038V13.0183V13.0765L160.044 13.142V13.2001V13.2656L160.08 13.3165L160.117 13.3747L160.204 13.491L160.291 13.5856L160.4 13.6729L160.517 13.7529L160.618 13.8183L160.757 13.8692L160.88 13.9056H161.018H161.149H161.287H161.426H161.564H161.695L161.818 13.8619L161.949 13.8038L162.066 13.7456L162.182 13.6583L162.357 13.5201ZM153.069 15.4692H158.575L158.509 16.0729H155.797H155.586H155.397L155.207 16.1092L155.026 16.1601L154.844 16.2256L154.684 16.2983L154.517 16.3783L154.422 16.4292L154.342 16.4729L154.262 16.5383L154.182 16.6038L154.109 16.6692L154.044 16.7419L153.978 16.8074L153.927 16.8728L153.884 16.9529V17.1565L153.833 17.2365L153.789 17.3165V17.4983V17.5783V17.8838V17.9638V18.051V18.1238L153.826 18.2038L153.862 18.2765L153.92 18.3492V18.4074L153.986 18.4801L154.051 18.5456L154.117 18.611L154.197 18.662L154.269 18.7129L154.349 18.7783L154.509 18.8656L154.677 18.9456L154.844 19.011L155.018 19.0692H155.186L155.389 19.1056H155.593H157.578H157.673H157.775H157.811V19.3456V19.4329V19.5201L157.775 19.5929L157.731 19.651L157.68 19.7019L157.615 19.7456L157.535 19.7819H157.433H157.317H156.204H155.898H155.6H155.331L155.077 19.7383L154.844 19.6801L154.618 19.6147L154.422 19.5419L154.197 19.4256L153.978 19.331L153.746 19.2219L153.527 19.1201L153.273 20.4292L153.455 20.5383L153.629 20.6401L153.818 20.7129L153.993 20.7783L154.117 21.1056L154.233 21.4038L154.349 21.6801L154.458 21.9129L154.509 22.022L154.575 22.1165L154.633 22.2038L154.757 22.371L154.815 22.4365L154.866 22.4947L154.924 22.5383L155.004 22.611L155.106 22.6838L155.229 22.7347L155.353 22.7929L155.484 22.8438L155.629 22.8874H155.789L155.957 22.931H156.146L156.335 22.9674H156.538H156.764H156.989H157.237H157.477H157.957H158.102H158.211H158.255L158.415 21.6947H157.927H157.506H157.324H157.157H157.004H156.866H156.757H156.647H156.56L156.487 21.651L156.429 21.6074V21.5638V21.5201V21.4838H157.237H157.455H157.869H158.073H158.298L158.509 21.4474H158.706L158.887 21.4038L159.062 21.3528L159.2 21.2947L159.338 21.2292L159.477 21.1638L159.549 21.1129L159.607 21.0547L159.673 20.9892L159.746 20.9383L159.855 20.8147L159.898 20.7347L159.949 20.6692L160.007 20.5819V20.502V20.4219V20.3274V20.2329V20.131V20.0365V19.9347V19.811V19.3965V19.2947L159.949 19.1129L159.913 19.0256L159.877 18.9456L159.833 18.8583L159.782 18.7929L159.724 18.7201L159.666 18.6401L159.6 18.5892L159.527 18.5165L159.462 18.4583L159.382 18.4219L159.309 18.371L159.244 18.3347L159.084 18.2619L158.924 18.2038L158.742 18.1456H158.553H158.364H156.066H156H155.957H155.913L155.877 18.1092V18.0583V18.0074V17.9638V17.8619L155.913 17.7892L155.971 17.7165L156.022 17.6656L156.087 17.6292H156.16H156.24H156.349H160.444L160.618 15.8474H161.804L161.913 14.7274H153.157L153.069 15.4692ZM141.309 21.2874V21.3747V21.462V21.6801V21.7892V21.8765V21.971L141.266 22.0656L141.207 22.1456L141.149 22.2329L141.084 22.3056L141.004 22.3856L140.924 22.4365L140.837 22.4947L140.742 22.5529H140.655L140.56 22.5892H140.458H140.364H140.255H140.16H140.051L139.869 22.5383H139.789L139.695 22.4801L139.615 22.4292L139.535 22.3565L139.469 22.2838L139.411 22.2183L139.36 22.1383V22.051V21.9638V21.8619V21.651V21.5419V21.4329L139.44 21.2365L139.491 21.1492L139.557 21.0619L139.629 20.9892L139.709 20.9165L139.797 20.8438L139.891 20.7929L139.978 20.7419L140.066 20.691H140.167H140.277H140.364H140.582H140.677H140.771H140.866L140.946 20.7347L141.018 20.7929L141.106 20.8438L141.178 20.9092L141.222 20.9892L141.287 21.0692L141.338 21.142L141.309 21.2874ZM140.335 17.8838V17.7601V17.622L140.371 17.2292V16.8801V16.5529L140.407 16.2765V16.0292V15.8183V15.651V15.4983H142.422L142.167 18.2329L142.095 18.3056L142.022 18.3638L141.949 18.4292L141.877 18.4874L141.797 18.5456H141.717L141.644 18.5819L141.564 18.6256L141.469 18.662H141.389H141.302H141.222H140.757L140.677 18.6256H140.589H140.524L140.451 18.5819L140.386 18.5383L140.335 18.4801L140.291 18.4074L140.247 18.3347V18.2474V18.1601V18.0438V17.8838H140.335ZM137.993 15.4983H138.56V15.6001V15.7601V15.9783V16.2401V16.5747V16.9529L138.524 17.3965L138.473 17.8838V18.3929V18.502V18.6183L138.509 18.7347V18.8583L138.553 18.9747L138.589 19.0692L138.647 19.1856L138.713 19.2947L138.771 19.3965L138.837 19.4983L138.909 19.5929L138.997 19.6947L139.069 19.7819L139.157 19.8765L139.244 19.9565L139.338 20.0292L139.433 20.0947L139.527 20.1601L139.622 20.2183L139.731 20.2765L139.84 20.3201L139.942 20.3638H140.051L140.284 20.4074H140.4H140.517H141.106H141.302H141.506L141.687 20.371L141.855 20.3201L142.037 20.2474L142.182 20.1674L142.037 21.8401H144.087L144.407 18.4147L144.466 18.342L144.538 18.2692L144.611 18.2183L144.669 18.1674L144.742 18.1092L144.822 18.0729L144.895 18.0147H144.967H145.047H145.12H145.207H145.295H145.375H145.455H145.782H145.913H146.044H146.153H146.247L146.342 18.051L146.422 18.0947L146.502 18.1529L146.56 18.2183L146.611 18.291L146.655 18.371V18.451V18.5529V18.9674V19.0619V19.142V19.2292L146.604 19.3092L146.546 19.3747L146.48 19.4329L146.407 19.491L146.327 19.5274L146.247 19.5856H146.146H146.044H145.935H145.811H145.687H145.549H145.389H145.157H145.084H145.011H144.946H144.887L144.735 21.0401L144.786 21.0838L144.837 21.1201H144.88H144.946H145.011H145.069H145.135H145.287H145.462H145.884H146.029H146.167H146.298H146.422H146.56H146.677L146.793 21.0838L146.924 21.0474H147.033L147.149 20.9965L147.244 20.9456L147.367 20.8947L147.455 20.8438L147.564 20.7856L147.658 20.7129L147.753 20.6474L147.855 20.5747L147.942 20.4801L148.044 20.3856L148.124 20.3056L148.204 20.2038L148.284 20.1092L148.349 20.0001L148.407 19.891L148.473 19.7819L148.517 19.6583L148.575 19.5419L148.647 19.2874V19.1638V19.011V18.8801V18.1529L148.604 17.891V17.7747L148.567 17.6438L148.509 17.5347L148.466 17.4329L148.4 17.3092L148.342 17.2147L148.269 17.1129L148.175 17.011L148.095 16.9238L148.007 16.8365L147.927 16.7565L147.818 16.691L147.724 16.6183L147.615 16.5601L147.52 16.4947L147.389 16.4583L147.338 16.4292L147.215 16.3929H147.091L146.967 16.3565H146.837H146.691H146.56H146.415H146.015H145.782H145.557L145.331 16.3929L145.113 16.4583L144.909 16.5165L144.72 16.6038L144.531 16.7129L144.64 15.5492H149.418L149.527 14.4292H138.109L138.007 15.5492L137.993 15.4983ZM138.218 13.9565L138.342 13.9056L138.466 13.8401L138.597 13.7674L138.713 13.6947L138.873 13.5783L139.026 13.4547L139.178 13.3238L139.309 13.1783L139.433 13.0183L139.549 12.8656L139.651 12.6838L139.76 12.502L139.855 12.2838L139.942 12.0729L140.022 11.8619L140.117 11.6583H137.935V11.7529V11.8547L137.891 11.9565L137.84 12.0292L137.782 12.1092L137.724 12.182L137.651 12.2619L137.557 12.3129L137.462 12.371L137.36 12.4219L137.244 12.4583L137.106 12.502H136.96H136.829H136.662H136.502H136.32H136.167H136.015H135.884H135.818H135.76H135.687H135.637L135.586 12.451L135.535 12.4074H135.491L135.44 12.3492L135.367 12.2983L135.331 12.2256L135.266 12.1383L135.229 12.0801V12.0074V11.9274V11.7892H133.047L133.091 11.9929L133.149 12.2038L133.193 12.4147L133.258 12.6329L133.324 12.8074L133.397 12.982L133.498 13.1347L133.586 13.2874L133.709 13.4329L133.833 13.571L133.957 13.6947L134.102 13.811L134.211 13.8765L134.313 13.9492L134.437 14.0147L134.546 14.0801L134.669 14.1165L134.8 14.182H134.946L135.077 14.2183L135.222 14.2765H135.375L135.527 14.3129H135.695H135.862H136.938H137.098H137.258H137.433H137.586L137.891 14.2329L138.044 14.1892L138.182 14.1456L138.32 14.0801L138.218 13.9565ZM129.266 15.4692L129.375 14.3783H137.673L137.564 15.4983H136.495L135.898 21.8547H133.84L134.444 15.4983H133.367H132.56L131.964 21.8838H129.884L130.189 18.6838H128.611L128.691 17.8474L128.749 17.2583H130.32L130.495 15.4983L129.266 15.4692ZM128.749 19.331V19.1856V19.1347V19.0619L128.706 18.9238L128.655 18.8074L128.582 18.6838L128.509 18.5674L128.437 18.4583L128.335 18.342L128.233 18.2329L128.117 18.1456L127.986 18.0365L127.862 17.9492L127.709 17.8547L127.833 17.8038L127.949 17.731L128.153 17.6074L128.247 17.5201L128.335 17.4474L128.422 17.3674L128.495 17.2801L128.567 17.1856L128.611 17.091L128.669 16.9965L128.757 16.7783V16.7201V16.662V16.5529L128.793 16.4292V16.0365V15.9201V15.7965L128.757 15.6801L128.706 15.571L128.655 15.4692L128.597 15.3747L128.531 15.2729L128.444 15.1783L128.364 15.091L128.262 15.0038L128.167 14.9238L128.044 14.851L127.92 14.771L127.818 14.7201L127.702 14.6765L127.593 14.6256L127.484 14.5819H127.36H127.237L127.113 14.5383H126.997L126.72 14.4947H126.444H126.16H125.68H125.484H125.302H125.106L124.909 14.5383L124.72 14.5965L124.524 14.6547L124.327 14.7274L124.131 14.8147L123.913 14.9238L123.709 15.0038L123.506 15.091L124.08 16.5456L124.284 16.4365L124.487 16.342L124.706 16.2692L124.909 16.211L125.12 16.1601H125.338H125.775H126.109H126.204H126.298H126.371H126.444H126.517L126.56 16.2038L126.611 16.2474L126.647 16.3056L126.684 16.3638V16.4147V16.7056V16.7783V16.8365V16.8874V16.9456L126.647 16.9892V17.0328L126.597 17.0765H126.553H126.502H126.444H126.386H124.633L124.517 18.3565H125.971H126.073H126.167H126.255H126.335H126.415L126.473 18.3929L126.531 18.4365L126.633 18.5311L126.669 18.5965V18.6474V18.7129V18.7783V19.0183V19.1492V19.2801L126.626 19.3965L126.582 19.5201L126.524 19.6147L126.458 19.6947L126.386 19.7674L126.291 19.8256L126.218 19.8692H126.131L126.037 19.9056H125.927H125.811H125.68H125.527H125.091L124.895 19.8692L124.8 19.8329H124.706L124.604 19.7965L124.509 19.7456L124.407 19.7019L124.313 19.651L124.218 19.5929L124.109 19.5347L124.029 19.4547L123.935 19.3819L123.847 19.3092L123.724 19.2074L123.607 19.1056L123.338 19.3383L123.244 19.2365L123.149 19.1274L123.055 19.011L122.967 18.8947L122.887 18.771L121.797 20.182L121.869 20.3056L121.964 20.4292L122.066 20.5456L122.167 20.6692L122.291 20.8001L122.56 21.0401L122.713 21.1492L122.858 21.2656L122.989 21.3601L123.142 21.462L123.28 21.5419L123.418 21.6292L123.571 21.6947L123.717 21.7674L123.869 21.8256L124.022 21.8838L124.182 21.9347L124.349 21.9783L124.502 22.0147L124.669 22.0583H124.837H125.018H125.178H125.426H125.549H125.666H125.84H126.015H126.182H126.349H126.509H126.662H126.807H126.938L127.077 22.0147L127.207 21.9638L127.331 21.9201L127.455 21.8765L127.578 21.8183L127.673 21.7456L127.782 21.6729L127.884 21.6074L127.971 21.5274L128.066 21.4547L128.146 21.3747L128.218 21.2729L128.298 21.1783L128.357 21.091L128.422 20.9747L128.48 20.8656L128.524 20.7492L128.567 20.6401V20.5092L128.618 20.3856V20.2474V20.1456V20.0001V19.8547V19.5565V19.4256L128.749 19.331ZM107.375 15.4983H112.073L111.76 18.8438L111.687 18.9019L111.622 18.9747L111.549 19.0328L111.484 19.0983L111.404 19.1492L111.251 19.251H111.157L111.069 19.2947H110.967H110.887H110.771H110.669H110.567H110.167H110.087H110.007H109.942H109.862L109.797 19.251L109.738 19.2074L109.68 19.142L109.644 19.0765L109.6 19.011V18.931V18.8365V18.5238V18.4292V18.3201V18.2329L109.637 18.1383L109.687 18.0656L109.738 17.9856L109.797 17.9274L109.855 17.8692L109.935 17.8038L110.007 17.7601L110.109 17.7238H110.189H110.291H110.4H110.517H110.771H110.887H111.011L111.113 17.7601L111.229 17.8256L111.324 17.8983L111.433 17.9856L111.527 18.0801L111.68 16.5092L111.615 16.451L111.549 16.4074L111.469 16.3565L111.389 16.3129L111.309 16.2692H111.229H111.135L111.047 16.2329H110.946H110.851H110.742H110.633H110.4H110.146H110.022H109.884H109.767H109.637H109.506H109.389L109.266 16.2765L109.164 16.3201L109.04 16.3638L108.946 16.4219L108.829 16.4801L108.727 16.5456L108.633 16.611L108.524 16.7056L108.444 16.7783L108.342 16.8656L108.255 16.9674L108.175 17.0692L108.095 17.1638L108.022 17.2656L107.949 17.3674L107.884 17.4838L107.826 17.5929L107.775 17.7092L107.717 17.8329L107.673 17.9638L107.629 18.0801V18.211L107.593 18.342V18.4801V18.611V18.7638V18.9019V19.2947V19.4183V19.5347V19.651V19.7747V19.8765L107.673 20.0874L107.731 20.182L107.782 20.2838L107.84 20.371L107.898 20.4656L107.978 20.5529L108.051 20.6401L108.131 20.7201L108.218 20.7856L108.306 20.8438L108.386 20.9092L108.48 20.9601L108.582 21.011L108.677 21.0619L108.771 21.0983L108.88 21.1347H108.982H109.091H109.207H109.331H109.571H109.826H110.066L110.313 21.0983L110.56 21.0401L110.807 20.9601L111.055 20.8874L111.309 20.771L111.549 20.662L111.433 21.8983H113.484L113.811 18.4729L113.884 18.3856L113.957 18.3056L114.037 18.2256L114.109 18.1529L114.182 18.0947L114.269 18.0365L114.342 17.9856L114.415 17.9274L114.487 17.891H114.567L114.647 17.8547H114.713H114.8H114.873H115.026H115.186H115.309H115.433H115.542H115.644L115.717 17.891H115.789L115.855 17.9492H115.898L115.942 18.0147L115.978 18.0801V18.1529L116.015 18.3201V18.662V18.7783V18.8874V18.982L115.978 19.0692L115.935 19.1638L115.884 19.2219L115.826 19.3092L115.775 19.3528L115.702 19.4038L115.622 19.4547H115.549H115.44H115.346H115.237H115.127H115.04H114.887H114.793H114.698H114.611L114.524 19.411L114.444 19.3674L114.262 21.2292L114.327 21.3092L114.393 21.3601L114.451 21.4038H114.495H114.56H114.64H114.735H115.622H115.753H115.884L116 21.3674H116.124L116.24 21.3238L116.357 21.2801L116.466 21.2292L116.589 21.1928L116.698 21.1347L116.8 21.0692L116.909 21.0038L117.011 20.931L117.113 20.851L117.215 20.7783L117.317 20.6765L117.411 20.5892L117.513 20.4874L117.6 20.3783L117.68 20.2765L117.753 20.1747L117.826 20.0583L117.891 19.9492L117.957 19.8329L118 19.7092L118.095 19.4474V19.3238L118.138 19.1783L118.182 18.9019V18.7565V18.6038V18.3129V18.1747V18.051V17.9201V17.7965L118.138 17.6656L118.095 17.5492L117.986 17.3165L117.913 17.2074L117.84 17.0983L117.767 16.9892L117.673 16.8874L117.578 16.8001L117.484 16.7129L117.389 16.611L117.287 16.5456L117.178 16.4801L117.077 16.4001L116.96 16.3565L116.844 16.2983L116.72 16.2401L116.604 16.2038H116.473H116.342H116.204H116.066H115.927H115.687H115.593H115.484H115.382L115.178 16.2401L114.96 16.2983L114.742 16.371L114.517 16.4656L114.291 16.5819L114.058 16.6983L114.167 15.5565H119.607L119.717 14.4365H107.477L107.375 15.5565V15.4983ZM107.615 13.9347H107.469H107.338L107.215 13.8983L107.098 13.8474L106.982 13.7819L106.866 13.7019L106.757 13.6147L106.662 13.5201L106.582 13.4038V13.3456V13.2947L106.546 13.2292V13.171V13.1056V13.0474V12.9092V12.771V12.6329V12.4729L106.582 12.342L106.626 12.1965L106.684 12.0729L106.757 11.9492L106.851 11.8329L106.953 11.7165L107.069 11.622L107.186 11.5274L107.317 11.4547L107.338 11.3383L107.477 11.2947L107.607 11.251L107.753 11.2147H108.175H108.313H108.429L108.553 11.2729L108.677 11.3165L108.786 11.3965L108.887 11.4765L108.989 11.5638L109.077 11.6656L109.142 11.7819L109.207 11.891L109.251 12.0147V12.131V12.2692V12.4001V12.5529V12.691L109.215 12.8292L109.171 12.9529L109.106 13.0838L109.04 13.2001L108.953 13.302L108.873 13.411L108.793 13.5201L108.677 13.6074L108.553 13.6947L108.437 13.7529L108.313 13.811L108.189 13.8547H108.066H107.927H107.789H107.644L107.615 13.9347ZM101.615 19.1856L101.411 19.251H101.302H101.127H101.055H100.647H100.524H100.429H100.335H100.255H100.189L100.109 19.2074L100.058 19.142L100.007 19.0692L99.9638 18.9892V18.8874V18.7856V18.5529V18.4583V18.3638V18.291V18.2183V18.1529V18.0947V18.0438V18.0074L100.029 17.9565L100.095 17.8983L100.16 17.8474L100.226 17.8038L100.742 18.2765L101.702 19.1565L101.615 19.1856ZM106.8 14.3783H106.284L106.233 14.2547L106.146 14.0365L106.058 13.8401L105.957 13.6365L105.855 13.4256L105.746 13.2219L105.637 13.0328L105.52 12.8365L105.389 12.6401L105.273 12.4583L105.135 12.2692L105.004 12.0801L104.866 11.9056L104.706 11.7165L104.567 11.5492L104.429 11.411L104.291 11.251L104.167 11.1274L104.029 10.9892L103.891 10.8728L103.738 10.7419L103.593 10.6256L103.455 10.502L102 11.6947L102.197 11.8183L102.4 11.9492L102.589 12.0947L102.771 12.2401L102.953 12.3929L103.135 12.5601L103.302 12.7274L103.469 12.9092L103.637 13.1056L103.782 13.302L103.927 13.5201L104.08 13.731L104.218 13.9565L104.342 14.1892L104.444 14.3783H103.76V14.3129L103.637 14.1238L103.491 13.9129L103.346 13.7019L103.171 13.5056L102.975 13.2947L102.757 13.0838L102.567 12.8947L102.357 12.7129L102.146 12.5383L101.906 12.3638L100.953 13.6947H101.047H101.135H101.215L101.295 13.731H101.367L101.447 13.7819L101.52 13.8329L101.593 13.8838L101.651 13.9492L101.782 14.1092L101.891 14.2838H97.8838L97.7747 15.4038H103.309L103.011 18.4729L102.895 18.5456H102.822L102.742 18.5892H102.669L102.611 18.6256H102.575L101.12 17.2365H101.258H101.389H101.753H101.898H102.058L102.255 17.2874L102.415 17.331L102.56 17.3747H102.662H102.735L102.895 16.1019L102.858 16.0656H102.8H102.742H102.677L102.509 16.0292H102.306L102.058 15.9856H101.775H101.455H100.793H100.647H100.509L100.233 16.0365H100.095H99.9566L99.8257 16.0729L99.7093 16.1165L99.5784 16.1601L99.462 16.211L99.3384 16.4292L99.2147 16.4947L99.1056 16.5529L98.9966 16.6183L98.8657 16.7201L98.7566 16.8074L98.6329 16.8947L98.5457 16.9965L98.4511 17.0983L98.3566 17.2001L98.2766 17.3165L98.1966 17.4256L98.1384 17.5565L98.0875 17.6729L98.022 17.8183L97.9784 17.9492L97.942 18.0874L97.9057 18.2329V18.3783V18.5238V18.9456V19.0765V19.2074L97.942 19.331V19.4547L97.9784 19.5856L98.0293 19.6947L98.0875 19.7965L98.1529 19.9129L98.2329 20.0074L98.3202 20.1092L98.4002 20.2038L98.4947 20.2983L98.6038 20.3856L98.6984 20.4583L98.7929 20.5238L98.8875 20.5892L98.9966 20.6474L99.0911 20.6983L99.2075 20.7419L99.3093 20.7929H99.4111H99.5275H99.6366H99.7602H99.8838H100H100.378H100.727H100.88H101.055H101.215H101.375H101.542H101.687L101.84 20.7419L101.993 20.7056L102.131 20.662L102.277 20.611L102.422 20.5529L102.56 20.4947L102.684 20.4292L102.815 20.371L102.677 21.8256H104.713L105.317 15.4692H106.647L106.742 14.6474L106.778 14.3492L106.8 14.3783ZM69.4475 14.3783H95.7675L95.6657 15.4983H93.7384L93.6002 16.8292L93.7093 16.931L93.782 17.0256L93.9347 17.2365L93.9929 17.3601L94.0438 17.4765L94.0875 17.622L94.1311 17.7601L94.1675 17.9129V18.051V18.2183V18.3856V18.7274V18.9165V19.1129V19.2801V19.4474L94.1238 19.6074V19.7601L94.0729 19.9201L94.0293 20.0656L93.9711 20.211L93.9057 20.3638L93.8402 20.4947L93.7529 20.6329L93.6875 20.7638L93.5929 20.8947L93.4984 21.0256L93.4038 21.1492L93.2947 21.2656L93.1929 21.3747L93.0838 21.4838L92.9675 21.5929L92.8438 21.6801L92.7202 21.7674L92.6111 21.8547L92.4875 21.9274L92.3638 21.9929L92.2402 22.051L92.1166 22.1019L91.9857 22.1529L91.8547 22.2038H91.7238H91.5929H91.4547H91.1857H90.8438H90.5457H90.2838H90.0657H89.9566H89.8693L89.7893 22.1674H89.7166L89.6584 22.1238H89.6075H89.5638L89.5275 22.0874L89.6729 20.5311H89.7166L89.7893 20.5747L89.9347 20.6183L90.1166 20.6692L90.3129 20.7056H90.4875H90.9384H91.0547L91.1638 20.6692H91.2584L91.4547 20.5383L91.5347 20.4583L91.6147 20.3565L91.6875 20.2547L91.7529 20.1383L91.8111 20.0147L91.8693 19.8692L91.9129 19.731L91.9566 19.5638L91.9929 19.3892V19.2001V19.0328V18.8801V18.7274V18.5965V18.4656L91.9566 18.3492V18.2474L91.9202 18.1529V18.1019L91.8838 18.051L91.8475 18.0147V17.9638L91.8038 17.9274H91.7675H91.7238H91.6802H91.6293H91.5711H91.5275H91.4693H91.3384H91.0911H90.9893H90.8875L90.7929 17.9783L90.6984 18.0365L90.6111 18.1092L90.5238 18.1892L90.4438 18.2838L90.3638 18.4219L90.2911 18.5383L90.2475 18.6692L90.1966 18.7638L90.1311 19.4474H88.2038L88.2838 18.6329V18.5383V18.451V18.371L88.2475 18.3056L88.182 18.2329L88.1238 18.182L88.0438 18.1383L87.9638 18.0874L87.702 17.8838H87.5929H87.4838H87.222H87.0838H87.0329H86.9747H86.9238H86.8657H86.8147L86.7711 17.9201L86.7275 17.9638L86.6838 18.0074L86.6402 18.0583L86.6038 18.1019L86.5675 18.1601L86.5166 18.2474L86.4802 18.3638L86.4293 18.4729V18.6038L86.3929 18.7492V18.9019L86.3566 19.0765V19.2583V19.4474V19.6147V19.7674V19.9201L86.3929 20.0656L86.4438 20.1892V20.2474V20.3129L86.4802 20.371L86.5166 20.4219L86.5966 20.5092L86.6766 20.5892L86.7638 20.6474L86.8511 20.6983H86.9456H87.0329H87.2366H87.3384H87.4475L87.5711 20.6547L87.702 20.611L87.8402 20.5674L87.9784 20.4947L88.1384 20.4219L88.3129 20.342L88.1456 22.0365L88.102 22.0729L88.0584 22.1092H88.0002H87.942L87.782 22.1601H87.6075L87.382 22.1965H87.1493H86.8729H86.5748H86.3056H86.1747L86.0511 22.1601L85.9275 22.1238H85.8111L85.6875 22.0729L85.4547 21.9638L85.3384 21.891L85.2366 21.811L85.1347 21.731L85.0329 21.6438L84.9529 21.5419L84.8366 21.4256L84.662 21.2147L84.582 21.0838L84.502 20.9601L84.4366 20.8292L84.3638 20.691L84.3129 20.5601L84.2693 20.4219L84.2257 20.2765V20.131V19.9783V19.8256V19.6729V19.5129V19.3601V19.1856V19.0256V18.851V18.6838L84.262 18.5165L84.3056 18.3638L84.3566 18.2038L84.4002 18.051L84.4656 17.9056L84.5311 17.7674L84.6766 17.491L84.7638 17.3601L84.8584 17.2438L84.9529 17.1201L85.0547 17.0038L85.1711 16.8947L85.2802 16.7856L85.3966 16.6838L85.5057 16.6038L85.622 16.5311L85.7311 16.451L85.8547 16.371L85.9711 16.3129L86.0947 16.2474L86.2257 16.211L86.3493 16.1674L86.4729 16.131H86.6111L86.742 16.0947H86.8657H87.0111H87.6438H87.8038H87.9493L88.102 16.131L88.2548 16.182L88.4002 16.2329L88.5384 16.2983L88.6547 16.371L88.7856 16.451L88.8948 16.5456L89.0111 16.6547L89.1129 16.7419L89.222 16.8728L89.3093 16.9965L89.3966 17.1274L89.5129 16.9892L89.6584 16.8147L89.8329 16.6183L90.0511 16.4001L90.2038 16.3056L90.3347 16.2401L90.4802 16.182L90.6038 16.1238L90.7348 16.0874H90.8584H90.982H91.3747H91.5202H91.6875L91.7602 15.3601H82.742L82.5384 17.4329H79.9493L79.7747 17.4838L79.6147 17.5347L79.4766 17.6001L79.3311 17.6656L79.2075 17.7456L79.0984 17.8256L78.9893 17.8983L78.8948 17.9929L78.822 18.0947L78.7275 18.1965L78.662 18.3201L78.6111 18.4292L78.5748 18.5529L78.5384 18.691V18.8074V19.3383V19.4038V19.462V19.5129V19.5783V19.6292V19.6874L78.582 19.731L78.6184 19.7892L78.6693 19.8329L78.7202 19.8765L78.7711 19.9274L78.8366 19.971L78.9384 20.0292L79.062 20.0874L79.1857 20.1456L79.3238 20.182L79.462 20.2183H79.6147H79.7675H80.1966H80.3347H80.4584H80.5966H80.7275L80.8438 20.182H80.9675L81.0984 20.1383H81.222L81.3457 20.0874L81.4766 20.0292L81.5929 19.9783L81.7166 19.9056L81.8329 19.8474L81.9493 19.7747L82.1238 19.6729L82.2766 19.5638L82.4002 19.4765L82.6111 19.3383L82.6911 19.2438L82.7638 19.1783V19.1056L82.8002 19.0547L83.302 20.9383L83.062 21.1201L82.7929 21.2801L82.5093 21.4547L82.2184 21.6001L81.9202 21.7238L81.6366 21.8401L81.3457 21.9274L81.0402 22.022L80.7493 22.0801H80.6547L82.8366 24.6765L81.382 25.8692L79.622 23.5347L77.5784 25.491L76.2984 24.2547L78.8075 22.131H78.7057L78.4002 22.0438L78.2547 22.0001L78.1093 21.9419L77.9711 21.8838L77.8329 21.7965L77.702 21.731L77.5711 21.6365L77.4402 21.5492L77.3093 21.4547L77.1784 21.3165L77.0475 21.2074L76.9456 21.0838L76.8438 20.9456L76.7566 20.8147L76.6838 20.6765L76.6038 20.5238L76.5529 20.371L76.502 20.211L76.4656 20.0438V19.8838V19.7165V19.3383V19.142V18.9383L76.502 18.7492L76.5457 18.5747L76.5966 18.3929L76.662 18.211L76.7202 18.0438L76.7929 17.8838L76.8948 17.7092L76.9966 17.571L77.0984 17.4256L77.2147 17.2874L77.3529 17.1565L77.4838 17.0256L77.6366 16.9019L77.7966 16.7856L77.9566 16.691L78.1893 16.5601L78.4075 16.4365L78.6402 16.342L78.8584 16.2692L79.0693 16.2038L79.2875 16.1601H79.3893H79.4984H80.6838L80.742 15.5419H68.7275L68.1311 21.8983H66.0875L66.3202 19.3747H64.3566L64.4802 17.9201H66.4584L66.6766 15.5638H64.342L64.4002 15.6292L64.4511 15.7165L64.4947 15.7892L64.5311 15.8619L64.5748 15.9347V16.022V16.0947V16.1892V16.2765V16.371V16.4583V16.9601V17.1056V17.2656V17.4038V17.5347L64.5238 17.6729L64.4802 17.8038L64.4293 17.8838L64.3711 18.0147L64.3056 18.131L64.2475 18.2474L64.1747 18.3492L64.102 18.4438L64.022 18.5383L63.9275 18.6401L63.8475 18.7201L63.7384 18.8074L63.6511 18.8728L63.5493 18.9456L63.4475 19.0038L63.3529 19.0619L63.2438 19.1056L63.142 19.1565L63.0111 19.2001L62.8948 19.2365L62.7784 19.2729H62.6475H62.5311H62.4002H62.2547H61.8402V19.3965V19.5274V19.651V19.7819L61.8838 19.9056L61.9347 20.0147L62.0075 20.1238L62.0802 20.2474L62.1602 20.3056L62.2475 20.3638L62.3566 20.4074L62.4802 20.4438H62.6038H62.7493H62.9747H63.142H63.3966H63.6511L63.9347 20.4074L64.2329 20.3565L64.4729 20.3129H64.6475H64.7348H64.7784L64.6184 21.8765H64.5675L64.3929 21.9129L64.1238 21.9565L63.9493 22.0001H63.7747H63.6075H63.4402H63.2729H62.4656H62.1966H61.9493H61.7166L61.4911 21.9492L61.2875 21.8983L61.0984 21.8256L60.9238 21.7529L60.8438 21.6947L60.7638 21.651L60.6838 21.6074L60.6111 21.571L60.5457 21.4983L60.4875 21.4474L60.422 21.3892L60.3638 21.331L60.2475 21.2074L60.2111 21.1274L60.1675 21.0619L60.1166 20.9892L60.0802 20.9092V20.8292V20.7492L60.0002 20.5165L59.9347 20.2765L59.8911 20.0438V19.8038V19.5565V19.3165V19.0692L59.9275 18.822H59.2002L59.3311 17.4838H60.9602H61.0766H61.1784H61.2875H61.3893H61.6511H61.7675L61.8838 17.4474L61.9784 17.4038L62.0729 17.3528L62.1602 17.2947L62.2402 17.2365L62.3129 17.1638L62.3857 17.0838L62.4366 16.9965L62.4802 16.8801L62.5311 16.7856V16.662V16.5311V16.3929V16.131V16.022L62.4947 15.9056V15.8547V15.8038V15.7674V15.7238L62.4148 15.651L62.3711 15.6074H62.3202L62.2111 15.5419L62.1093 15.491H62.0511H62.0075H61.9566H59.2293L59.3311 14.371H67.3384L67.2947 14.2692L67.2002 14.0801L67.1056 13.8983L67.0038 13.7238L66.8875 13.5565L66.7711 13.4038L66.6402 13.2438L66.502 13.0838L66.3566 12.9529L66.0584 12.691L65.8911 12.5747L65.7093 12.451L65.5275 12.3492L65.3384 12.2401L65.1493 12.1456L66.4729 10.9529L66.5966 11.0038L66.7275 11.0765L66.8657 11.1492L66.9966 11.2147L67.1202 11.3165L67.2438 11.4038L67.3747 11.4983L67.5057 11.5929L67.6511 11.7238L67.7893 11.8692L67.9347 12.0001L68.0802 12.1601L68.2038 12.3201L68.3493 12.4874L68.4656 12.6547L68.6038 12.8292L68.8438 13.2001L68.9529 13.4038L69.0766 13.6074L69.1857 13.811L69.2947 14.0292L69.3966 14.2619L69.4475 14.3783ZM75.4111 17.9492V17.8474V17.7456V17.6729V17.6001L75.3747 17.5347L75.3311 17.4765H75.2875V17.4329H73.542L73.6002 17.4765L73.6511 17.5201L73.6875 17.571V17.6365V17.7019L73.7238 17.7674V17.8256V17.9129V17.9856V18.0656V18.1529V18.3565V18.5674V18.6401V18.6983V18.771V18.8292L73.6875 18.8874L73.6511 18.9383L73.6075 18.9747L73.5638 19.0256L73.4475 19.0983H73.382H73.3238H73.2511H73.0838H72.8147L72.7711 19.0547H72.7129L72.662 19.011L72.6038 18.9529V18.9019L72.5602 18.8438L72.5238 18.7856L72.4875 18.7274V18.6547V18.5965V18.611V18.5601V18.3565V18.2329V18.1165V18.0001L72.5238 17.891L72.5675 17.811L72.6256 17.7238L72.6838 17.6438L72.7566 17.5783L72.8293 17.5274L72.9238 17.4838L73.0184 17.4329H73.1202H73.2293H73.3602H77.222L77.3311 16.2765H72.6693H72.5093H72.3566L72.2111 16.3129H72.0729L71.9347 16.3638L71.7893 16.4219L71.6438 16.4947L71.5057 16.5819L71.3602 16.662L71.2438 16.7565L71.1275 16.8583L71.0111 16.9674L70.9093 17.091L70.8075 17.2147L70.7275 17.3528L70.6475 17.491L70.582 17.6365L70.5166 17.8038L70.4584 17.9638L70.4148 18.131V18.3129L70.3784 18.502V18.611V18.7347V18.9747V19.0765V19.2001V19.3092V19.4038L70.4148 19.4983L70.4584 19.6074L70.502 19.7092L70.5602 19.8038L70.6111 19.8983L70.6766 19.9856L70.7493 20.0729L70.8366 20.1601L70.9238 20.2619L71.0038 20.3347L71.1056 20.4219L71.2075 20.4874L71.3093 20.5529L71.4256 20.611L71.5275 20.6692L71.6584 20.7129L71.7747 20.7565L71.9057 20.8001H72.0438H72.1675H72.3056H72.4584H73.1857H73.3093H73.4475H73.5711H73.6947L73.8184 20.7638L73.9275 20.7129L74.0511 20.6692L74.1675 20.611L74.2766 20.5601L74.3857 20.4874L74.4875 20.4147L74.5893 20.342L74.6984 20.2692L74.8002 20.182L74.8875 20.0874L74.9675 20.0074L75.0547 19.9129L75.1275 19.811L75.1929 19.7165L75.2656 19.6147L75.3311 19.5274L75.3747 19.4183L75.4256 19.3238L75.462 19.2147V19.1056L75.4984 18.9892V18.8874V18.7783V18.6474V18.291V18.131V17.9565L75.4111 17.9492Z" fill="white"/>
<path d="M4.625 45.3452H45.0177V4.6543H4.625V45.3452Z" fill="white"/>
<path d="M38.1962 24.7345L30.1962 16.8945H28.2762H25.0908V15.9563H28.2762H30.2398L38.8071 24.6836L38.1962 24.7345ZM35.578 24.7854L30.2035 19.5636H28.2835H25.1053V18.6109H28.2908H30.2544L36.2035 24.7199L35.578 24.7854ZM28.3053 36.32L25.3598 39.229L25.2653 38.6036L28.3053 35.4763L33.0617 30.5672V25.4472H33.978L34.0289 30.64L28.3053 36.32ZM28.3053 32.7927L30.4144 30.6109V25.4472H31.338L31.3817 30.64L28.3053 33.6727L25.3089 36.6181L25.2289 36L28.3053 32.7927ZM21.6653 26.7272L19.9707 24.9381L21.6653 23.2654L25.1489 19.8472L28.3053 23.1927L30.1307 25.12L28.3053 26.9236L24.9308 30.2472L21.6653 26.7272ZM21.6653 34.3636H19.7017L11.1417 25.6363L11.7526 25.549L19.7526 33.3818H24.8435V34.3127L21.6653 34.3636ZM14.3562 25.5345L19.7453 30.7418H24.8362V31.7018H21.6507H19.6798L13.7308 25.5854L14.3562 25.5345ZM24.7417 14.3127L21.6653 17.52L19.5562 19.7018V24.8436H18.6108L18.5671 19.6654L21.6435 16.6254L24.6398 13.6727L24.7417 14.3127ZM21.6653 13.9854L24.618 11.0763L24.698 11.6945L21.6653 14.829L16.9162 19.7309V24.8727H15.9853L15.9489 19.6945L21.6653 13.9854ZM30.4362 14.3418V8.68359H24.7562L21.6653 11.949L14.4362 19.6145H9.01074V25.1563L19.5053 36.0654V41.4327H24.8507L28.3053 37.949L35.4253 30.7781H40.6689V24.6836L30.4362 14.3418Z" fill="#CE0F3E"/>
</g>
<defs>
<clipPath id="clip0_68_522">
<rect width="196.153" height="50" fill="white"/>
</clipPath>
</defs>
</svg>
