<svg width="225" height="50" viewBox="0 0 225 50" fill="none" xmlns="http://www.w3.org/2000/svg">
<rect width="225" height="50" fill="#FFCC01"/>
<path fill-rule="evenodd" clip-rule="evenodd" d="M33.9896 4C45.5343 4 55 13.4161 55 24.9784C55 36.5676 45.5343 46 33.9896 46C22.4153 46 13 36.5676 13 24.9784C13 13.4161 22.4153 4 33.9896 4ZM31.0865 43.145L40.0463 27.5949L33.9896 27.5975L36.9973 22.3739H51.2255L48.2134 27.6103L43.0656 27.5949L33.9896 43.3832C44.1006 43.3832 52.3848 35.1003 52.3848 24.9784C52.3848 14.898 44.1005 6.62675 33.9896 6.62675C33.2559 6.62675 32.5124 6.66964 31.8219 6.76256L22.7872 22.3739H33.9896L30.956 27.5949H16.7495L28.3394 7.52891C20.9646 9.9225 15.6123 16.8588 15.6123 24.9784C15.6123 34.1108 22.3285 41.7395 31.0865 43.145Z" fill="#1F1A17"/>
<path fill-rule="evenodd" clip-rule="evenodd" d="M62 35H74.2736L75 31.6933H66.9718L70.7814 14H66.513L62 35Z" fill="#1F1A17"/>
<path fill-rule="evenodd" clip-rule="evenodd" d="M88.2622 18.8456C88.2622 20.884 86.0972 21.7684 84.5208 22.1978C83.9605 21.433 83.3763 20.4299 83.3763 19.5153C83.3763 17.9012 84.5529 16.9856 86.0972 16.9856C87.146 16.9856 88.2622 17.4099 88.2622 18.8456ZM86.5588 31.7622C85.6 32.4648 84.2111 32.8268 82.9171 32.8268C80.8715 32.8268 79.1461 31.98 79.1461 29.7493C79.1461 27.588 80.9368 26.7079 82.7275 26.0363L86.5588 31.7622ZM89.1561 35.6302H93.7939L91.2862 32.0401C93.4183 29.9083 94.6261 27.008 95 24.0841H91.2239C91.1622 25.9438 90.3917 27.6878 89.3388 29.2049L86.2212 24.7861C89.095 23.7502 91.8439 22.2284 91.8439 18.8456C91.8439 15.4911 88.4462 14 85.8785 14C82.6025 14 79.4259 15.7323 79.4259 19.3907C79.4259 21.2831 80.0712 22.1978 80.9368 23.3589C77.7859 24.2975 75 26.431 75 29.9631C75 34.2627 78.7086 36 82.5097 36C84.5208 36 86.9927 35.3903 88.3845 34.411L89.1561 35.6302Z" fill="#1F1A17"/>
<path fill-rule="evenodd" clip-rule="evenodd" d="M94 17.3116H99.6154L95.797 35H100.189L104.008 17.3116H109.308L110 14H94.7197L94 17.3116Z" fill="#1F1A17"/>
<path d="M118.417 14H130L129.269 17.3074H121.938L120.823 22.4837H127.832L127.171 25.7924H120.136L118.21 35H114L118.417 14Z" fill="#1F1A17"/>
<path d="M132.881 13H137L136.139 16.8215H132.023L132.881 13ZM131.378 19.6271H135.496L132.115 35H128L131.378 19.6271Z" fill="#1F1A17"/>
<path d="M137.96 22.4484C138.146 21.5634 138.303 20.7946 138.366 20.3402H142.438L142.165 21.7611H142.224C143.375 20.7946 144.961 20 146.769 20C149.914 20 152 21.7918 152 24.6983C152 25.8071 151.686 26.9756 151.467 27.8834L149.788 35H145.617L147.174 28.0881C147.393 27.0842 147.645 26.0871 147.645 25.0087C147.645 23.7856 146.705 22.9564 145.368 22.9564C142.475 22.9564 141.415 25.4369 140.887 27.6297L139.176 35H135L137.96 22.4484Z" fill="#1F1A17"/>
<path d="M158.012 33.0932C161.078 33.0932 162.031 31.0416 162.673 28.5756H161.229C159.237 28.5756 155.926 28.9037 155.926 31.4869C155.926 32.555 156.97 33.0932 158.012 33.0932ZM162.031 33.2997H161.971C160.557 35.0206 159.145 36 156.874 36C154.024 36 152 34.4544 152 31.6343C152 26.5886 157.828 26.2056 161.693 26.2056H163.133C163.258 25.7846 163.258 25.3411 163.258 24.8995C163.258 23.3555 161.537 22.9043 160.097 22.9043C158.284 22.9043 156.538 23.3555 154.911 24.0931L155.496 20.9187C157.243 20.3299 159.022 20 160.862 20C164.025 20 167 21.1296 167 24.7202C167 26.7662 165.436 32.7606 165.069 35.6435H161.6L162.031 33.2997Z" fill="#1F1A17"/>
<path d="M170.786 22.4484C170.958 21.5634 171.108 20.7946 171.163 20.3402H175.001L174.737 21.7611H174.797C175.88 20.7946 177.375 20 179.073 20C182.033 20 184 21.7918 184 24.6983C184 25.8071 183.708 26.9756 183.5 27.8834L181.919 35H177.993L179.456 28.0881C179.661 27.0842 179.898 26.0871 179.898 25.0087C179.898 23.7856 179.015 22.9564 177.76 22.9564C175.033 22.9564 174.037 25.4369 173.537 27.6297L171.925 35H168L170.786 22.4484Z" fill="#1F1A17"/>
<path d="M197.022 23.8594C196.251 23.3555 195.212 23.0828 194.113 23.0828C190.937 23.0828 189.154 26.056 189.154 28.9335C189.154 30.9224 189.808 32.9129 192.539 32.9129C193.52 32.9129 194.739 32.6432 195.776 32.1407L195.33 35.2895C194.113 35.879 192.806 36 191.503 36C187.553 36 185 33.3579 185 29.4071C185 24.0651 188.529 20 194.022 20C195.509 20 196.931 20.2668 198 20.5918L197.022 23.8594Z" fill="#1F1A17"/>
<path d="M208.102 26.4988C208.162 26.1451 208.19 25.8179 208.19 25.4633C208.19 23.8299 207.325 22.9043 205.657 22.9043C203.189 22.9043 202.115 24.3919 201.343 26.4988H208.102ZM200.808 29.2295C200.808 32.0513 202.322 33.0933 205.064 33.0933C206.7 33.0933 208.28 32.6748 209.768 31.9932L209.261 35.1405C207.712 35.6151 206.019 36 204.379 36C199.973 36 197 33.8604 197 29.3189C197 24.5681 200.687 20 205.719 20C209.496 20 212 21.9324 212 25.8179C212 26.9752 211.849 28.1032 211.611 29.2295L200.808 29.2295Z" fill="#1F1A17"/>
</svg>
