<svg width="201" height="50" viewBox="0 0 201 50" fill="none" xmlns="http://www.w3.org/2000/svg">
<rect width="201" height="50" fill="#861F41"/>
<path d="M69.2129 44.9996H55.461L47.1111 29.8009H60.861L69.2129 44.9996ZM47.0619 5L53.9575 17.3784L38.7255 45H25L47.0619 5ZM77.746 24.5685L75.4285 19.934L72.9972 24.5685H77.746ZM78.7026 26.5048H72.0162L70.2776 29.8008H67.7299L75.4738 15.3144L82.9361 29.8008H80.3546L78.7026 26.5048ZM88.1659 22.6873L83.8552 16.1921H86.5424L89.5342 20.7891L92.6628 16.1921H95.3709L90.872 22.6873L95.6011 29.8008H92.9559L89.4976 24.5855L85.9229 29.8008H83.2534L88.1659 22.6873ZM100.074 29.8011H97.7181V16.1917H100.073L100.074 29.8011ZM111.852 18.1944L109.929 19.1902C109.57 18.6496 109.234 18.2969 108.904 18.1308C108.567 17.9414 108.135 17.8489 107.599 17.8489C106.949 17.8489 106.409 18.0114 105.967 18.3407C105.538 18.6545 105.322 19.0509 105.322 19.5308C105.322 20.2043 105.892 20.7357 107.021 21.1378L108.582 21.6996C109.851 22.1335 110.778 22.6897 111.372 23.3278C111.967 23.9766 112.25 24.7631 112.25 25.708C112.25 26.9553 111.774 27.9983 110.81 28.8026C109.85 29.6343 108.642 30.0449 107.212 30.0449C105.854 30.0449 104.731 29.6972 103.852 28.9884C102.974 28.2782 102.438 27.2973 102.217 26.0344L104.606 25.5737C104.72 26.3786 104.9 26.9199 105.179 27.2295C105.66 27.8132 106.379 28.1121 107.306 28.1121C108.047 28.1121 108.653 27.9044 109.137 27.4648C109.627 27.0401 109.866 26.4924 109.866 25.8366C109.866 25.5737 109.829 25.3278 109.728 25.1158C109.66 24.8854 109.526 24.6896 109.349 24.5031C109.177 24.3278 108.934 24.1391 108.653 23.9815C108.371 23.8154 108.034 23.6748 107.642 23.513L106.135 22.9681C103.983 22.1837 102.924 21.0332 102.924 19.5138C102.924 18.4891 103.375 17.6454 104.269 16.9592C105.161 16.2609 106.28 15.9055 107.617 15.9069C109.416 15.9069 110.838 16.6701 111.852 18.1944ZM123.859 27.8632H125.319C126.395 27.8632 127.179 27.6844 127.679 27.3261C128.202 26.9268 128.472 26.4286 128.472 25.83C128.472 25.2378 128.202 24.7424 127.702 24.3318C127.207 23.9601 126.331 23.7495 125.054 23.7495H123.859V27.8632ZM123.859 22.033H124.606C125.481 22.033 126.13 21.8669 126.535 21.5277C126.938 21.1878 127.148 20.6917 127.148 20.0415C127.148 19.3914 126.938 18.9023 126.522 18.5843C126.097 18.2416 125.494 18.0748 124.694 18.0748H123.859V22.033ZM121.502 29.8009V16.1915H123.859C124.905 16.1915 125.738 16.2523 126.36 16.3971C126.986 16.5335 127.514 16.783 127.944 17.1031C128.387 17.4642 128.725 17.8918 128.988 18.4204C129.258 18.9285 129.39 19.4642 129.39 19.9977C129.39 20.9722 128.954 21.7962 128.097 22.4739C128.935 22.7192 129.582 23.1517 130.062 23.77C130.554 24.3785 130.794 25.0823 130.794 25.9099C130.794 26.9642 130.365 27.8632 129.496 28.6031C128.979 29.0567 128.396 29.3755 127.748 29.5437C127.036 29.7182 126.151 29.8009 125.079 29.8009H121.502ZM140.943 24.5685L138.617 19.934L136.175 24.5685H140.943ZM141.902 26.5048H135.206L133.466 29.8008H130.917L138.649 15.3144L146.124 29.8008H143.53L141.902 26.5048ZM147.67 29.8011V15.2454L159.069 25.6514V16.1917H161.43V30.6315L150.028 20.2608V29.8011H147.67ZM166.717 21.6251L172.809 16.192H175.951L168.886 22.3579L176 29.8007H172.838L167.209 23.7437L166.717 24.1691V29.8007H164.352V16.192H166.717V21.6251Z" fill="white"/>
</svg>
