<svg width="260" height="229" viewBox="0 0 260 229" fill="none" xmlns="http://www.w3.org/2000/svg">
<path d="M64.5827 131.34H39.1352C34.4684 131.34 30.6797 135.122 30.6797 139.795V219.271C30.6797 223.938 34.4617 227.727 39.1352 227.727H118.611C123.278 227.727 127.067 223.945 127.067 219.271V193.837C134.962 193.837 141.371 187.428 141.371 179.533C141.371 171.638 134.962 165.229 127.067 165.229V139.795C127.067 135.129 123.285 131.34 118.611 131.34H93.1706C93.049 139.12 86.6871 145.394 78.88 145.394C71.0728 145.394 64.711 139.12 64.5894 131.34H64.5827Z" fill="#005BB7"/>
<path d="M201.536 112.384L226.335 118.044C230.887 119.084 235.419 116.234 236.459 111.682L242.118 86.8825C249.818 88.6384 257.49 83.8299 259.246 76.124C261.001 68.425 256.179 60.7529 248.487 58.997L254.147 34.2113C255.187 29.6594 252.337 25.1278 247.785 24.0877L222.979 18.4215C223.006 18.3404 223.026 18.2594 223.046 18.1716C224.802 10.4725 219.994 2.80043 212.288 1.04449C204.589 -0.711436 196.917 4.11062 195.161 11.8029C195.141 11.884 195.12 11.9718 195.114 12.0528L170.314 6.39333C165.762 5.35328 161.231 8.20329 160.191 12.7552L154.531 37.5408C162.23 39.2968 167.052 46.9688 165.29 54.6679C163.527 62.3738 155.862 67.1891 148.163 65.4264L142.503 90.2255C141.463 94.7774 144.313 99.3091 148.865 100.349L173.651 106.009C175.407 98.3095 183.079 93.4875 190.778 95.2502C198.484 97.0129 203.299 104.678 201.536 112.377V112.384Z" fill="#FFD140"/>
<path d="M19.9589 95.7115L28.9141 119.518C30.5552 123.887 35.4313 126.096 39.8009 124.455L63.6073 115.5C66.383 122.888 74.6291 126.636 82.031 123.854C89.4194 121.078 93.1609 112.818 90.3852 105.43L114.185 96.4814C118.554 94.8403 120.763 89.9642 119.122 85.5947L110.166 61.7815C110.247 61.7613 110.329 61.7275 110.41 61.7005C117.798 58.9248 121.546 50.6787 118.764 43.2767C115.988 35.8883 107.728 32.1468 100.34 34.9226C100.259 34.9496 100.178 34.9833 100.104 35.0239L91.1484 11.2175C89.5072 6.84793 84.6312 4.63951 80.2616 6.28063L56.462 15.2291C59.2377 22.6175 55.4962 30.8704 48.1078 33.6529C40.7059 36.4354 32.4665 32.6871 29.684 25.2987L5.87765 34.254C1.50808 35.8951 -0.700337 40.7712 0.940783 45.1407L9.88928 68.9403C17.2777 66.1646 25.5306 69.9061 28.313 77.2945C31.0955 84.6964 27.3473 92.9358 19.9589 95.7183V95.7115Z" fill="#41A0FF"/>
<path d="M138.344 194.588V220.029C138.344 224.695 142.126 228.484 146.799 228.484H226.275C230.942 228.484 234.731 224.702 234.731 220.029V140.553C234.731 135.886 230.949 132.097 226.275 132.097H200.841C200.841 124.202 194.432 117.793 186.537 117.793C178.642 117.793 172.233 124.202 172.233 132.097H146.799C142.133 132.097 138.344 135.879 138.344 140.553V166C146.124 166.122 152.398 172.483 152.398 180.291C152.398 188.098 146.124 194.46 138.344 194.581V194.588Z" fill="#0070E0"/>
</svg>
