<svg width="250" height="45" viewBox="0 0 250 45" fill="none" xmlns="http://www.w3.org/2000/svg">
<path d="M0 0H250V44.1767H0V0Z" fill="#004C8F"/>
<path d="M41.6719 0H250.002V44.1767H41.6719V0Z" fill="#004C8F"/>
<path d="M54.9194 32.5446V11.6426H61.3971V18.6961H67.4917V11.6426H73.9433V32.5446H67.4395V24.4294H61.3449V32.5446H54.8672" fill="white"/>
<path d="M84.2368 16.8297H85.9172C86.8209 16.782 87.725 16.9167 88.5814 17.2267C89.0068 17.4284 89.3735 17.7472 89.6436 18.1499C89.9483 18.654 90.1691 19.2099 90.2966 19.7932C90.4487 20.4926 90.5247 21.2082 90.5229 21.9259C90.5558 22.9758 90.387 24.0218 90.0267 25.0003C89.7561 25.7466 89.2561 26.3743 88.6075 26.7821C87.7547 27.2079 86.8144 27.3984 85.8736 27.3361H84.2368V16.8297ZM86.7443 32.5246C88.0336 32.5558 89.3212 32.41 90.5752 32.0907C91.4751 31.8747 92.3344 31.5002 93.1175 30.9829C93.8154 30.4806 94.4278 29.8562 94.9285 29.1364C95.538 28.2063 96.008 27.1817 96.3215 26.0989C96.7198 24.7459 96.9108 23.3339 96.8874 21.9167C96.9453 19.8814 96.5138 17.8639 95.6337 16.0542C94.8635 14.5364 93.638 13.3343 92.1511 12.6382C90.4932 11.9256 88.7155 11.58 86.9271 11.6227H77.8984V32.5339H86.7443" fill="white"/>
<path d="M99.8594 32.5446V11.6426H115.235V16.7942H106.259V20.1455H113.442V25.1587H106.259V32.5446H99.8594Z" fill="white"/>
<path d="M136.95 19.6277H130.856C130.791 18.7032 130.414 17.8344 129.794 17.1811C129.17 16.5936 128.355 16.2858 127.521 16.3225C126.984 16.3081 126.452 16.4276 125.966 16.6713C125.481 16.9151 125.056 17.2763 124.726 17.7258C124.004 18.6491 123.638 20.2001 123.638 22.342C123.592 23.4678 123.749 24.5927 124.1 25.6564C124.358 26.3473 124.807 26.9393 125.388 27.3552C126.01 27.7479 126.728 27.9374 127.452 27.8999C127.882 27.9296 128.313 27.8672 128.72 27.7166C129.127 27.5659 129.501 27.33 129.82 27.0228C130.467 26.3402 130.846 25.4233 130.882 24.4562H137.116C137.019 25.5807 136.769 26.6844 136.376 27.7337C135.958 28.7225 135.367 29.6184 134.634 30.3741C133.792 31.2775 132.776 31.9795 131.657 32.4329C130.38 32.9387 129.023 33.1801 127.661 33.1438C126.249 33.1638 124.845 32.9297 123.507 32.4514C122.314 32.0287 121.217 31.3463 120.286 30.448C119.433 29.5961 118.739 28.5813 118.24 27.4567C117.534 25.8181 117.183 24.0325 117.213 22.2312C117.199 20.6852 117.45 19.1495 117.953 17.6981C118.406 16.3828 119.109 15.1796 120.016 14.1622C120.843 13.2546 121.832 12.5298 122.924 12.0295C124.344 11.4018 125.87 11.0877 127.408 11.1062C128.778 11.0944 130.14 11.3222 131.439 11.7802C132.599 12.1658 133.654 12.8437 134.513 13.7559C135.323 14.6134 135.96 15.6376 136.385 16.7657C136.724 17.6912 136.933 18.665 137.003 19.6554" fill="white"/>
<path d="M157.731 16.3403C158.334 16.312 158.939 16.3585 159.533 16.4788C159.892 16.5856 160.212 16.8082 160.447 17.1158C160.68 17.4246 160.803 17.8101 160.795 18.2052C160.802 18.4561 160.754 18.7051 160.654 18.9327C160.554 19.1603 160.406 19.36 160.221 19.5162C159.589 19.923 158.849 20.1012 158.114 20.024H155.667V16.3311L157.731 16.3403ZM159.359 32.543C160.445 32.5731 161.532 32.4989 162.606 32.3215C163.269 32.1483 163.914 31.9039 164.53 31.5921C165.066 31.3283 165.558 30.9727 165.984 30.5396C166.497 30.027 166.891 29.3948 167.134 28.6932C167.412 27.918 167.551 27.0944 167.543 26.2651C167.587 25.1427 167.281 24.0364 166.672 23.1168C166.074 22.2728 165.224 21.6678 164.261 21.3996C165.031 20.9805 165.681 20.3483 166.141 19.5698C166.601 18.7914 166.853 17.8956 166.872 16.9773C166.899 16.1196 166.703 15.2706 166.307 14.5221C165.911 13.7736 165.33 13.1541 164.626 12.7305C163.465 11.9796 161.669 11.6072 159.237 11.6134H149.398V32.5153L159.359 32.543ZM158.314 23.7816C159.188 23.6785 160.072 23.8587 160.848 24.2986C161.042 24.4814 161.198 24.7059 161.305 24.9574C161.412 25.2088 161.467 25.4815 161.467 25.7573C161.467 26.0331 161.412 26.3057 161.305 26.5572C161.198 26.8086 161.042 27.0332 160.848 27.216C160.089 27.6695 159.213 27.8539 158.349 27.7422H155.737V23.7816H158.349" fill="white"/>
<path d="M181.784 25.5188H177.657L179.694 17.9113L181.784 25.5188ZM175.689 32.5446L176.438 29.7749H182.889L183.647 32.5446H190.09L183.02 11.6426H176.438L169.359 32.5446H175.689Z" fill="white"/>
<path d="M192.852 32.5446V11.6426H198.894L205.711 22.8322V11.6426H211.919V32.5446H205.755L199.085 21.6227V32.5446H192.852Z" fill="white"/>
<path d="M216.243 32.5446V11.6426H222.521V18.5299L228.389 11.6426H235.998L228.781 19.5085L236.756 32.5446H228.998L224.253 24.2355L222.512 26.0358V32.563H216.234" fill="white"/>
<path d="M0 0H41.6609V44.1767H0V0Z" fill="#ED232A"/>
<path d="M7.29688 7.73633H34.3742V36.4489H7.29688V7.73633Z" fill="white"/>
<path d="M18.7422 0H22.9126V44.1767H18.7422V0Z" fill="white"/>
<path d="M0 19.8867H41.6609V24.2998H0V19.8867Z" fill="white"/>
<path d="M14.5859 15.4648H27.0885V28.7225H14.5859V15.4648Z" fill="#004C8F"/>
</svg>
