<svg width="250" height="66" viewBox="0 0 250 66" fill="none" xmlns="http://www.w3.org/2000/svg">
<g clip-path="url(#clip0_213_13229)">
<path fill-rule="evenodd" clip-rule="evenodd" d="M38.114 65.4071C17.1174 65.4071 0 50.7303 0 32.7035C0 14.6767 17.1174 0 38.114 0C59.1107 0 76.2678 14.6767 76.2678 32.7035C76.2678 50.7303 59.1107 65.4071 38.114 65.4071Z" fill="#004A8F"/>
<path fill-rule="evenodd" clip-rule="evenodd" d="M62.5934 35.8945L66.8327 36.0939C64.3131 53.7219 47.5558 54.9982 39.1172 37.9286L40.1968 36.0939C48.9554 41.6375 59.194 43.7115 62.5934 35.8945Z" fill="white"/>
<path fill-rule="evenodd" clip-rule="evenodd" d="M33.7515 10.3691L42.2301 7.61719L42.5901 55.5956L33.3516 58.7064L33.7515 10.3691Z" fill="#ED1C24"/>
<path fill-rule="evenodd" clip-rule="evenodd" d="M62.7918 29.5519H66.7912C65.2714 21.5755 61.1921 16.4308 53.2733 15.7129C46.6744 15.7129 41.2752 19.7011 36.4359 27.1591C33.3964 31.7854 28.4373 39.1238 22.5583 39.9215C21.1605 40.3049 19.6797 40.2634 18.3058 39.8022C16.9318 39.341 15.7272 38.4812 14.8464 37.3329C13.9656 36.1847 13.4487 34.8002 13.362 33.3571C13.2753 31.914 13.6226 30.478 14.3595 29.233C15.583 27.6722 17.1916 26.4548 19.0283 25.6998C20.865 24.9448 22.8669 24.678 24.8379 24.9257C27.938 25.1586 30.9452 26.0855 33.6363 27.6377V20.8177C32.1687 19.4147 30.5453 18.1838 28.7973 17.1486C26.5096 15.9244 23.8799 15.4897 21.3185 15.9123C10.5202 18.2653 8.56051 27.0793 10.5602 38.8047C14.7595 52.3646 27.8375 53.4017 35.3563 44.7074C40.5154 38.5256 53.3133 17.7867 62.7518 29.5519H62.7918Z" fill="white"/>
<path fill-rule="evenodd" clip-rule="evenodd" d="M120.381 41.1986C121.881 41.3722 123.401 41.229 124.842 40.7782C126.282 40.3275 127.612 39.5792 128.743 38.5823C129.875 37.5854 130.784 36.3622 131.41 34.9921C132.036 33.6219 132.367 32.1355 132.379 30.6297C132.379 27.4565 131.115 24.4131 128.865 22.1693C126.615 19.9255 123.563 18.665 120.381 18.665C117.199 18.665 114.147 19.9255 111.897 22.1693C109.647 24.4131 108.383 27.4565 108.383 30.6297C108.395 32.1355 108.725 33.6219 109.352 34.9921C109.978 36.3622 110.887 37.5854 112.018 38.5823C113.15 39.5792 114.48 40.3275 115.92 40.7782C117.361 41.229 118.881 41.3722 120.381 41.1986ZM120.381 36.2533C117.221 36.2533 115.822 33.4614 115.822 30.6297C115.822 27.7981 117.221 24.6873 120.381 24.6873C123.54 24.6873 124.98 27.479 124.98 30.6297C124.98 33.7804 123.54 36.2533 120.381 36.2533ZM131.659 25.3652H135.658V33.3417C135.658 38.2472 137.418 41.0789 143.657 41.0789C145.417 41.0789 146.497 40.7201 147.896 40.7201L147.537 36.1335C146.817 36.1335 146.137 36.4925 145.417 36.4925C143.297 36.4925 142.617 35.0967 142.617 32.5043V25.1259H147.537V20.2205H142.617V13.2012L135.978 15.9531V20.4997H131.739V25.4051L131.659 25.3652ZM171.973 40.8396H179.052V30.6297H179.371L185.011 40.8396H193.489L185.73 29.5927L192.769 20.4598H185.17L179.532 28.8749H179.211V13.4405L171.973 15.9531V40.8795V40.8396ZM89.5859 40.8396H96.6246V30.6297L102.264 40.8396H110.702L103.304 29.5927L110.343 20.4598H102.784L96.7847 28.8749V13.4405L89.7458 15.5543V40.8396H89.5859ZM169.573 40.8396C169.275 39.2223 169.154 37.5775 169.213 35.9341V28.197C169.213 21.8557 164.654 19.7419 159.335 19.7419C156.599 19.6773 153.878 20.1656 151.336 21.1776V26.0831C153.42 25.0952 155.709 24.6168 158.015 24.6873C160.495 24.6873 162.614 25.3653 162.614 28.197C161.579 27.8803 160.494 27.7584 159.415 27.8379C155.415 27.8379 148.536 28.5558 148.536 34.8572C148.536 39.4437 152.536 41.1986 156.255 41.1986C157.589 41.2771 158.919 40.9917 160.103 40.3734C161.287 39.7551 162.279 38.8272 162.974 37.689C162.974 38.7259 163.294 39.7628 163.294 40.8396H169.573ZM155.135 34.1793C155.135 32.3846 157.255 31.7066 159.695 31.7066H162.534C162.602 32.9124 162.197 34.0972 161.407 35.012C160.616 35.9269 159.501 36.5004 158.295 36.6121C156.535 36.6121 155.135 35.5752 155.135 34.1793Z" fill="#ED1C24"/>
<path fill-rule="evenodd" clip-rule="evenodd" d="M195.967 14.4766C196.541 14.4855 197.104 14.6362 197.606 14.9152C198.14 15.1866 198.574 15.6193 198.846 16.1516C199.134 16.6487 199.285 17.2128 199.285 17.7869C199.285 18.3609 199.134 18.9248 198.846 19.4219C198.576 19.9423 198.159 20.3722 197.646 20.6583C197.13 20.9375 196.554 21.088 195.967 21.0969C195.392 21.0879 194.829 20.9373 194.327 20.6583C193.814 20.3722 193.397 19.9423 193.127 19.4219C192.839 18.9248 192.687 18.3609 192.688 17.7869C192.687 17.2128 192.839 16.6487 193.127 16.1516C193.389 15.6124 193.826 15.177 194.367 14.9152C194.854 14.6363 195.405 14.4854 195.967 14.4766ZM195.967 15.035C195.49 15.0407 195.023 15.1639 194.607 15.3938C194.18 15.6184 193.832 15.9659 193.607 16.3908C193.347 16.8104 193.209 17.2937 193.207 17.7869C193.207 18.2623 193.332 18.7293 193.567 19.1427C193.807 19.5662 194.156 19.9187 194.578 20.1639C194.999 20.4091 195.478 20.5385 195.967 20.5388C196.456 20.538 196.937 20.4145 197.366 20.1797C197.794 19.9386 198.141 19.5782 198.366 19.1427C198.601 18.7293 198.726 18.2623 198.726 17.7869C198.72 17.2995 198.597 16.8205 198.366 16.3908C198.124 15.9645 197.763 15.618 197.326 15.3938C196.912 15.159 196.443 15.0355 195.967 15.035ZM194.527 19.6213V15.9522H195.767H196.646C196.837 16.0242 197.003 16.1488 197.126 16.3112C197.263 16.481 197.337 16.6918 197.337 16.9093C197.337 17.1268 197.263 17.3379 197.126 17.5077C196.919 17.7002 196.649 17.813 196.366 17.8265L196.686 18.0261C196.884 18.2329 197.058 18.4602 197.206 18.7041L197.646 19.4219H196.926L196.606 18.8635C196.46 18.5497 196.257 18.2658 196.007 18.0261C195.865 17.9743 195.709 17.9743 195.567 18.0261H195.207V19.5417L194.527 19.6213ZM195.087 17.6272H195.967C196.189 17.6883 196.424 17.6883 196.646 17.6272C196.696 17.4988 196.696 17.3569 196.646 17.2285C196.677 17.1379 196.677 17.0398 196.646 16.9492C196.622 16.9017 196.588 16.8594 196.547 16.8251C196.506 16.7908 196.458 16.7654 196.406 16.7499H195.167V17.8265L195.087 17.6272Z" fill="#004A8F"/>
<path d="M98.5844 59.8247H96.7045L91.9053 54.281L91.5855 53.8822V59.8247H90.2656V47.86H91.5855V53.5631L91.9053 53.1644L96.5446 47.86H98.2243L92.9451 53.6829L98.5844 59.9841V59.8247ZM99.2242 55.8364C99.1541 54.5869 99.5693 53.3586 100.384 52.4066C100.806 51.9844 101.313 51.656 101.871 51.4429C102.429 51.2298 103.026 51.1369 103.623 51.1703C104.179 51.1507 104.733 51.2469 105.25 51.4529C105.766 51.6589 106.234 51.9702 106.623 52.3667C107.387 53.2958 107.772 54.4775 107.703 55.677C107.771 56.89 107.354 58.0804 106.543 58.987C106.148 59.4134 105.664 59.7486 105.125 59.969C104.586 60.1894 104.005 60.2899 103.423 60.2633C102.858 60.2834 102.295 60.1836 101.771 59.9705C101.247 59.7573 100.774 59.4357 100.384 59.027C99.5914 58.157 99.1748 57.0107 99.2242 55.8364ZM100.544 55.8364C100.507 56.7294 100.79 57.6063 101.344 58.3091C101.618 58.6067 101.952 58.8425 102.324 59.0007C102.697 59.1589 103.099 59.2358 103.503 59.2263C103.904 59.2467 104.303 59.1747 104.671 59.0155C105.039 58.8564 105.365 58.6146 105.623 58.3091C106.175 57.5919 106.445 56.6984 106.383 55.7965C106.43 54.884 106.162 53.9829 105.623 53.244C105.363 52.9433 105.035 52.7074 104.667 52.5551C104.299 52.4028 103.901 52.3383 103.503 52.3667C103.099 52.3572 102.697 52.4341 102.324 52.5923C101.952 52.7505 101.618 52.9863 101.344 53.2839C100.791 54.0176 100.508 54.9192 100.544 55.8364ZM113.902 59.8247C113.523 60.033 113.093 60.1299 112.662 60.1039C111.142 60.1039 110.422 59.2663 110.422 57.5913V52.3667H108.903V51.2499H110.422V49.1362L111.702 48.6976V51.2499H113.902V52.3667H111.702V57.352C111.664 57.801 111.777 58.2499 112.022 58.6282C112.15 58.7606 112.307 58.8617 112.48 58.924C112.653 58.9862 112.839 59.0078 113.022 58.987C113.34 59.0064 113.654 58.9068 113.902 58.7078V59.8247ZM116.022 51.8482C116.889 51.2854 117.906 50.9937 118.941 51.0106C120.941 51.0106 121.981 52.0876 121.981 54.2014V59.8247H120.661V58.4686C120.407 58.957 120.022 59.3653 119.549 59.6472C119.076 59.9291 118.532 60.0734 117.981 60.0639C117.61 60.0874 117.238 60.0359 116.888 59.9125C116.537 59.7892 116.215 59.5966 115.941 59.3461C115.699 59.1164 115.509 58.837 115.385 58.5272C115.26 58.2174 115.205 57.8846 115.222 57.5513C115.222 55.956 116.142 54.9988 118.061 54.7196L120.701 54.3608C120.701 52.8453 120.101 52.0875 118.861 52.0875C117.823 52.0705 116.819 52.4567 116.062 53.1644V51.8482H116.022ZM118.501 55.8364C117.951 55.8737 117.424 56.0676 116.981 56.3948C116.697 56.6977 116.539 57.0968 116.539 57.5114C116.539 57.9261 116.697 58.3253 116.981 58.6282C117.33 58.9109 117.772 59.0531 118.221 59.027C118.542 59.0349 118.862 58.9752 119.158 58.8515C119.454 58.7277 119.721 58.5429 119.941 58.3091C120.42 57.8036 120.678 57.1299 120.661 56.4348V55.5572L118.501 55.8364ZM131.739 59.8247H129.859L125.86 55.8364V59.8247H124.54V47.0623H125.86V55.0387L129.579 51.0505H131.299L127.3 55.0387L131.699 59.5055L131.739 59.8247ZM148.376 59.8247V51.8482C148.376 51.2101 148.376 50.4522 148.376 49.495C148.31 49.8952 148.189 50.2845 148.016 50.6518L143.977 59.8247H143.377L139.138 50.4921C138.991 50.1017 138.871 49.702 138.778 49.2957C138.832 50.0658 138.832 50.8388 138.778 51.6089V59.8247H137.498V47.86H139.218L143.217 56.3948C143.45 56.8592 143.65 57.3389 143.817 57.8305L144.417 56.3549L148.416 47.86H150.096V59.8247H148.376ZM152.936 51.8482C153.818 51.2844 154.847 50.993 155.895 51.0106C157.895 51.0106 158.935 52.0876 158.935 54.2014V59.8247H157.615V58.4686C157.368 58.9538 156.99 59.3606 156.524 59.6426C156.057 59.9245 155.521 60.0705 154.975 60.0639C154.604 60.0874 154.232 60.0359 153.882 59.9125C153.531 59.7892 153.21 59.5966 152.936 59.3461C152.679 59.1255 152.477 58.8488 152.345 58.5374C152.213 58.2261 152.155 57.8886 152.176 57.5513C152.176 55.956 153.136 54.9988 155.055 54.7196L157.695 54.3608C157.695 52.8453 157.055 52.0875 155.855 52.0875C154.808 52.088 153.798 52.4712 153.016 53.1644V51.8482H152.936ZM155.455 55.8364C154.895 55.8827 154.357 56.0753 153.895 56.3948C153.739 56.5505 153.619 56.7381 153.543 56.9447C153.467 57.1514 153.437 57.3719 153.455 57.5913C153.449 57.7894 153.489 57.9862 153.573 58.1662C153.656 58.3462 153.78 58.5044 153.935 58.6282C154.284 58.9109 154.726 59.0531 155.175 59.027C155.496 59.0349 155.816 58.9752 156.112 58.8515C156.408 58.7277 156.675 58.5429 156.895 58.3091C157.374 57.8036 157.632 57.1299 157.615 56.4348V55.5572L155.455 55.8364ZM168.693 59.8247H167.413V54.8394C167.413 53.0048 166.733 52.0875 165.334 52.0875C165.001 52.089 164.671 52.1608 164.368 52.2983C164.065 52.4358 163.794 52.6359 163.574 52.8852C163.092 53.4502 162.849 54.1791 162.894 54.9192V59.8247H161.574V47.0623H162.894V52.6459C163.168 52.1374 163.579 51.7149 164.081 51.4261C164.582 51.1373 165.155 50.9934 165.734 51.0106C167.693 51.0106 168.653 52.1672 168.653 54.5602V59.8247H168.693ZM171.213 47.86C171.207 47.6244 171.293 47.396 171.453 47.222C171.615 47.0706 171.83 46.9863 172.053 46.9863C172.275 46.9863 172.489 47.0706 172.652 47.222C172.742 47.3021 172.814 47.4003 172.862 47.5104C172.91 47.6205 172.934 47.7398 172.932 47.86C172.937 47.9747 172.914 48.0889 172.865 48.193C172.817 48.2971 172.744 48.3882 172.652 48.4583C172.575 48.5376 172.481 48.5997 172.378 48.6409C172.274 48.6821 172.164 48.7015 172.053 48.6976C171.939 48.7103 171.824 48.6972 171.717 48.6596C171.609 48.622 171.511 48.5607 171.43 48.4802C171.35 48.3998 171.288 48.3023 171.251 48.1949C171.213 48.0875 171.2 47.973 171.213 47.86ZM171.213 59.8247V51.1703H172.532V59.8247H171.213ZM182.531 59.8247H181.211V54.8793C181.211 53.0048 180.531 52.0875 179.171 52.0875C178.831 52.0833 178.495 52.1523 178.184 52.29C177.874 52.4277 177.596 52.6308 177.372 52.8852C176.913 53.4475 176.672 54.1549 176.692 54.8793V59.8247H175.372V51.1703H176.692V52.606C176.966 52.0974 177.377 51.6752 177.879 51.3864C178.38 51.0976 178.953 50.9538 179.531 50.9709C179.943 50.9501 180.355 51.0215 180.736 51.1802C181.116 51.339 181.456 51.581 181.731 51.8881C182.297 52.6593 182.567 53.6074 182.491 54.5602V59.8247H182.531ZM192.529 59.8247H191.209V58.349C190.923 58.8882 190.489 59.3354 189.958 59.6389C189.428 59.9424 188.821 60.0898 188.21 60.0639C187.713 60.0827 187.218 59.9841 186.767 59.7762C186.315 59.5683 185.918 59.257 185.61 58.8675C184.912 57.969 184.558 56.852 184.61 55.7167C184.537 54.4736 184.937 53.2488 185.73 52.2868C186.074 51.8583 186.513 51.5162 187.013 51.2876C187.513 51.059 188.06 50.9506 188.61 50.9709C189.136 50.9329 189.662 51.0482 190.124 51.3032C190.585 51.5581 190.963 51.9416 191.209 52.4066V47.0623H192.529V59.8247ZM191.209 54.64C191.221 53.9578 190.962 53.2986 190.49 52.8053C190.261 52.5724 189.987 52.3886 189.684 52.2652C189.381 52.1417 189.057 52.0813 188.73 52.0875C188.332 52.0718 187.936 52.1504 187.575 52.3168C187.213 52.4832 186.896 52.7326 186.65 53.0446C186.136 53.8088 185.884 54.7182 185.93 55.6371C185.886 56.4937 186.14 57.3393 186.65 58.0299C186.865 58.3239 187.148 58.5611 187.476 58.721C187.803 58.8808 188.165 58.9586 188.53 58.9474C188.897 58.963 189.262 58.8915 189.596 58.739C189.929 58.5865 190.222 58.3571 190.45 58.0698C190.968 57.4904 191.241 56.7325 191.209 55.9562V54.64ZM199.848 52.5261C199.544 52.316 199.177 52.2174 198.808 52.2469C198.499 52.2435 198.195 52.3233 197.928 52.4777C197.66 52.6321 197.439 52.8555 197.289 53.1245C196.864 53.8049 196.655 54.5971 196.689 55.3978V59.8247H195.369V51.1703H196.689V52.965C196.864 52.4146 197.181 51.9194 197.608 51.5291C197.986 51.2016 198.468 51.0179 198.968 51.0106C199.246 50.9596 199.531 50.9596 199.808 51.0106V52.4066L199.848 52.5261ZM201.568 51.8083C202.436 51.2455 203.452 50.954 204.487 50.9709C206.527 50.9709 207.527 52.0477 207.527 54.1614V59.8247H206.207V58.4686C205.957 58.96 205.573 59.3709 205.099 59.6533C204.625 59.9357 204.08 60.0781 203.528 60.0639C202.78 60.0981 202.048 59.8406 201.488 59.3461C201.245 59.1164 201.055 58.837 200.931 58.5272C200.807 58.2174 200.751 57.8846 200.768 57.5513C200.768 55.956 201.728 54.9988 203.607 54.7196L206.247 54.3608C206.247 52.8453 205.647 52.0875 204.447 52.0875C203.401 52.088 202.39 52.4712 201.608 53.1644V51.8482L201.568 51.8083ZM204.088 55.7965C203.524 55.8262 202.982 56.0204 202.528 56.3549C202.372 56.5105 202.251 56.6982 202.175 56.9048C202.099 57.1114 202.07 57.332 202.088 57.5513C202.082 57.7495 202.121 57.9463 202.205 58.1263C202.288 58.3063 202.412 58.4645 202.568 58.5883C202.904 58.8649 203.332 59.007 203.767 58.987C204.095 58.9956 204.42 58.9363 204.723 58.8128C205.026 58.6892 205.3 58.504 205.527 58.2692C205.977 57.7491 206.219 57.0818 206.207 56.3948V55.5173L204.088 55.7965ZM214.406 59.7847V47.82H217.805C218.684 47.7703 219.55 48.0395 220.245 48.5778C220.54 48.8272 220.776 49.1392 220.935 49.4911C221.095 49.843 221.173 50.2259 221.165 50.6119C221.196 51.2449 220.997 51.8681 220.605 52.3667C220.236 52.8965 219.702 53.2891 219.085 53.4833C219.834 53.519 220.539 53.8489 221.045 54.4007C221.541 54.9597 221.799 55.6892 221.765 56.4348C221.783 56.9072 221.695 57.3775 221.508 57.812C221.321 58.2466 221.04 58.6345 220.685 58.9474C219.888 59.6039 218.877 59.9446 217.845 59.9045L214.406 59.7847ZM215.726 48.8969V52.8852H217.205C217.878 52.9208 218.542 52.7235 219.085 52.3268C219.317 52.1248 219.499 51.8721 219.617 51.5885C219.735 51.3048 219.785 50.9981 219.765 50.6917C219.765 49.4952 219.005 48.8969 217.405 48.8969H215.726ZM215.726 54.1215V58.5484H217.685C218.402 58.5907 219.11 58.3789 219.685 57.9503C219.922 57.7503 220.11 57.499 220.234 57.2157C220.359 56.9323 220.417 56.6242 220.405 56.315C220.405 54.8394 219.365 54.1215 217.365 54.1215H215.726ZM224.284 51.7684C225.166 51.2046 226.196 50.9134 227.244 50.931C229.243 50.931 230.243 52.0078 230.243 54.1215V59.8247H228.963V58.4686C228.717 58.9538 228.339 59.3606 227.872 59.6426C227.406 59.9245 226.869 60.0705 226.324 60.0639C225.953 60.0874 225.581 60.0359 225.231 59.9125C224.88 59.7892 224.558 59.5966 224.284 59.3461C224.027 59.1255 223.825 58.8488 223.693 58.5374C223.562 58.2261 223.504 57.8886 223.524 57.5513C223.524 55.956 224.484 54.9988 226.404 54.7196L229.003 54.3608C229.003 52.8453 228.403 52.0875 227.204 52.0875C226.157 52.088 225.147 52.4712 224.364 53.1644V51.8482L224.284 51.7684ZM226.804 55.7566C226.244 55.8029 225.706 55.9955 225.244 56.315C225.088 56.4706 224.968 56.6583 224.892 56.8649C224.816 57.0715 224.786 57.2921 224.804 57.5114C224.798 57.7096 224.838 57.9064 224.921 58.0864C225.005 58.2664 225.129 58.4246 225.284 58.5484C225.633 58.8311 226.075 58.9735 226.524 58.9474C226.845 58.9553 227.164 58.8953 227.461 58.7716C227.757 58.6479 228.024 58.463 228.244 58.2293C228.475 57.977 228.655 57.6817 228.771 57.36C228.888 57.0383 228.94 56.6966 228.923 56.3549V55.4774L226.804 55.7566ZM240.042 59.7448H238.722V54.7995C238.722 52.925 238.042 52.0076 236.682 52.0076C236.348 52.0011 236.016 52.0695 235.712 52.2075C235.407 52.3455 235.137 52.5498 234.922 52.8053C234.433 53.3521 234.175 54.0669 234.203 54.7995V59.8247H232.923V51.1703H234.203V52.606C234.487 52.0973 234.906 51.6759 235.414 51.3876C235.921 51.0994 236.498 50.9554 237.082 50.9709C237.489 50.9442 237.897 51.0131 238.272 51.1725C238.647 51.3318 238.979 51.577 239.242 51.8881C239.808 52.6593 240.078 53.6074 240.002 54.5602V59.8247L240.042 59.7448ZM249.84 59.7448H247.96L243.961 55.7566V59.7448H242.641V47.0623H243.961V55.0387L247.68 51.0505H249.4L245.401 55.0387L249.84 59.5055V59.7448Z" fill="#003974"/>
</g>
<defs>
<clipPath id="clip0_213_13229">
<rect width="250" height="65.407" fill="white"/>
</clipPath>
</defs>
</svg>
