<svg width="187" height="60" viewBox="0 0 187 60" fill="none" xmlns="http://www.w3.org/2000/svg">
<g clip-path="url(#clip0_213_13245)">
<path fill-rule="evenodd" clip-rule="evenodd" d="M0 0H186.383V59.2557H0V0Z" fill="#005BAA"/>
<path fill-rule="evenodd" clip-rule="evenodd" d="M0 49.9805H186.383V59.9996H0V49.9805Z" fill="#F58220"/>
<path fill-rule="evenodd" clip-rule="evenodd" d="M144.859 27.4241H147.938H148.284C148.284 27.4241 149.665 18.0062 149.895 16.1741C149.914 15.9155 149.982 15.6628 150.096 15.4298C152.686 18.2924 156.456 21.8419 159.219 24.6186L162.096 27.7103C162.309 26.9905 162.453 26.2525 162.528 25.506L163.506 18.7217C163.967 15.8591 164.542 12.5671 164.859 9.58998H161.147C161.147 9.58998 159.765 19.9812 159.621 20.3534C159.477 20.7255 159.621 20.3534 159.621 20.5538L155.823 16.9182C155.507 16.632 155.391 16.4603 155.075 16.1454C154.758 15.8306 154.01 15.1721 153.492 14.6855L152.773 13.9698L151.967 13.2255L148.917 10.3629C148.456 9.8763 147.823 9.44691 147.363 8.93164L144.888 27.5672L144.859 27.4241Z" fill="white"/>
<path fill-rule="evenodd" clip-rule="evenodd" d="M116.691 24.6746L117.41 19.522C118.587 19.3071 119.802 19.4884 120.863 20.0372C121.308 20.2537 121.669 20.6083 121.892 21.0475C122.115 21.4866 122.189 21.9861 122.101 22.4704C122.048 22.9543 121.845 23.41 121.52 23.7741C121.195 24.1383 120.764 24.3929 120.288 24.5029C119.14 24.7897 117.947 24.848 116.777 24.6746H116.691ZM118.504 12.1364C120.374 12.1364 122.245 12.6803 121.842 14.8273C121.758 15.1851 121.588 15.5176 121.348 15.7966C121.107 16.0756 120.803 16.293 120.46 16.4303C119.631 16.8035 118.718 16.9518 117.813 16.8598L118.504 12.1364ZM112.547 27.4799C116.115 27.4799 121.007 27.9094 123.626 26.1059C124.132 25.7568 124.561 25.3083 124.886 24.7882C125.212 24.2681 125.427 23.6873 125.519 23.0814C125.611 22.4755 125.577 21.8572 125.419 21.2648C125.262 20.6724 124.985 20.1183 124.604 19.6364C124.401 19.33 124.148 19.0592 123.856 18.835C123.525 18.6078 123.225 18.3382 122.964 18.0334C123.848 17.5256 124.531 16.7313 124.898 15.783C125.264 14.8347 125.293 13.79 124.978 12.8234C124.762 12.2013 124.397 11.6412 123.913 11.1917C122.922 10.251 121.627 9.69279 120.259 9.61735C118.762 9.4456 116.576 9.61735 114.993 9.61735L112.547 27.5372V27.4799Z" fill="white"/>
<path fill-rule="evenodd" clip-rule="evenodd" d="M34.8176 24.6472C34.8176 24.0174 36.3716 12.7961 36.5155 12.4812C39.2492 12.4812 40.7168 12.2236 42.4434 13.8267C43.1698 14.5257 43.7065 15.3962 44.0034 16.3573C44.3002 17.3184 44.3477 18.3386 44.1412 19.3228C43.9393 20.7288 43.2568 22.0228 42.2087 22.9872C41.1606 23.9516 39.8108 24.5276 38.386 24.6185C37.2078 24.7042 36.0247 24.7042 34.8464 24.6185L34.8176 24.6472ZM30.8465 27.5098C34.638 27.8456 38.4593 27.5554 42.1557 26.6511C43.5486 26.0184 44.7556 25.042 45.6622 23.8145C46.5688 22.587 47.1448 21.149 47.3353 19.6377C47.7666 17.9257 47.5622 16.1164 46.7598 14.5423C46.1175 13.2063 45.123 12.0685 43.8822 11.2503C40.8031 9.27509 37.2636 9.61858 33.235 9.61858L30.7891 27.5098H30.8465Z" fill="white"/>
<path fill-rule="evenodd" clip-rule="evenodd" d="M66.1849 12.5095C66.4289 12.4363 66.6892 12.4363 66.9331 12.5095C67.7334 12.4388 68.5395 12.5464 69.2928 12.8243C69.7143 13.06 70.038 13.4367 70.2066 13.8875C70.3752 14.3383 70.3778 14.8339 70.2136 15.2863C69.7532 17.376 67.854 17.6049 65.4943 17.5477L66.1849 12.6526V12.5095ZM60.4297 27.4808H64.1131L64.89 21.9274C64.89 21.6125 64.89 21.2977 64.89 20.9828C64.8765 20.6709 64.9567 20.362 65.1202 20.0954C65.7533 20.0954 65.8971 20.811 66.5302 21.7843C67.1633 22.7576 69.9258 27.5095 70.156 27.5095H73.753C73.4941 26.9083 72.9761 26.1641 72.6307 25.5629L69.2064 19.8377C70.4184 19.6554 71.5245 19.0468 72.3239 18.1223C73.1233 17.1979 73.5628 16.0189 73.5628 14.7995C73.5628 13.5801 73.1233 12.4012 72.3239 11.4767C71.5245 10.5523 70.4184 9.94362 69.2064 9.76134C67.1274 9.61862 65.041 9.61862 62.962 9.76134L60.4297 27.4808Z" fill="white"/>
<path fill-rule="evenodd" clip-rule="evenodd" d="M164.711 27.4798H168.452L169.286 21.5257C169.459 20.2662 169.286 20.6096 169.919 19.8367C170.38 20.0371 174.84 25.5618 175.675 26.392C175.976 26.6986 176.246 27.0343 176.48 27.394H180.739C180.739 27.0505 175.272 20.4665 174.783 19.8654L172.826 17.3463C173.085 17.0027 178.754 11.8787 179.588 11.0485C180.423 10.2184 180.538 10.247 181.171 9.58856C179.792 9.48611 178.407 9.48611 177.027 9.58856C177.027 9.58856 174.869 11.4779 174.754 11.6211C174.577 11.8084 174.384 11.9807 174.178 12.1363C173.401 12.7375 170.696 15.3996 170.178 15.6572L171.013 9.53142H167.416C167.157 9.53142 167.215 10.018 167.128 10.5333L166.668 13.9398C166.063 18.0905 165.2 23.5294 164.769 27.4798H164.711Z" fill="white"/>
<path fill-rule="evenodd" clip-rule="evenodd" d="M82.6448 20.7242C83.0476 19.98 83.5658 19.293 84.0549 18.4915C84.4931 17.7087 84.9934 16.962 85.5512 16.2586L86.9038 20.7815H82.6448V20.7242ZM74.2422 27.4514H78.3572L80.7744 23.6441H87.7958L89.0908 27.4799H92.7452C92.6013 26.936 86.8461 9.61732 86.472 8.87305C86.2027 9.22166 85.9529 9.58482 85.7238 9.96085L75.7386 25.1041C75.189 25.8533 74.6891 26.6375 74.2422 27.4514Z" fill="white"/>
<path fill-rule="evenodd" clip-rule="evenodd" d="M133.288 20.7249C133.777 20.0092 134.266 19.2078 134.727 18.4635L136.194 16.2306L137.576 20.7535L133.288 20.7249ZM124.914 27.4521H129.029C129.375 26.7937 129.835 26.1353 130.267 25.4769L130.9 24.4749C131.072 24.1886 131.302 23.6448 131.648 23.6448H138.468L139.648 27.4806H143.388L137.173 8.90234C136.799 9.27448 127.303 23.7593 126.41 25.1334L124.914 27.4521Z" fill="white"/>
<path fill-rule="evenodd" clip-rule="evenodd" d="M47.1953 27.4531L57.9288 27.3958L58.3029 24.6191H51.1376L51.857 19.4664H54.1879H59.0511L59.4827 16.4893H52.3462L52.9218 12.4244H60.1158L60.5474 9.5332L49.6988 9.56183L47.1953 27.4531Z" fill="white"/>
<path fill-rule="evenodd" clip-rule="evenodd" d="M17.8125 27.4804H28.5459L28.8912 24.6178H21.726L22.4454 19.4938H27.8265C28.4276 19.5815 29.0384 19.5815 29.6394 19.4938L30.1 16.6312H23.021L23.5677 12.595H30.7618L31.1647 9.73242H20.316L17.8413 27.6521L17.8125 27.4804Z" fill="white"/>
<path fill-rule="evenodd" clip-rule="evenodd" d="M5.92969 27.3953H9.41157C9.64178 27.2521 9.4116 27.3952 9.61303 27.0231L9.84329 25.4774C10.0159 24.3037 10.5627 20.0097 10.7929 19.4372H16.8934L17.4401 16.5746H11.1958C11.1958 16.1452 11.6561 13.025 11.7712 12.5384H18.0157L18.361 9.67578H8.63465L6.07353 27.5384L5.92969 27.3953Z" fill="white"/>
<path fill-rule="evenodd" clip-rule="evenodd" d="M93.4922 27.3945L103.334 27.4231L103.679 24.5892H97.6359L99.5352 9.56055L96.0533 9.58917L93.4922 27.3945Z" fill="white"/>
<path d="M7.94187 39.074C7.62533 38.5873 7.25117 37.9861 6.79076 37.3277L6.12896 36.3831L5.46708 35.4957L5.26562 35.2094H6.58939C6.64865 35.3792 6.72578 35.5423 6.81956 35.696L7.22247 36.3831L7.62529 37.0128C7.9706 37.5853 8.28719 38.0434 8.57495 38.4441C8.83393 38.072 9.12166 37.6141 9.4382 37.0988L9.89863 36.3831C10.0713 36.1255 10.1864 35.8964 10.2727 35.7533C10.3667 35.5797 10.4438 35.3976 10.5029 35.2094H11.5101L11.2799 35.4957L10.6468 36.3831L10.0138 37.2705L8.94897 38.8736V40.9919C8.94897 41.3068 8.94897 41.5645 8.94897 41.7648H7.85555C7.87615 41.5076 7.87615 41.2491 7.85555 40.9919V39.074H7.94187ZM16.0568 41.9366C15.0159 42.0024 13.9882 41.6753 13.1791 41.0205C12.8203 40.7393 12.5341 40.377 12.3439 39.9638C12.1538 39.5507 12.0653 39.0985 12.0856 38.6445C12.0727 38.1681 12.1667 37.6948 12.3609 37.259C12.555 36.8232 12.8443 36.4359 13.2079 36.1254C14.0441 35.5204 15.0516 35.1945 16.0856 35.1945C17.1196 35.1945 18.127 35.5204 18.9632 36.1254C19.3219 36.4067 19.6082 36.769 19.7983 37.1821C19.9885 37.5953 20.0769 38.0475 20.0565 38.5014C20.0736 38.9785 19.9815 39.4532 19.7871 39.8896C19.5927 40.326 19.3011 40.7127 18.9344 41.0205C18.1281 41.686 17.1037 42.0324 16.0568 41.9937V41.9366ZM16.0568 41.5358C16.4451 41.5456 16.8314 41.4772 17.1924 41.3345C17.5534 41.1918 17.8817 40.9778 18.1574 40.7055C18.4328 40.4044 18.6458 40.0523 18.784 39.6691C18.9223 39.2859 18.9833 38.8794 18.9632 38.4728C18.9808 38.0837 18.9184 37.6952 18.7798 37.331C18.6413 36.9668 18.4294 36.6345 18.1574 36.3545C17.8793 36.0874 17.55 35.8788 17.1891 35.741C16.8282 35.6033 16.4431 35.5393 16.0568 35.5529C15.6664 35.5468 15.2787 35.6198 14.9176 35.7674C14.5564 35.9151 14.2293 36.1342 13.9561 36.4116C13.4173 37.017 13.1383 37.8083 13.1791 38.6159C13.1577 39.0029 13.2155 39.3902 13.3491 39.7543C13.4826 40.1185 13.6891 40.4518 13.9561 40.7342C14.2341 41.0013 14.5635 41.2099 14.9244 41.3476C15.2854 41.4853 15.6704 41.5494 16.0568 41.5358ZM27.7973 38.9594C27.8308 39.3605 27.7791 39.7642 27.6452 40.144C27.5113 40.5238 27.2985 40.8712 27.0205 41.1636C26.7077 41.4383 26.343 41.648 25.9477 41.7807C25.5524 41.9135 25.1345 41.9665 24.7184 41.9366C23.9038 42.0149 23.09 41.7791 22.445 41.2781C22.1841 41.0223 21.9821 40.7132 21.8529 40.3722C21.7237 40.0311 21.6704 39.6663 21.6968 39.3029V36.4403C21.6968 36.0395 21.6968 35.7819 21.6968 35.6102C21.6968 35.4384 21.6968 35.3526 21.6968 35.2667H22.7903C22.7693 35.3899 22.7693 35.5157 22.7903 35.6388C22.7903 35.782 22.7903 36.0395 22.7903 36.4403C22.7903 36.841 22.7903 37.7857 22.7903 38.6159V38.988C22.7338 39.6543 22.9287 40.3177 23.337 40.8488C23.5663 41.064 23.8385 41.2287 24.136 41.3322C24.4335 41.4358 24.7496 41.4758 25.0637 41.4498C25.3871 41.4765 25.7122 41.4313 26.0158 41.3174C26.3194 41.2035 26.5938 41.0239 26.819 40.7915C27.2469 40.2151 27.442 39.5001 27.3658 38.7876V36.4403C27.386 36.1639 27.386 35.8865 27.3658 35.6102C27.3856 35.4965 27.3856 35.3803 27.3658 35.2667H28.1428C28.1529 35.4001 28.1529 35.5341 28.1428 35.6675C28.1428 35.6675 28.1428 36.0681 28.1428 36.4403C28.1428 36.8124 28.1428 37.7857 28.1428 38.6159V38.9594H27.7973ZM29.8693 40.6484C29.8693 40.0186 29.8693 39.3315 29.8693 38.5586C29.8693 37.7857 29.8693 37.07 29.8693 36.4403C29.8693 35.8105 29.8693 35.7533 29.8693 35.5815C29.8693 35.4098 29.8693 35.3239 29.8693 35.2667H32.2001C32.8179 35.2252 33.4352 35.3539 33.9842 35.6388C34.1724 35.7698 34.324 35.9461 34.4247 36.1515C34.5254 36.3568 34.5719 36.5843 34.5598 36.8124C34.5552 37.0869 34.4714 37.3544 34.3183 37.5828C34.1652 37.8112 33.9495 37.9909 33.6965 38.1006C33.283 38.3411 32.8211 38.4878 32.344 38.5301L33.6389 40.0185L34.2433 40.6484C34.6462 41.0778 34.9051 41.3927 35.0777 41.5358L35.3654 41.822H34.013L33.6965 41.364C33.499 41.114 33.2876 40.8751 33.0634 40.6484L32.4878 39.9614L31.2217 38.6159H30.8476C30.8476 39.3602 30.8476 40.0472 30.8476 40.6484C30.8476 41.2495 30.8476 41.3354 30.8476 41.5071C30.8398 41.6119 30.8398 41.7171 30.8476 41.822H29.7542C29.7542 41.822 29.7542 41.6503 29.7542 41.5071C29.7542 41.364 29.7542 41.0778 29.7542 40.6484H29.8693ZM30.7901 38.1866H31.2793C31.829 38.2252 32.3783 38.1058 32.8619 37.8429C33.0404 37.7512 33.1892 37.6112 33.291 37.439C33.3928 37.2667 33.4436 37.0694 33.4375 36.8697C33.4463 36.7017 33.4113 36.5342 33.3356 36.3837C33.26 36.2332 33.1462 36.1048 33.0058 36.011C32.61 35.7959 32.1611 35.6965 31.711 35.7246H30.7901V38.1866ZM39.423 40.6484C39.423 40.0186 39.423 39.3315 39.423 38.5586C39.423 37.7857 39.423 37.0701 39.423 36.4689C39.4433 36.183 39.4433 35.8961 39.423 35.6102C39.4412 35.4964 39.4412 35.3805 39.423 35.2667H41.6386C42.3065 35.2145 42.9757 35.3536 43.5667 35.6675C43.7789 35.7988 43.9503 35.9859 44.062 36.2082C44.1738 36.4306 44.2215 36.6794 44.1997 36.927C44.2054 37.2049 44.1397 37.4795 44.0088 37.725C43.8779 37.9705 43.686 38.1786 43.4515 38.3297C42.8216 38.685 42.1029 38.8538 41.3797 38.8163H40.2862C40.2862 39.5033 40.2862 40.1331 40.2862 40.677C40.2862 41.2209 40.2862 41.3927 40.2862 41.5358C40.2862 41.6789 40.2862 41.7934 40.2862 41.8506H39.1927C39.2116 41.7465 39.2116 41.6399 39.1927 41.5358C39.2123 41.2499 39.2123 40.963 39.1927 40.677L39.423 40.6484ZM40.3726 38.3583H41.092C41.6026 38.3833 42.1075 38.2426 42.5308 37.9575C42.7043 37.848 42.8459 37.6952 42.9418 37.5144C43.0377 37.3337 43.0844 37.1313 43.0774 36.927C43.088 36.7507 43.0541 36.5744 42.9787 36.4144C42.9033 36.2544 42.7889 36.1157 42.6459 36.011C42.2334 35.7827 41.7648 35.6735 41.2933 35.696H40.2862V38.301L40.3726 38.3583ZM45.1782 41.8793C45.1981 41.7656 45.1981 41.6494 45.1782 41.5358C45.1782 41.5358 45.1782 41.1063 45.1782 40.7055C45.1782 40.3048 45.1782 39.3316 45.1782 38.5301C45.1782 37.7286 45.1782 37.0129 45.1782 36.3831C45.1782 35.7534 45.1782 35.696 45.1782 35.5242C45.1971 35.4201 45.1971 35.3135 45.1782 35.2094H45.8112H48.4011H49.0629C49.0245 35.4176 49.0245 35.6311 49.0629 35.8392H48.4299H46.2141V38.2151H48.142H48.804C48.804 38.2151 48.804 38.4154 48.804 38.5586C48.804 38.7017 48.804 38.7877 48.804 38.8736H48.142H46.2141C46.2141 39.9041 46.2141 40.7915 46.2141 41.5358H48.3147H49.0629C49.0487 41.6499 49.0487 41.7652 49.0629 41.8793C49.0471 41.9837 49.0471 42.0897 49.0629 42.1941H48.3723H45.84H45.1782V41.8793ZM50.7896 40.6484V36.4403C50.7896 36.0395 50.7896 35.7533 50.7896 35.5815C50.7973 35.4767 50.7973 35.3715 50.7896 35.2667H53.1204C53.7387 35.2174 54.3582 35.3466 54.9045 35.6388C55.1001 35.7644 55.2588 35.9389 55.3649 36.145C55.471 36.3511 55.5206 36.5812 55.5087 36.8124C55.5054 37.091 55.4189 37.3623 55.26 37.5917C55.1011 37.8211 54.8771 37.9983 54.6167 38.1006C54.2133 38.3406 53.7611 38.4874 53.2931 38.5301L54.5879 40.0185L55.1634 40.6484L55.998 41.5358L56.2857 41.822H54.962C54.8658 41.656 54.7499 41.5023 54.6167 41.364C54.4311 41.1126 54.2294 40.8736 54.0125 40.6484L53.4081 39.9614C52.9477 39.4461 52.5449 38.988 52.1708 38.6159H51.7967C51.7967 39.3602 51.7967 40.0472 51.7967 40.6484C51.7967 41.2495 51.7967 41.3354 51.7967 41.5071C51.7967 41.6789 51.7967 41.7647 51.7967 41.822H50.7032C50.7109 41.7171 50.7109 41.6119 50.7032 41.5071C50.7032 41.3354 50.7032 41.0778 50.7032 40.6484H50.7896ZM51.7102 38.1866H52.1996C52.7493 38.2252 53.2986 38.1058 53.7822 37.8429C53.9565 37.7462 54.1017 37.6052 54.2029 37.4341C54.304 37.263 54.3575 37.0682 54.3578 36.8697C54.3666 36.6985 54.3284 36.5281 54.2473 36.3769C54.1662 36.2256 54.0451 36.0991 53.8973 36.011C53.5038 35.7896 53.0531 35.6899 52.6025 35.7246H51.7967V38.1866H51.7102ZM57.1778 40.6484C57.1778 40.0186 57.1778 39.303 57.1778 38.5301C57.1778 37.7572 57.1778 37.0129 57.1778 36.3831C57.1778 35.7534 57.1778 35.696 57.1778 35.5242C57.1967 35.4201 57.1967 35.3135 57.1778 35.2094H57.8972H60.4295H61.0913C61.0529 35.4176 61.0529 35.6311 61.0913 35.8392H60.4583H58.1274C58.1274 36.4976 58.1274 37.2706 58.1274 38.1866H60.1992H60.8612C60.8612 38.1866 60.8612 38.3869 60.8612 38.5014C60.8612 38.6159 60.8612 38.7304 60.8612 38.8163H60.2568H58.1274C58.1274 39.5892 58.1274 40.2763 58.1274 40.8774C58.1274 41.4786 58.1274 41.5931 58.1274 41.7362C58.1086 41.8403 58.1086 41.9469 58.1274 42.051H57.0339C57.0528 41.9469 57.0528 41.8403 57.0339 41.7362C57.0339 41.5644 57.0339 41.3068 57.0339 40.8774L57.1778 40.6484ZM62.4727 41.8793C62.4625 41.765 62.4625 41.6501 62.4727 41.5358C62.4727 41.5358 62.4727 41.1063 62.4727 40.7055C62.4727 40.3048 62.4727 39.3316 62.4727 38.5301C62.4727 37.7286 62.4727 37.0129 62.4727 36.3831C62.4727 35.7534 62.4727 35.696 62.4727 35.5242C62.4619 35.4195 62.4619 35.3141 62.4727 35.2094H63.1057H65.6668H66.3574C66.319 35.4176 66.319 35.6311 66.3574 35.8392H65.6956H63.5086V38.2151H65.4077H66.0983C66.0814 38.329 66.0814 38.4447 66.0983 38.5586C66.0825 38.6629 66.0825 38.7692 66.0983 38.8736H65.4077H63.5086C63.5086 39.9041 63.5086 40.7915 63.5086 41.5358H65.6092H66.3574C66.3432 41.6499 66.3432 41.7652 66.3574 41.8793C66.3416 41.9837 66.3416 42.0897 66.3574 42.1941H65.6668H63.1345H62.4727V41.8793ZM73.8105 40.8488C73.7995 40.9439 73.7995 41.0399 73.8105 41.135C73.8105 41.135 73.8105 41.3067 73.8105 41.4212C73.4513 41.593 73.0752 41.7274 72.6882 41.822C72.2481 41.8682 71.8044 41.8682 71.3644 41.822C70.387 41.871 69.4284 41.5428 68.6882 40.9059C68.3484 40.6117 68.079 40.2458 67.8998 39.8347C67.7206 39.4236 67.6361 38.9779 67.6523 38.5301C67.6317 38.0553 67.7194 37.5821 67.9088 37.1458C68.0981 36.7095 68.3843 36.3216 68.7458 36.011C69.545 35.3331 70.5745 34.9849 71.6235 35.0376C72.0443 34.9927 72.4688 34.9927 72.8896 35.0376C73.2824 35.1061 73.6677 35.2115 74.0406 35.3525C73.9844 35.483 73.9364 35.6169 73.8967 35.7533V36.1541H73.7241C73.4809 35.8837 73.1745 35.6772 72.832 35.5529C72.486 35.4062 72.1145 35.3285 71.7385 35.324C71.351 35.3074 70.9645 35.3757 70.6065 35.524C70.2485 35.6724 69.9277 35.8974 69.6667 36.1827C69.3836 36.4727 69.1654 36.819 69.0265 37.1989C68.8876 37.5788 68.8311 37.9836 68.8609 38.3868C68.8472 38.7711 68.9116 39.1544 69.05 39.5134C69.1885 39.8724 69.3982 40.2 69.6667 40.4766C69.9251 40.7479 70.2379 40.9619 70.5849 41.1049C70.932 41.248 71.3054 41.3167 71.6809 41.3067C72.1036 41.3027 72.5225 41.2252 72.9184 41.0777C73.2925 40.9632 73.6365 40.7678 73.9255 40.5053L73.8105 40.8488ZM76.6881 40.6484C76.6881 40.0186 76.6881 39.3315 76.6881 38.5586C76.6881 37.7857 76.6881 36.5261 76.6881 35.696H75.0766H74.3572C74.3956 35.4878 74.3956 35.2745 74.3572 35.0663H75.6808H78.5584H79.8822C79.8048 35.2691 79.8048 35.4931 79.8822 35.696H79.134H77.6952C77.6952 36.4689 77.6952 37.4135 77.6952 38.5586V40.677C77.6952 41.1064 77.6952 41.364 77.6952 41.5358C77.6874 41.6406 77.6874 41.7458 77.6952 41.8506H76.6017C76.6017 41.8506 76.6017 41.6789 76.6017 41.5358V40.677L76.6881 40.6484ZM84.0834 40.6484C84.0834 40.0186 84.0834 39.3315 84.0834 38.5586C84.0834 37.7857 84.0834 37.07 84.0834 36.4403C84.0834 35.8105 84.0834 35.7533 84.0834 35.5815C84.0834 35.4098 84.0834 35.3239 84.0834 35.2667H86.1266C86.7875 35.2285 87.448 35.3462 88.0545 35.6102C88.2506 35.7158 88.4137 35.8732 88.5254 36.0652C88.6371 36.2571 88.6933 36.4762 88.6877 36.698C88.6815 36.95 88.6057 37.1955 88.4687 37.4075C88.3316 37.6196 88.1386 37.79 87.9107 37.9002C87.6102 38.0828 87.2786 38.2089 86.9324 38.2724C87.3753 38.3106 87.8059 38.4371 88.1985 38.6445C88.4269 38.7788 88.6142 38.9723 88.7409 39.2042C88.8676 39.436 88.9289 39.6977 88.9179 39.9614C88.9166 40.2403 88.8379 40.5134 88.6907 40.7508C88.5434 40.9881 88.3333 41.1804 88.0833 41.3067C87.4379 41.6782 86.6987 41.8571 85.9539 41.822H84.0834C84.0834 41.822 84.0834 41.6503 84.0834 41.5071C84.0834 41.364 84.0834 41.0778 84.0834 40.6484ZM85.0042 35.8106V38.1006H85.6662C86.151 38.1285 86.6328 38.0087 87.0474 37.7571C87.2064 37.6625 87.3379 37.5282 87.4287 37.3675C87.5196 37.2069 87.5666 37.0254 87.5654 36.8411C87.5699 36.6783 87.5294 36.5175 87.4482 36.3762C87.367 36.2348 87.2483 36.1184 87.105 36.0396C86.7182 35.8283 86.2795 35.729 85.8389 35.7533C85.5615 35.7239 85.2816 35.7239 85.0042 35.7533V35.8106ZM85.0042 38.6732V41.364H85.6662C86.2284 41.3996 86.7887 41.2702 87.2777 40.9919C87.4557 40.8732 87.5997 40.7105 87.6955 40.5198C87.7914 40.3291 87.8358 40.117 87.8244 39.9041C87.8333 39.7073 87.7868 39.512 87.6902 39.3401C87.5937 39.1682 87.4508 39.0263 87.2777 38.9307C86.7996 38.683 86.261 38.574 85.7236 38.6159L85.0042 38.6732ZM90.4142 40.7342C90.7595 40.133 91.1048 39.4174 91.5077 38.6445C92.1695 37.3564 92.6875 36.2685 93.0903 35.3811H93.3494L94.9032 38.6445C95.2773 39.4174 95.6226 40.133 95.9679 40.7342L96.5723 41.9079H95.3926C95.4016 41.7458 95.4016 41.5833 95.3926 41.4212L95.0759 40.7342L94.4717 39.4746C94.0215 39.4424 93.5694 39.4424 93.1191 39.4746C92.68 39.4139 92.2347 39.4139 91.7955 39.4746C91.5653 39.9326 91.3638 40.3334 91.1912 40.7342C91.0185 41.1349 90.961 41.2496 90.9035 41.3927L90.7308 41.9079H89.8674L90.0689 41.6216L90.558 40.7342H90.4142ZM93.0041 36.7266C92.6532 37.3387 92.3361 37.9694 92.0544 38.6159V38.8449C92.3991 38.875 92.7457 38.875 93.0903 38.8449H94.155V38.6159L93.2344 36.7266H93.0041ZM98.5003 40.7342C98.5003 41.1349 98.5003 41.4213 98.5003 41.5644C98.5003 41.7076 98.5003 41.8507 98.5003 41.9079H97.8385C97.8462 41.8031 97.8462 41.6979 97.8385 41.5931C97.8385 41.4213 97.8385 41.1636 97.8385 40.7342C97.8385 40.3048 97.8385 39.4174 97.8385 38.6445C97.8385 37.8716 97.8385 37.156 97.8385 36.5549C97.8385 35.9537 97.8385 35.8391 97.8385 35.696C97.8462 35.5912 97.8462 35.4859 97.8385 35.3811H98.155C99.0758 36.2972 100.256 37.4137 101.695 38.7305L103.45 40.3907V36.5262C103.45 36.1255 103.45 35.8392 103.45 35.6675C103.469 35.5634 103.469 35.4566 103.45 35.3525H104.198C104.198 35.3525 104.198 35.5244 104.198 35.6675C104.198 35.8106 104.198 36.1255 104.198 36.5262C104.198 36.927 104.198 37.8717 104.198 38.7018C104.198 40.0186 104.198 41.135 104.198 42.0224H103.91C102.989 41.1063 101.81 39.9613 100.4 38.6445L98.5867 36.9842V38.6159C98.5867 39.4174 98.5867 40.1044 98.5867 40.7342H98.5003ZM107.133 40.7342C107.133 41.1636 107.133 41.4213 107.133 41.5931C107.133 41.7648 107.133 41.8507 107.133 41.9079H106.04C106.047 41.8031 106.047 41.6979 106.04 41.5931C106.04 41.45 106.04 41.1636 106.04 40.7342V36.5262C106.04 36.1255 106.04 35.8392 106.04 35.6675C106.047 35.5627 106.047 35.4573 106.04 35.3525H107.133C107.133 35.3525 107.133 35.5244 107.133 35.6675C107.133 35.8106 107.133 36.1255 107.133 36.5262C107.133 36.927 107.133 37.6998 107.133 38.3868C107.622 38.0147 108.169 37.5567 108.802 36.9842C109.435 36.4117 110.04 35.8105 110.442 35.3811H111.565C111.422 35.4649 111.288 35.5607 111.162 35.6675L110.097 36.5549L109.349 37.2132L108.227 38.1866L109.407 39.4461L110.586 40.677L111.45 41.5931L111.766 41.8506H110.385C110.289 41.6847 110.173 41.531 110.04 41.3927L109.378 40.677L108.831 40.1045C108.227 39.4747 107.709 38.9309 107.277 38.5301C107.277 39.303 107.277 39.99 107.277 40.6197L107.133 40.7342ZM112.716 40.7342V36.5262C112.716 36.1255 112.716 35.8392 112.716 35.6675C112.735 35.5634 112.735 35.4566 112.716 35.3525H113.809C113.809 35.3525 113.809 35.5244 113.809 35.6675C113.809 35.8106 113.809 36.1255 113.809 36.5262C113.809 36.927 113.809 37.843 113.809 38.6159C113.809 39.3888 113.809 40.1044 113.809 40.7342C113.809 41.3639 113.809 41.4213 113.809 41.5931C113.809 41.7648 113.809 41.8507 113.809 41.9079H112.716C112.735 41.8038 112.735 41.6972 112.716 41.5931C112.716 41.4213 112.716 41.1636 112.716 40.7342ZM116.399 40.7342C116.399 41.1349 116.399 41.4213 116.399 41.5644C116.375 41.6777 116.375 41.7947 116.399 41.9079H115.622C115.63 41.8031 115.63 41.6979 115.622 41.5931C115.622 41.4213 115.622 41.1636 115.622 40.7342C115.622 40.3048 115.622 39.4174 115.622 38.6445C115.622 37.8716 115.622 37.156 115.622 36.5549C115.622 35.9537 115.622 35.8391 115.622 35.696C115.63 35.5912 115.63 35.4859 115.622 35.3811H115.939C116.859 36.2972 118.039 37.4137 119.478 38.7305L121.233 40.3907V38.7018C121.233 37.9003 121.233 37.156 121.233 36.5262C121.252 36.2403 121.252 35.9534 121.233 35.6675C121.252 35.5634 121.252 35.4566 121.233 35.3525H121.982C121.982 35.3525 121.982 35.5244 121.982 35.6675C121.982 35.8106 121.982 36.1255 121.982 36.5262C121.982 36.927 121.982 37.8717 121.982 38.7018C121.982 40.0186 121.982 41.135 121.982 42.0224H121.694C120.773 41.1063 119.593 39.9613 118.183 38.6445L116.399 36.9842V38.6159C116.399 39.4174 116.399 40.1044 116.399 40.7342ZM127.363 42.0224C126.322 42.091 125.293 41.7636 124.485 41.1063C124.132 40.8221 123.851 40.4586 123.666 40.0456C123.481 39.6326 123.397 39.182 123.42 38.7305C123.408 38.2568 123.499 37.7859 123.688 37.3509C123.877 36.9159 124.159 36.5271 124.514 36.2114C125.319 35.5435 126.344 35.1966 127.392 35.238C127.908 35.1903 128.429 35.1903 128.945 35.238C129.406 35.33 129.851 35.484 130.269 35.696C130.26 35.8199 130.26 35.9442 130.269 36.0681C130.269 36.0681 130.269 36.3258 130.269 36.4689H130.097C129.788 36.1754 129.427 35.9423 129.032 35.7819C128.632 35.6084 128.202 35.5113 127.766 35.4957C127.356 35.4735 126.947 35.5386 126.564 35.6867C126.182 35.8348 125.836 36.0625 125.55 36.3545C125.267 36.6514 125.047 37.0023 124.903 37.386C124.76 37.7698 124.696 38.1783 124.715 38.5872C124.706 38.9735 124.774 39.358 124.918 39.7171C125.061 40.0763 125.276 40.4028 125.55 40.677C126.154 41.2234 126.95 41.5112 127.766 41.4785C128.376 41.4725 128.981 41.3562 129.55 41.135V40.4766C129.55 40.0472 129.55 39.7323 129.55 39.5033V38.7305H130.672C130.651 38.8633 130.651 38.9983 130.672 39.1311C130.672 39.2743 130.672 39.5319 130.672 39.9041V40.0758C130.653 40.3904 130.653 40.7059 130.672 41.0205C130.657 41.1728 130.657 41.3262 130.672 41.4785C129.69 41.7571 128.672 41.8922 127.65 41.8793L127.363 42.0224ZM135.305 40.7342C135.305 40.1044 135.305 39.4174 135.305 38.6445C135.305 37.8716 135.305 37.156 135.305 36.5549C135.325 36.269 135.325 35.9819 135.305 35.696C135.323 35.5822 135.323 35.4663 135.305 35.3525H137.521C138.189 35.3003 138.858 35.4394 139.449 35.7533C139.657 35.8891 139.824 36.0772 139.936 36.2984C140.047 36.5196 140.097 36.766 140.082 37.0128C140.087 37.2907 140.022 37.5653 139.891 37.8108C139.76 38.0562 139.568 38.2644 139.334 38.4155C138.695 38.7747 137.966 38.9437 137.233 38.9022H136.312C136.312 39.5893 136.312 40.2189 136.312 40.7628C136.312 41.3067 136.312 41.4784 136.312 41.6216C136.312 41.7647 136.312 41.8793 136.312 41.9366H135.247C135.266 41.8325 135.266 41.7257 135.247 41.6216C135.267 41.3356 135.267 41.0487 135.247 40.7628L135.305 40.7342ZM136.226 38.4441H136.945C137.464 38.4634 137.976 38.3234 138.413 38.0433C138.581 37.9281 138.718 37.7742 138.813 37.5948C138.908 37.4154 138.959 37.2157 138.959 37.0128C138.964 36.8343 138.925 36.6573 138.844 36.4976C138.764 36.3378 138.646 36.2001 138.499 36.0968C138.09 35.8608 137.619 35.7513 137.147 35.7819H136.226V38.3868V38.4441ZM141.089 40.7342C141.434 40.133 141.78 39.4174 142.182 38.6445C142.844 37.3564 143.362 36.2685 143.765 35.3811H144.024L145.578 38.6445C145.952 39.4174 146.297 40.133 146.614 40.7342L147.247 41.9079H146.067C146.076 41.7458 146.076 41.5833 146.067 41.4212C146.067 41.4212 145.895 41.0491 145.751 40.7342L145.146 39.4746C144.696 39.4424 144.244 39.4424 143.794 39.4746C143.345 39.4148 142.89 39.4148 142.441 39.4746L141.866 40.7342C141.866 41.0204 141.636 41.2496 141.578 41.3927L141.406 41.9079H140.542C140.542 41.9079 140.542 41.7647 140.744 41.6216C140.945 41.4784 140.974 41.1636 141.233 40.7342H141.089ZM143.679 36.7266C143.328 37.3387 143.011 37.9694 142.729 38.6159V38.8449C143.074 38.875 143.421 38.875 143.765 38.8449H144.83V38.6159L143.909 36.7266H143.679Z" fill="white"/>
<path d="M148.488 40.5919C148.488 39.9621 148.488 39.2751 148.488 38.5022C148.488 37.7293 148.488 37.0137 148.488 36.3839C148.507 36.098 148.507 35.811 148.488 35.525C148.507 35.4209 148.507 35.3143 148.488 35.2102H150.819C151.437 35.1608 152.057 35.2901 152.603 35.5823C152.799 35.7078 152.957 35.8824 153.063 36.0885C153.169 36.2945 153.219 36.5249 153.207 36.7561C153.204 37.0346 153.117 37.3059 152.959 37.5353C152.8 37.7647 152.576 37.9418 152.315 38.0441C151.912 38.2841 151.459 38.4309 150.991 38.4736C151.337 38.903 151.768 39.4183 152.286 39.9622L152.862 40.5919L153.696 41.4793L153.984 41.7656H152.517C152.42 41.5997 152.305 41.4458 152.171 41.3075C151.986 41.0561 151.784 40.8171 151.567 40.5919L150.963 39.9049C150.502 39.3896 150.1 38.9315 149.725 38.5594H149.351C149.351 39.3036 149.351 39.9907 149.351 40.5919C149.351 41.193 149.351 41.2788 149.351 41.4506C149.351 41.6224 149.351 41.7084 149.351 41.7656H148.258C148.266 41.6608 148.266 41.5554 148.258 41.4506V40.5919H148.488ZM149.438 38.1301H149.927C150.476 38.1687 151.026 38.0495 151.51 37.7866C151.684 37.6899 151.829 37.5486 151.93 37.3776C152.031 37.2065 152.085 37.0117 152.085 36.8132C152.094 36.642 152.056 36.4716 151.974 36.3203C151.893 36.169 151.772 36.0426 151.625 35.9545C151.231 35.7331 150.78 35.6335 150.33 35.6683H149.438V38.1301ZM156.603 40.5919C156.603 39.9621 156.603 39.2751 156.603 38.5022C156.603 37.7293 156.603 36.4698 156.603 35.6396H154.963H154.243C154.321 35.4368 154.321 35.2126 154.243 35.0098H155.596H158.473H159.768C159.73 35.218 159.73 35.4314 159.768 35.6396H159.02H157.581C157.581 36.4125 157.581 37.3572 157.581 38.5022C157.581 39.6473 157.581 39.9907 157.581 40.6205C157.581 41.2503 157.581 41.3075 157.581 41.4793C157.581 41.651 157.581 41.7369 157.581 41.7941H156.488C156.507 41.69 156.507 41.5834 156.488 41.4793C156.507 41.1933 156.507 40.9064 156.488 40.6205L156.603 40.5919ZM161.754 40.5919C161.734 40.8682 161.734 41.1456 161.754 41.422C161.734 41.5356 161.734 41.652 161.754 41.7656H161.149C161.168 41.6615 161.168 41.5547 161.149 41.4506C161.169 41.1647 161.169 40.8778 161.149 40.5919C161.149 39.9621 161.149 39.2751 161.149 38.5022C161.149 37.7293 161.149 37.0136 161.149 36.4124C161.17 36.1265 161.17 35.8396 161.149 35.5537C161.168 35.4495 161.168 35.3429 161.149 35.2388H161.466C162.387 36.1549 163.567 37.2712 164.977 38.588L166.761 40.2484V38.5594C166.761 37.7578 166.761 37.0137 166.761 36.3839C166.761 35.7542 166.761 35.6968 166.761 35.525C166.78 35.4209 166.78 35.3143 166.761 35.2102H167.509C167.49 35.3143 167.49 35.4209 167.509 35.525C167.509 35.6968 167.509 35.9832 167.509 36.3839V38.5594C167.509 39.8761 167.509 40.9927 167.509 41.8801H166.905C166.013 40.964 164.833 39.819 163.394 38.5022L161.61 36.8419V38.4736C161.61 39.2751 161.61 39.9621 161.61 40.5919H161.754ZM169.121 41.8228C169.121 41.8228 169.121 41.651 169.121 41.4793C169.121 41.3075 169.121 41.0499 169.121 40.6492C169.121 40.2484 169.121 39.2751 169.121 38.4736C169.121 37.672 169.121 36.9564 169.121 36.3266C169.121 35.6969 169.121 35.6396 169.121 35.4679C169.121 35.2961 169.121 35.2103 169.121 35.153H169.754H172.343H173.005C172.967 35.3612 172.967 35.5745 173.005 35.7827H172.372H170.156V38.1587H172.084H172.775C172.758 38.2726 172.758 38.3883 172.775 38.5022C172.759 38.6066 172.759 38.7127 172.775 38.8171H172.084H170.156C170.156 39.8476 170.156 40.735 170.156 41.4793H172.257H173.005C172.991 41.5933 172.991 41.7087 173.005 41.8228C172.989 41.9271 172.989 42.0332 173.005 42.1376H172.315H169.782H169.121V41.8228ZM174.876 40.5919V36.3839C174.876 35.9832 174.876 35.6968 174.876 35.525C174.883 35.4202 174.883 35.315 174.876 35.2102H177.235C177.844 35.1648 178.453 35.2939 178.991 35.5823C179.186 35.7078 179.345 35.8824 179.451 36.0885C179.557 36.2945 179.607 36.5249 179.595 36.7561C179.592 37.0346 179.505 37.3059 179.346 37.5353C179.187 37.7647 178.963 37.9418 178.703 38.0441C178.304 38.2929 177.849 38.4404 177.379 38.4736C177.725 38.903 178.156 39.4183 178.674 39.9622L179.25 40.5919C179.681 41.0213 179.94 41.3361 180.084 41.4793L180.372 41.7656H179.048C178.942 41.6062 178.827 41.4532 178.703 41.3075C178.517 41.0561 178.316 40.8171 178.099 40.5919L177.494 39.9049C177.034 39.3896 176.631 38.9315 176.257 38.5594H175.538C175.538 39.3036 175.538 39.9907 175.538 40.5919C175.538 41.193 175.538 41.2788 175.538 41.4506C175.538 41.6224 175.538 41.7084 175.538 41.7656H174.444C174.452 41.6608 174.452 41.5554 174.444 41.4506C174.444 41.2788 174.444 41.0213 174.444 40.5919H174.876ZM175.797 38.1301H176.286C176.835 38.1687 177.385 38.0495 177.868 37.7866C178.043 37.6899 178.188 37.5486 178.289 37.3776C178.39 37.2065 178.444 37.0117 178.444 36.8132C178.453 36.642 178.415 36.4716 178.333 36.3203C178.252 36.169 178.131 36.0426 177.983 35.9545C177.59 35.7331 177.139 35.6335 176.689 35.6683H175.538V38.1301H175.797Z" fill="white"/>
</g>
<defs>
<clipPath id="clip0_213_13245">
<rect width="186.383" height="60" fill="white"/>
</clipPath>
</defs>
</svg>
