<svg width="238" height="60" viewBox="0 0 238 60" fill="none" xmlns="http://www.w3.org/2000/svg">
<path d="M96.8512 46.7159H98.2225C99.2194 46.7997 100.216 46.5545 101.063 46.0171C101.37 45.7291 101.607 45.3738 101.756 44.9788C101.905 44.5837 101.962 44.1594 101.922 43.7386C101.947 43.4662 101.901 43.1919 101.789 42.9428C101.676 42.6937 101.502 42.4785 101.281 42.3184C100.616 41.9769 99.8707 41.827 99.1266 41.8855H97.9437L96.8889 46.7083L96.8512 46.7159ZM95.0807 54.9943H96.7985C97.7645 55.0865 98.7304 54.816 99.5109 54.2348C99.8196 53.9056 100.055 53.5138 100.202 53.0855C100.349 52.6573 100.403 52.2025 100.362 51.7513C100.393 51.4507 100.35 51.1472 100.239 50.8668C100.127 50.5863 99.9498 50.3373 99.7218 50.1412C99.0561 49.7609 98.2914 49.5941 97.5293 49.6627H96.2409L95.0807 55.0247V54.9943ZM90.4922 57.9184L94.5457 39.0829H99.8198C101.937 39.0829 103.459 39.3943 104.386 40.0399C104.861 40.3949 105.238 40.8669 105.481 41.4108C105.723 41.9546 105.824 42.5522 105.772 43.1462C105.836 44.4218 105.443 45.6781 104.664 46.6855C103.842 47.616 102.695 48.1902 101.462 48.288C102.295 48.4146 103.054 48.8442 103.595 49.4956C104.089 50.2161 104.333 51.0814 104.288 51.9564C104.301 52.9287 104.105 53.8924 103.715 54.7817C103.381 55.5779 102.833 56.2644 102.133 56.7639C101.451 57.2215 100.681 57.5271 99.8725 57.6602C98.4456 57.8671 97.004 57.9535 95.5628 57.9184H90.4922ZM111.588 56.5589C111.185 57.0297 110.69 57.4123 110.134 57.6829C109.592 57.9294 109.004 58.0538 108.409 58.0475C107.958 58.0654 107.508 57.9927 107.085 57.8336C106.662 57.6745 106.274 57.4323 105.945 57.1209C105.632 56.8193 105.385 56.4543 105.222 56.0498C105.058 55.6454 104.981 55.2106 104.996 54.7741C104.996 52.8753 105.498 51.5133 106.503 50.688C107.507 49.8627 109.203 49.445 111.588 49.4348H112.342H112.877C112.952 49.0171 113.005 48.6754 113.035 48.4475C113.061 48.2561 113.076 48.0634 113.08 47.8703C113.108 47.5037 112.992 47.1408 112.756 46.8602C112.626 46.7426 112.473 46.653 112.307 46.5968C112.142 46.5407 111.966 46.5192 111.792 46.5336C111.593 46.523 111.395 46.5548 111.209 46.6268C111.023 46.6988 110.855 46.8093 110.715 46.9513C110.413 47.3073 110.224 47.7465 110.172 48.2121H106.548C106.584 47.6534 106.737 47.1087 106.996 46.6139C107.256 46.1191 107.617 45.6853 108.055 45.3412C109.164 44.6636 110.453 44.3479 111.747 44.4374C113.058 44.3324 114.37 44.626 115.514 45.2804C115.919 45.5895 116.239 45.9967 116.446 46.464C116.653 46.9314 116.739 47.4439 116.697 47.9538C116.692 48.2996 116.665 48.6447 116.614 48.9867C116.564 49.385 116.493 49.7805 116.403 50.1715L115.273 55.2526C115.182 55.7007 115.1 56.1412 115.047 56.5817C114.994 57.0222 114.934 57.4627 114.896 57.9184H111.385L111.558 56.5589H111.588ZM112.5 51.4855H112.161C111.228 51.4088 110.295 51.6379 109.501 52.1386C109.21 52.3918 108.982 52.711 108.837 53.0702C108.691 53.4293 108.633 53.818 108.665 54.2045C108.642 54.6057 108.75 55.0035 108.974 55.3361C109.073 55.4682 109.202 55.5745 109.35 55.6458C109.498 55.7172 109.661 55.7516 109.825 55.7462C110.174 55.7358 110.514 55.6318 110.809 55.4448C111.104 55.2579 111.345 54.9949 111.506 54.6829C112.039 53.6944 112.376 52.6111 112.5 51.4931V51.4855ZM116.508 57.9184L118.814 47.1867C118.935 46.6323 119.025 46.169 119.093 45.8045C119.161 45.4399 119.221 45.0905 119.258 44.7867H122.807L122.574 46.3057C122.925 45.7373 123.416 45.2693 123.998 44.9462C124.606 44.6447 125.279 44.4987 125.957 44.5209C126.754 44.4636 127.543 44.7072 128.172 45.2045C128.435 45.4691 128.639 45.788 128.769 46.1392C128.899 46.4905 128.952 46.866 128.925 47.2399C128.922 47.5471 128.901 47.8539 128.865 48.1589C128.839 48.4428 128.794 48.7245 128.729 49.0019L126.838 57.9412H123.071L125 48.9716C125.052 48.7133 125.083 48.5083 125.105 48.3639C125.113 48.2603 125.113 48.1562 125.105 48.0526C125.126 47.7774 125.039 47.5051 124.864 47.2931C124.764 47.1985 124.645 47.1265 124.515 47.082C124.385 47.0374 124.247 47.0214 124.111 47.0348C123.852 47.0467 123.6 47.1221 123.377 47.2544C123.154 47.3868 122.966 47.5721 122.83 47.7943C122.404 48.3874 122.118 49.0705 121.993 49.7918L120.223 57.9791L116.508 57.9184ZM128.646 57.9184L132.685 39.0829H136.452L134.192 49.6247L138.351 44.7867H142.397L137.499 50.5969L140.151 57.9184H136.286L134.026 50.4829L132.436 57.9184H128.646ZM145.056 53.8703C145.062 53.3873 145.1 52.9052 145.169 52.4272C145.245 51.8728 145.35 51.25 145.501 50.5741C145.653 49.8281 145.852 49.0925 146.096 48.3715C146.269 47.8402 146.501 47.3306 146.789 46.8526C147.231 46.0735 147.884 45.4383 148.673 45.0222C149.562 44.6186 150.531 44.4263 151.506 44.4602C152.787 44.3658 154.057 44.7678 155.054 45.5842C155.476 46.0115 155.802 46.5246 156.011 47.089C156.22 47.6535 156.308 48.2564 156.267 48.8576C156.262 49.3401 156.229 49.8219 156.17 50.3007C156.094 50.8323 155.996 51.4171 155.861 52.0475C155.702 52.7861 155.498 53.5141 155.25 54.2272C155.071 54.779 154.836 55.3108 154.55 55.8146C154.1 56.5883 153.445 57.2197 152.658 57.6374C151.776 58.0439 150.811 58.2364 149.841 58.1994C148.559 58.2931 147.29 57.8972 146.284 57.0905C145.859 56.6748 145.529 56.1706 145.317 55.6131C145.105 55.0557 145.016 54.4584 145.056 53.8627V53.8703ZM151.43 46.7538C151.075 46.7409 150.728 46.8628 150.458 47.0956C150.151 47.3997 149.928 47.7793 149.81 48.1969C149.725 48.4454 149.654 48.699 149.6 48.9564C149.517 49.2981 149.434 49.6779 149.351 50.1032L149.125 51.1893C148.862 52.2532 148.673 53.3343 148.56 54.4247C148.53 54.8431 148.644 55.259 148.884 55.6019C149.002 55.7388 149.149 55.8463 149.315 55.9161C149.481 55.9859 149.661 56.0162 149.841 56.0044C150.202 56.0148 150.555 55.8874 150.828 55.6475C151.147 55.3392 151.381 54.9516 151.506 54.5235C151.604 54.2424 151.724 53.8171 151.867 53.2551C152.011 52.6931 152.146 52.0475 152.282 51.3336C152.417 50.6196 152.523 50.088 152.591 49.5715C152.656 49.1569 152.691 48.7381 152.696 48.3184C152.729 47.9092 152.619 47.5013 152.387 47.164C152.266 47.0321 152.118 46.9295 151.952 46.8638C151.786 46.798 151.608 46.7708 151.43 46.7842V46.7538ZM156.411 57.9184L158.671 47.0804H156.606L157.104 44.8019H159.161L159.537 42.8652C159.686 41.7113 160.19 40.6332 160.976 39.7817C161.765 39.0974 162.786 38.7488 163.824 38.8095C164.216 38.8095 164.578 38.8095 164.977 38.8551C165.376 38.9007 165.731 38.931 166.107 38.9918L165.61 41.5209L165.098 41.4374C164.975 41.4279 164.851 41.4279 164.729 41.4374C164.361 41.4129 163.998 41.5357 163.719 41.7792C163.433 42.0877 163.249 42.4776 163.192 42.8956L162.8 44.8323H164.932L164.457 47.1108H162.325L160.065 57.9488L156.411 57.9184ZM173.423 46.7159H174.795C175.782 46.7997 176.769 46.5542 177.605 46.0171C177.909 45.7273 178.144 45.3716 178.291 44.9768C178.439 44.5821 178.495 44.1586 178.456 43.7386C178.481 43.4662 178.435 43.1919 178.323 42.9428C178.211 42.6937 178.036 42.4785 177.816 42.3184C177.162 41.9763 176.426 41.8263 175.691 41.8855H174.486L173.446 46.7083L173.423 46.7159ZM171.668 54.9943H173.37C174.327 55.0846 175.283 54.814 176.053 54.2348C176.356 53.9024 176.587 53.5098 176.731 53.0821C176.875 52.6544 176.929 52.2012 176.889 51.7513C176.918 51.4515 176.876 51.149 176.766 50.8689C176.656 50.5888 176.481 50.3393 176.256 50.1412C175.601 49.7629 174.846 49.5959 174.094 49.6627H172.821L171.668 55.0247V54.9943ZM167.147 57.9184L171.155 39.0829H176.429C178.524 39.0829 180.023 39.3943 180.95 40.0399C181.421 40.3981 181.794 40.8711 182.034 41.4145C182.274 41.9578 182.373 42.5537 182.321 43.1462C182.384 44.4203 181.994 45.6752 181.221 46.6855C180.413 47.6137 179.278 48.1884 178.057 48.288C178.881 48.4162 179.629 48.8462 180.159 49.4956C180.653 50.2161 180.897 51.0814 180.852 51.9564C180.864 52.9278 180.671 53.8907 180.287 54.7817C179.956 55.5752 179.413 56.2611 178.72 56.7639C178.058 57.2163 177.308 57.5218 176.52 57.6602C175.111 57.8667 173.687 57.9531 172.263 57.9184H167.147ZM187.965 56.5589C187.569 57.0291 187.082 57.4118 186.533 57.6829C185.999 57.9295 185.418 58.0539 184.83 58.0475C184.384 58.0647 183.938 57.9916 183.521 57.8324C183.103 57.6733 182.72 57.4313 182.397 57.1209C182.087 56.8174 181.844 56.4516 181.683 56.0474C181.522 55.6432 181.447 55.2094 181.462 54.7741C181.462 52.8753 181.965 51.5133 182.969 50.688C183.974 49.8627 185.647 49.445 187.987 49.4348H188.741H189.261C189.336 49.0171 189.389 48.6754 189.419 48.4475C189.445 48.2561 189.46 48.0634 189.464 47.8703C189.491 47.5051 189.378 47.1435 189.148 46.8602C189.018 46.7432 188.867 46.6539 188.702 46.5977C188.538 46.5416 188.364 46.5198 188.191 46.5336C187.994 46.5238 187.798 46.5559 187.615 46.6279C187.432 46.6999 187.266 46.8101 187.128 46.9513C186.829 47.308 186.642 47.7473 186.593 48.2121H183.015C183.046 47.6581 183.192 47.1167 183.442 46.6225C183.693 46.1283 184.042 45.692 184.469 45.3412C185.561 44.6649 186.836 44.3489 188.115 44.4374C189.402 44.3375 190.689 44.6313 191.807 45.2804C192.209 45.5912 192.527 45.9991 192.731 46.4663C192.935 46.9336 193.019 47.4452 192.975 47.9538C192.969 48.2993 192.944 48.6442 192.9 48.9867C192.847 49.3665 192.772 49.7462 192.681 50.1715L191.604 55.2222C191.513 55.6703 191.438 56.1108 191.378 56.5513C191.317 56.9918 191.272 57.4323 191.235 57.888H187.769L187.934 56.5285L187.965 56.5589ZM188.869 51.4855H188.537C187.614 51.4089 186.69 51.6382 185.908 52.1386C185.62 52.3941 185.396 52.7141 185.253 53.073C185.11 53.4318 185.053 53.8193 185.086 54.2045C185.061 54.6048 185.167 55.0026 185.388 55.3361C185.485 55.4686 185.612 55.5752 185.759 55.6467C185.906 55.7182 186.069 55.7523 186.232 55.7462C186.577 55.7345 186.913 55.6287 187.203 55.4402C187.494 55.2517 187.728 54.9874 187.882 54.6753C188.412 53.6861 188.747 52.603 188.869 51.4855ZM192.832 57.9184L195.002 47.6804C195.1 47.1867 195.198 46.7007 195.273 46.2146C195.348 45.7285 195.424 45.25 195.469 44.7867H199.04L198.731 46.6855C199.106 46.0653 199.623 45.5445 200.238 45.1665C200.841 44.8362 201.519 44.6712 202.205 44.688H202.544H202.747L202.077 47.9538H201.918C201.614 47.9048 201.307 47.8744 200.999 47.8627C200.63 47.8408 200.26 47.8971 199.914 48.0279C199.567 48.1587 199.252 48.3611 198.987 48.6222C198.398 49.373 198.02 50.2704 197.895 51.2197L196.494 57.888L192.832 57.9184ZM201.504 53.8703C201.513 53.3874 201.551 52.9056 201.617 52.4272C201.7 51.8728 201.805 51.25 201.956 50.5741C202.113 49.8277 202.317 49.092 202.566 48.3715C202.744 47.8411 202.979 47.3318 203.267 46.8526C203.722 46.0711 204.389 45.4363 205.188 45.0222C206.093 44.6172 207.077 44.425 208.066 44.4602C209.364 44.3659 210.65 44.7671 211.668 45.5842C212.095 46.0081 212.426 46.5202 212.638 47.0853C212.85 47.6504 212.938 48.255 212.896 48.8576C212.894 49.3402 212.861 49.8223 212.798 50.3007C212.73 50.8323 212.625 51.4171 212.489 52.0475C212.325 52.7854 212.118 53.5132 211.871 54.2272C211.684 54.7784 211.444 55.31 211.155 55.8146C210.698 56.5919 210.032 57.2237 209.234 57.6374C208.333 58.0451 207.351 58.2374 206.364 58.1994C205.066 58.291 203.781 57.8961 202.755 57.0905C202.323 56.6784 201.988 56.1754 201.772 55.6174C201.555 55.0595 201.464 54.4603 201.504 53.8627V53.8703ZM207.983 46.7538C207.624 46.7407 207.272 46.8625 206.996 47.0956C206.689 47.401 206.464 47.7798 206.341 48.1969C206.281 48.3488 206.213 48.5918 206.123 48.9564C206.032 49.3209 205.957 49.6779 205.874 50.1032C205.821 50.3614 205.738 50.7184 205.64 51.1893C205.373 52.2525 205.181 53.3338 205.068 54.4247C205.036 54.8444 205.153 55.2617 205.399 55.6019C205.519 55.7389 205.668 55.8464 205.835 55.9162C206.002 55.986 206.183 56.0162 206.364 56.0044C206.732 56.014 207.091 55.887 207.373 55.6475C207.696 55.3388 207.935 54.9518 208.066 54.5235C208.164 54.2424 208.285 53.8171 208.428 53.2551C208.571 52.6931 208.707 52.0475 208.85 51.3336C208.993 50.6196 209.091 50.088 209.166 49.5715C209.231 49.1569 209.267 48.7381 209.272 48.3184C209.306 47.9079 209.194 47.4986 208.955 47.164C208.832 47.0314 208.681 46.9284 208.512 46.8627C208.344 46.797 208.163 46.7702 207.983 46.7842V46.7538ZM220.039 47.0348C219.861 47.0269 219.684 47.0544 219.517 47.1157C219.35 47.1769 219.197 47.2707 219.067 47.3918C218.745 47.7641 218.513 48.2059 218.388 48.6829C218.076 49.7074 217.824 50.7497 217.635 51.8045C217.469 52.6276 217.373 53.4636 217.349 54.3032C217.32 54.6873 217.427 55.0693 217.65 55.3817C217.765 55.5076 217.907 55.6057 218.065 55.6688C218.223 55.7319 218.392 55.7584 218.562 55.7462C218.893 55.7497 219.213 55.6277 219.458 55.4045C219.78 55.0919 220.036 54.7174 220.212 54.3032C220.352 53.9256 220.47 53.5402 220.566 53.1488C220.694 52.6627 220.83 52.0855 220.965 51.4323C221.101 50.7791 221.191 50.1943 221.252 49.7158C221.315 49.3342 221.351 48.9483 221.357 48.5614C221.386 48.155 221.271 47.7514 221.033 47.4222C220.916 47.2908 220.772 47.1877 220.61 47.1206C220.448 47.0536 220.273 47.0242 220.099 47.0348H220.039ZM219.782 56.6652C219.469 57.1508 219.039 57.5481 218.532 57.8197C217.989 58.0708 217.396 58.1929 216.799 58.1766C216.352 58.2132 215.902 58.1588 215.476 58.0166C215.05 57.8744 214.657 57.6472 214.32 57.3488C213.725 56.6429 213.432 55.7278 213.506 54.8045C213.515 54.2272 213.563 53.6511 213.649 53.0804C213.745 52.3918 213.88 51.6323 214.056 50.8019C214.222 50.0145 214.428 49.2363 214.674 48.4703C214.844 47.9065 215.077 47.3639 215.367 46.8526C215.719 46.1703 216.237 45.5899 216.874 45.1665C217.502 44.7968 218.219 44.6101 218.946 44.6273C219.538 44.6118 220.125 44.7504 220.649 45.0298C221.183 45.3499 221.633 45.7954 221.96 46.3285L223.467 39.1057H227.151L223.595 55.8146C223.542 56.088 223.489 56.3994 223.429 56.7488C223.369 57.0981 223.324 57.5083 223.278 57.9108H219.511L219.722 56.6576L219.782 56.6652ZM231.89 56.5589C231.492 57.0293 231.002 57.412 230.451 57.6829C229.918 57.9309 229.336 58.0554 228.748 58.0475C228.302 58.0643 227.857 57.9909 227.439 57.8318C227.021 57.6727 226.639 57.431 226.315 57.1209C226.006 56.8162 225.764 56.4503 225.603 56.0463C225.442 55.6424 225.367 55.2091 225.38 54.7741C225.38 52.8753 225.883 51.5133 226.887 50.688C227.889 49.8526 229.57 49.4348 231.905 49.4348H232.659H233.178C233.261 49.0171 233.314 48.6754 233.344 48.4475C233.356 48.2553 233.356 48.0625 233.344 47.8703C233.375 47.5047 233.261 47.1416 233.028 46.8602C232.899 46.7424 232.748 46.6527 232.583 46.5965C232.419 46.5403 232.244 46.5189 232.071 46.5336C231.875 46.5242 231.679 46.5566 231.496 46.6286C231.313 46.7006 231.147 46.8105 231.009 46.9513C230.709 47.3072 230.525 47.7473 230.481 48.2121H226.895C226.926 47.6572 227.072 47.115 227.324 46.6206C227.576 46.1261 227.928 45.6903 228.357 45.3412C229.446 44.665 230.719 44.349 231.996 44.4374C233.282 44.3375 234.569 44.6313 235.687 45.2804C236.089 45.5912 236.407 45.9991 236.611 46.4663C236.815 46.9336 236.899 47.4452 236.855 47.9538C236.854 48.2995 236.828 48.6446 236.78 48.9867C236.73 49.385 236.659 49.7805 236.569 50.1715L235.492 55.2222C235.401 55.6703 235.318 56.1108 235.266 56.5513C235.213 56.9918 235.153 57.4323 235.122 57.888H231.649L231.822 56.5285L231.89 56.5589ZM232.787 51.4855H232.455C231.534 51.4077 230.613 51.6372 229.833 52.1386C229.543 52.3926 229.317 52.7122 229.173 53.0712C229.029 53.4303 228.971 53.8186 229.004 54.2045C228.977 54.606 229.086 55.005 229.313 55.3361C229.409 55.4685 229.535 55.5751 229.681 55.6467C229.826 55.7182 229.988 55.7524 230.15 55.7462C230.496 55.7334 230.832 55.6273 231.124 55.439C231.415 55.2507 231.651 54.9869 231.807 54.6753C232.331 53.6841 232.663 52.6016 232.787 51.4855Z" fill="#F37321"/>
<path fill-rule="evenodd" clip-rule="evenodd" d="M91.3575 11.8553H96.8048L94.1829 8.29332L96.4432 6.44773L99.585 11.8553H100.406L98.048 5.38445L101.009 4.00977L102.712 11.8553H121.932L121.57 13.3743H114.827L114.074 16.5186C117.087 14.5515 120.418 15.0528 120.101 18.6832C119.936 20.185 119.537 21.6511 118.918 23.0275C118.52 23.9578 117.86 24.75 117.02 25.306C115.761 26.1034 114.759 25.8984 113.456 25.6402C113.049 25.5642 113.026 25.6401 113.162 25.23L113.358 24.6756C113.433 24.4553 113.411 24.4933 113.637 24.4933C113.95 24.5038 114.261 24.4441 114.548 24.3186C115.023 24.0984 115.377 23.2401 115.633 22.2832C115.889 21.3262 116.748 18.3718 116.221 17.468C115.995 17.0731 115.339 17.0275 114.714 17.3693C114.247 17.6675 113.847 18.0607 113.539 18.5237L111.278 27.8579H108.031L108.86 24.4629C108.477 24.9172 108.005 25.2867 107.473 25.5481C106.941 25.8096 106.362 25.9572 105.771 25.9819H105.484C105.042 26.0017 104.6 25.9145 104.198 25.7274C103.795 25.5404 103.442 25.2589 103.17 24.9066C102.897 24.5543 102.712 24.1413 102.629 23.7021C102.547 23.2629 102.57 22.8103 102.697 22.3819L103.45 18.8655C103.707 17.8714 104.272 16.9863 105.064 16.3398C105.856 15.6933 106.832 15.3195 107.85 15.273H108.197C108.73 15.2382 109.259 15.3806 109.704 15.6783C110.149 15.976 110.485 16.4126 110.661 16.9212L111.602 13.3515H102.365L98.7035 27.9186H95.4938L96.3528 24.5237C95.4561 25.4562 94.2349 26.0009 92.9472 26.0427H92.5856C92.1342 26.0772 91.6811 26.0013 91.2651 25.8215C90.849 25.6416 90.4822 25.363 90.1959 25.0095C89.9096 24.656 89.7122 24.2381 89.6206 23.7911C89.529 23.3442 89.5459 22.8816 89.6698 22.4427L90.491 18.9262C90.7839 17.9128 91.388 17.019 92.2165 16.3735C93.0451 15.728 94.0553 15.364 95.1021 15.3338H95.4637C96.0444 15.3011 96.6214 15.4451 97.1198 15.7472C97.6183 16.0492 98.0152 16.4953 98.259 17.0275L99.1706 13.4123H91.0034L91.3575 11.8933V11.8553ZM96.1569 17.1034H96.3302C97.3096 17.1034 97.837 18.1515 97.4829 19.4351L97.0083 21.1971L94.3863 18.1591C94.5874 17.8646 94.8502 17.618 95.1562 17.437C95.4621 17.2559 95.8037 17.1446 96.1569 17.111V17.1034ZM96.3754 22.7996C96.1748 23.1455 95.8964 23.4391 95.5627 23.6568C95.229 23.8744 94.8493 24.0101 94.4541 24.0528H94.2884C93.3089 24.0528 92.7815 23.0047 93.1281 21.7212L93.7157 19.5414L96.3302 22.8604L96.3754 22.7996ZM104.03 7.81484H107.044L106.517 10.5566H103.503L104.023 7.81484H104.03ZM109.199 17.3237C109.344 17.3466 109.482 17.3985 109.607 17.4762C109.731 17.5538 109.839 17.6558 109.924 17.7761C110.009 17.8963 110.069 18.0324 110.101 18.1765C110.133 18.3205 110.136 18.4695 110.111 18.6148L108.732 23.3465C108.616 23.6335 108.394 23.8641 108.113 23.9901C107.832 24.1161 107.514 24.1277 107.225 24.0224C107.081 24.0004 106.942 23.9494 106.818 23.8725C106.693 23.7956 106.585 23.6943 106.5 23.5747C106.415 23.455 106.355 23.3194 106.323 23.1759C106.291 23.0323 106.287 22.8837 106.313 22.7389L107.745 17.9997C107.864 17.7151 108.086 17.4868 108.366 17.3612C108.645 17.2357 108.962 17.2223 109.252 17.3237H109.199ZM135.569 19.4123C136.505 19.2985 137.377 18.8754 138.049 18.2089C138.722 17.5424 139.156 16.6703 139.284 15.7287L139.336 15.2047C139.394 14.7325 139.35 14.2532 139.207 13.7998C139.064 13.3464 138.825 12.9294 138.508 12.5775C138.19 12.2255 137.801 11.9469 137.367 11.7607C136.932 11.5744 136.463 11.485 135.991 11.4984H130.084L129.602 13.4047H133.648C133.936 13.3953 134.223 13.4538 134.484 13.5755C134.746 13.6973 134.976 13.879 135.156 14.1061C135.336 14.3332 135.461 14.5995 135.521 14.8838C135.581 15.1682 135.574 15.4627 135.501 15.744L135.434 16.0781C135.295 16.721 134.949 17.2996 134.451 17.724C133.952 18.1484 133.328 18.3948 132.676 18.425H129.037L128.803 19.3971H135.584L135.569 19.4123ZM135.509 19.4123C137.385 19.5794 138.387 21.2731 137.769 23.3161L137.596 23.8705C137.235 24.9456 136.568 25.8898 135.679 26.5854C134.789 27.281 133.716 27.6971 132.593 27.7819H125.963L126.453 25.8452H131.079C131.762 25.7909 132.411 25.5187 132.931 25.0682C133.451 24.6176 133.816 24.012 133.972 23.3389L134.047 22.9819C134.364 21.5996 133.573 20.4756 132.299 20.4756H128.57L128.826 19.4047H135.532L135.509 19.4123ZM140.964 11.8629H170.936L170.582 13.3819H164.253L163.394 16.8148C166.234 15.1136 168.269 15.5844 168.954 16.868C169.421 17.749 169.09 18.5845 168.856 19.4731L167.048 26.2401H163.62L165.277 19.7237C166.031 17.1414 164.524 17.0047 163.017 18.3718L160.681 27.706L157.042 27.8275L158.218 23.3617C155.37 25.0705 153.328 24.6072 152.642 23.3617C152.175 22.4731 152.507 21.6376 152.733 20.749L154.661 13.4199H151.941L148.174 27.8503H144.98L148.747 13.4199H145.937L142.169 27.8503H138.975L140.941 20.3844H138.101L138.613 18.3718H141.469L142.772 13.4047H140.617L140.971 11.8857L140.964 11.8629ZM160.862 13.3819H158.112L156.319 20.506C155.566 23.1186 157.118 23.2326 158.632 21.8199L160.84 13.4275L160.862 13.3819ZM152.047 26.5819H155.061L154.533 29.3237H151.52L152.047 26.5819ZM143.661 6.66039H146.856C146.713 7.03254 146.532 7.92116 146.796 8.28572C147.255 8.92369 148.958 8.87813 149.553 8.19458C149.833 7.74466 150.032 7.24841 150.141 6.72874H153.652C153.328 8.24773 152.77 9.60722 151.301 9.95659C149.052 10.3106 146.761 10.285 144.52 9.88066C142.832 9.54648 143.352 8.1414 143.631 6.70596L143.661 6.66039ZM178.711 11.8629H202.384L199.725 8.3009L201.985 6.45534L205.127 11.8629H205.956L203.59 5.39205L206.558 4.01737L208.261 11.8629H230.352L229.99 13.3819H228.016L224.249 27.8123H221.055L224.822 13.3819H222.019L220.738 17.0579C219.382 17.0579 217.461 16.7389 216.157 16.9971C215.065 17.2098 214.831 17.7566 214.477 18.706C213.811 20.6945 213.273 22.724 212.865 24.7819C213 26.1414 213.708 26.392 215.072 26.3009C214.959 24.9718 215.268 23.1034 216.843 22.3515C217.89 21.8427 219.721 21.8047 220.105 23.0655C220.648 24.8579 218.794 26.6123 217.513 26.7566C217.86 27.8351 218.666 27.9338 219.819 28.4275L216.474 30.2275C215.716 29.4451 215.241 28.4287 215.125 27.3414C213.674 27.9279 212.055 27.9279 210.604 27.3414C210.267 27.168 209.983 26.9054 209.783 26.5819C209.228 25.7108 208.998 24.6689 209.135 23.6427C209.23 22.4462 209.447 21.2627 209.783 20.111C210.1 18.8206 210.783 17.6514 211.75 16.7465C213.437 15.2275 215.208 15.3414 217.86 15.4705L218.493 13.3363H209.075L205.308 27.7667H202.075L205.843 13.3363H203.228L201.759 18.2958L198.61 18.387L198.391 17.187C197.669 16.9184 196.893 16.8348 196.131 16.9439C195.242 17.111 195.061 17.6503 194.805 18.4629C194.548 19.2756 194.488 20.1186 195.076 20.3465C196.063 20.7262 197.758 20.5288 198.798 20.4832C200.124 20.4832 200.93 20.9693 200.855 22.2528C200.728 23.5069 200.349 24.7216 199.74 25.8224C199.5 26.4772 199.027 27.0186 198.414 27.3414C197.042 27.911 194.564 27.7287 193.14 27.7363C192.386 27.7363 191.588 27.7363 190.879 27.6452C190.568 27.6157 190.268 27.5115 190.005 27.3414C189.73 27.1464 189.507 26.8854 189.357 26.5819C189.199 26.306 189.102 25.9984 189.075 25.6807C189.048 25.3631 189.09 25.0432 189.199 24.7439L189.478 23.4756L193.305 23.5515C192.891 24.5161 192.778 25.192 193.034 25.587C193.569 26.3996 195.49 25.9971 196.146 25.587L196.899 23.0882C197.073 22.5034 196.726 22.2528 196.199 22.1313C195.475 22.0261 194.743 21.9931 194.014 22.0326C193.26 22.0326 192.22 22.1617 191.55 21.7287C190.435 20.9692 190.713 19.0705 191.128 17.8401C191.247 17.3725 191.471 16.9387 191.784 16.5726C192.096 16.2064 192.488 15.9177 192.929 15.7287C195.099 14.7262 198.481 14.9693 199.16 16.2756L199.808 13.3136H189.719L186.035 27.8351H182.825L183.684 24.4401C182.787 25.3727 181.566 25.9174 180.278 25.9591H179.917C179.465 25.9937 179.012 25.9178 178.596 25.7379C178.18 25.558 177.813 25.2795 177.527 24.926C177.241 24.5725 177.043 24.1545 176.952 23.7076C176.86 23.2607 176.877 22.7981 177.001 22.3591L177.815 18.911C178.107 17.8976 178.712 17.0038 179.54 16.3583C180.369 15.7128 181.379 15.3488 182.426 15.3186H182.787C183.367 15.2844 183.944 15.4278 184.442 15.7301C184.939 16.0324 185.334 16.4794 185.575 17.0123L186.494 13.3971H178.35L178.711 11.8781V11.8629ZM183.511 17.111H183.684C184.663 17.111 185.191 18.1591 184.837 19.4427L184.362 21.2047L181.74 18.1667C181.941 17.8722 182.204 17.6256 182.51 17.4445C182.816 17.2634 183.157 17.1522 183.511 17.1186V17.111ZM183.729 22.8072C183.528 23.1531 183.25 23.4467 182.916 23.6644C182.583 23.882 182.203 24.0177 181.808 24.0604H181.642C180.663 24.0604 180.135 23.0123 180.482 21.7287L181.069 19.549L183.684 22.868L183.729 22.8072ZM192.168 29.149H195.181L194.654 31.8452H191.64L192.168 29.149Z" fill="#F37321"/>
<path fill-rule="evenodd" clip-rule="evenodd" d="M70.8196 13.1536C70.6552 14.4964 70.3882 15.8244 70.021 17.1257C69.2676 18.789 69.2676 18.789 68.7326 19.7156C67.7762 21.0899 66.6523 22.3376 65.3874 23.4295C64.1969 24.3561 64.1969 24.3561 62.8784 25.2675C61.2855 26.1666 59.6428 26.973 57.9584 27.6827C57.273 27.8329 56.6078 28.0649 55.9769 28.3738C55.9769 28.5409 55.9769 28.5409 56.0221 28.5941C58.0863 28.8153 60.0639 29.5486 61.7784 30.7283C62.6551 31.4359 63.4647 32.2241 64.1969 33.0827C65.0355 34.279 65.7144 35.5813 66.2161 36.9561C66.3367 37.5257 66.4648 38.0802 66.5853 38.6346C66.6682 39.5384 66.6682 40.4346 66.6682 41.3384C66.3553 43.9003 65.4579 46.3544 64.0462 48.508C63.1496 49.7688 63.1496 49.7688 62.2681 50.8928C60.7612 52.5029 58.8776 54.3181 56.8434 55.2447C55.3365 56.3612 53.3549 57.0599 51.6522 57.7738C50.5747 58.0852 49.4521 58.4574 48.3822 58.7991C47.4677 58.9279 46.5619 59.1131 45.6698 59.3536C44.8739 59.4001 44.0815 59.494 43.2965 59.6346C32.4545 60.0903 21.5071 59.8852 10.6651 59.9004C10.552 59.6726 10.4692 59.346 10.7555 59.2168C15.9542 58.9966 21.1906 58.746 26.3818 58.5637C27.4235 58.6057 28.4669 58.56 29.501 58.427C32.9555 58.3685 36.403 58.092 39.8231 57.5991C40.0266 57.5004 40.9458 57.3181 42.3171 56.946C49.098 54.7435 55.2235 50.4219 58.0564 43.6472C58.1449 43.3134 58.2687 42.99 58.4256 42.6827C58.5763 41.9232 58.727 41.1637 58.8927 40.4042C58.9304 38.5207 58.9304 38.5207 58.8927 37.784C58.6547 35.936 57.9746 34.174 56.9112 32.6498C56.444 32.1181 55.9769 31.5941 55.5248 31.07C53.4858 29.2904 50.9524 28.1872 48.2692 27.9105C48.2692 27.6903 48.337 27.6599 48.5329 27.546C49.1053 27.41 49.6649 27.2245 50.2056 26.9916C54.7262 25.0169 58.727 22.3662 61.266 18.0067C61.5147 17.4219 61.7784 16.8295 62.0195 16.2295C62.4582 14.7782 62.7411 13.2835 62.8633 11.7713C62.8031 11.1105 62.7654 10.4422 62.7202 9.76622C62.5846 9.33331 62.464 8.89282 62.3359 8.45231C61.8691 7.27476 61.1663 6.20694 60.2715 5.3156C58.7338 4.04956 56.9301 3.15344 54.9974 2.69534C54.9913 2.64998 54.9913 2.604 54.9974 2.55863C56.0863 2.45241 57.1838 2.47535 58.2673 2.62699C58.994 2.76764 59.7289 2.8615 60.4674 2.90799L62.2154 3.28016C64.0753 3.7311 65.8441 4.50188 67.4442 5.55864L68.8607 6.83459C69.245 7.43459 69.6141 8.01181 70.0135 8.59662C70.1943 9.16624 70.3826 9.72066 70.5785 10.2751C70.6916 11.2396 70.7971 12.1966 70.8272 13.1839L70.8196 13.1536ZM55.3967 10.6321C55.0502 12.5688 55.0502 12.5688 54.7789 13.8143C54.1415 15.4822 53.3013 17.0639 52.2775 18.5232L52.1268 18.6067C49.276 21.8068 45.6372 24.191 41.5787 25.5181C40.7499 25.7156 40.7499 25.7156 40.6519 25.784V25.9738C40.9307 26.2548 41.4657 26.2017 41.8198 26.2093C42.0869 26.3006 42.3665 26.3493 42.6485 26.3536C44.1757 26.807 45.6429 27.4445 47.0185 28.2523C47.124 28.389 47.7719 28.8447 48.8418 29.8245C49.1583 30.2194 49.4747 30.5839 49.7912 30.9637C50.4369 31.958 50.963 33.0263 51.3583 34.146C51.4789 34.7308 51.607 35.3156 51.7275 35.8776C51.7868 36.6355 51.8044 37.3962 51.7802 38.1561C51.6446 38.9612 51.509 39.751 51.3884 40.5409C51.1775 41.0118 51.0946 41.384 50.7254 42.3409C49.9342 43.9892 48.9475 45.5347 47.787 46.9434C46.3208 48.446 44.7442 49.8347 43.0705 51.0979C42.7292 51.2164 42.4162 51.4052 42.1513 51.6523C39.596 53.0372 36.9264 54.196 34.1724 55.1156C32.4394 55.4726 30.7065 55.8067 28.951 56.0422C25.7037 56.2169 25.7037 56.2169 24.7845 56.3156C21.9365 56.3991 10.9363 56.9536 10.7404 56.9156C10.6743 56.8001 10.6395 56.6692 10.6395 56.5359C10.6395 56.4025 10.6743 56.2716 10.7404 56.1561C13.6788 55.2979 16.7076 54.3029 19.6837 53.5662C19.9324 53.4523 24.9578 52.0017 25.4551 51.8042C27.7154 51.3333 29.923 50.4523 32.1456 49.8675C32.6429 49.6852 35.3101 48.9561 37.7813 48.2042C39.9663 47.6802 42.302 46.989 44.4041 46.2523C44.4808 46.1277 44.5102 45.9794 44.4869 45.8346L44.3212 45.7131C44.1178 45.7131 41.2698 46.4726 27.9716 49.6852C27.9197 49.7237 27.8642 49.7567 27.8058 49.7839C25.3647 50.2548 22.916 50.9764 20.4824 51.5308C20.294 51.5991 20.1132 51.6675 19.9324 51.7207C10.7027 53.9384 10.7027 53.9384 10.4918 53.9991H10.2356C10.0397 53.7485 9.93422 53.7105 9.97189 53.3612C10.7531 52.8435 11.5604 52.3669 12.3904 51.9333C12.8274 51.7435 17.0467 49.3283 17.4762 49.1384C20.829 47.1181 24.3174 45.2498 27.6853 43.2523C30.5107 41.7333 33.3587 40.0548 36.1916 38.4903L36.4779 38.2624C38.6327 37.1536 40.7348 35.9004 42.852 34.708C43.87 34.2495 44.8415 33.6924 45.7527 33.0447C45.7885 32.9969 45.8114 32.9405 45.8193 32.8811C45.8272 32.8218 45.8198 32.7613 45.7979 32.7057C45.776 32.65 45.7402 32.6009 45.694 32.5632C45.6478 32.5255 45.5928 32.5004 45.5342 32.4903C43.4849 33.5536 41.4506 34.6245 39.4163 35.6726C39.1826 35.7376 38.9629 35.8457 38.7683 35.9916C32.9443 39.0295 32.9443 39.0295 32.4621 39.1966C31.8066 39.5915 30.0435 40.4802 29.8928 40.6093C27.3688 41.8776 24.8222 43.2219 22.3584 44.5814C22.2819 44.6048 22.2039 44.6225 22.1249 44.6346C20.7687 45.5536 19.1111 46.1536 17.7172 47.0346C15.2836 48.2498 12.7973 49.5105 10.4089 50.832C10.1301 50.9004 8.27667 52.1839 8.4801 50.9232C9.33148 50.1257 10.1904 49.3055 11.0418 48.4852C11.3517 48.1454 11.6922 47.8352 12.0589 47.5586C12.9779 46.4504 14.0194 45.4516 15.1631 44.5814C15.2309 44.4827 15.3138 44.3915 15.3967 44.2776C17.6193 42.2118 19.857 40.0776 21.9893 37.9055C28.3483 31.7688 34.7425 25.665 41.1718 19.5941C41.3441 19.3265 41.5731 19.1009 41.8424 18.9333C45.7452 15.1358 45.9938 14.87 50.6124 10.4422C50.9138 10.2067 50.9138 10.2067 51.0268 10.0397C51.0268 9.28016 50.5823 9.62193 50.1679 9.92573C49.0302 11.0802 47.7946 12.1131 46.6267 13.2219C46.1897 13.8447 45.4062 14.308 44.8787 14.9156C43.7262 16.0898 42.4979 17.1858 41.202 18.1966C40.2592 19.1561 39.2522 20.0494 38.1882 20.87C34.534 24.4017 30.5333 27.6143 26.8866 31.1763C25.101 32.589 23.5564 34.389 21.7481 35.7713C21.2659 36.3029 21.266 36.3029 18.0337 39.3333L17.6946 39.5688C14.0932 42.9181 10.3938 46.2143 6.72457 49.4878C6.32525 49.4878 6.21977 49.389 6.25744 48.9561C10.6575 42.508 15.0651 36.0447 19.4125 29.5434C21.168 26.8548 22.916 24.0979 24.7845 21.4776C26.103 19.5105 26.2085 19.2903 26.6756 18.6523C30.0737 13.5713 33.6299 8.4751 36.9525 3.33333C37.3519 2.9308 37.2464 2.67256 36.7115 2.72572C33.8936 6.71307 30.9627 10.6624 28.1901 14.6954C27.7229 15.2878 26.8188 16.632 17.3782 29.9688C17.1672 30.3333 13.7768 34.9966 13.5281 35.2852C10.5144 39.5764 7.44035 43.8979 4.33618 48.1207C4.17042 48.2498 4.00465 48.3865 3.80122 48.2498V47.8472C6.0088 42.0371 8.32187 36.1966 10.763 30.4624C14.2966 21.5384 17.8001 12.5688 21.3865 3.65991C21.3905 3.53244 21.3476 3.40798 21.266 3.31053C21.2024 3.30623 21.1387 3.31551 21.079 3.33776C21.0193 3.36001 20.9649 3.39474 20.9194 3.43965C18.1994 9.61433 15.3665 15.7814 12.6315 21.9409C12.5185 22.0928 9.61779 28.5941 8.81161 30.2498C8.44996 31.1232 8.16365 31.6548 7.79446 32.5282C5.44373 37.5181 3.20601 42.5992 0.953223 47.6422C0.822607 47.7095 0.678002 47.7446 0.531299 47.7446C0.384596 47.7446 0.239991 47.7095 0.109375 47.6422C0.415838 46.1325 0.798087 44.6394 1.25462 43.1688C1.35256 42.9561 1.669 41.6498 1.75941 41.4371C1.84229 40.9738 1.94024 40.7536 3.04026 36.4776C3.62041 34.3434 4.19301 32.2093 4.78823 30.0751C4.86357 29.6194 10.2808 9.99409 10.3185 9.69029C10.4993 9.06751 10.6801 8.4447 10.8685 7.82192C11.5616 5.07255 12.285 2.50547 12.85 0.325721C12.8985 0.20416 12.9861 0.102522 13.0987 0.0371094C22.7427 0.0371094 32.4018 0.0371094 42.0458 0.0371094C45.0313 0.129319 47.9731 0.786304 50.7179 1.97383C51.0202 2.21546 51.3518 2.41711 51.7049 2.57384C52.3423 3.03358 52.9443 3.54137 53.5056 4.09283C53.807 4.54093 54.1159 4.98143 54.4248 5.42194C54.6056 5.88523 54.7865 6.34093 54.9748 6.79662C55.118 7.46498 55.2536 8.12572 55.3892 8.77889C55.3892 9.38648 55.3892 9.97888 55.3892 10.5789L55.3967 10.6321Z" fill="#F37321"/>
</svg>
