<svg width="171" height="60" viewBox="0 0 171 60" fill="none" xmlns="http://www.w3.org/2000/svg">
<g clip-path="url(#clip0_213_13281)">
<path fill-rule="evenodd" clip-rule="evenodd" d="M111.875 0.0136719H134.005C141.445 0.0136719 150.169 6.54106 150.169 14.3382C150.169 16.1373 150.291 17.4882 150.169 19.5796C149.928 23.7169 146.15 28.3477 143.716 28.3477C147.504 28.3477 151.292 33.8327 152.221 37.6257C154.472 46.8452 149.684 59.9715 134.005 59.9715H111.875V0.0136719ZM123.744 10.9576H132.426C135.69 10.9576 138.358 13.7537 138.358 17.1765V18.0663C138.358 20.989 136.072 23.3921 133.275 23.3921H129.702V34.4822H133.882C137.667 34.4822 140.761 37.7296 140.761 41.6883C140.761 45.6502 137.667 48.8944 133.882 48.8944H123.744V10.9576Z" fill="#271E79" stroke="black" stroke-width="0.0460844" stroke-miterlimit="22.93"/>
<path fill-rule="evenodd" clip-rule="evenodd" d="M58.7099 29.6831C58.6971 23.907 57.0138 18.2606 53.8668 13.4375C50.7199 8.61437 46.2463 4.82474 40.9959 2.5342C35.7455 0.243663 29.9468 -0.448001 24.3125 0.544192C18.6781 1.53638 13.4535 4.16922 9.28054 8.11919C5.10757 12.0692 2.16805 17.1642 0.823145 22.7783C-0.521761 28.3924 -0.213469 34.281 1.71016 39.7206C3.63378 45.1601 7.08894 49.9137 11.6511 53.3973C16.2132 56.8808 21.6837 58.9425 27.3902 59.3291V36.3696C25.78 35.9065 24.3899 34.8712 23.4761 33.4545C22.5624 32.0377 22.1866 30.3351 22.418 28.6606C22.6495 26.986 23.4726 25.4525 24.7357 24.3426C25.9987 23.2328 27.6164 22.6215 29.2906 22.6215C30.9648 22.6215 32.5825 23.2328 33.8455 24.3426C35.1086 25.4525 35.9317 26.986 36.1632 28.6606C36.3946 30.3351 36.0189 32.0377 35.1051 33.4545C34.1913 34.8712 32.8012 35.9065 31.191 36.3696V59.3291C38.6467 58.8385 45.6385 55.502 50.7478 49.9964C55.8571 44.4909 58.7013 37.2287 58.7035 29.6831H58.7099Z" fill="#00B6F0"/>
<path fill-rule="evenodd" clip-rule="evenodd" d="M100.302 17.3233L105.64 6.54502C95.5369 -2.99601 76.3431 -2.57384 70.0856 11.0915C68.4167 14.7319 68.4778 18.7652 70.0663 23.0064C70.8348 25.0523 72.2175 27.6048 74.4105 29.4331C75.5328 30.3684 79.8384 32.5247 83.3209 34.1192C86.5815 35.6097 91.0672 36.6814 93.1252 39.6204C95.479 42.9815 94.0255 47.1317 88.5655 47.8884C85.5075 48.3105 80.9542 47.0278 74.1694 41.4974L66.9922 50.9832C89.8228 71.085 110.885 53.4838 105.949 37.8408C104.695 33.8691 102.113 30.8133 98.9164 28.4816C93.9741 24.8737 88.8131 23.8962 85.366 22.3796C78.9091 19.5381 79.8223 11.5364 88.7745 12.0267C94.4403 12.3352 96.2604 13.9752 100.302 17.3396V17.3233Z" fill="#271E79" stroke="black" stroke-width="0.0460844" stroke-miterlimit="22.93"/>
<path fill-rule="evenodd" clip-rule="evenodd" d="M158.133 0.0136719H170.648V59.9812H158.133V0.0136719Z" fill="#271E79" stroke="black" stroke-width="0.0460844" stroke-miterlimit="22.93"/>
</g>
<defs>
<clipPath id="clip0_213_13281">
<rect width="170.667" height="60" fill="white" transform="translate(0 -0.00195312)"/>
</clipPath>
</defs>
</svg>
