<svg width="239" height="60" viewBox="0 0 239 60" fill="none" xmlns="http://www.w3.org/2000/svg">
<g clip-path="url(#clip0_213_13294)">
<path d="M0 59.998H60.4V-0.00195312H0V59.998Z" fill="#176FC1"/>
<path d="M61.9609 59.997H238.735V0.119141H61.9609V59.997Z" fill="#176FC1"/>
<path d="M223.844 43.1726V43.3559V43.5479V43.7312L223.773 43.9145L223.72 44.089L223.64 44.2635L223.543 44.4119L223.454 44.5777L223.339 44.7173L223.215 44.857L223.082 44.9704L222.932 45.0752L222.861 45.1363L222.772 45.1799H222.702L222.631 45.2235H222.534L222.454 45.2672H222.357H222.268H222.109H221.825H221.64H221.56H221.489H221.409H221.33H221.268L221.188 45.2235H221.126L221.073 45.1799L221.011 45.1188L220.949 45.0664L220.905 45.0141V44.953L220.852 44.9006L220.772 44.761L220.71 44.6214L220.657 44.4555V44.3072V43.7748V43.5915L220.71 43.3995V43.2163L220.781 43.0504L220.87 42.8934L220.949 42.7275L221.055 42.5704L221.179 42.4483L221.303 42.2999L221.436 42.1603L221.578 42.0555L221.648 42.0119L221.728 41.9595L221.817 41.9159L221.896 41.8723H221.967H222.073H222.144H222.241H222.392H222.684H222.79H222.861H222.95H223.003H223.091H223.162H223.233L223.304 41.9246H223.366L223.41 41.9857L223.481 42.0381H223.525V42.1166L223.569 42.1777L223.64 42.3086L223.711 42.457V42.6141V42.7799V43.1115L223.844 43.1726ZM224.498 39.4461L224.348 40.2577L224.277 40.1443L224.198 40.0221L224.118 39.9348L224.038 39.8301L223.923 39.7515L223.835 39.6555L223.728 39.5857L223.596 39.5246L223.472 39.4635L223.366 39.3937L223.242 39.3501L223.109 39.2977H222.994H222.861H222.728H222.587H222.109H221.923H221.728H221.542H221.347L221.179 39.3588L220.985 39.4199L220.808 39.5072L220.622 39.577L220.462 39.673L220.277 39.7952L220.126 39.8999L219.949 40.0221L219.799 40.1617L219.63 40.3101L219.489 40.4672L219.312 40.6243L219.188 40.7988L219.046 40.9733L218.913 41.1479L218.798 41.3312L218.674 41.5145L218.551 41.689L218.462 41.8723L218.365 42.073L218.294 42.265L218.205 42.457L218.117 42.6664V42.8672L218.046 43.0941L217.984 43.2948V43.5217V43.7225V43.9406V44.1501V44.953L218.028 45.1363V45.337L218.081 45.529V45.6948L218.143 45.8868L218.223 46.0701L218.276 46.2272L218.365 46.393L218.462 46.5588L218.551 46.7159L218.657 46.8555L218.781 46.9952L218.905 47.1261L219.02 47.2395L219.152 47.353L219.294 47.4403L219.436 47.5363L219.595 47.6061L219.745 47.6759L219.905 47.7283L220.073 47.7806H220.241H220.454H220.639H220.834H220.94H221.002H221.197H221.347H221.498L221.622 47.737H221.781L221.932 47.6934L222.091 47.6148L222.215 47.5537H222.286L222.365 47.5101L222.507 47.4228L222.64 47.3355L222.755 47.2395L222.879 47.1348L222.994 47.0126L223.118 46.873L223.206 46.7421L223.029 47.6148H225.578L227.11 39.4548L224.498 39.4461ZM217.94 37.0897L218.019 36.9413L218.09 36.8017L218.161 36.6534L218.205 36.4875L218.258 36.2955V35.6672V35.5363L218.205 35.3879L218.152 35.2657L218.073 35.1523L217.975 35.0301L217.896 34.9428L217.789 34.8468L217.674 34.7857L217.559 34.7246H217.435H217.303H217.019H216.869H216.718L216.594 34.777L216.462 34.8555L216.32 34.9341L216.187 35.0301L216.055 35.1435L215.931 35.2657L215.833 35.3879L215.727 35.5363L215.656 35.6759L215.568 35.8243L215.515 35.9814L215.453 36.1297V36.3043V36.4614V36.6272V36.7755V36.9152V37.0635L215.506 37.1857L215.568 37.3166L215.656 37.4475L215.745 37.561L215.816 37.657L215.939 37.7443L216.037 37.8054L216.17 37.8664H216.294H216.851H216.993L217.126 37.8054L217.267 37.7443L217.409 37.657L217.533 37.561L217.648 37.4475L217.78 37.3166L217.896 37.1857L217.94 37.0897ZM213.435 47.5624L214.948 39.4024H217.524L215.984 47.641L213.435 47.5624ZM210.177 43.129V43.3123V43.5043L210.124 43.6875L210.071 43.8708L210.009 44.0454L209.938 44.2199L209.841 44.3683L209.726 44.5341L209.629 44.6737L209.505 44.8134L209.354 44.9268L209.221 45.0315L209.133 45.0926L209.08 45.1363H208.991L208.903 45.1799H208.823L208.735 45.2235H208.664H208.566H208.425H208.044H207.973H207.858H207.77H207.637H207.549H207.495L207.416 45.1799H207.363L207.301 45.1363L207.257 45.0752L207.186 45.0228L207.133 44.9704V44.9093L207.088 44.857L207.018 44.7173L206.938 44.5777L206.894 44.4119V44.2635V44.0977V43.9232V43.7312V43.5479L206.938 43.3559L206.982 43.1726L207.062 43.0068L207.133 42.8497L207.221 42.6839L207.318 42.5268L207.442 42.4046L207.566 42.2563L207.708 42.1166L207.858 42.0119L207.938 41.9683L208.009 41.9159L208.08 41.8723L208.159 41.8286H208.248H208.327H208.434H208.496H208.646H209.036H209.124H209.213H209.283H209.372H209.452H209.514H209.584L209.646 41.881H209.691L209.753 41.9421L209.806 41.9944H209.868L209.912 42.073V42.1341L209.983 42.265L210.053 42.4134L210.098 42.5704V42.7363V42.9021L210.177 43.129ZM211.753 34.3581L210.664 40.2141L210.602 40.1006L210.523 39.9784L210.452 39.8912L210.346 39.7864L210.151 39.6119L210.045 39.5421L209.921 39.481L209.806 39.4199L209.691 39.3501L209.558 39.3065L209.443 39.2541H209.31L209.044 39.2017H208.921H208.451H208.257H208.044H207.867H207.673L207.487 39.2628L207.31 39.3239L207.133 39.4112L206.947 39.481L206.779 39.577L206.602 39.6992L206.433 39.8039L206.283 39.9261L206.115 40.0657L205.955 40.2141L205.796 40.3712L205.646 40.5283L205.495 40.7028L205.371 40.8774L205.23 41.0519L205.115 41.2352L204.982 41.5319L204.884 41.7065L204.787 41.8897L204.681 42.0905L204.583 42.2824L204.522 42.4744L204.433 42.6839L204.38 42.8846L204.309 43.1115L204.256 43.3123V43.5392V43.7399V43.9581V44.1675V44.7784V44.9704V45.1537L204.3 45.3544L204.344 45.5464L204.389 45.7123L204.451 45.9043L204.513 46.0875L204.583 46.2446L204.663 46.4104L204.76 46.5763L204.867 46.7333L204.982 46.873L205.079 47.0126L205.203 47.1435L205.327 47.257L205.46 47.3704L205.592 47.4577L205.734 47.5537L205.893 47.6235L206.044 47.6934L206.221 47.7457L206.389 47.7981H206.566H206.752H206.947H207.124H207.257H207.46H207.593H207.743L207.903 47.7544H208.044L208.186 47.7108L208.327 47.6323L208.496 47.5712H208.54L208.637 47.5275L208.761 47.4403L208.903 47.353L209.009 47.257L209.142 47.1523L209.257 47.0301L209.363 46.8905L209.487 46.7595L209.31 47.6323H211.877L214.329 34.4279L211.753 34.3581ZM203.212 41.0519V41.8548V42.2126V42.4046V42.5792L202.211 47.641H199.671L200.406 43.6526V43.5566V43.4868V43.2774V43.1901V43.0417V42.8759V42.7537V42.4046V42.2912V42.1777V42.0642V41.9595V41.9159V41.8548V41.8112H200.344H200.291L200.193 41.7588H200.069H199.928H199.503H199.406H199.335H199.246H199.175L199.105 41.8024H199.034H198.972L198.91 41.8461L198.83 41.8985L198.786 41.9595L198.724 42.0206L198.671 42.0817L198.627 42.1428L198.538 42.2912L198.45 42.4483L198.37 42.5966L198.29 42.7624L198.228 42.9283L198.175 43.0941V43.2861V43.4694L197.193 47.641H194.635L196.148 39.481H198.706L198.503 40.5195L198.662 40.345L198.813 40.1966L198.954 40.0395L199.096 39.9086L199.255 39.7952L199.406 39.6817L199.547 39.5857L199.707 39.5072L199.857 39.4461L200.007 39.385L200.176 39.3326H200.344H200.512H200.68H200.866H201.397H201.574H201.725L201.857 39.3763L202.008 39.4199L202.132 39.4723H202.264L202.362 39.5508L202.468 39.6119L202.565 39.6992L202.76 39.8737L202.831 39.9784L202.893 40.0744L202.946 40.1879L203.008 40.3101L203.052 40.4235V40.5632L203.096 40.6854V40.825V40.9733V41.113L203.212 41.0519ZM192.378 35.6148L190.138 47.641H192.9L195.13 35.6497L192.378 35.6148ZM186.616 34.4017L186.492 34.3581H186.368H186.226H186.111H185.633H185.447H185.27H185.093L184.907 34.4279L184.748 34.4715L184.545 34.5326L184.376 34.6112L184.199 34.7072L184.031 34.8032L183.854 34.9079L183.695 35.0214L183.536 35.1523L183.376 35.2832L183.217 35.4315L183.075 35.5886L182.996 35.6497L182.934 35.7283L182.881 35.8068L182.827 35.8592L182.765 35.9377L182.712 36.0075L182.659 36.0861L182.615 36.1385L182.518 36.2868L182.438 36.409L182.358 36.5399L182.296 36.6795L182.234 36.8279L182.19 36.9588L182.128 37.0897V37.2206L182.057 37.5086L181.978 37.8054L181.916 38.1108L181.854 38.4337L181.659 39.4723H180.774L180.323 41.8548H181.208L180.101 47.641H182.668L183.748 41.8635H185.518L185.97 39.481H184.199L184.429 38.1806L184.474 38.0061V37.8577L184.518 37.7006L184.571 37.561L184.624 37.4475L184.677 37.3341L184.748 37.2206L184.792 37.1333L184.863 37.0461L184.934 36.9937L185.023 36.9326H185.111L185.217 36.8803H185.306H185.43H185.713H185.793H185.863H185.943H186.005H186.085L186.164 36.9239H186.217H186.279H186.341H186.394L186.855 34.4541L186.748 34.393L186.616 34.3145V34.4017ZM176.818 43.1726V43.3559V43.5479V43.7312L176.773 43.9145L176.694 44.089L176.614 44.2635L176.525 44.4119L176.428 44.5777L176.198 44.857L176.056 44.9704L175.906 45.0752L175.835 45.1363L175.764 45.1799H175.685L175.596 45.2235H175.516L175.428 45.2672H175.357H175.251H175.092H174.711H174.649H174.56H174.472H174.392H174.313H174.242L174.171 45.2235H174.118L174.056 45.1799L173.994 45.1188L173.941 45.0664L173.897 45.0141L173.799 44.9006L173.711 44.761L173.658 44.6214L173.613 44.4555V44.3072V44.1413V43.7748V43.5915L173.658 43.3995L173.711 43.2163L173.773 43.0504L173.844 42.8934L173.932 42.7275L174.038 42.5704L174.162 42.4483L174.286 42.2999L174.428 42.1603L174.569 42.0555L174.649 42.0119L174.711 41.9595L174.799 41.9159L174.888 41.8723H174.959H175.047H175.127H175.215H175.375H175.755H175.835H175.924H176.003H176.083H176.145H176.225H176.286L176.366 41.9246H176.419L176.49 41.9857L176.534 42.0381L176.587 42.1166L176.632 42.1777L176.694 42.3086L176.747 42.457L176.809 42.6141V42.7799V42.9457V43.1115L176.818 43.1726ZM179.544 42.1166V41.9072L179.499 41.6977L179.455 41.5057L179.402 41.3137L179.322 41.1305L179.234 40.9472L179.154 40.7901L179.039 40.6243L178.915 40.4759L178.782 40.3188L178.65 40.1966L178.508 40.057L178.366 39.9348L178.216 39.8214L177.897 39.6381L177.72 39.5421L177.543 39.4723L177.366 39.4024L177.18 39.3413L176.995 39.289H176.8H176.614H176.402H175.977H175.773H175.552H175.339H175.18H174.959L174.764 39.3413L174.552 39.3937L174.348 39.4635L173.941 39.6294L173.755 39.7166L173.551 39.8214L173.366 39.9261L173.162 40.0483L172.976 40.1879L172.773 40.3101L172.596 40.4672L172.436 40.6155L172.259 40.7814L172.091 40.9385L171.949 41.1217L171.808 41.305L171.675 41.497L171.427 41.8985L171.339 42.1079L171.241 42.3435L171.153 42.5443L171.064 42.7886L170.993 43.033L170.94 43.2686L170.887 43.5392V43.801V44.0541V44.2897V44.7435V44.9617V45.1799L170.932 45.3894L170.993 45.5814L171.055 45.7733L171.126 45.9392L171.206 46.1225L171.312 46.297L171.41 46.4454L171.525 46.6024L171.657 46.7421L171.79 46.8817L171.932 47.0039L172.091 47.1261L172.25 47.2395L172.41 47.3355L172.56 47.4315L172.746 47.5014L172.923 47.5886L173.091 47.6497L173.277 47.7195H173.454L173.649 47.7632H173.852H174.065H174.277H174.481H174.702H174.915H175.118H175.286L175.508 47.7195H175.72L175.773 47.641L175.986 47.5712L176.18 47.4926L176.393 47.4228L176.579 47.3268L176.968 47.1173L177.163 46.9952L177.366 46.8555L177.543 46.7246L177.906 46.4366L178.074 46.2708L178.234 46.1137L178.375 45.9217L178.517 45.7385L178.65 45.5639L178.774 45.3544L178.88 45.1624L178.995 44.9443L179.101 44.7261L179.181 44.5079L179.26 44.2635L179.331 44.0454L179.384 43.7748L179.491 43.2599V43.0243V42.7799V42.0992L179.544 42.1166ZM163.452 39.4024L160.266 42.3523L161.753 34.3581H159.221L156.77 47.5537H159.301L159.93 44.2374L162.089 47.5537H165.63L162.629 43.1901L166.931 39.4374L163.452 39.4024ZM156.071 41.017V40.8686V40.7203V40.5894V40.4497V40.3188L156.026 40.2054L155.973 40.0919L155.92 39.9697L155.849 39.865L155.77 39.7603L155.69 39.6817L155.593 39.5857L155.504 39.5072L155.389 39.4461L155.274 39.3763L155.15 39.3239L155.017 39.2803L154.876 39.2366H154.743H154.584H154.424H154.247H153.884H153.716H153.53H153.371H153.203L153.035 39.2803L152.725 39.4112L152.565 39.4897L152.415 39.5857L152.273 39.6905L152.123 39.8126L151.972 39.9435L151.822 40.1006L151.68 40.2577L151.539 40.4235H151.494L151.707 39.385H149.149L147.635 47.5363H150.176L150.963 43.321V43.1377L151.017 42.9544L151.061 42.7799L151.14 42.6054L151.202 42.4483L151.282 42.2999L151.353 42.1428L151.459 41.9944L151.503 41.9246L151.61 41.8024L151.672 41.7588L151.733 41.6977H151.795H151.857L151.937 41.6541H152.017H152.088H152.167H152.247H152.335H152.769H152.902H153.035L153.141 41.7065H153.185H153.229L153.274 41.7501V41.8024V41.8461V41.8985V42.0032V42.1166V42.2301V42.3435V42.6926V42.8148V42.8934V42.9806V43.0504V43.1377V43.1988V43.2861V43.3559V43.4432V43.5741L152.539 47.545H155.088L156.035 42.5181V42.3435V42.1515V41.9857V41.8024V41.6454V41.4708V41.3137V41.1566V41.0083L156.071 41.017ZM144.113 43.129V43.3035V43.4955L144.068 43.6875L144.006 43.8708L143.944 44.0454L143.865 44.2199L143.776 44.377L143.679 44.5253L143.564 44.6563L143.44 44.8046L143.298 44.9268L143.157 45.0315L143.077 45.0839L143.015 45.1363H142.927L142.838 45.1799H142.758H142.688H142.59H142.502H142.351H142.165H142.068H141.891H141.803H141.714H141.652H141.572H141.502L141.422 45.1363H141.369L141.316 45.0839L141.254 45.0228L141.201 44.9792L141.139 44.9181L141.086 44.857V44.7959L141.006 44.6737L140.944 44.5166L140.9 44.3683V44.2112V44.0541V43.8621V43.6875V43.4868V43.3035L140.944 43.129L141.024 42.9632L141.103 42.7974L141.192 42.649L141.28 42.4832L141.404 42.3435L141.537 42.2039L141.67 42.073L141.82 41.9595L141.891 41.9072L141.962 41.8635L142.05 41.8199H142.13H142.21H142.298H142.387H142.493H142.652H143.024H143.121H143.201H143.281H143.36H143.44L143.511 41.8635H143.582L143.635 41.9072L143.705 41.9595L143.75 42.0119L143.812 42.0642L143.865 42.1079V42.1864L143.909 42.2388L143.989 42.3872L144.051 42.5268L144.095 42.6752V42.8497V43.1814L144.113 43.129ZM144.617 40.2054L144.546 40.0919L144.467 39.9784L144.387 39.8912L144.29 39.7952L144.21 39.6992L144.095 39.6032L143.989 39.5421L143.865 39.4723L143.75 39.4112L143.626 39.3501L143.511 39.2977H143.378H143.254H143.121H142.989H142.865H142.785H142.387H142.183H141.997H141.803L141.617 39.3413L141.44 39.3937L141.254 39.4635L141.068 39.5421L140.891 39.6206L140.723 39.7166L140.546 39.8301L140.386 39.9435L140.218 40.0744L140.059 40.2141L139.9 40.3624L139.74 40.5108L139.59 40.6679L139.448 40.8337L139.315 41.017L139.174 41.1915L139.05 41.3661L138.944 41.5493L138.837 41.7413L138.731 41.9159L138.634 42.1166L138.554 42.3086L138.466 42.5093L138.395 42.7101L138.324 42.9195L138.262 43.129L138.209 43.3472V43.5566V43.7661V43.993V44.1937V44.8134V44.9966V45.1799V45.3806L138.253 45.5726L138.297 45.7385L138.359 45.9217L138.413 46.1137L138.501 46.2708L138.59 46.4366L138.687 46.5937L138.767 46.7683L138.997 47.0388L139.103 47.1697L139.236 47.2832L139.368 47.3966L139.51 47.4926L139.652 47.5799L139.802 47.641L139.961 47.7195L140.121 47.7632L140.298 47.8155H140.475H140.652H140.847H141.254H141.404H141.555H141.696H141.847L141.988 47.7719L142.139 47.641L142.272 47.5799L142.413 47.5014H142.484H142.573L142.714 47.4054L142.829 47.3093L142.971 47.2046L143.086 47.0999L143.201 46.9777L143.316 46.8468L143.422 46.7159L143.254 47.5886H145.803L147.326 39.4374H144.794L144.617 40.2054ZM134.642 38.9573V39.1232V39.2977V39.4635L134.571 39.6032L134.509 39.7253L134.465 39.7952L134.412 39.8388V39.8912L134.359 39.9348H134.306H134.235H134.182L134.058 39.9872L133.934 40.0308H133.81H133.686H133.562H133.438H133.279H133.182H133.12H132.801L133.243 37.7093H133.943H134.049H134.164H134.261L134.376 37.753L134.474 37.8054H134.58H134.624V37.8664V37.9275V37.9886V38.0323V38.1719V38.3115L134.642 38.9573ZM134.5 43.5392V43.7137V43.9145V44.0803L134.456 44.2374L134.394 44.377L134.323 44.4992L134.235 44.6214L134.137 44.7173L134.04 44.8046L133.925 44.8657L133.81 44.9268L133.677 44.9879L133.562 45.0315L133.297 45.1013L133.173 45.145H133.049H132.925H131.765L132.252 42.5268H133.412H133.536H133.668H133.801H133.916L134.031 42.5792L134.155 42.6228L134.261 42.6752H134.323V42.7275V42.7799V42.841V42.8934V42.9632V43.2774V43.3559V43.513L134.5 43.5392ZM137.28 37.2294V37.0897L137.235 36.9413V36.8104L137.182 36.6883L137.12 36.5748L137.049 36.4701L136.97 36.3653L136.881 36.2781L136.784 36.1995L136.687 36.1123L136.58 36.0424L136.483 35.9726L136.359 35.9115L136.235 35.8504L136.111 35.7894L135.987 35.7457L135.846 35.7021H135.704H135.554H135.403H135.244H135.076H130.818L128.579 47.6846H133.173H133.35H133.527H133.704H133.872H134.049L134.235 47.641L134.403 47.5886L134.571 47.545L134.739 47.4752L134.916 47.4054L135.076 47.3443L135.244 47.2744L135.43 47.1784L135.589 47.0912L135.731 46.9952L135.89 46.8992L136.032 46.777L136.182 46.6635L136.315 46.5326L136.439 46.393L136.545 46.2446L136.651 46.0875L136.766 45.9305L136.855 45.7472L136.934 45.5639L137.014 45.3632L137.094 45.1537L137.156 44.9443L137.2 44.7173L137.244 44.4992L137.306 44.1937V43.897V43.6177V43.3472V43.2163V42.9719L137.262 42.8584L137.218 42.6315L137.129 42.4221L137.076 42.3173L137.032 42.2301L136.97 42.1341L136.908 42.0555L136.837 41.9683L136.749 41.9072L136.678 41.8286L136.58 41.7675L136.483 41.6977L136.386 41.6454H136.271L136.164 41.5843H136.058H135.934H135.801H135.66L135.846 41.4795L136.005 41.3748L136.164 41.2701L136.297 41.1479L136.439 41.017L136.545 40.8686L136.669 40.7377L136.766 40.5719L136.855 40.4061L136.934 40.2403L137.014 40.0744L137.076 39.8912L137.156 39.7079L137.2 39.5246L137.244 39.3326L137.297 39.1232V38.9137V38.713V38.521V38.329V37.9712V37.8228V37.657L137.28 37.2294ZM119.462 47.5537H121.994L124.437 34.3581H121.896L119.462 47.5537ZM116.09 43.129V43.3035V43.4955L115.993 43.8708L115.922 44.0454L115.842 44.2199L115.745 44.377L115.647 44.5253L115.541 44.6563L115.417 44.8046L115.276 44.9268L115.143 45.0315L115.054 45.0839L114.984 45.1363H114.904L114.824 45.1799H114.745H114.656H114.568H114.47H114.311H114.125H114.037H113.851H113.771H113.683H113.612H113.532H113.47L113.399 45.1363H113.328L113.267 45.0839L113.205 45.0315V44.9879L113.151 44.9268L113.098 44.8657V44.8046L113.01 44.6824L112.957 44.5253L112.904 44.377V44.2199V44.0628V43.8708V43.6963V43.4955L112.948 43.3123L113.001 43.1377L113.072 42.9719L113.143 42.8061L113.249 42.6577L113.337 42.4919L113.47 42.3523L113.576 42.2126L113.727 42.0817L113.86 41.9683L113.948 41.9159L114.019 41.8723L114.099 41.8286H114.178H114.258H114.346H114.435H114.55H114.7H115.081H115.17H115.258H115.329H115.417H115.497L115.559 41.8723H115.63L115.683 41.9159L115.745 41.9683L115.816 42.0206L115.913 42.1166V42.1952L115.957 42.2475L116.037 42.3959L116.099 42.5355V42.6839V42.8584V43.1901L116.09 43.129ZM116.586 40.2054L116.506 40.0919L116.444 39.9784L116.356 39.8912L116.267 39.7952L116.17 39.6992L116.072 39.6032L115.957 39.5421L115.842 39.4723L115.727 39.4112L115.594 39.3501L115.479 39.2977H115.347H115.223L114.975 39.2454H114.833H114.754H114.355H114.16H113.966H113.78L113.594 39.289L113.408 39.3413L113.222 39.4112L113.045 39.4897L112.868 39.5683L112.7 39.6642L112.523 39.7777L112.355 39.8912L112.187 40.0221L112.027 40.1617L111.868 40.3101L111.718 40.4584L111.567 40.6155L111.425 40.7814L111.275 40.9646L111.151 41.1392L111.027 41.3137L110.921 41.497L110.797 41.689L110.709 41.8635L110.602 42.0642L110.514 42.2563L110.425 42.457L110.372 42.6577L110.301 42.8672L110.239 43.0766L110.186 43.2948V43.5043V43.7137V43.9406V44.1413V44.9443V45.1275V45.3283L110.239 45.5203L110.293 45.6861L110.346 45.8694L110.408 46.0614L110.567 46.3843L110.664 46.5413L110.771 46.7159L110.859 46.8468L110.992 46.9864L111.098 47.1173L111.222 47.2308L111.364 47.3443L111.496 47.4403L111.647 47.5275L111.797 47.5886L111.948 47.6672L112.116 47.7108L112.284 47.7632H112.461H112.647H112.833H113.258H113.408H113.541H113.691H113.842L113.983 47.7195L114.125 47.6672L114.276 47.6061L114.426 47.5275H114.488H114.559L114.7 47.4315L114.842 47.3355L114.966 47.2308L115.072 47.1261L115.205 47.0039L115.311 46.873L115.417 46.7421L115.258 47.6148H117.789L119.312 39.4635H116.736L116.586 40.2664V40.2054ZM110 39.3326H110.496L109.974 42.0992H109.921L109.832 42.0555L109.717 42.0119H109.62H109.522H109.434H109.319H108.983H108.717H108.602H108.487H108.381H108.266L108.159 42.0555H108.062L107.974 42.1079L107.867 42.1603L107.797 42.2126L107.717 42.2824L107.637 42.3523L107.566 42.4221L107.496 42.5006L107.442 42.5792L107.319 42.7712L107.212 42.9632L107.115 43.1726L107.026 43.3733L106.947 43.609L106.876 43.8446L106.805 44.0977L106.761 44.3421L106.133 47.6148H103.601L105.132 39.4635H107.62L107.372 40.7901L107.496 40.6243L107.62 40.4584L107.761 40.3101L107.912 40.153L108.062 40.0308L108.221 39.9086L108.381 39.8126L108.717 39.6381L108.885 39.5595L109.062 39.4985L109.239 39.4548L109.416 39.4112H109.584H109.77L110 39.3326ZM104.265 39.4374H102.831L103.291 36.9763H100.733L100.282 39.4374H99.4588L99.0162 41.8286H99.8394L98.7684 47.5537H101.318L102.388 41.7937H103.822L104.265 39.4374ZM97.8833 41.017V40.8686L97.839 40.7203V40.5894V40.4497V40.3188L97.7859 40.2054L97.7417 40.0919L97.6709 39.9697L97.6089 39.865L97.5292 39.7603L97.4496 39.6817L97.3522 39.5857L97.2637 39.5072L97.1487 39.4461L97.0336 39.3763L96.9185 39.3239L96.7858 39.2803L96.653 39.2366H96.4937H96.3432H96.1839H96.0157H95.6528H95.4758H95.2899H95.1217H94.9624L94.8031 39.2803L94.4845 39.4112L94.334 39.4897L94.1924 39.5857L94.033 39.6905L93.8826 39.8126L93.7321 39.9435L93.5905 40.1006L93.4489 40.2577L93.2984 40.4235L93.502 39.385H90.8024L89.2711 47.5363H91.8291L92.6169 43.321V43.1377L92.6611 42.9544L92.7231 42.7799L92.785 42.6054L92.8559 42.4483L92.9267 42.2999L93.0152 42.1428L93.1125 41.9944L93.1568 41.9246L93.2099 41.8723L93.2719 41.8024L93.325 41.7588L93.3958 41.6977H93.4489H93.5108L93.5817 41.6541H93.6613L93.8206 41.6017H93.9003H93.9888H94.4136H94.5641H94.6792L94.7943 41.6541L94.8385 41.6977H94.8827V41.7501V41.7937V41.8461V41.9508V42.0642V42.1777V42.2912V42.6403V42.7624V42.841V42.9283V42.9981V43.0854V43.1464V43.2337V43.3908V43.5217L94.1392 47.4926H96.6884L97.6355 42.4657L97.6886 42.0992V41.9333V41.7501V41.593V41.1043L97.8833 41.017ZM83.7923 42.2999H86.7397V42.1603V42.0206V41.8897V41.785L86.6955 41.6715L86.6335 41.5581L86.5627 41.4621L86.483 41.3573L86.3857 41.2875L86.306 41.2177L86.1998 41.1566L86.0936 41.113H85.9874H85.8635H85.7484H85.4829H85.3501H85.2085H85.0846L84.9518 41.1741L84.819 41.2177L84.7128 41.2963L84.5889 41.3661L84.4738 41.4359L84.3588 41.5493L84.2614 41.6541L84.1641 41.7588L84.0933 41.8897L84.0047 42.0206L83.9339 42.1515L83.8808 42.3173L83.7923 42.2999ZM88.9614 42.0119V42.6839V42.9283V43.1726L88.9171 43.4257V43.6701L88.8551 43.9668H83.5445V44.2024V44.3944V44.5864V44.761V44.9181L83.5887 45.0664L83.6507 45.2061V45.2672V45.3283L83.6949 45.4068L83.7392 45.4592H83.8012L83.8631 45.5028L83.9162 45.5464H83.9782H84.049H84.1286H84.1906H84.2703H84.3411H84.527H85.0226H85.1023H85.1908H85.2704H85.3412L85.4298 45.5028L85.5183 45.4417L85.5891 45.3894L85.6688 45.337L85.7484 45.2759L85.8192 45.1886L85.9077 45.1101L85.9785 45.0228L86.0405 44.9268H88.5011L88.4214 45.1101L88.3329 45.2759L88.2533 45.433L88.1736 45.6075L88.0763 45.7559L87.9789 45.9043L87.8727 46.0439L87.7665 46.1835L87.6603 46.3145L87.5363 46.4279L87.4213 46.5501L87.2619 46.7683L87.1469 46.873L86.8636 47.065L86.722 47.1435L86.5716 47.2308L86.4122 47.2919L86.2706 47.3617L86.1201 47.4403L85.9785 47.4926L85.8281 47.5537L85.6776 47.6061H85.5183H85.3678H85.2528H85.0934L84.943 47.6497H84.7925H84.6332H83.8985H83.6949L83.4914 47.6061H83.2966L83.1108 47.5624L82.9337 47.4839L82.7479 47.4315L82.5886 47.3704L82.2611 47.1872L82.1018 47.0824L81.8362 46.8643L81.6858 46.7333L81.5795 46.6112L81.4556 46.4541L81.3405 46.3145L81.252 46.1486L81.1724 45.9828L81.0662 45.8955L80.9954 45.721L80.9511 45.5203L80.9068 45.337V45.1188V44.9181V44.2286V43.9843V43.7225V43.4606L80.9511 43.2163L81.0219 42.9719L81.0927 42.7275L81.1547 42.5093L81.2343 42.2824L81.3229 42.0642L81.4202 41.8548L81.5353 41.6541L81.6503 41.4534L81.7654 41.2614L81.8716 41.0781L82.0132 40.9035L82.1549 40.729L82.3053 40.5806L82.4558 40.4148L82.624 40.2752L82.7833 40.1268L82.9515 39.9959L83.1462 39.8824L83.3144 39.7603L83.4914 39.6555L83.6773 39.5595L83.8631 39.4897L84.0578 39.4024L84.2437 39.3413L84.4473 39.2628H84.642H84.8456H85.058H85.2085H85.2616H85.474H85.9343H86.1467H86.368H86.5716H86.7663L86.9521 39.3152L87.138 39.3763L87.315 39.4635L87.4744 39.5246L87.6248 39.6206L87.7753 39.7253L87.9081 39.8301L88.0408 39.961L88.1647 40.0919L88.271 40.2228L88.3772 40.3624L88.4745 40.5283L88.5542 40.6941L88.6339 40.8512L88.7047 41.0344L88.7578 41.2177L88.8109 41.401L88.8551 41.6017V41.8112V42.0119H88.9614ZM81.2874 35.8592L81.0131 35.737L80.7298 35.6148L80.4466 35.5013L80.1811 35.4228H80.0306L79.8713 35.3792H79.7208H79.4021H79.2428H79.0924H78.9242H78.8003H78.5259H78.2515L77.9771 35.4228L77.7028 35.4839L77.4284 35.5537L77.1363 35.6584L76.8619 35.7632L76.5786 35.8766L76.3043 36.0163L76.0299 36.1646L75.7644 36.3305L75.5077 36.4875L75.2598 36.6621L75.0209 36.8715L74.7819 37.0635L74.5429 37.2642L74.1092 37.7268L73.9056 37.9712L73.6932 38.2155L73.5162 38.4774L73.3391 38.7305L73.1002 38.9137L72.9408 39.2017L72.7992 39.4985L72.6665 39.7864L72.5337 40.0657L72.4186 40.3712L72.3301 40.6592L72.2327 40.9646L72.1708 41.2614L72.1 41.5668L72.0469 41.9072V42.2301V42.5443V42.8584V43.1639V43.4694V43.7661V44.0628L72.1088 44.3333L72.1708 44.6214L72.2682 44.8832L72.3744 45.1537L72.4894 45.3894L72.6311 45.6424L72.7815 45.8781L72.9497 46.105L73.1179 46.3057L73.3037 46.489L73.4896 46.681L73.6843 46.8468L73.8879 47.0039L74.1003 47.1523L74.3216 47.2832L74.5429 47.3966L74.7819 47.5014L75.0297 47.5974L75.2775 47.6672L75.5165 47.7283L75.782 47.7894H76.0387H76.3043H76.5875H76.7291H76.8619H77.1274H77.2602H77.393H77.5257H77.6585H77.8267L78.0037 47.7283L78.1807 47.6759H78.3489L78.5436 47.6148L78.7206 47.5624L78.9153 47.4839L79.1101 47.4315L79.8005 43.6963L79.6588 43.8446L79.5172 43.9755L79.3756 44.1152L79.2959 44.1501L79.1278 44.2635L78.9685 44.3595L78.8091 44.473L78.6232 44.5515L78.4639 44.6475L78.2781 44.7086L78.101 44.7697H77.9506H77.7647H77.6054H76.7999H76.676H76.5344H76.4016L76.2777 44.7173L76.1538 44.6737L76.0299 44.6039L75.9237 44.5253L75.8175 44.473L75.7201 44.377L75.6227 44.2897L75.5254 44.1937L75.4546 44.089L75.3041 43.8621L75.2421 43.7399L75.1625 43.609L75.1182 43.4781L75.074 43.3472L75.0209 43.1988V43.0679L74.9766 42.9283V41.9857V41.8199V41.6366L75.0209 41.4621L75.0651 41.305V41.1217L75.1094 40.9646L75.1713 40.8075L75.2421 40.6504L75.2952 40.5021L75.4546 40.2054L75.5342 40.057L75.6404 39.9261L75.7555 39.7864L75.8617 39.6468L75.9768 39.5246L76.083 39.4024L76.1981 39.2628L76.3131 39.1493L76.437 39.0446L76.5698 38.9399L76.6937 38.8526L76.8176 38.7741L76.9592 38.6868L77.092 38.617L77.2336 38.5559L77.3841 38.4948L77.5169 38.4424H77.6585H77.8001H77.9506H78.101H78.2515H78.5879H78.756H78.933H79.0835L79.2428 38.4948L79.4021 38.5472L79.5438 38.6257L79.6943 38.6955L79.8447 38.7915L79.9598 38.8875L80.0925 38.9923L80.2076 39.1057L80.3138 39.2366L80.4112 39.3675L80.5085 39.5159L80.5705 39.6642L81.2786 35.929L81.2874 35.8592Z" fill="white"/>
<path d="M219.621 22.0076L219.949 18.5952H217.931L218.019 18.7174L218.117 18.8483L218.179 18.9967L218.232 19.1451V19.2934V19.4592V19.8258V19.9567V20.0789V20.2098L218.188 20.332L218.135 20.4454V20.5414L218.055 20.6636L217.904 20.8469L217.816 20.9603L217.701 21.0389H217.657L217.595 21.0912L217.471 21.1698L217.356 21.2483L217.223 21.3269L217.081 21.388L216.878 21.4752L216.674 21.5451L216.462 21.5974L216.24 21.6672H216.028L215.789 21.7109H215.577H215.329V21.9203V22.1211V22.3043L215.373 22.4789L215.426 22.6447L215.497 22.7843L215.585 22.9153L215.692 23.0462L215.745 23.0898H215.798L215.86 23.1421H215.931L216.063 23.2207L216.223 23.2818L216.4 23.3341H216.577H216.763H216.984H217.161H217.373H217.559H217.621H217.736L217.913 23.273L218.099 23.212L218.258 23.1247L218.427 23.0374L218.595 22.9327L218.754 22.8192L218.922 22.6796L219.064 22.5574L219.214 22.4178L219.374 22.252L219.506 22.0862L219.621 22.0076ZM207.416 16.3349V15.8985V15.7676L207.372 15.6542V15.5494L207.31 15.4447L207.23 15.3661L207.168 15.2876L207.071 15.2178L206.956 15.1392L206.849 15.0956L206.725 15.0432H206.584L206.442 14.9909H206.301H206.124H205.955H205.761H205.345H205.123H204.902H204.663H204.203L203.796 15.0432H203.397L203.026 15.0956L202.68 15.1741L202.388 15.244L202.238 15.2963H202.087L201.964 15.34L201.848 15.4011L201.716 15.4534L201.609 15.5058L201.512 15.5669L201.415 15.6367L201.326 15.6891L201.247 15.7589L201.167 15.8374L201.096 15.9073L201.034 15.9858L200.981 16.0643V16.1516L200.928 16.2302V16.3261V16.4134V16.5007V16.6054V17.1029L200.972 17.2076V17.26H201.087H201.132V17.2076H206.947L206.876 17.1291L207.009 17.0505L207.115 16.972L207.212 16.8585L207.301 16.7625L207.372 16.6578L207.425 16.5531V16.4222V16.2912L207.416 16.3349ZM209.372 17.2512H228.703L228.561 18.5952H227.251L226.525 26.2229H224.038L224.755 18.5952H222.427L221.719 26.2229H219.214L219.374 24.4774L219.188 24.6083L219.002 24.7218L218.843 24.8352L218.666 24.9225L218.462 25.0272L218.276 25.1058L218.108 25.1756L217.913 25.2542L217.727 25.324H217.595H217.541H217.356L216.984 25.3851H216.798H216.612H216.426H216.108H215.798L215.515 25.3414L215.24 25.2978L215.116 25.2542H214.975H214.86L214.736 25.2105L214.612 25.1494L214.506 25.0883L214.391 25.0272L214.284 24.9661L214.169 24.9051L214.072 24.8265L213.974 24.7567L213.886 24.6782L213.789 24.5996L213.7 24.5123L213.62 24.4163L213.523 24.3203V24.2156L213.426 24.1196L213.364 24.0149L213.293 23.8927L213.169 23.657L213.054 23.404L212.948 23.2032L212.868 22.9501L212.806 22.6971V22.4265V22.1298V21.8243V21.1872L213.196 20.9952H213.426H213.603H213.789H214.134H214.302H214.479H214.621L214.789 20.9341L214.93 20.8905L215.116 20.812L215.267 20.7334L215.408 20.6374L215.488 20.5763V20.524L215.541 20.4716L215.585 20.4018V20.3581V20.2883V20.2272V20.1574V20.0789V20.0003V19.5901V19.4767V19.3807V19.2934V19.2062L215.532 19.1189V19.0403L215.47 18.9705L215.426 18.9094L215.346 18.8396L215.276 18.7785L215.196 18.7174L215.116 18.6563H210.691L210.496 20.7334H206.026H205.929H205.867H205.814H205.77L205.69 20.7945V20.8469V20.8992V20.9429V20.9865V21.2658V21.3269V21.3967V21.4403H205.743L205.787 21.484H205.849H205.911H206.062H206.15H208.956H209.195H209.301L209.416 21.5276H209.522H209.637L209.744 21.5712L209.832 21.6236L210.027 21.7545L210.133 21.8156L210.23 21.8767L210.319 21.9552L210.416 22.0425L210.496 22.1211L210.567 22.2171L210.655 22.3131L210.726 22.3829L210.779 22.5051L210.824 22.5923L210.868 22.6971V22.8105V22.9153V23.0287V23.1421V23.7618V23.9189V24.0934L210.824 24.2505V24.4076V24.5647L210.779 24.7131L210.708 24.8614L210.638 25.0011L210.567 25.132L210.487 25.2716L210.301 25.516L210.195 25.6556L210.089 25.7778L209.974 25.8825L209.859 26.0047L209.567 26.2142L209.407 26.6941L209.257 26.7727L209.115 26.86L208.929 26.9385L208.77 26.9909L208.584 27.0694L208.425 27.1131L208.212 27.1654L208.035 27.2091L207.646 27.2614H207.442H206.672H206.327L205.982 27.2178L205.619 27.1654L205.141 27.0694L204.672 26.956L204.256 26.8512L203.867 26.7291L203.504 26.6069L203.185 26.4847L203.017 26.4062L202.875 26.3451L202.725 26.2578L202.61 26.2054L202.503 26.1443L202.415 26.0745L202.318 25.9872L202.202 25.9087L202.105 25.8302L202.008 25.7341L201.902 25.612L201.804 25.516L202.645 23.4825V23.5698V23.6134L202.734 23.692L202.849 23.788L202.999 23.8927L203.185 24.0149L203.415 24.1371L203.681 24.2941L203.982 24.4425L204.3 24.5996L204.592 24.7218L204.893 24.8352L205.194 24.94L205.495 25.0098L205.787 25.0709L206.062 25.1233H206.265H206.451H206.637H206.973H207.141H207.292H207.434H207.549H207.699L207.796 25.0709H207.911L208 25.0272L208.089 24.9574L208.15 24.9051L208.23 24.8178L208.283 24.748L208.327 24.6607V24.5472V24.46V24.3814V24.3029V24.2331V24.1632V24.0934L208.283 24.0323L208.23 23.9712L208.15 23.9101L208.071 23.8491L208.009 23.7967H207.929L207.867 23.7531H207.77H207.664H205.283H205.176H205.044H204.814H204.69H204.592L204.486 23.7094L204.371 23.657L204.15 23.5698L204.097 23.2032L203.999 23.1334L203.902 23.0723L203.787 22.9938L203.689 22.9153L203.601 22.828L203.495 22.7494L203.406 22.6534L203.327 22.5574L203.273 22.4614L203.194 22.3654L203.141 22.2694L203.088 22.1821V22.0774V21.964V21.8592V21.7632V21.2047V21.1V20.9865V20.8818V20.7683L203.141 20.6636L203.185 20.5676L203.265 20.4716L203.318 20.3756L203.397 20.2883L203.477 20.1923L203.557 20.1051L203.663 20.0178L203.76 19.9218L203.849 19.8432L203.964 19.7734L204.097 19.7123L204.318 19.6076L204.548 19.5029L204.778 19.4243L205.008 19.3632H205.238H205.477H205.734H208.15L208.212 18.7174H201.132L200.397 26.3451H197.901L198.627 18.7174H197.317L197.467 17.3734H198.441V17.2949V17.2163V17.1378V17.0243V16.9283V16.8236V16.7276V16.6142V16.396L198.485 16.1865V15.9683L198.538 15.7589L198.609 15.5581L198.697 15.3749L198.795 15.1916L198.883 15.0258L199.007 14.86L199.122 14.6941L199.255 14.5545L199.406 14.4062L199.565 14.2665L199.724 14.1269L199.901 14.0134L200.087 13.9L200.291 13.7865L200.494 13.6905L200.716 13.5858L200.955 13.5073L201.193 13.4287L201.45 13.3589L201.707 13.2891L201.981 13.228L202.264 13.1843L202.548 13.1407H202.857H203.185H203.512H203.849H204.575H204.955H205.327H205.69H206.044L206.363 13.1843L206.69 13.2367L206.991 13.2891L207.274 13.3501L207.549 13.42L207.814 13.4985L208.044 13.5858L208.274 13.6818L208.469 13.7865L208.664 13.8912L208.841 14.0047L209 14.1269L209.106 14.2403L209.23 14.3363L209.328 14.4585L209.416 14.5894L209.487 14.7116L209.575 14.8338L209.637 14.9821L209.691 15.1305L209.761 15.4272V15.6018V15.7589V15.9421V16.1167V16.3087V16.5007V16.6054V16.6927V16.7974V16.8847V16.9632V17.0331V17.1029L209.717 17.164L209.584 17.3123L209.372 17.2512ZM197.591 16.2214L197.724 16.0992L197.83 15.9683L197.936 15.8462L198.016 15.7065L198.096 15.5494V15.4011L198.149 15.2352V15.0694V14.8862V14.7291V14.5632V14.4236L198.096 14.2752L198.016 14.1443L197.927 14.0047L197.821 13.8825L197.715 13.7778L197.582 13.6818L197.449 13.5858L197.317 13.5334L197.166 13.4636H197.007H196.856H196.325L196.166 13.5073L195.998 13.5596L195.83 13.612L195.679 13.708L195.538 13.7952L195.369 13.9087L195.228 14.0222L195.122 14.1618L195.007 14.3014L194.909 14.4498L194.83 14.5982L194.776 14.7727L194.732 14.9298V15.1218V15.6192V15.6891L194.776 15.7676V15.8374V15.916L194.821 15.9771L194.865 16.0469L194.971 16.1865L195.077 16.3L195.21 16.4047L195.352 16.5007L195.476 16.5792L195.644 16.6403L195.794 16.684H195.962H196.122H196.29H196.458H196.626H196.786L196.936 16.6316L197.095 16.5618L197.237 16.492L197.379 16.3872L197.591 16.2214ZM186.288 18.5603H192.989L192.909 19.2847H189.607H189.351H189.121L188.89 19.3283L188.669 19.3894L188.448 19.468L188.253 19.5552L188.05 19.6512L187.935 19.7123L187.837 19.7647L187.74 19.8432L187.642 19.9218L187.554 20.0003L187.474 20.0876L187.395 20.1661L187.333 20.2447L187.28 20.3407V20.5851L187.218 20.681L187.164 20.7771V20.9952V21.0912V21.4578V21.5538V21.6585V21.7458L187.209 21.8418L187.253 21.9291L187.324 22.0163V22.0862L187.403 22.1734L187.483 22.252L187.563 22.3305L187.66 22.3916L187.749 22.4527L187.846 22.5312L188.041 22.636L188.244 22.732L188.448 22.8105L188.66 22.8803H188.864L189.112 22.924H189.36H191.776H191.891H192.015H192.059V23.212V23.3167V23.4214L192.015 23.5087L191.962 23.5785L191.9 23.6396L191.82 23.692L191.723 23.7356H191.599H191.457H190.103H189.731H189.368H189.041L188.731 23.6832L188.448 23.6134L188.174 23.5349L187.935 23.4476L187.66 23.308L187.395 23.1945L187.111 23.0636L186.846 22.9414L186.536 24.5123L186.757 24.6432L186.97 24.7654L187.2 24.8527L187.412 24.9312L187.563 25.324L187.704 25.6818L187.846 26.0134L187.979 26.2927L188.041 26.4236L188.12 26.5371L188.191 26.6418L188.342 26.8425L188.412 26.9211L188.474 26.9909L188.545 27.0432L188.643 27.1305L188.767 27.2178L188.917 27.2789L189.067 27.3487L189.227 27.4098L189.404 27.4622H189.599L189.802 27.5145H190.032L190.262 27.5581H190.51H190.785H191.059H191.36H191.652H192.236H192.413H192.546H192.599L192.794 26.0309H192.201H191.687H191.466H191.263H191.077H190.908H190.776H190.643H190.537L190.448 25.9785L190.377 25.9261V25.8738V25.8214V25.7778H191.36H191.625H192.13H192.378H192.652L192.909 25.7341H193.148L193.369 25.6818L193.582 25.6207L193.75 25.5509L193.918 25.4723L194.086 25.3938L194.175 25.3327L194.245 25.2629L194.325 25.1843L194.414 25.1233L194.546 24.9749L194.599 24.8789L194.661 24.8003L194.732 24.6956V24.5996V24.5036V24.3901V24.2767V24.1545V24.0411V23.9189V23.7705V23.273V23.1509L194.661 22.9327L194.617 22.828L194.573 22.732L194.52 22.6272L194.458 22.5487L194.387 22.4614L194.316 22.3654L194.236 22.3043L194.148 22.2171L194.068 22.1472L193.971 22.1036L193.882 22.0425L193.803 21.9989L193.608 21.9116L193.413 21.8418L193.192 21.772H192.962H192.732H189.935H189.855H189.802H189.749L189.705 21.7283V21.6672V21.6062V21.5538V21.4316L189.749 21.3443L189.82 21.257L189.882 21.196L189.961 21.1523H190.05H190.147H190.28H195.263L195.476 19.0142H196.918L197.051 17.6702H186.394L186.288 18.5603ZM171.976 25.5421V25.6469V25.7516V26.0134V26.1443V26.2491V26.3625L171.923 26.476L171.852 26.572L171.781 26.6767L171.702 26.764L171.604 26.86L171.507 26.9211L171.401 26.9909L171.286 27.0607H171.179L171.064 27.1043H170.94H170.825H170.693H170.577H170.445L170.223 27.0432H170.126L170.011 26.9734L169.914 26.9123L169.816 26.8251L169.737 26.7378L169.666 26.6592L169.604 26.5632V26.4585V26.3538V26.2316V25.9785V25.8476V25.7167L169.701 25.481L169.763 25.3763L169.843 25.2716L169.931 25.1843L170.029 25.0971L170.135 25.0098L170.25 24.9487L170.356 24.8876L170.462 24.8265H170.586H170.719H170.825H171.091H171.206H171.321H171.436L171.533 24.8789L171.622 24.9487L171.728 25.0098L171.817 25.0883L171.87 25.1843L171.949 25.2803L172.011 25.3676L171.976 25.5421ZM170.79 21.4578V21.3094V21.1436L170.834 20.6723V20.2534V19.8607L170.878 19.5291V19.2323V18.9792V18.7785V18.5952H173.33L173.02 21.8767L172.932 21.964L172.843 22.0338L172.755 22.1123L172.666 22.1821L172.569 22.252H172.472L172.383 22.2956L172.286 22.348L172.171 22.3916H172.073H171.967H171.87H171.303L171.206 22.348H171.1H171.02L170.932 22.2956L170.852 22.2432L170.79 22.1734L170.737 22.0862L170.684 21.9989V21.8941V21.7894V21.6498V21.4578H170.79ZM167.94 18.5952H168.63V18.7174V18.9094V19.1712V19.4854V19.8869V20.3407L168.586 20.873L168.524 21.4578V22.0687V22.1996V22.3392L168.568 22.4789V22.6272L168.621 22.7669L168.666 22.8803L168.736 23.02L168.816 23.1509L168.887 23.273L168.967 23.3952L169.055 23.5087L169.161 23.6309L169.25 23.7356L169.356 23.8491L169.462 23.9451L169.577 24.0323L169.692 24.1109L169.807 24.1894L169.923 24.2592L170.055 24.3291L170.188 24.3814L170.312 24.4338H170.445L170.728 24.4862H170.87H171.011H171.728H171.967H172.215L172.436 24.4425L172.64 24.3814L172.861 24.2941L173.038 24.1982L172.861 26.2054H175.357L175.747 22.0949L175.817 22.0076L175.906 21.9203L175.994 21.8592L176.065 21.7982L176.154 21.7283L176.251 21.6847L176.34 21.6149H176.428H176.525H176.614H176.72H176.826H176.924H177.021H177.419H177.579H177.738H177.871H177.986L178.101 21.6585L178.198 21.7109L178.296 21.7807L178.366 21.8592L178.428 21.9465L178.482 22.0425V22.1385V22.2607V22.7581V22.8716V22.9676V23.0723L178.42 23.1683L178.349 23.2469L178.269 23.3167L178.181 23.3865L178.083 23.4302L177.986 23.5H177.862H177.738H177.605H177.455H177.304H177.136H176.941H176.658H176.57H176.481H176.402H176.331L176.145 25.2454L176.207 25.2978L176.269 25.3414H176.322H176.402H176.481H176.552H176.632H176.818H177.03H177.543H177.72H177.889H178.048H178.198H178.366H178.508L178.65 25.2978L178.809 25.2542H178.942L179.083 25.1931L179.198 25.132L179.349 25.0709L179.455 25.0098L179.588 24.94L179.703 24.8527L179.818 24.7741L179.942 24.6869L180.048 24.5734L180.172 24.46L180.269 24.364L180.367 24.2418L180.464 24.1283L180.544 23.9974L180.615 23.8665L180.694 23.7356L180.747 23.5872L180.818 23.4476L180.907 23.1421V22.9938V22.8105V22.6534V21.7807L180.854 21.4665V21.3269L180.809 21.1698L180.739 21.0389L180.685 20.9167L180.606 20.7683L180.535 20.6549L180.446 20.5327L180.331 20.4105L180.234 20.3058L180.128 20.2011L180.03 20.1051L179.898 20.0265L179.783 19.9392L179.65 19.8694L179.535 19.7909L179.375 19.7472L179.314 19.7123L179.163 19.6687H179.013L178.862 19.6251H178.703H178.526H178.366H178.189H177.703H177.419H177.145L176.871 19.6687L176.605 19.7472L176.357 19.8171L176.127 19.9218L175.897 20.0527L176.03 18.6563H181.845L181.978 17.3123H168.081L167.958 18.6563L167.94 18.5952ZM168.214 16.7451L168.365 16.684L168.515 16.6054L168.674 16.5181L168.816 16.4309L169.011 16.2912L169.197 16.1429L169.383 15.9858L169.542 15.8112L169.692 15.6192L169.834 15.436L169.958 15.2178L170.091 14.9996L170.206 14.7378L170.312 14.4847L170.409 14.2316L170.524 13.9872H167.869V14.1007V14.2229L167.816 14.3451L167.754 14.4323L167.683 14.5283L167.612 14.6156L167.524 14.7116L167.409 14.7727L167.294 14.8425L167.17 14.9036L167.028 14.9472L166.86 14.9996H166.683H166.524H166.32H166.125H165.904H165.718H165.532H165.373H165.293H165.223H165.134H165.072L165.01 14.9385L164.948 14.8862H164.895L164.833 14.8163L164.745 14.7552L164.7 14.668L164.621 14.5632L164.576 14.4934V14.4062V14.3101V14.1443H161.921L161.974 14.3887L162.045 14.6418L162.098 14.8949L162.178 15.1567L162.257 15.3661L162.346 15.5756L162.47 15.7589L162.576 15.9421L162.727 16.1167L162.877 16.2825L163.027 16.4309L163.204 16.5705L163.337 16.6491L163.461 16.7363L163.612 16.8149L163.744 16.8934L163.895 16.9371L164.054 17.0156H164.231L164.391 17.0592L164.568 17.1291H164.753L164.939 17.1727H165.143H165.346H166.656H166.851H167.046H167.258H167.444L167.816 17.0767L168.002 17.0243L168.17 16.972L168.338 16.8934L168.214 16.7451ZM157.319 18.5603L157.451 17.2512H167.55L167.418 18.5952H166.117L165.391 26.2229H162.886L163.62 18.5952H162.311H161.328L160.602 26.2578H158.071L158.443 22.4178H156.522L156.619 21.4142L156.69 20.7073H158.602L158.814 18.5952L157.319 18.5603ZM156.69 23.1945V23.02V22.9589V22.8716L156.637 22.7058L156.575 22.5661L156.486 22.4178L156.398 22.2782L156.309 22.1472L156.186 22.0076L156.062 21.8767L155.92 21.772L155.761 21.6411L155.61 21.5363L155.424 21.4229L155.575 21.3618L155.716 21.2745L155.964 21.1261L156.079 21.0214L156.186 20.9341L156.292 20.8382L156.38 20.7334L156.469 20.62L156.522 20.5065L156.593 20.3931L156.699 20.1312V20.0614V19.9916V19.8607L156.743 19.7123V19.2411V19.1014V18.9531L156.699 18.8134L156.637 18.6825L156.575 18.5603L156.504 18.4469L156.425 18.3247L156.318 18.2112L156.221 18.1065L156.097 18.0018L155.982 17.9058L155.832 17.8185L155.681 17.7225L155.557 17.6614L155.416 17.6091L155.283 17.548L155.15 17.4956H155H154.849L154.699 17.4432H154.557L154.221 17.3909H153.884H153.539H152.955H152.716H152.495H152.256L152.017 17.4432L151.787 17.5131L151.548 17.5829L151.309 17.6702L151.07 17.7749L150.804 17.9058L150.556 18.0018L150.308 18.1065L151.008 19.852L151.255 19.7211L151.503 19.6076L151.769 19.5203L152.017 19.4505L152.273 19.3894H152.539H153.07H153.477H153.592H153.707H153.796H153.884H153.973L154.026 19.4418L154.088 19.4941L154.132 19.564L154.176 19.6338V19.6949V20.044V20.1312V20.2011V20.2622V20.332L154.132 20.3843V20.4367L154.07 20.4891H154.017H153.955H153.884H153.813H151.68L151.539 22.0251H153.309H153.433H153.548H153.654H153.752H153.849L153.92 22.0687L153.991 22.1211L154.114 22.2345L154.159 22.3131V22.3741V22.4527V22.5312V22.8192V22.9763V23.1334L154.106 23.273L154.052 23.4214L153.982 23.5349L153.902 23.6309L153.813 23.7181L153.698 23.788L153.61 23.8403H153.504L153.389 23.884H153.256H153.114H152.955H152.769H152.238L151.999 23.8403L151.884 23.7967H151.769L151.645 23.7531L151.53 23.692L151.406 23.6396L151.291 23.5785L151.176 23.5087L151.043 23.4389L150.946 23.3429L150.831 23.2556L150.724 23.1683L150.574 23.0462L150.432 22.924L150.105 23.2032L149.99 23.081L149.875 22.9501L149.76 22.8105L149.653 22.6709L149.556 22.5225L148.228 24.2156L148.317 24.364L148.432 24.5123L148.556 24.652L148.68 24.8003L148.83 24.9574L149.158 25.2454L149.344 25.3763L149.521 25.516L149.68 25.6294L149.866 25.7516L150.034 25.8476L150.202 25.9523L150.388 26.0309L150.565 26.1181L150.751 26.188L150.937 26.2578L151.132 26.3189L151.335 26.3712L151.521 26.4149L151.725 26.4672H151.928H152.149H152.344H152.645H152.796H152.937H153.15H153.362H153.566H153.769H153.964H154.15H154.327H154.486L154.654 26.4149L154.814 26.3538L154.964 26.3014L155.115 26.2491L155.265 26.1792L155.38 26.092L155.513 26.0047L155.637 25.9261L155.743 25.8302L155.858 25.7429L155.955 25.6469L156.044 25.5247L156.141 25.4112L156.212 25.3065L156.292 25.1669L156.363 25.036L156.416 24.8963L156.469 24.7654V24.6083L156.531 24.46V24.2941V24.172V23.9974V23.8229V23.465V23.308L156.69 23.1945ZM130.677 18.5952H136.394L136.014 22.6098L135.925 22.6796L135.846 22.7669L135.757 22.8367L135.678 22.9153L135.58 22.9763L135.394 23.0985H135.279L135.173 23.1509H135.049H134.952H134.81H134.686H134.562H134.075H133.978H133.881H133.801H133.704L133.624 23.0985L133.553 23.0462L133.482 22.9676L133.438 22.8891L133.385 22.8105V22.7145V22.6011V22.2258V22.1123V21.9814V21.8767L133.429 21.7632L133.491 21.676L133.553 21.58L133.624 21.5101L133.695 21.4403L133.792 21.3618L133.881 21.3094L134.005 21.2658H134.102H134.226H134.359H134.5H134.81H134.952H135.102L135.226 21.3094L135.368 21.388L135.483 21.4752L135.616 21.58L135.731 21.6934L135.917 19.8083L135.837 19.7385L135.757 19.6862L135.66 19.6251L135.562 19.5727L135.465 19.5203H135.368H135.253L135.146 19.4767H135.023H134.907H134.775H134.642H134.359H134.049H133.898H133.73H133.589H133.429H133.27H133.128L132.978 19.5291L132.854 19.5814L132.704 19.6338L132.588 19.7036L132.447 19.7734L132.323 19.852L132.208 19.9305L132.075 20.044L131.978 20.1312L131.854 20.236L131.748 20.3581L131.65 20.4803L131.553 20.5938L131.464 20.716L131.376 20.8382L131.296 20.9778L131.225 21.1087L131.163 21.2483L131.093 21.3967L131.04 21.5538L130.986 21.6934V21.8505L130.942 22.0076V22.1734V22.3305V22.5138V22.6796V23.1509V23.2992V23.4389V23.5785V23.7269V23.8491L131.04 24.1021L131.11 24.2156L131.172 24.3378L131.243 24.4425L131.314 24.556L131.411 24.6607L131.5 24.7654L131.597 24.8614L131.703 24.94L131.81 25.0098L131.907 25.0883L132.022 25.1494L132.146 25.2105L132.261 25.2716L132.376 25.3153L132.509 25.3589H132.633H132.766H132.907H133.058H133.35H133.659H133.952L134.253 25.3153L134.553 25.2454L134.854 25.1494L135.155 25.0622L135.465 24.9225L135.757 24.7916L135.616 26.2752H138.112L138.51 22.1647L138.598 22.06L138.687 21.964L138.784 21.868L138.873 21.7807L138.961 21.7109L139.068 21.6411L139.156 21.58L139.245 21.5101L139.333 21.4665H139.43L139.528 21.4229H139.607H139.714H139.802H139.988H140.183H140.333H140.484H140.616H140.74L140.829 21.4665H140.917L140.997 21.5363H141.05L141.103 21.6149L141.148 21.6934V21.7807L141.192 21.9814V22.3916V22.5312V22.6622V22.7756L141.148 22.8803L141.094 22.9938L141.032 23.0636L140.962 23.1683L140.9 23.2207L140.811 23.2818L140.714 23.3429H140.625H140.493H140.377H140.245H140.112H140.006H139.82H139.705H139.59H139.484L139.377 23.2905L139.28 23.2382L139.059 25.4723L139.138 25.5683L139.218 25.6294L139.289 25.6818H139.342H139.422H139.519H139.634H140.714H140.873H141.032L141.174 25.6382H141.325L141.466 25.5858L141.608 25.5334L141.741 25.4723L141.891 25.4287L142.024 25.3589L142.148 25.2803L142.28 25.2018L142.404 25.1145L142.528 25.0185L142.652 24.9312L142.776 24.8091L142.891 24.7043L143.015 24.5821L143.121 24.4512L143.219 24.3291L143.307 24.2069L143.396 24.0672L143.475 23.9363L143.555 23.7967L143.608 23.6483L143.723 23.3341V23.1858L143.776 23.0112L143.829 22.6796V22.5051V22.3218V21.9727V21.8069V21.6585V21.5014V21.3531L143.776 21.196L143.723 21.0563L143.59 20.7771L143.502 20.6462L143.413 20.5153L143.325 20.3843L143.21 20.2622L143.095 20.1574L142.98 20.0527L142.865 19.9305L142.741 19.852L142.608 19.7734L142.484 19.6774L142.342 19.6251L142.201 19.5552L142.05 19.4854L141.909 19.4418H141.749H141.59H141.422H141.254H141.086H140.793H140.678H140.546H140.422L140.174 19.4854L139.908 19.5552L139.643 19.6425L139.368 19.756L139.094 19.8956L138.811 20.0352L138.944 18.665H145.564L145.697 17.3211H130.801L130.677 18.665V18.5952ZM130.969 16.7189H130.792H130.632L130.482 16.6752L130.34 16.6142L130.199 16.5356L130.057 16.4396L129.924 16.3349L129.809 16.2214L129.712 16.0818V16.012V15.9509L129.668 15.8723V15.8025V15.724V15.6542V15.4883V15.3225V15.1567V14.9647L129.712 14.8076L129.765 14.6331L129.836 14.4847L129.924 14.3363L130.039 14.1967L130.163 14.057L130.305 13.9436L130.447 13.8302L130.606 13.7429L130.632 13.6032L130.801 13.5509L130.96 13.4985L131.137 13.4549H131.65H131.818H131.96L132.111 13.5247L132.261 13.5771L132.394 13.673L132.518 13.7691L132.642 13.8738L132.748 13.996L132.827 14.1356L132.907 14.2665L132.96 14.4149V14.5545V14.7203V14.8774V15.0607V15.2265L132.916 15.3923L132.863 15.5407L132.783 15.6978L132.704 15.8374L132.597 15.9596L132.5 16.0905L132.403 16.2214L132.261 16.3261L132.111 16.4309L131.969 16.5007L131.818 16.5705L131.668 16.6229H131.518H131.349H131.181H131.004L130.969 16.7189ZM123.667 23.02L123.419 23.0985H123.286H123.074H122.985H122.489H122.339H122.224H122.109H122.011H121.932L121.834 23.0462L121.772 22.9676L121.71 22.8803L121.657 22.7843V22.6622V22.54V22.2607V22.1472V22.0338V21.9465V21.8592V21.7807V21.7109V21.6498V21.6062L121.737 21.5451L121.817 21.4752L121.896 21.4142L121.976 21.3618L122.604 21.9291L123.773 22.9851L123.667 23.02ZM129.977 17.2512H129.349L129.287 17.1029L129.181 16.8411L129.075 16.6054L128.951 16.3611L128.827 16.108L128.694 15.8636L128.561 15.6367L128.42 15.4011L128.26 15.1654L128.119 14.9472L127.951 14.7203L127.791 14.4934L127.623 14.284L127.428 14.057L127.26 13.8563L127.092 13.6905L126.924 13.4985L126.773 13.3501L126.605 13.1843L126.437 13.0447L126.251 12.8876L126.074 12.748L125.906 12.5996L124.136 14.0309L124.375 14.1792L124.622 14.3363L124.853 14.5109L125.074 14.6854L125.295 14.8687L125.516 15.0694L125.72 15.2702L125.924 15.4883L126.127 15.724L126.304 15.9596L126.481 16.2214L126.667 16.4745L126.835 16.7451L126.986 17.0243L127.11 17.2512H126.278V17.1727L126.127 16.9458L125.95 16.6927L125.773 16.4396L125.561 16.204L125.322 15.9509L125.056 15.6978L124.826 15.4709L124.569 15.2527L124.313 15.0432L124.021 14.8338L122.861 16.4309H122.976H123.082H123.18L123.277 16.4745H123.366L123.463 16.5356L123.552 16.5967L123.64 16.6578L123.711 16.7363L123.87 16.9283L124.003 17.1378H119.126L118.993 18.4818H125.729L125.366 22.1647L125.224 22.252H125.136L125.038 22.3043H124.95L124.879 22.348H124.835L123.065 20.681H123.233H123.392H123.835H124.012H124.206L124.445 20.7421L124.64 20.7945L124.817 20.8469H124.941H125.03L125.224 19.3196L125.18 19.276H125.109H125.038H124.959L124.755 19.2323H124.507L124.206 19.18H123.861H123.472H122.666H122.489H122.321L121.985 19.2411H121.817H121.649L121.489 19.2847L121.348 19.3371L121.188 19.3894L121.047 19.4505L120.896 19.7123L120.746 19.7909L120.613 19.8607L120.48 19.9392L120.321 20.0614L120.188 20.1661L120.038 20.2709L119.931 20.3931L119.816 20.5153L119.701 20.6374L119.604 20.7771L119.507 20.908L119.436 21.065L119.374 21.2047L119.294 21.3792L119.241 21.5363L119.197 21.7021L119.153 21.8767V22.0512V22.2258V22.732V22.8891V23.0462L119.197 23.1945V23.3429L119.241 23.5L119.303 23.6309L119.374 23.7531L119.453 23.8927L119.551 24.0062L119.657 24.1283L119.754 24.2418L119.869 24.3552L120.002 24.46L120.117 24.5472L120.232 24.6258L120.347 24.7043L120.48 24.7741L120.595 24.8352L120.737 24.8876L120.861 24.9487H120.985H121.126H121.259H121.41H121.56H121.702H122.162H122.587H122.773H122.985H123.18H123.374H123.578H123.755L123.941 24.8876L124.127 24.844L124.295 24.7916L124.472 24.7305L124.649 24.6607L124.817 24.5909L124.968 24.5123L125.127 24.4425L124.959 26.188H127.437L128.172 18.5603H129.792L129.907 17.5741L129.951 17.2163L129.977 17.2512ZM84.5181 17.2512H116.55L116.426 18.5952H114.081L113.913 20.1923L114.045 20.3145L114.134 20.428L114.32 20.681L114.391 20.8294L114.453 20.9691L114.506 21.1436L114.559 21.3094L114.603 21.4927V21.6585V21.8592V22.06V22.4702V22.6971V22.9327V23.1334V23.3341L114.55 23.5261V23.7094L114.488 23.9014L114.435 24.076L114.364 24.2505L114.284 24.4338L114.205 24.5909L114.099 24.7567L114.019 24.9138L113.904 25.0709L113.789 25.228L113.674 25.3763L113.541 25.516L113.417 25.6469L113.284 25.7778L113.143 25.9087L112.992 26.0134L112.842 26.1181L112.709 26.2229L112.558 26.3101L112.408 26.3887L112.257 26.4585L112.107 26.5196L111.948 26.5807L111.788 26.6418H111.629H111.47H111.302H110.974H110.558H110.195H109.877H109.611H109.478H109.372L109.275 26.5982H109.186L109.115 26.5458H109.053H109L108.956 26.5021L109.133 24.6345H109.186L109.275 24.6869L109.452 24.7392L109.673 24.8003L109.912 24.844H110.124H110.673H110.815L110.948 24.8003H111.063L111.302 24.6432L111.399 24.5472L111.496 24.4251L111.585 24.3029L111.664 24.1632L111.735 24.0149L111.806 23.8403L111.859 23.6745L111.912 23.4738L111.957 23.2643V23.0374V22.8367V22.6534V22.4702V22.3131V22.156L111.912 22.0163V21.8941L111.868 21.7807V21.7196L111.824 21.6585L111.78 21.6149V21.5538L111.726 21.5101H111.682H111.629H111.576H111.514H111.443H111.39H111.319H111.16H110.859H110.735H110.611L110.496 21.5712L110.381 21.6411L110.275 21.7283L110.169 21.8243L110.071 21.9378L109.974 22.1036L109.885 22.2432L109.832 22.4003L109.77 22.5138L109.691 23.3341H107.345L107.442 22.3567V22.2432V22.1385V22.0425L107.398 21.964L107.319 21.8767L107.248 21.8156L107.15 21.7632L107.053 21.7021L106.734 21.4578H106.602H106.469H106.15H105.982H105.92H105.849H105.787H105.717H105.655L105.601 21.5014L105.548 21.5538L105.495 21.6062L105.442 21.6672L105.398 21.7196L105.354 21.7894L105.292 21.8941L105.247 22.0338L105.185 22.1647V22.3218L105.141 22.4963V22.6796L105.097 22.8891V23.1073V23.3341V23.5349V23.7181V23.9014L105.141 24.076L105.203 24.2243V24.2941V24.3727L105.247 24.4425L105.292 24.5036L105.389 24.6083L105.486 24.7043L105.593 24.7741L105.699 24.8352H105.814H105.92H106.168H106.292H106.425L106.575 24.7829L106.734 24.7305L106.903 24.6782L107.071 24.5909L107.265 24.5036L107.478 24.4076L107.274 26.4411L107.221 26.4847L107.168 26.5283H107.097H107.026L106.832 26.5894H106.619L106.345 26.6331H106.062H105.725H105.362H105.035H104.876L104.725 26.5894L104.575 26.5458H104.433L104.283 26.4847L103.999 26.3538L103.858 26.2665L103.734 26.1705L103.61 26.0745L103.486 25.9698L103.389 25.8476L103.247 25.708L103.035 25.4549L102.937 25.2978L102.84 25.1494L102.76 24.9923L102.672 24.8265L102.61 24.6694L102.557 24.5036L102.504 24.3291V24.1545V23.9712V23.788V23.6047V23.4127V23.2294V23.02V22.828V22.6185V22.4178L102.548 22.2171L102.601 22.0338L102.663 21.8418L102.716 21.6585L102.796 21.484L102.875 21.3181L103.052 20.9865L103.159 20.8294L103.274 20.6898L103.389 20.5414L103.513 20.4018L103.654 20.2709L103.787 20.14L103.929 20.0178L104.061 19.9218L104.203 19.8345L104.336 19.7385L104.486 19.6425L104.628 19.5727L104.778 19.4941L104.938 19.4505L105.088 19.3982L105.239 19.3545H105.407L105.566 19.3109H105.717H105.894H106.664H106.858H107.035L107.221 19.3545L107.407 19.4156L107.584 19.4767L107.752 19.5552L107.894 19.6425L108.053 19.7385L108.186 19.852L108.328 19.9829L108.452 20.0876L108.584 20.2447L108.69 20.3931L108.797 20.5501L108.938 20.3843L109.115 20.1749L109.328 19.9392L109.593 19.6774L109.779 19.564L109.938 19.4854L110.116 19.4156L110.266 19.3458L110.425 19.3021H110.576H110.726H111.204H111.381H111.585L111.673 18.4294H100.698L100.45 20.9167H97.2991L97.0867 20.9778L96.892 21.0389L96.7238 21.1174L96.5468 21.196L96.3963 21.292L96.2635 21.388L96.1307 21.4752L96.0157 21.5887L95.9272 21.7109L95.8121 21.8331L95.7325 21.9814L95.6705 22.1123L95.6263 22.2607L95.582 22.4265V22.5661V23.2032V23.2818V23.3516V23.4127V23.4912V23.5523V23.6222L95.6351 23.6745L95.6794 23.7443L95.7413 23.7967L95.8033 23.8491L95.8652 23.9101L95.9449 23.9625L96.0688 24.0323L96.2193 24.1021L96.3697 24.172L96.5379 24.2156L96.7061 24.2592H96.892H97.0778H97.6H97.7682H97.9187H98.0869H98.2462L98.3878 24.2156H98.5383L98.6976 24.1632H98.848L98.9985 24.1021L99.1578 24.0323L99.2995 23.9712L99.4499 23.884L99.5915 23.8142L99.7332 23.7269L99.9456 23.6047L100.131 23.4738L100.282 23.3691L100.539 23.2032L100.636 23.0898L100.724 23.0112V22.924L100.769 22.8629L101.379 25.1233L101.087 25.3414L100.76 25.5334L100.415 25.7429L100.061 25.9174L99.6977 26.0658L99.3526 26.2054L98.9985 26.3101L98.6268 26.4236L98.2727 26.4934H98.1577L100.813 29.6091L99.0428 31.0403L96.9008 28.2389L94.4136 30.5865L92.8559 29.1029L95.9095 26.5545H95.7856L95.4138 26.4498L95.2368 26.3974L95.0598 26.3276L94.8916 26.2578L94.7234 26.1531L94.5641 26.0745L94.4048 25.9611L94.2455 25.8563L94.0861 25.7429L93.9268 25.5771L93.7675 25.4462L93.6436 25.2978L93.5197 25.132L93.4135 24.9749L93.325 24.8091L93.2276 24.6258L93.1656 24.4425L93.1037 24.2505L93.0594 24.0498V23.8578V23.657V23.2032V22.9676V22.7233L93.1037 22.4963L93.1568 22.2869L93.2188 22.0687L93.2984 21.8505L93.3692 21.6498L93.4577 21.4578L93.5816 21.2483L93.7056 21.0825L93.8295 20.908L93.9711 20.7421L94.1392 20.5851L94.2986 20.428L94.4845 20.2796L94.6792 20.14L94.8739 20.0265L95.1571 19.8694L95.4227 19.7211L95.7059 19.6076L95.9714 19.5203L96.2281 19.4418L96.4936 19.3894H96.6176H96.7503H98.1931L98.2639 18.6476H83.6418L82.916 26.2752H80.4289L80.7121 23.2469H78.3223L78.4728 21.5014H80.8803L81.1458 18.6738H78.3046L78.3754 18.7523L78.4374 18.857L78.4905 18.9443L78.5348 19.0316L78.5879 19.1189V19.2236V19.3109V19.4243V19.5291V19.6425V19.7472V20.3494V20.524V20.716V20.8818V21.0389L78.5259 21.2047L78.4728 21.3618L78.4108 21.4578L78.34 21.6149L78.2603 21.7545L78.1896 21.8941L78.101 22.0163L78.0125 22.1298L77.9152 22.2432L77.8001 22.3654L77.7027 22.4614L77.57 22.5661L77.4638 22.6447L77.3399 22.732L77.2159 22.8018L77.1009 22.8716L76.9681 22.924L76.8442 22.9851L76.6849 23.0374L76.5433 23.081L76.4016 23.1247H76.2423H76.1007H75.9414H75.7644H75.2598V23.273V23.4302V23.5785V23.7356L75.3129 23.884L75.3749 24.0149L75.4634 24.1458L75.5519 24.2941L75.6493 24.364L75.7555 24.4338L75.8883 24.4862L76.0387 24.5298H76.1892H76.3662H76.6406H76.8442H77.154H77.4638L77.809 24.4862L78.1719 24.4251L78.4639 24.3727H78.6764H78.7826H78.8357L78.641 26.2491H78.579L78.3666 26.2927L78.0391 26.3451L77.8267 26.3974H77.6142H77.4106H77.2071H77.0035H76.021H75.6935H75.3926H75.1094L74.835 26.3363L74.5871 26.2752L74.357 26.188L74.1446 26.1007L74.0472 26.0309L73.9499 25.9785L73.8525 25.9261L73.764 25.8825L73.6843 25.7952L73.6135 25.7341L73.5339 25.6643L73.4631 25.5945L73.3214 25.4462L73.2772 25.3501L73.2241 25.2716L73.1621 25.1843L73.1179 25.0883V24.9923V24.8963L73.0205 24.6171L72.9408 24.3291L72.8877 24.0498V23.7618V23.465V23.1771V22.8803L72.932 22.5836H72.0469L72.2062 20.9778H74.1889H74.3305H74.4544H74.5871H74.7111H75.0297H75.1713L75.3129 20.9341L75.428 20.8818L75.5431 20.8207L75.6493 20.7509L75.7466 20.681L75.8352 20.5938L75.9237 20.4978L75.9856 20.3931L76.0387 20.2534L76.1007 20.14V19.9916V19.8345V19.6687V19.3545V19.2236L76.0564 19.084V19.0229V18.9618V18.9181V18.8658L75.9591 18.7785L75.906 18.7261H75.844L75.7112 18.6476L75.5873 18.5865H75.5165H75.4634H75.4015H72.0823L72.2062 17.2425H81.9513L81.8982 17.1203L81.7831 16.8934L81.668 16.6752L81.5441 16.4658L81.4025 16.265L81.2609 16.0818L81.1016 15.8898L80.9334 15.6978L80.7564 15.5407L80.3935 15.2265L80.1899 15.0869L79.9686 14.9385L79.7474 14.8163L79.5172 14.6854L79.2871 14.572L80.898 13.1407L81.0485 13.2018L81.2078 13.2891L81.376 13.3763L81.5353 13.4549L81.6858 13.5771L81.8362 13.6818L81.9955 13.7952L82.1549 13.9087L82.3319 14.0658L82.5 14.2403L82.6771 14.3974L82.8541 14.5894L83.0046 14.7814L83.1816 14.9821L83.3232 15.1829L83.4914 15.3923L83.7835 15.8374L83.9162 16.0818L84.0667 16.3261L84.1995 16.5705L84.3322 16.8323L84.4561 17.1116L84.5181 17.2512ZM91.776 21.5363V21.4142V21.292V21.2047V21.1174L91.7317 21.0389L91.6786 20.9691H91.6255V20.9167H89.5013L89.5721 20.9691L89.634 21.0214L89.6783 21.0825V21.1611V21.2396L89.7226 21.3181V21.388V21.4927V21.58V21.676V21.7807V22.0251V22.2782V22.3654V22.4352V22.5225V22.5923L89.6783 22.6622L89.634 22.7233L89.5809 22.7669L89.5278 22.828L89.3862 22.9153H89.3065H89.2358H89.1472H88.9436H88.6162L88.5631 22.8629H88.4923L88.4303 22.8105L88.3595 22.7407V22.6796L88.3064 22.6098L88.2621 22.54L88.2178 22.4702V22.3829V22.3131V22.3305V22.2694V22.0251V21.8767V21.7371V21.5974L88.2621 21.4665L88.3152 21.3705L88.386 21.2658L88.4568 21.1698L88.5454 21.0912L88.6339 21.0302L88.7489 20.9778L88.864 20.9167H88.9879H89.1207H89.28H93.9799L94.1127 19.5291H88.4391H88.2444H88.0585L87.8815 19.5727H87.7134L87.5452 19.6338L87.3682 19.7036L87.1911 19.7909L87.023 19.8956L86.8459 19.9916L86.7043 20.1051L86.5627 20.2272L86.4211 20.3581L86.2972 20.5065L86.1732 20.6549L86.0759 20.8207L85.9785 20.9865L85.8989 21.1611L85.8192 21.3618L85.7484 21.5538L85.6953 21.7545V21.9727L85.651 22.1996V22.3305V22.4789V22.7669V22.8891V23.0374V23.1683V23.2818L85.6953 23.3952L85.7484 23.5261L85.8015 23.6483L85.8723 23.7618L85.9343 23.8752L86.0139 23.98L86.1024 24.0847L86.2087 24.1894L86.3149 24.3116L86.4122 24.3989L86.5361 24.5036L86.6601 24.5821L86.784 24.6607L86.9256 24.7305L87.0495 24.8003L87.2088 24.8527L87.3505 24.9051L87.5098 24.9574H87.6779H87.8284H87.9966H88.1825H89.0676H89.218H89.3862H89.5367H89.6871L89.8376 24.9138L89.9704 24.8527L90.1209 24.8003L90.2625 24.7305L90.3952 24.6694L90.528 24.5821L90.6519 24.4949L90.7758 24.4076L90.9086 24.3203L91.0325 24.2156L91.1387 24.1021L91.2361 24.0062L91.3423 23.8927L91.4308 23.7705L91.5105 23.657L91.599 23.5349L91.6786 23.4302L91.7317 23.2992L91.7937 23.1858L91.838 23.0549V22.924L91.8822 22.7843V22.6622V22.5312V22.3741V21.9465V21.7545V21.5451L91.776 21.5363Z" fill="white"/>
<path d="M5.63281 54.4131H54.7919V5.58398H5.63281V54.4131Z" fill="white"/>
<path d="M46.4883 29.6791L36.7521 20.2711H34.4154H30.5386V19.1452H34.4154H36.8052L47.2318 29.618L46.4883 29.6791ZM43.3019 29.7401L36.7609 23.474H34.4242H30.5563V22.3307H34.4331H36.8229L44.0631 29.6616L43.3019 29.7401ZM34.4508 43.5816L30.8661 47.0725L30.751 46.322L34.4508 42.5692L40.2394 36.6783V30.5343H41.3546L41.4166 36.7656L34.4508 43.5816ZM34.4508 39.3489L37.0176 36.7307V30.5343H38.1417L38.1948 36.7656L34.4508 40.4049L30.8041 43.9394L30.7068 43.1976L34.4508 39.3489ZM26.3697 32.0703L24.3074 29.9234L26.3697 27.9161L30.6094 23.8143L34.4508 27.8289L36.6724 30.1416L34.4508 32.306L30.3439 36.2943L26.3697 32.0703ZM26.3697 41.234H23.9799L13.5621 30.7612L14.3056 30.6565L24.0419 40.0558H30.2376V41.1729L26.3697 41.234ZM17.4743 30.639L24.033 36.8878H30.2288V38.0398H26.352H23.9533L16.7131 30.7001L17.4743 30.639ZM30.1137 17.1729L26.3697 21.0216L23.8029 23.6398V29.81H22.6522L22.5991 23.5962L26.3432 19.9481L29.9898 16.4049L30.1137 17.1729ZM26.3697 16.7802L29.9633 13.2892L30.0606 14.031L26.3697 17.7925L20.5899 23.6747V29.8449H19.457L19.4127 23.631L26.3697 16.7802ZM37.0442 17.2078V10.418H30.1314L26.3697 14.3365L17.5717 23.5351H10.9688V30.1852L23.7409 43.2761V49.7169H30.2465L34.4508 45.5365L43.116 36.9314H49.4977V29.618L37.0442 17.2078Z" fill="#CE0F3E"/>
</g>
<defs>
<clipPath id="clip0_213_13294">
<rect width="238.723" height="60" fill="white" transform="translate(0 -0.00195312)"/>
</clipPath>
</defs>
</svg>
