<svg width="268" height="60" viewBox="0 0 268 60" fill="none" xmlns="http://www.w3.org/2000/svg">
<rect width="268" height="60" fill="#FFCC01"/>
<path fill-rule="evenodd" clip-rule="evenodd" d="M40.4853 4.80078C54.2363 4.80078 65.511 16.1001 65.511 29.9749C65.511 43.8819 54.2363 55.2008 40.4853 55.2008C26.6991 55.2008 15.4844 43.8819 15.4844 29.9749C15.4844 16.1001 26.6991 4.80078 40.4853 4.80078ZM37.0274 51.7747L47.6995 33.1147L40.4853 33.1178L44.0679 26.8494H61.0152L57.4275 33.1332L51.2959 33.1147L40.4853 52.0607C52.5287 52.0607 62.396 42.1211 62.396 29.9749C62.396 17.8784 52.5286 7.95288 40.4853 7.95288C39.6114 7.95288 38.7258 8.00435 37.9033 8.11585L27.142 26.8494H40.4853L36.8719 33.1147H19.9504L33.7553 9.03548C24.9711 11.9078 18.5959 20.2313 18.5959 29.9749C18.5959 40.9338 26.5956 50.0881 37.0274 51.7747Z" fill="#1F1A17"/>
<path fill-rule="evenodd" clip-rule="evenodd" d="M73.8516 42.0008H88.4708L89.336 38.0328H79.7735L84.3112 16.8008H79.2271L73.8516 42.0008Z" fill="#1F1A17"/>
<path fill-rule="evenodd" clip-rule="evenodd" d="M105.133 22.6155C105.133 25.0616 102.554 26.1228 100.676 26.6381C100.009 25.7204 99.3131 24.5167 99.3131 23.4191C99.3131 21.4822 100.715 20.3835 102.554 20.3835C103.803 20.3835 105.133 20.8927 105.133 22.6155ZM103.104 38.1154C101.962 38.9585 100.307 39.393 98.7661 39.393C96.3296 39.393 94.2744 38.3768 94.2744 35.7C94.2744 33.1064 96.4073 32.0502 98.5402 31.2444L103.104 38.1154ZM106.197 42.757H111.722L108.735 38.4489C111.274 35.8908 112.713 32.4104 113.158 28.9017H108.66C108.587 31.1334 107.669 33.2261 106.415 35.0467L102.702 29.7441C106.125 28.501 109.399 26.6749 109.399 22.6155C109.399 18.5901 105.352 16.8008 102.293 16.8008C98.3914 16.8008 94.6077 18.8795 94.6077 23.2696C94.6077 25.5405 95.3763 26.6381 96.4073 28.0314C92.6542 29.1578 89.3359 31.718 89.3359 35.9564C89.3359 41.116 93.7533 43.2008 98.2809 43.2008C100.676 43.2008 103.621 42.4692 105.278 41.294L106.197 42.757Z" fill="#1F1A17"/>
<path fill-rule="evenodd" clip-rule="evenodd" d="M111.961 20.7747H118.649L114.101 42.0008H119.333L123.882 20.7747H130.194L131.019 16.8008H112.818L111.961 20.7747Z" fill="#1F1A17"/>
<path d="M141.05 16.8008H154.847L153.977 20.7697H145.244L143.916 26.9812H152.264L151.478 30.9517H143.098L140.803 42.0008H135.789L141.05 16.8008Z" fill="#1F1A17"/>
<path d="M158.274 15.5996H163.181L162.155 20.1855H157.253L158.274 15.5996ZM156.484 23.5522H161.389L157.362 41.9996H152.461L156.484 23.5522Z" fill="#1F1A17"/>
<path d="M164.323 26.9381C164.544 25.8761 164.731 24.9535 164.806 24.4083H169.657L169.331 26.1133H169.402C170.773 24.9535 172.662 24 174.815 24C178.561 24 181.046 26.1502 181.046 29.6379C181.046 30.9686 180.671 32.3707 180.411 33.46L178.411 42H173.443L175.298 33.7057C175.558 32.5011 175.859 31.3045 175.859 30.0104C175.859 28.5427 174.739 27.5477 173.146 27.5477C169.7 27.5477 168.438 30.5243 167.809 33.1556L165.771 42H160.797L164.323 26.9381Z" fill="#1F1A17"/>
<path d="M188.208 39.7118C191.86 39.7118 192.995 37.2499 193.76 34.2908H192.04C189.667 34.2908 185.723 34.6845 185.723 37.7842C185.723 39.066 186.966 39.7118 188.208 39.7118ZM192.995 39.9597H192.924C191.239 42.0247 189.557 43.2 186.852 43.2C183.457 43.2 181.047 41.3453 181.047 37.9611C181.047 31.9063 187.989 31.4468 192.592 31.4468H194.307C194.456 30.9415 194.456 30.4093 194.456 29.8793C194.456 28.0266 192.407 27.4851 190.692 27.4851C188.532 27.4851 186.453 28.0266 184.514 28.9117L185.211 25.1024C187.291 24.3959 189.411 24 191.603 24C195.37 24 198.914 25.3555 198.914 29.6642C198.914 32.1195 197.05 39.3128 196.613 42.7722H192.482L192.995 39.9597Z" fill="#1F1A17"/>
<path d="M203.427 26.9381C203.633 25.8761 203.811 24.9535 203.877 24.4083H208.448L208.133 26.1133H208.205C209.496 24.9535 211.276 24 213.299 24C216.824 24 219.167 26.1502 219.167 29.6379C219.167 30.9686 218.819 32.3707 218.572 33.46L216.689 42H212.012L213.754 33.7057C213.999 32.5011 214.281 31.3045 214.281 30.0104C214.281 28.5427 213.229 27.5477 211.734 27.5477C208.487 27.5477 207.3 30.5243 206.705 33.1556L204.784 42H200.109L203.427 26.9381Z" fill="#1F1A17"/>
<path d="M234.678 28.6313C233.76 28.0267 232.523 27.6994 231.214 27.6994C227.431 27.6994 225.307 31.2673 225.307 34.7202C225.307 37.1069 226.087 39.4955 229.339 39.4955C230.507 39.4955 231.959 39.1718 233.195 38.5688L232.663 42.3475C231.214 43.0548 229.658 43.2 228.105 43.2C223.4 43.2 220.359 40.0295 220.359 35.2886C220.359 28.8781 224.563 24 231.105 24C232.877 24 234.571 24.3202 235.844 24.7101L234.678 28.6313Z" fill="#1F1A17"/>
<path d="M247.873 31.7986C247.943 31.3741 247.977 30.9815 247.977 30.5559C247.977 28.5959 246.947 27.4851 244.96 27.4851C242.021 27.4851 240.741 29.2703 239.822 31.7986H247.873ZM239.184 35.0755C239.184 38.4615 240.988 39.7119 244.254 39.7119C246.203 39.7119 248.084 39.2098 249.856 38.3919L249.252 42.1686C247.408 42.7381 245.391 43.2 243.438 43.2C238.19 43.2 234.648 40.6325 234.648 35.1827C234.648 29.4817 239.041 24 245.034 24C249.533 24 252.515 26.3188 252.515 30.9815C252.515 32.3703 252.336 33.7238 252.052 35.0753L239.184 35.0755Z" fill="#1F1A17"/>
</svg>
