<svg width="242" height="60" viewBox="0 0 242 60" fill="none" xmlns="http://www.w3.org/2000/svg">
<rect width="241.2" height="60" fill="#861F41"/>
<path d="M83.0555 53.9996H66.5532L56.5334 35.7611H73.0332L83.0555 53.9996ZM56.4742 6L64.7489 20.854L46.4706 54H30L56.4742 6ZM93.2951 29.4822L90.5142 23.9208L87.5967 29.4822H93.2951ZM94.4431 31.8058H86.4194L84.3331 35.761H81.2759L90.5686 18.3773L99.5233 35.761H96.4255L94.4431 31.8058ZM105.799 27.2247L100.626 19.4305H103.851L107.441 24.947L111.195 19.4305H114.445L109.046 27.2247L114.721 35.761H111.547L107.397 29.5025L103.107 35.761H99.904L105.799 27.2247ZM120.088 35.7613H117.262V19.43H120.087L120.088 35.7613ZM134.223 21.8333L131.915 23.0282C131.484 22.3795 131.081 21.9563 130.685 21.757C130.281 21.5297 129.762 21.4187 129.119 21.4187C128.339 21.4187 127.691 21.6137 127.161 22.0089C126.645 22.3854 126.386 22.8611 126.387 23.4369C126.387 24.2451 127.07 24.8828 128.425 25.3654L130.299 26.0395C131.821 26.5602 132.933 27.2276 133.646 27.9934C134.361 28.7719 134.7 29.7157 134.7 30.8495C134.7 32.3463 134.129 33.598 132.972 34.5631C131.82 35.5612 130.371 36.0539 128.654 36.0539C127.025 36.0539 125.677 35.6367 124.623 34.7861C123.568 33.9338 122.926 32.7568 122.66 31.2413L125.527 30.6884C125.664 31.6543 125.881 32.3039 126.214 32.6753C126.792 33.3758 127.655 33.7345 128.767 33.7345C129.657 33.7345 130.383 33.4852 130.964 32.9577C131.552 32.4481 131.839 31.7909 131.839 31.0039C131.839 30.6884 131.795 30.3933 131.673 30.1389C131.592 29.8624 131.431 29.6276 131.219 29.4037C131.013 29.1934 130.721 28.9669 130.383 28.7778C130.045 28.5785 129.641 28.4098 129.171 28.2156L127.362 27.5617C124.78 26.6204 123.509 25.2399 123.509 23.4166C123.509 22.187 124.05 21.1744 125.123 20.351C126.193 19.5131 127.535 19.0866 129.14 19.0883C131.3 19.0883 133.006 20.0041 134.223 21.8333ZM148.631 33.4358H150.383C151.674 33.4358 152.615 33.2212 153.215 32.7913C153.843 32.3121 154.166 31.7143 154.166 30.996C154.166 30.2854 153.843 29.6909 153.242 29.1982C152.648 28.7521 151.597 28.4994 150.065 28.4994H148.631V33.4358ZM148.631 26.4396H149.528C150.577 26.4396 151.357 26.2403 151.842 25.8332C152.326 25.4253 152.578 24.83 152.578 24.0498C152.578 23.2696 152.326 22.6828 151.827 22.3012C151.317 21.8899 150.593 21.6898 149.633 21.6898H148.631V26.4396ZM145.802 35.7611V19.4298H148.631C149.886 19.4298 150.885 19.5027 151.632 19.6765C152.383 19.8402 153.017 20.1396 153.532 20.5237C154.064 20.9571 154.471 21.4701 154.785 22.1045C155.11 22.7142 155.268 23.357 155.268 23.9972C155.268 25.1667 154.745 26.1555 153.716 26.9687C154.722 27.263 155.498 27.782 156.074 28.524C156.665 29.2542 156.953 30.0988 156.953 31.0918C156.953 32.3571 156.438 33.4358 155.395 34.3237C154.775 34.8681 154.075 35.2506 153.297 35.4524C152.444 35.6618 151.381 35.7611 150.095 35.7611H145.802ZM169.131 29.4822L166.34 23.9208L163.41 29.4822H169.131ZM170.283 31.8058H162.248L160.159 35.761H157.1L166.379 18.3773L175.349 35.761H172.236L170.283 31.8058ZM177.204 35.7613V18.2945L190.883 30.7817V19.43H193.716V36.7578L180.034 24.313V35.7613H177.204ZM200.061 25.9501L207.371 19.4304H211.142L202.664 26.8295L211.2 35.7609H207.405L200.65 28.4925L200.061 29.003V35.7609H197.223V19.4304H200.061V25.9501Z" fill="white"/>
</svg>
