<svg width="378" height="455" viewBox="0 0 378 455" fill="none" xmlns="http://www.w3.org/2000/svg">
<mask id="mask0_58_4598" style="mask-type:alpha" maskUnits="userSpaceOnUse" x="0" y="0" width="378" height="455">
<rect x="0.197266" width="377.444" height="454.186" fill="#003087"/>
</mask>
<g mask="url(#mask0_58_4598)">
<path d="M360.136 122.975H359.463V52.2484C359.463 28.7973 340.466 9.78711 317.032 9.78711H59.8382C36.4036 9.78711 17.4068 28.7973 17.4068 52.2484V122.975H16.7338C13.6754 122.975 11.1934 125.455 11.1934 128.519V177.445C11.1934 180.506 13.6721 182.99 16.7338 182.99H17.4068V194.658H16.7338C13.6754 194.658 11.1934 197.139 11.1934 200.203V249.129C11.1934 252.189 13.6721 254.673 16.7338 254.673H17.4068V683.134C17.4068 706.585 36.4036 725.595 59.8382 725.595H317.032C340.466 725.595 359.463 706.585 359.463 683.134V212.992H360.136C363.195 212.992 365.677 210.511 365.677 207.448V128.516C365.677 125.455 363.198 122.972 360.136 122.972V122.975Z" fill="#38383E"/>
<path d="M312.654 20.2891H64.2161C45.1831 20.2891 29.7539 35.7292 29.7539 54.7755V680.6C29.7539 699.646 45.1831 715.086 64.2161 715.086H312.654C331.687 715.086 347.116 699.646 347.116 680.6V54.7755C347.116 35.7292 331.687 20.2891 312.654 20.2891Z" fill="white"/>
<rect x="158.436" y="30.7871" width="60" height="20" rx="10" fill="#5D5D61"/>
</g>
</svg>
