<svg width="436" height="286" viewBox="0 0 436 286" fill="none" xmlns="http://www.w3.org/2000/svg">
<path d="M416.222 0.947266H19.2047C8.59499 0.947266 -0.00585938 9.54811 -0.00585938 20.1578V266.052C-0.00585938 276.662 8.59499 285.263 19.2047 285.263H416.222C426.832 285.263 435.433 276.662 435.433 266.052V20.1578C435.433 9.54811 426.832 0.947266 416.222 0.947266Z" fill="white"/>
<g filter="url(#filter0_d_58_4608)">
<path d="M115.881 214.966C115.881 158.727 161.481 113.127 217.719 113.127C273.958 113.127 319.558 158.727 319.558 214.966H115.881Z" fill="white"/>
</g>
<path d="M271.154 88.6133C296.53 98.4736 318.503 115.139 334.833 136.37" stroke="#4CE4AA" stroke-width="10" stroke-miterlimit="10" stroke-linecap="round"/>
<circle cx="281.328" cy="93.4529" r="7.04861" fill="white" stroke="#0070E0" stroke-width="3"/>
<path d="M178.469 83.9162C190.965 80.4776 204.12 78.6445 217.719 78.6445C231.317 78.6445 244.496 80.4896 257.016 83.9282" stroke="#FFC10D" stroke-width="10" stroke-miterlimit="10" stroke-linecap="round"/>
<path d="M100.604 136.358C116.946 115.116 138.919 98.4499 164.307 88.6016" stroke="#FF900D" stroke-width="10" stroke-miterlimit="10" stroke-linecap="round"/>
<path d="M70.5918 213.766C72.5806 190.08 80.1526 167.975 92.0138 148.793" stroke="#F15223" stroke-width="10" stroke-miterlimit="10" stroke-linecap="round"/>
<path d="M343.508 148.949C355.309 168.095 362.857 190.128 364.834 213.766" stroke="#1B998B" stroke-width="10" stroke-miterlimit="10" stroke-linecap="round"/>
<path d="M172.799 214.184L191.475 181.816H170.839V174.984H199.399V181.816L180.667 214.184H172.799ZM202.748 214.184V208.08C203.961 207.165 205.398 206.036 207.06 204.692C208.721 203.329 210.429 201.864 212.184 200.296C213.938 198.709 215.562 197.122 217.056 195.536C218.549 193.949 219.762 192.437 220.696 191C221.648 189.562 222.124 188.33 222.124 187.304C222.124 186.165 221.844 185.129 221.284 184.196C220.724 183.244 219.977 182.488 219.044 181.928C218.129 181.368 217.102 181.088 215.964 181.088C214.825 181.088 213.789 181.368 212.856 181.928C211.922 182.488 211.176 183.244 210.616 184.196C210.056 185.129 209.776 186.165 209.776 187.304H202.944C202.944 184.84 203.541 182.628 204.736 180.668C205.93 178.689 207.508 177.13 209.468 175.992C211.446 174.834 213.612 174.256 215.964 174.256C218.353 174.256 220.528 174.844 222.488 176.02C224.448 177.177 226.016 178.745 227.192 180.724C228.368 182.702 228.956 184.896 228.956 187.304C228.956 188.573 228.722 189.852 228.256 191.14C227.789 192.428 227.136 193.725 226.296 195.032C225.456 196.338 224.466 197.664 223.328 199.008C222.189 200.333 220.929 201.696 219.548 203.096C218.185 204.477 216.748 205.896 215.236 207.352H229.152V214.184H202.748ZM248.018 214.912C245.741 214.912 243.669 214.389 241.802 213.344C239.935 212.28 238.321 210.814 236.958 208.948C235.614 207.081 234.578 204.925 233.85 202.48C233.122 200.016 232.758 197.384 232.758 194.584C232.758 191.784 233.122 189.161 233.85 186.716C234.578 184.252 235.614 182.086 236.958 180.22C238.321 178.353 239.935 176.897 241.802 175.852C243.669 174.788 245.741 174.256 248.018 174.256C250.295 174.256 252.367 174.788 254.234 175.852C256.101 176.897 257.697 178.353 259.022 180.22C260.366 182.086 261.402 184.252 262.13 186.716C262.877 189.161 263.25 191.784 263.25 194.584C263.25 197.384 262.877 200.016 262.13 202.48C261.402 204.925 260.366 207.081 259.022 208.948C257.697 210.814 256.101 212.28 254.234 213.344C252.367 214.389 250.295 214.912 248.018 214.912ZM248.018 208.08C250.015 208.08 251.667 207.445 252.974 206.176C254.281 204.906 255.251 203.245 255.886 201.192C256.521 199.138 256.838 196.936 256.838 194.584C256.838 192.101 256.502 189.842 255.83 187.808C255.158 185.754 254.169 184.121 252.862 182.908C251.555 181.694 249.941 181.088 248.018 181.088C246.506 181.088 245.19 181.461 244.07 182.208C242.969 182.936 242.054 183.934 241.326 185.204C240.598 186.473 240.057 187.92 239.702 189.544C239.347 191.149 239.17 192.829 239.17 194.584C239.17 196.917 239.487 199.12 240.122 201.192C240.775 203.245 241.755 204.906 243.062 206.176C244.387 207.445 246.039 208.08 248.018 208.08Z" fill="#0070E0"/>
<path d="M181.942 160.184V149.684H188.46V151.244H183.502V153.779H187.492V155.339H183.502V158.624H188.46V160.184H181.942ZM189.392 160.184L192.137 156.419L189.407 152.669H191.334L193.097 155.084L194.867 152.669H196.787L194.064 156.419L196.809 160.184H194.882L193.097 157.739L191.319 160.184H189.392ZM202.514 158.054L203.909 158.811C203.569 159.286 203.136 159.666 202.611 159.951C202.091 160.236 201.526 160.379 200.916 160.379C200.226 160.379 199.596 160.201 199.026 159.846C198.461 159.491 198.009 159.016 197.669 158.421C197.334 157.821 197.166 157.159 197.166 156.434C197.166 155.884 197.264 155.371 197.459 154.896C197.654 154.416 197.921 153.996 198.261 153.636C198.606 153.271 199.006 152.986 199.461 152.781C199.916 152.576 200.401 152.474 200.916 152.474C201.526 152.474 202.091 152.616 202.611 152.901C203.136 153.186 203.569 153.569 203.909 154.049L202.514 154.806C202.304 154.556 202.059 154.366 201.779 154.236C201.499 154.101 201.211 154.034 200.916 154.034C200.506 154.034 200.134 154.146 199.799 154.371C199.469 154.591 199.206 154.884 199.011 155.249C198.821 155.609 198.726 156.004 198.726 156.434C198.726 156.859 198.824 157.254 199.019 157.619C199.214 157.979 199.476 158.269 199.806 158.489C200.141 158.709 200.511 158.819 200.916 158.819C201.226 158.819 201.521 158.749 201.801 158.609C202.081 158.469 202.319 158.284 202.514 158.054ZM208.372 160.379C207.682 160.379 207.052 160.201 206.482 159.846C205.917 159.491 205.465 159.016 205.125 158.421C204.79 157.821 204.622 157.159 204.622 156.434C204.622 155.884 204.72 155.371 204.915 154.896C205.11 154.416 205.377 153.996 205.717 153.636C206.062 153.271 206.462 152.986 206.917 152.781C207.372 152.576 207.857 152.474 208.372 152.474C208.947 152.474 209.475 152.594 209.955 152.834C210.435 153.069 210.845 153.396 211.185 153.816C211.525 154.231 211.775 154.711 211.935 155.256C212.095 155.796 212.142 156.371 212.077 156.981H206.295C206.36 157.326 206.485 157.639 206.67 157.919C206.86 158.194 207.1 158.411 207.39 158.571C207.685 158.731 208.012 158.814 208.372 158.819C208.752 158.819 209.097 158.724 209.407 158.534C209.722 158.344 209.98 158.081 210.18 157.746L211.762 158.114C211.462 158.779 211.01 159.324 210.405 159.749C209.8 160.169 209.122 160.379 208.372 160.379ZM206.242 155.789H210.502C210.452 155.429 210.325 155.104 210.12 154.814C209.92 154.519 209.667 154.286 209.362 154.116C209.062 153.941 208.732 153.854 208.372 153.854C208.017 153.854 207.687 153.939 207.382 154.109C207.082 154.279 206.832 154.511 206.632 154.806C206.437 155.096 206.307 155.424 206.242 155.789ZM213.217 160.184V148.934H214.777V160.184H213.217ZM216.571 160.184V148.934H218.131V160.184H216.571ZM223.123 160.379C222.433 160.379 221.803 160.201 221.233 159.846C220.668 159.491 220.216 159.016 219.876 158.421C219.541 157.821 219.373 157.159 219.373 156.434C219.373 155.884 219.471 155.371 219.666 154.896C219.861 154.416 220.128 153.996 220.468 153.636C220.813 153.271 221.213 152.986 221.668 152.781C222.123 152.576 222.608 152.474 223.123 152.474C223.698 152.474 224.226 152.594 224.706 152.834C225.186 153.069 225.596 153.396 225.936 153.816C226.276 154.231 226.526 154.711 226.686 155.256C226.846 155.796 226.893 156.371 226.828 156.981H221.046C221.111 157.326 221.236 157.639 221.421 157.919C221.611 158.194 221.851 158.411 222.141 158.571C222.436 158.731 222.763 158.814 223.123 158.819C223.503 158.819 223.848 158.724 224.158 158.534C224.473 158.344 224.731 158.081 224.931 157.746L226.513 158.114C226.213 158.779 225.761 159.324 225.156 159.749C224.551 160.169 223.873 160.379 223.123 160.379ZM220.993 155.789H225.253C225.203 155.429 225.076 155.104 224.871 154.814C224.671 154.519 224.418 154.286 224.113 154.116C223.813 153.941 223.483 153.854 223.123 153.854C222.768 153.854 222.438 153.939 222.133 154.109C221.833 154.279 221.583 154.511 221.383 154.806C221.188 155.096 221.058 155.424 220.993 155.789ZM234.82 155.481V160.184H233.26V155.864C233.26 155.529 233.178 155.224 233.013 154.949C232.853 154.674 232.635 154.456 232.36 154.296C232.09 154.131 231.785 154.049 231.445 154.049C231.115 154.049 230.813 154.131 230.538 154.296C230.263 154.456 230.043 154.674 229.878 154.949C229.713 155.224 229.63 155.529 229.63 155.864V160.184H228.07V152.684H229.63V153.479C229.89 153.169 230.21 152.924 230.59 152.744C230.97 152.564 231.38 152.474 231.82 152.474C232.375 152.474 232.88 152.609 233.335 152.879C233.79 153.149 234.15 153.511 234.415 153.966C234.685 154.421 234.82 154.926 234.82 155.481ZM241.068 158.054L242.463 158.811C242.123 159.286 241.691 159.666 241.166 159.951C240.646 160.236 240.081 160.379 239.471 160.379C238.781 160.379 238.151 160.201 237.581 159.846C237.016 159.491 236.563 159.016 236.223 158.421C235.888 157.821 235.721 157.159 235.721 156.434C235.721 155.884 235.818 155.371 236.013 154.896C236.208 154.416 236.476 153.996 236.816 153.636C237.161 153.271 237.561 152.986 238.016 152.781C238.471 152.576 238.956 152.474 239.471 152.474C240.081 152.474 240.646 152.616 241.166 152.901C241.691 153.186 242.123 153.569 242.463 154.049L241.068 154.806C240.858 154.556 240.613 154.366 240.333 154.236C240.053 154.101 239.766 154.034 239.471 154.034C239.061 154.034 238.688 154.146 238.353 154.371C238.023 154.591 237.761 154.884 237.566 155.249C237.376 155.609 237.281 156.004 237.281 156.434C237.281 156.859 237.378 157.254 237.573 157.619C237.768 157.979 238.031 158.269 238.361 158.489C238.696 158.709 239.066 158.819 239.471 158.819C239.781 158.819 240.076 158.749 240.356 158.609C240.636 158.469 240.873 158.284 241.068 158.054ZM246.927 160.379C246.237 160.379 245.607 160.201 245.037 159.846C244.472 159.491 244.02 159.016 243.68 158.421C243.345 157.821 243.177 157.159 243.177 156.434C243.177 155.884 243.275 155.371 243.47 154.896C243.665 154.416 243.932 153.996 244.272 153.636C244.617 153.271 245.017 152.986 245.472 152.781C245.927 152.576 246.412 152.474 246.927 152.474C247.502 152.474 248.03 152.594 248.51 152.834C248.99 153.069 249.4 153.396 249.74 153.816C250.08 154.231 250.33 154.711 250.49 155.256C250.65 155.796 250.697 156.371 250.632 156.981H244.85C244.915 157.326 245.04 157.639 245.225 157.919C245.415 158.194 245.655 158.411 245.945 158.571C246.24 158.731 246.567 158.814 246.927 158.819C247.307 158.819 247.652 158.724 247.962 158.534C248.277 158.344 248.535 158.081 248.735 157.746L250.317 158.114C250.017 158.779 249.565 159.324 248.96 159.749C248.355 160.169 247.677 160.379 246.927 160.379ZM244.797 155.789H249.057C249.007 155.429 248.88 155.104 248.675 154.814C248.475 154.519 248.222 154.286 247.917 154.116C247.617 153.941 247.287 153.854 246.927 153.854C246.572 153.854 246.242 153.939 245.937 154.109C245.637 154.279 245.387 154.511 245.187 154.806C244.992 155.096 244.862 155.424 244.797 155.789Z" fill="#383A3E"/>
<path d="M111.86 33.3675C111.198 33.3675 110.575 33.2369 109.991 32.9755C109.408 32.7095 108.895 32.3455 108.451 31.8835C108.013 31.4169 107.667 30.8755 107.415 30.2595C107.168 29.6435 107.044 28.9855 107.044 28.2855C107.044 27.5855 107.168 26.9275 107.415 26.3115C107.667 25.6955 108.013 25.1565 108.451 24.6945C108.895 24.2279 109.408 23.8639 109.991 23.6025C110.575 23.3365 111.198 23.2035 111.86 23.2035C112.654 23.2035 113.384 23.3879 114.051 23.7565C114.719 24.1252 115.272 24.6152 115.71 25.2265L114.415 25.9195C114.112 25.5369 113.736 25.2312 113.288 25.0025C112.84 24.7739 112.364 24.6595 111.86 24.6595C111.394 24.6595 110.957 24.7552 110.551 24.9465C110.145 25.1379 109.788 25.3992 109.48 25.7305C109.172 26.0619 108.932 26.4469 108.759 26.8855C108.587 27.3242 108.5 27.7909 108.5 28.2855C108.5 28.7849 108.587 29.2539 108.759 29.6925C108.932 30.1265 109.172 30.5115 109.48 30.8475C109.793 31.1789 110.152 31.4402 110.558 31.6315C110.964 31.8182 111.398 31.9115 111.86 31.9115C112.374 31.9115 112.852 31.7972 113.295 31.5685C113.743 31.3352 114.117 31.0272 114.415 30.6445L115.71 31.3515C115.272 31.9629 114.719 32.4529 114.051 32.8215C113.384 33.1855 112.654 33.3675 111.86 33.3675ZM123.372 28.7965V33.1855H121.916V29.1535C121.916 28.8409 121.839 28.5562 121.685 28.2995C121.536 28.0429 121.333 27.8399 121.076 27.6905C120.824 27.5365 120.54 27.4595 120.222 27.4595C119.914 27.4595 119.632 27.5365 119.375 27.6905C119.119 27.8399 118.913 28.0429 118.759 28.2995C118.605 28.5562 118.528 28.8409 118.528 29.1535V33.1855H117.072V22.6855H118.528V26.9275C118.771 26.6382 119.07 26.4095 119.424 26.2415C119.779 26.0735 120.162 25.9895 120.572 25.9895C121.09 25.9895 121.562 26.1155 121.986 26.3675C122.411 26.6195 122.747 26.9579 122.994 27.3825C123.246 27.8072 123.372 28.2785 123.372 28.7965ZM127.713 33.3675C127.069 33.3675 126.481 33.2019 125.949 32.8705C125.422 32.5392 124.999 32.0959 124.682 31.5405C124.369 30.9805 124.213 30.3622 124.213 29.6855C124.213 29.1722 124.304 28.6939 124.486 28.2505C124.668 27.8025 124.918 27.4105 125.235 27.0745C125.557 26.7339 125.93 26.4679 126.355 26.2765C126.78 26.0852 127.232 25.9895 127.713 25.9895C128.25 25.9895 128.742 26.1015 129.19 26.3255C129.638 26.5449 130.021 26.8505 130.338 27.2425C130.655 27.6299 130.889 28.0779 131.038 28.5865C131.187 29.0905 131.232 29.6272 131.171 30.1965H125.774C125.835 30.5185 125.951 30.8102 126.124 31.0715C126.301 31.3282 126.525 31.5312 126.796 31.6805C127.071 31.8299 127.377 31.9069 127.713 31.9115C128.068 31.9115 128.39 31.8229 128.679 31.6455C128.973 31.4682 129.213 31.2232 129.4 30.9105L130.877 31.2535C130.597 31.8742 130.175 32.3829 129.61 32.7795C129.045 33.1715 128.413 33.3675 127.713 33.3675ZM125.725 29.0835H129.701C129.654 28.7475 129.535 28.4442 129.344 28.1735C129.157 27.8982 128.922 27.6812 128.637 27.5225C128.357 27.3592 128.049 27.2775 127.713 27.2775C127.382 27.2775 127.074 27.3569 126.789 27.5155C126.509 27.6742 126.276 27.8912 126.089 28.1665C125.907 28.4372 125.786 28.7429 125.725 29.0835ZM136.888 31.1975L138.19 31.9045C137.872 32.3479 137.469 32.7025 136.979 32.9685C136.493 33.2345 135.966 33.3675 135.397 33.3675C134.753 33.3675 134.165 33.2019 133.633 32.8705C133.105 32.5392 132.683 32.0959 132.366 31.5405C132.053 30.9805 131.897 30.3622 131.897 29.6855C131.897 29.1722 131.988 28.6939 132.17 28.2505C132.352 27.8025 132.601 27.4105 132.919 27.0745C133.241 26.7339 133.614 26.4679 134.039 26.2765C134.463 26.0852 134.916 25.9895 135.397 25.9895C135.966 25.9895 136.493 26.1225 136.979 26.3885C137.469 26.6545 137.872 27.0115 138.19 27.4595L136.888 28.1665C136.692 27.9332 136.463 27.7559 136.202 27.6345C135.94 27.5085 135.672 27.4455 135.397 27.4455C135.014 27.4455 134.666 27.5505 134.354 27.7605C134.046 27.9659 133.801 28.2389 133.619 28.5795C133.441 28.9155 133.353 29.2842 133.353 29.6855C133.353 30.0822 133.444 30.4509 133.626 30.7915C133.808 31.1275 134.053 31.3982 134.361 31.6035C134.673 31.8089 135.019 31.9115 135.397 31.9115C135.686 31.9115 135.961 31.8462 136.223 31.7155C136.484 31.5849 136.706 31.4122 136.888 31.1975ZM145.261 33.1855H143.581L141.859 30.2175L140.732 31.5615V33.1855H139.276V22.6855H140.732V29.3005L143.336 26.1855H145.24L142.853 29.0345L145.261 33.1855ZM146.371 26.1855H147.827V33.1855H146.371V26.1855ZM147.113 25.1705C146.889 25.1705 146.703 25.0982 146.553 24.9535C146.404 24.8089 146.329 24.6269 146.329 24.4075C146.329 24.1929 146.404 24.0132 146.553 23.8685C146.703 23.7192 146.887 23.6445 147.106 23.6445C147.321 23.6445 147.503 23.7192 147.652 23.8685C147.802 24.0132 147.876 24.1929 147.876 24.4075C147.876 24.6269 147.802 24.8089 147.652 24.9535C147.508 25.0982 147.328 25.1705 147.113 25.1705ZM155.747 28.7965V33.1855H154.291V29.1535C154.291 28.8409 154.214 28.5562 154.06 28.2995C153.911 28.0429 153.708 27.8399 153.451 27.6905C153.199 27.5365 152.915 27.4595 152.597 27.4595C152.289 27.4595 152.007 27.5365 151.75 27.6905C151.494 27.8399 151.288 28.0429 151.134 28.2995C150.98 28.5562 150.903 28.8409 150.903 29.1535V33.1855H149.447V26.1855H150.903V26.9275C151.146 26.6382 151.445 26.4095 151.799 26.2415C152.154 26.0735 152.537 25.9895 152.947 25.9895C153.465 25.9895 153.937 26.1155 154.361 26.3675C154.786 26.6195 155.122 26.9579 155.369 27.3825C155.621 27.8072 155.747 28.2785 155.747 28.7965ZM162.335 26.1855H163.791V33.3675C163.791 33.8482 163.688 34.2915 163.483 34.6975C163.282 35.1035 163.009 35.4535 162.664 35.7475C162.319 36.0462 161.922 36.2772 161.474 36.4405C161.031 36.6039 160.566 36.6855 160.081 36.6855C159.591 36.6855 159.12 36.5805 158.667 36.3705C158.214 36.1652 157.815 35.8852 157.47 35.5305C157.129 35.1759 156.875 34.7745 156.707 34.3265L158.044 33.7245C158.137 34.0139 158.287 34.2705 158.492 34.4945C158.702 34.7185 158.945 34.8959 159.22 35.0265C159.5 35.1572 159.787 35.2225 160.081 35.2225C160.37 35.2225 160.648 35.1759 160.914 35.0825C161.185 34.9939 161.425 34.8679 161.635 34.7045C161.85 34.5412 162.02 34.3452 162.146 34.1165C162.272 33.8879 162.335 33.6382 162.335 33.3675V32.1845C162.106 32.5392 161.812 32.8262 161.453 33.0455C161.094 33.2602 160.676 33.3675 160.2 33.3675C159.705 33.3675 159.239 33.2719 158.8 33.0805C158.361 32.8892 157.976 32.6255 157.645 32.2895C157.314 31.9489 157.055 31.5569 156.868 31.1135C156.681 30.6702 156.588 30.1942 156.588 29.6855C156.588 29.1769 156.681 28.7009 156.868 28.2575C157.055 27.8095 157.314 27.4175 157.645 27.0815C157.976 26.7409 158.361 26.4749 158.8 26.2835C159.239 26.0922 159.705 25.9965 160.2 25.9965C160.676 25.9965 161.094 26.1062 161.453 26.3255C161.812 26.5402 162.106 26.8272 162.335 27.1865V26.1855ZM160.214 31.9605C160.62 31.9605 160.975 31.8579 161.278 31.6525C161.581 31.4425 161.817 31.1649 161.985 30.8195C162.153 30.4742 162.237 30.0962 162.237 29.6855C162.237 29.2655 162.151 28.8852 161.978 28.5445C161.81 28.1992 161.574 27.9239 161.271 27.7185C160.968 27.5085 160.615 27.4035 160.214 27.4035C159.822 27.4035 159.463 27.5062 159.136 27.7115C158.814 27.9169 158.557 28.1922 158.366 28.5375C158.175 28.8829 158.079 29.2655 158.079 29.6855C158.079 30.1055 158.175 30.4882 158.366 30.8335C158.562 31.1789 158.821 31.4542 159.143 31.6595C159.47 31.8602 159.827 31.9605 160.214 31.9605ZM173.629 26.1855H175.183L171.347 36.6855H169.8L171.067 33.1855L168.554 26.1855H170.143L171.795 31.1905L173.629 26.1855ZM179.065 33.3675C178.421 33.3675 177.833 33.2019 177.301 32.8705C176.773 32.5392 176.351 32.0959 176.034 31.5405C175.721 30.9805 175.565 30.3622 175.565 29.6855C175.565 29.1722 175.656 28.6939 175.838 28.2505C176.02 27.8025 176.269 27.4105 176.587 27.0745C176.909 26.7339 177.282 26.4679 177.707 26.2765C178.131 26.0852 178.584 25.9895 179.065 25.9895C179.709 25.9895 180.294 26.1552 180.822 26.4865C181.354 26.8179 181.776 27.2635 182.089 27.8235C182.406 28.3835 182.565 29.0042 182.565 29.6855C182.565 30.1942 182.474 30.6702 182.292 31.1135C182.11 31.5569 181.858 31.9489 181.536 32.2895C181.218 32.6255 180.847 32.8892 180.423 33.0805C180.003 33.2719 179.55 33.3675 179.065 33.3675ZM179.065 31.9115C179.452 31.9115 179.8 31.8089 180.108 31.6035C180.416 31.3982 180.658 31.1275 180.836 30.7915C181.018 30.4509 181.109 30.0822 181.109 29.6855C181.109 29.2795 181.015 28.9062 180.829 28.5655C180.647 28.2249 180.402 27.9542 180.094 27.7535C179.786 27.5482 179.443 27.4455 179.065 27.4455C178.682 27.4455 178.334 27.5482 178.022 27.7535C177.714 27.9589 177.469 28.2319 177.287 28.5725C177.109 28.9132 177.021 29.2842 177.021 29.6855C177.021 30.1009 177.114 30.4765 177.301 30.8125C177.487 31.1485 177.735 31.4169 178.043 31.6175C178.355 31.8135 178.696 31.9115 179.065 31.9115ZM183.279 30.5605V26.1855H184.735V30.2035C184.735 30.5162 184.812 30.8009 184.966 31.0575C185.12 31.3142 185.325 31.5195 185.582 31.6735C185.838 31.8229 186.121 31.8975 186.429 31.8975C186.741 31.8975 187.024 31.8229 187.276 31.6735C187.532 31.5195 187.735 31.3142 187.885 31.0575C188.039 30.8009 188.116 30.5162 188.116 30.2035V26.1855H189.572L189.579 33.1855H188.123L188.116 32.4295C187.878 32.7189 187.581 32.9475 187.227 33.1155C186.872 33.2835 186.492 33.3675 186.086 33.3675C185.568 33.3675 185.096 33.2415 184.672 32.9895C184.247 32.7375 183.909 32.3992 183.657 31.9745C183.405 31.5499 183.279 31.0785 183.279 30.5605ZM190.983 33.1855V26.1855H192.439V26.9275C192.681 26.6382 192.98 26.4095 193.335 26.2415C193.689 26.0735 194.072 25.9895 194.483 25.9895C194.744 25.9895 195.003 26.0245 195.26 26.0945L194.679 27.5645C194.497 27.4945 194.315 27.4595 194.133 27.4595C193.825 27.4595 193.542 27.5365 193.286 27.6905C193.029 27.8399 192.824 28.0429 192.67 28.2995C192.516 28.5562 192.439 28.8409 192.439 29.1535V33.1855H190.983ZM204.146 33.3675C203.483 33.3675 202.86 33.2369 202.277 32.9755C201.693 32.7095 201.18 32.3455 200.737 31.8835C200.298 31.4169 199.953 30.8755 199.701 30.2595C199.453 29.6435 199.33 28.9855 199.33 28.2855C199.33 27.5855 199.453 26.9275 199.701 26.3115C199.953 25.6955 200.298 25.1565 200.737 24.6945C201.18 24.2279 201.693 23.8639 202.277 23.6025C202.86 23.3365 203.483 23.2035 204.146 23.2035C204.939 23.2035 205.669 23.3879 206.337 23.7565C207.004 24.1252 207.557 24.6152 207.996 25.2265L206.701 25.9195C206.397 25.5369 206.022 25.2312 205.574 25.0025C205.126 24.7739 204.65 24.6595 204.146 24.6595C203.679 24.6595 203.243 24.7552 202.837 24.9465C202.431 25.1379 202.074 25.3992 201.766 25.7305C201.458 26.0619 201.217 26.4469 201.045 26.8855C200.872 27.3242 200.786 27.7909 200.786 28.2855C200.786 28.7849 200.872 29.2539 201.045 29.6925C201.217 30.1265 201.458 30.5115 201.766 30.8475C202.078 31.1789 202.438 31.4402 202.844 31.6315C203.25 31.8182 203.684 31.9115 204.146 31.9115C204.659 31.9115 205.137 31.7972 205.581 31.5685C206.029 31.3352 206.402 31.0272 206.701 30.6445L207.996 31.3515C207.557 31.9629 207.004 32.4529 206.337 32.8215C205.669 33.1855 204.939 33.3675 204.146 33.3675ZM209.317 33.1855V26.1855H210.773V26.9275C211.015 26.6382 211.314 26.4095 211.669 26.2415C212.023 26.0735 212.406 25.9895 212.817 25.9895C213.078 25.9895 213.337 26.0245 213.594 26.0945L213.013 27.5645C212.831 27.4945 212.649 27.4595 212.467 27.4595C212.159 27.4595 211.876 27.5365 211.62 27.6905C211.363 27.8399 211.158 28.0429 211.004 28.2995C210.85 28.5562 210.773 28.8409 210.773 29.1535V33.1855H209.317ZM217.154 33.3675C216.51 33.3675 215.922 33.2019 215.39 32.8705C214.863 32.5392 214.441 32.0959 214.123 31.5405C213.811 30.9805 213.654 30.3622 213.654 29.6855C213.654 29.1722 213.745 28.6939 213.927 28.2505C214.109 27.8025 214.359 27.4105 214.676 27.0745C214.998 26.7339 215.372 26.4679 215.796 26.2765C216.221 26.0852 216.674 25.9895 217.154 25.9895C217.691 25.9895 218.183 26.1015 218.631 26.3255C219.079 26.5449 219.462 26.8505 219.779 27.2425C220.097 27.6299 220.33 28.0779 220.479 28.5865C220.629 29.0905 220.673 29.6272 220.612 30.1965H215.215C215.276 30.5185 215.393 30.8102 215.565 31.0715C215.743 31.3282 215.967 31.5312 216.237 31.6805C216.513 31.8299 216.818 31.9069 217.154 31.9115C217.509 31.9115 217.831 31.8229 218.12 31.6455C218.414 31.4682 218.655 31.2232 218.841 30.9105L220.318 31.2535C220.038 31.8742 219.616 32.3829 219.051 32.7795C218.487 33.1715 217.854 33.3675 217.154 33.3675ZM215.166 29.0835H219.142C219.096 28.7475 218.977 28.4442 218.785 28.1735C218.599 27.8982 218.363 27.6812 218.078 27.5225C217.798 27.3592 217.49 27.2775 217.154 27.2775C216.823 27.2775 216.515 27.3569 216.23 27.5155C215.95 27.6742 215.717 27.8912 215.53 28.1665C215.348 28.4372 215.227 28.7429 215.166 29.0835ZM227.211 22.6855H228.667V33.1855H227.211V32.1565C226.982 32.5205 226.684 32.8145 226.315 33.0385C225.946 33.2579 225.515 33.3675 225.02 33.3675C224.511 33.3675 224.035 33.2719 223.592 33.0805C223.149 32.8892 222.757 32.6255 222.416 32.2895C222.08 31.9489 221.816 31.5569 221.625 31.1135C221.434 30.6702 221.338 30.1942 221.338 29.6855C221.338 29.1769 221.434 28.7009 221.625 28.2575C221.816 27.8095 222.08 27.4175 222.416 27.0815C222.757 26.7409 223.149 26.4749 223.592 26.2835C224.035 26.0922 224.511 25.9965 225.02 25.9965C225.515 25.9965 225.946 26.1085 226.315 26.3325C226.684 26.5519 226.982 26.8412 227.211 27.2005V22.6855ZM225.034 31.9605C225.445 31.9605 225.804 31.8602 226.112 31.6595C226.42 31.4542 226.658 31.1789 226.826 30.8335C226.999 30.4882 227.085 30.1055 227.085 29.6855C227.085 29.2609 226.999 28.8759 226.826 28.5305C226.653 28.1852 226.413 27.9122 226.105 27.7115C225.802 27.5062 225.445 27.4035 225.034 27.4035C224.628 27.4035 224.257 27.5062 223.921 27.7115C223.59 27.9169 223.324 28.1922 223.123 28.5375C222.927 28.8829 222.829 29.2655 222.829 29.6855C222.829 30.1102 222.929 30.4952 223.13 30.8405C223.335 31.1812 223.604 31.4542 223.935 31.6595C224.271 31.8602 224.637 31.9605 225.034 31.9605ZM230.344 26.1855H231.8V33.1855H230.344V26.1855ZM231.086 25.1705C230.862 25.1705 230.675 25.0982 230.526 24.9535C230.377 24.8089 230.302 24.6269 230.302 24.4075C230.302 24.1929 230.377 24.0132 230.526 23.8685C230.675 23.7192 230.86 23.6445 231.079 23.6445C231.294 23.6445 231.476 23.7192 231.625 23.8685C231.774 24.0132 231.849 24.1929 231.849 24.4075C231.849 24.6269 231.774 24.8089 231.625 24.9535C231.48 25.0982 231.301 25.1705 231.086 25.1705ZM237.171 27.6415H235.701L235.694 33.1855H234.238L234.245 27.6415H233.132V26.1855H234.245L234.238 23.9875H235.694L235.701 26.1855H237.171V27.6415ZM245.28 33.3675C244.744 33.3675 244.228 33.2835 243.733 33.1155C243.239 32.9475 242.807 32.7072 242.438 32.3945C242.07 32.0772 241.806 31.7015 241.647 31.2675L243.012 30.7565C243.092 30.9805 243.243 31.1812 243.467 31.3585C243.696 31.5312 243.967 31.6665 244.279 31.7645C244.597 31.8625 244.93 31.9115 245.28 31.9115C245.654 31.9115 246.004 31.8509 246.33 31.7295C246.662 31.6082 246.928 31.4402 247.128 31.2255C247.334 31.0109 247.436 30.7589 247.436 30.4695C247.436 30.1709 247.329 29.9259 247.114 29.7345C246.904 29.5432 246.634 29.3915 246.302 29.2795C245.976 29.1675 245.635 29.0835 245.28 29.0275C244.594 28.9155 243.978 28.7522 243.432 28.5375C242.891 28.3229 242.462 28.0219 242.144 27.6345C241.832 27.2472 241.675 26.7432 241.675 26.1225C241.675 25.5392 241.841 25.0305 242.172 24.5965C242.508 24.1625 242.949 23.8265 243.495 23.5885C244.046 23.3459 244.641 23.2245 245.28 23.2245C245.808 23.2245 246.316 23.3085 246.806 23.4765C247.301 23.6399 247.735 23.8802 248.108 24.1975C248.486 24.5102 248.757 24.8905 248.92 25.3385L247.541 25.8355C247.462 25.6069 247.31 25.4085 247.086 25.2405C246.862 25.0679 246.592 24.9325 246.274 24.8345C245.962 24.7365 245.63 24.6875 245.28 24.6875C244.907 24.6829 244.557 24.7435 244.23 24.8695C243.908 24.9909 243.645 25.1589 243.439 25.3735C243.234 25.5882 243.131 25.8379 243.131 26.1225C243.131 26.4725 243.227 26.7385 243.418 26.9205C243.61 27.1025 243.866 27.2379 244.188 27.3265C244.515 27.4105 244.879 27.4875 245.28 27.5575C245.924 27.6602 246.519 27.8305 247.065 28.0685C247.616 28.3065 248.057 28.6239 248.388 29.0205C248.724 29.4125 248.892 29.8955 248.892 30.4695C248.892 31.0482 248.724 31.5569 248.388 31.9955C248.057 32.4295 247.616 32.7679 247.065 33.0105C246.519 33.2485 245.924 33.3675 245.28 33.3675ZM254.849 31.1975L256.151 31.9045C255.833 32.3479 255.43 32.7025 254.94 32.9685C254.454 33.2345 253.927 33.3675 253.358 33.3675C252.714 33.3675 252.126 33.2019 251.594 32.8705C251.066 32.5392 250.644 32.0959 250.327 31.5405C250.014 30.9805 249.858 30.3622 249.858 29.6855C249.858 29.1722 249.949 28.6939 250.131 28.2505C250.313 27.8025 250.562 27.4105 250.88 27.0745C251.202 26.7339 251.575 26.4679 252 26.2765C252.424 26.0852 252.877 25.9895 253.358 25.9895C253.927 25.9895 254.454 26.1225 254.94 26.3885C255.43 26.6545 255.833 27.0115 256.151 27.4595L254.849 28.1665C254.653 27.9332 254.424 27.7559 254.163 27.6345C253.901 27.5085 253.633 27.4455 253.358 27.4455C252.975 27.4455 252.627 27.5505 252.315 27.7605C252.007 27.9659 251.762 28.2389 251.58 28.5795C251.402 28.9155 251.314 29.2842 251.314 29.6855C251.314 30.0822 251.405 30.4509 251.587 30.7915C251.769 31.1275 252.014 31.3982 252.322 31.6035C252.634 31.8089 252.98 31.9115 253.358 31.9115C253.647 31.9115 253.922 31.8462 254.184 31.7155C254.445 31.5849 254.667 31.4122 254.849 31.1975ZM260.316 33.3675C259.672 33.3675 259.084 33.2019 258.552 32.8705C258.025 32.5392 257.603 32.0959 257.285 31.5405C256.973 30.9805 256.816 30.3622 256.816 29.6855C256.816 29.1722 256.907 28.6939 257.089 28.2505C257.271 27.8025 257.521 27.4105 257.838 27.0745C258.16 26.7339 258.534 26.4679 258.958 26.2765C259.383 26.0852 259.836 25.9895 260.316 25.9895C260.96 25.9895 261.546 26.1552 262.073 26.4865C262.605 26.8179 263.028 27.2635 263.34 27.8235C263.658 28.3835 263.816 29.0042 263.816 29.6855C263.816 30.1942 263.725 30.6702 263.543 31.1135C263.361 31.5569 263.109 31.9489 262.787 32.2895C262.47 32.6255 262.099 32.8892 261.674 33.0805C261.254 33.2719 260.802 33.3675 260.316 33.3675ZM260.316 31.9115C260.704 31.9115 261.051 31.8089 261.359 31.6035C261.667 31.3982 261.91 31.1275 262.087 30.7915C262.269 30.4509 262.36 30.0822 262.36 29.6855C262.36 29.2795 262.267 28.9062 262.08 28.5655C261.898 28.2249 261.653 27.9542 261.345 27.7535C261.037 27.5482 260.694 27.4455 260.316 27.4455C259.934 27.4455 259.586 27.5482 259.273 27.7535C258.965 27.9589 258.72 28.2319 258.538 28.5725C258.361 28.9132 258.272 29.2842 258.272 29.6855C258.272 30.1009 258.366 30.4765 258.552 30.8125C258.739 31.1485 258.986 31.4169 259.294 31.6175C259.607 31.8135 259.948 31.9115 260.316 31.9115ZM264.947 33.1855V26.1855H266.403V26.9275C266.646 26.6382 266.945 26.4095 267.299 26.2415C267.654 26.0735 268.037 25.9895 268.447 25.9895C268.709 25.9895 268.968 26.0245 269.224 26.0945L268.643 27.5645C268.461 27.4945 268.279 27.4595 268.097 27.4595C267.789 27.4595 267.507 27.5365 267.25 27.6905C266.994 27.8399 266.788 28.0429 266.634 28.2995C266.48 28.5562 266.403 28.8409 266.403 29.1535V33.1855H264.947ZM272.785 33.3675C272.141 33.3675 271.553 33.2019 271.021 32.8705C270.494 32.5392 270.072 32.0959 269.754 31.5405C269.442 30.9805 269.285 30.3622 269.285 29.6855C269.285 29.1722 269.376 28.6939 269.558 28.2505C269.74 27.8025 269.99 27.4105 270.307 27.0745C270.629 26.7339 271.003 26.4679 271.427 26.2765C271.852 26.0852 272.305 25.9895 272.785 25.9895C273.322 25.9895 273.814 26.1015 274.262 26.3255C274.71 26.5449 275.093 26.8505 275.41 27.2425C275.728 27.6299 275.961 28.0779 276.11 28.5865C276.26 29.0905 276.304 29.6272 276.243 30.1965H270.846C270.907 30.5185 271.024 30.8102 271.196 31.0715C271.374 31.3282 271.598 31.5312 271.868 31.6805C272.144 31.8299 272.449 31.9069 272.785 31.9115C273.14 31.9115 273.462 31.8229 273.751 31.6455C274.045 31.4682 274.286 31.2232 274.472 30.9105L275.949 31.2535C275.669 31.8742 275.247 32.3829 274.682 32.7795C274.118 33.1715 273.485 33.3675 272.785 33.3675ZM270.797 29.0835H274.773C274.727 28.7475 274.608 28.4442 274.416 28.1735C274.23 27.8982 273.994 27.6812 273.709 27.5225C273.429 27.3592 273.121 27.2775 272.785 27.2775C272.454 27.2775 272.146 27.3569 271.861 27.5155C271.581 27.6742 271.348 27.8912 271.161 28.1665C270.979 28.4372 270.858 28.7429 270.797 29.0835ZM284.263 33.1855H282.814L280.469 26.1855H281.897L283.549 31.0995L285.187 26.1855H286.657L288.295 31.0995L289.94 26.1855H291.368L289.03 33.1855H287.567L285.915 28.2365L284.263 33.1855ZM292.455 26.1855H293.911V33.1855H292.455V26.1855ZM293.197 25.1705C292.973 25.1705 292.787 25.0982 292.637 24.9535C292.488 24.8089 292.413 24.6269 292.413 24.4075C292.413 24.1929 292.488 24.0132 292.637 23.8685C292.787 23.7192 292.971 23.6445 293.19 23.6445C293.405 23.6445 293.587 23.7192 293.736 23.8685C293.886 24.0132 293.96 24.1929 293.96 24.4075C293.96 24.6269 293.886 24.8089 293.736 24.9535C293.592 25.0982 293.412 25.1705 293.197 25.1705ZM295.613 33.1855V22.6855H297.069V33.1855H295.613ZM298.744 33.1855V22.6855H300.2V33.1855H298.744ZM311.538 28.7965V33.1855H310.082V29.1535C310.082 28.8409 310.005 28.5562 309.851 28.2995C309.702 28.0429 309.499 27.8399 309.242 27.6905C308.99 27.5365 308.706 27.4595 308.388 27.4595C308.08 27.4595 307.798 27.5365 307.541 27.6905C307.285 27.8399 307.079 28.0429 306.925 28.2995C306.771 28.5562 306.694 28.8409 306.694 29.1535V33.1855H305.238V26.1855H306.694V26.9275C306.937 26.6382 307.236 26.4095 307.59 26.2415C307.945 26.0735 308.328 25.9895 308.738 25.9895C309.256 25.9895 309.728 26.1155 310.152 26.3675C310.577 26.6195 310.913 26.9579 311.16 27.3825C311.412 27.8072 311.538 28.2785 311.538 28.7965ZM315.879 33.3675C315.235 33.3675 314.647 33.2019 314.115 32.8705C313.588 32.5392 313.165 32.0959 312.848 31.5405C312.535 30.9805 312.379 30.3622 312.379 29.6855C312.379 29.1722 312.47 28.6939 312.652 28.2505C312.834 27.8025 313.084 27.4105 313.401 27.0745C313.723 26.7339 314.096 26.4679 314.521 26.2765C314.946 26.0852 315.398 25.9895 315.879 25.9895C316.523 25.9895 317.109 26.1552 317.636 26.4865C318.168 26.8179 318.59 27.2635 318.903 27.8235C319.22 28.3835 319.379 29.0042 319.379 29.6855C319.379 30.1942 319.288 30.6702 319.106 31.1135C318.924 31.5569 318.672 31.9489 318.35 32.2895C318.033 32.6255 317.662 32.8892 317.237 33.0805C316.817 33.2719 316.364 33.3675 315.879 33.3675ZM315.879 31.9115C316.266 31.9115 316.614 31.8089 316.922 31.6035C317.23 31.3982 317.473 31.1275 317.65 30.7915C317.832 30.4509 317.923 30.0822 317.923 29.6855C317.923 29.2795 317.83 28.9062 317.643 28.5655C317.461 28.2249 317.216 27.9542 316.908 27.7535C316.6 27.5482 316.257 27.4455 315.879 27.4455C315.496 27.4455 315.149 27.5482 314.836 27.7535C314.528 27.9589 314.283 28.2319 314.101 28.5725C313.924 28.9132 313.835 29.2842 313.835 29.6855C313.835 30.1009 313.928 30.4765 314.115 30.8125C314.302 31.1485 314.549 31.4169 314.857 31.6175C315.17 31.8135 315.51 31.9115 315.879 31.9115ZM324.165 27.6415H322.695L322.688 33.1855H321.232L321.239 27.6415H320.126V26.1855H321.239L321.232 23.9875H322.688L322.695 26.1855H324.165V27.6415ZM142.721 46.1855H144.177V53.1855H142.721V46.1855ZM143.463 45.1705C143.239 45.1705 143.052 45.0982 142.903 44.9535C142.754 44.8089 142.679 44.6269 142.679 44.4075C142.679 44.1929 142.754 44.0132 142.903 43.8685C143.052 43.7192 143.237 43.6445 143.456 43.6445C143.671 43.6445 143.853 43.7192 144.002 43.8685C144.151 44.0132 144.226 44.1929 144.226 44.4075C144.226 44.6269 144.151 44.8089 144.002 44.9535C143.857 45.0982 143.678 45.1705 143.463 45.1705ZM145.797 53.1855V46.1855H147.253V46.9275C147.496 46.6382 147.792 46.4095 148.142 46.2415C148.497 46.0735 148.879 45.9895 149.29 45.9895C149.789 45.9895 150.249 46.1109 150.669 46.3535C151.089 46.5915 151.423 46.9089 151.67 47.3055C151.917 46.9089 152.246 46.5915 152.657 46.3535C153.072 46.1109 153.53 45.9895 154.029 45.9895C154.547 45.9895 155.018 46.1155 155.443 46.3675C155.868 46.6195 156.206 46.9579 156.458 47.3825C156.71 47.8072 156.836 48.2785 156.836 48.7965V53.1855H155.38V49.1675C155.38 48.8595 155.305 48.5772 155.156 48.3205C155.007 48.0639 154.806 47.8562 154.554 47.6975C154.302 47.5389 154.022 47.4595 153.714 47.4595C153.406 47.4595 153.126 47.5342 152.874 47.6835C152.622 47.8329 152.421 48.0359 152.272 48.2925C152.123 48.5492 152.048 48.8409 152.048 49.1675V53.1855H150.592V49.1675C150.592 48.8409 150.517 48.5492 150.368 48.2925C150.219 48.0359 150.016 47.8329 149.759 47.6835C149.507 47.5342 149.227 47.4595 148.919 47.4595C148.616 47.4595 148.336 47.5389 148.079 47.6975C147.827 47.8562 147.626 48.0639 147.477 48.3205C147.328 48.5772 147.253 48.8595 147.253 49.1675V53.1855H145.797ZM159.694 56.6855H158.238V46.1855H159.694V47.2145C159.928 46.8552 160.226 46.5635 160.59 46.3395C160.954 46.1155 161.384 46.0035 161.878 46.0035C162.387 46.0035 162.863 46.0992 163.306 46.2905C163.754 46.4819 164.146 46.7479 164.482 47.0885C164.818 47.4245 165.082 47.8142 165.273 48.2575C165.465 48.7009 165.56 49.1769 165.56 49.6855C165.56 50.1942 165.465 50.6725 165.273 51.1205C165.082 51.5685 164.818 51.9629 164.482 52.3035C164.146 52.6395 163.754 52.9032 163.306 53.0945C162.863 53.2859 162.387 53.3815 161.878 53.3815C161.384 53.3815 160.954 53.2695 160.59 53.0455C160.226 52.8169 159.928 52.5252 159.694 52.1705V56.6855ZM161.864 47.4105C161.458 47.4105 161.101 47.5132 160.793 47.7185C160.485 47.9239 160.245 48.1992 160.072 48.5445C159.9 48.8852 159.813 49.2655 159.813 49.6855C159.813 50.1055 159.9 50.4882 160.072 50.8335C160.245 51.1789 160.485 51.4542 160.793 51.6595C161.101 51.8649 161.458 51.9675 161.864 51.9675C162.266 51.9675 162.634 51.8672 162.97 51.6665C163.306 51.4612 163.575 51.1859 163.775 50.8405C163.976 50.4952 164.076 50.1102 164.076 49.6855C164.076 49.2702 163.976 48.8899 163.775 48.5445C163.579 48.1992 163.313 47.9239 162.977 47.7185C162.641 47.5132 162.27 47.4105 161.864 47.4105ZM172.134 46.1855H173.59V53.1855H172.127L172.071 52.1705C171.865 52.5299 171.588 52.8192 171.238 53.0385C170.888 53.2579 170.475 53.3675 169.999 53.3675C169.485 53.3675 169.002 53.2719 168.55 53.0805C168.097 52.8845 167.698 52.6139 167.353 52.2685C167.012 51.9232 166.746 51.5265 166.555 51.0785C166.363 50.6259 166.268 50.1405 166.268 49.6225C166.268 49.1232 166.361 48.6542 166.548 48.2155C166.734 47.7722 166.993 47.3849 167.325 47.0535C167.656 46.7222 168.039 46.4632 168.473 46.2765C168.911 46.0852 169.38 45.9895 169.88 45.9895C170.388 45.9895 170.836 46.1062 171.224 46.3395C171.616 46.5682 171.94 46.8622 172.197 47.2215L172.134 46.1855ZM169.964 51.9605C170.374 51.9605 170.734 51.8602 171.042 51.6595C171.35 51.4542 171.588 51.1789 171.756 50.8335C171.928 50.4882 172.015 50.1055 172.015 49.6855C172.015 49.2609 171.928 48.8759 171.756 48.5305C171.583 48.1852 171.343 47.9122 171.035 47.7115C170.731 47.5062 170.374 47.4035 169.964 47.4035C169.558 47.4035 169.187 47.5062 168.851 47.7115C168.515 47.9169 168.249 48.1922 168.053 48.5375C167.857 48.8829 167.759 49.2655 167.759 49.6855C167.759 50.1102 167.859 50.4952 168.06 50.8405C168.265 51.1812 168.533 51.4542 168.865 51.6595C169.201 51.8602 169.567 51.9605 169.964 51.9605ZM179.421 51.1975L180.723 51.9045C180.405 52.3479 180.002 52.7025 179.512 52.9685C179.026 53.2345 178.499 53.3675 177.93 53.3675C177.286 53.3675 176.698 53.2019 176.166 52.8705C175.638 52.5392 175.216 52.0959 174.899 51.5405C174.586 50.9805 174.43 50.3622 174.43 49.6855C174.43 49.1722 174.521 48.6939 174.703 48.2505C174.885 47.8025 175.134 47.4105 175.452 47.0745C175.774 46.7339 176.147 46.4679 176.572 46.2765C176.996 46.0852 177.449 45.9895 177.93 45.9895C178.499 45.9895 179.026 46.1225 179.512 46.3885C180.002 46.6545 180.405 47.0115 180.723 47.4595L179.421 48.1665C179.225 47.9332 178.996 47.7559 178.735 47.6345C178.473 47.5085 178.205 47.4455 177.93 47.4455C177.547 47.4455 177.199 47.5505 176.887 47.7605C176.579 47.9659 176.334 48.2389 176.152 48.5795C175.974 48.9155 175.886 49.2842 175.886 49.6855C175.886 50.0822 175.977 50.4509 176.159 50.7915C176.341 51.1275 176.586 51.3982 176.894 51.6035C177.206 51.8089 177.552 51.9115 177.93 51.9115C178.219 51.9115 178.494 51.8462 178.756 51.7155C179.017 51.5849 179.239 51.4122 179.421 51.1975ZM185.682 47.6415H184.212L184.205 53.1855H182.749L182.756 47.6415H181.643V46.1855H182.756L182.749 43.9875H184.205L184.212 46.1855H185.682V47.6415ZM195.094 46.1855H196.648L192.812 56.6855H191.265L192.532 53.1855L190.019 46.1855H191.608L193.26 51.1905L195.094 46.1855ZM200.529 53.3675C199.885 53.3675 199.297 53.2019 198.765 52.8705C198.238 52.5392 197.816 52.0959 197.498 51.5405C197.186 50.9805 197.029 50.3622 197.029 49.6855C197.029 49.1722 197.12 48.6939 197.302 48.2505C197.484 47.8025 197.734 47.4105 198.051 47.0745C198.373 46.7339 198.747 46.4679 199.171 46.2765C199.596 46.0852 200.049 45.9895 200.529 45.9895C201.173 45.9895 201.759 46.1552 202.286 46.4865C202.818 46.8179 203.241 47.2635 203.553 47.8235C203.871 48.3835 204.029 49.0042 204.029 49.6855C204.029 50.1942 203.938 50.6702 203.756 51.1135C203.574 51.5569 203.322 51.9489 203 52.2895C202.683 52.6255 202.312 52.8892 201.887 53.0805C201.467 53.2719 201.015 53.3675 200.529 53.3675ZM200.529 51.9115C200.917 51.9115 201.264 51.8089 201.572 51.6035C201.88 51.3982 202.123 51.1275 202.3 50.7915C202.482 50.4509 202.573 50.0822 202.573 49.6855C202.573 49.2795 202.48 48.9062 202.293 48.5655C202.111 48.2249 201.866 47.9542 201.558 47.7535C201.25 47.5482 200.907 47.4455 200.529 47.4455C200.147 47.4455 199.799 47.5482 199.486 47.7535C199.178 47.9589 198.933 48.2319 198.751 48.5725C198.574 48.9132 198.485 49.2842 198.485 49.6855C198.485 50.1009 198.579 50.4765 198.765 50.8125C198.952 51.1485 199.199 51.4169 199.507 51.6175C199.82 51.8135 200.161 51.9115 200.529 51.9115ZM204.744 50.5605V46.1855H206.2V50.2035C206.2 50.5162 206.277 50.8009 206.431 51.0575C206.585 51.3142 206.79 51.5195 207.047 51.6735C207.303 51.8229 207.586 51.8975 207.894 51.8975C208.206 51.8975 208.489 51.8229 208.741 51.6735C208.997 51.5195 209.2 51.3142 209.35 51.0575C209.504 50.8009 209.581 50.5162 209.581 50.2035V46.1855H211.037L211.044 53.1855H209.588L209.581 52.4295C209.343 52.7189 209.046 52.9475 208.692 53.1155C208.337 53.2835 207.957 53.3675 207.551 53.3675C207.033 53.3675 206.561 53.2415 206.137 52.9895C205.712 52.7375 205.374 52.3992 205.122 51.9745C204.87 51.5499 204.744 51.0785 204.744 50.5605ZM212.447 53.1855V46.1855H213.903V46.9275C214.146 46.6382 214.445 46.4095 214.799 46.2415C215.154 46.0735 215.537 45.9895 215.947 45.9895C216.209 45.9895 216.468 46.0245 216.724 46.0945L216.143 47.5645C215.961 47.4945 215.779 47.4595 215.597 47.4595C215.289 47.4595 215.007 47.5365 214.75 47.6905C214.494 47.8399 214.288 48.0429 214.134 48.2995C213.98 48.5562 213.903 48.8409 213.903 49.1535V53.1855H212.447ZM225.61 53.3675C224.948 53.3675 224.325 53.2369 223.741 52.9755C223.158 52.7095 222.645 52.3455 222.201 51.8835C221.763 51.4169 221.417 50.8755 221.165 50.2595C220.918 49.6435 220.794 48.9855 220.794 48.2855C220.794 47.5855 220.918 46.9275 221.165 46.3115C221.417 45.6955 221.763 45.1565 222.201 44.6945C222.645 44.2279 223.158 43.8639 223.741 43.6025C224.325 43.3365 224.948 43.2035 225.61 43.2035C226.404 43.2035 227.134 43.3879 227.801 43.7565C228.469 44.1252 229.022 44.6152 229.46 45.2265L228.165 45.9195C227.862 45.5369 227.486 45.2312 227.038 45.0025C226.59 44.7739 226.114 44.6595 225.61 44.6595C225.144 44.6595 224.707 44.7552 224.301 44.9465C223.895 45.1379 223.538 45.3992 223.23 45.7305C222.922 46.0619 222.682 46.4469 222.509 46.8855C222.337 47.3242 222.25 47.7909 222.25 48.2855C222.25 48.7849 222.337 49.2539 222.509 49.6925C222.682 50.1265 222.922 50.5115 223.23 50.8475C223.543 51.1789 223.902 51.4402 224.308 51.6315C224.714 51.8182 225.148 51.9115 225.61 51.9115C226.124 51.9115 226.602 51.7972 227.045 51.5685C227.493 51.3352 227.867 51.0272 228.165 50.6445L229.46 51.3515C229.022 51.9629 228.469 52.4529 227.801 52.8215C227.134 53.1855 226.404 53.3675 225.61 53.3675ZM231.032 53.1855V43.3855H232.488V53.1855H231.032ZM234.377 53.1855V43.3855H237.856C238.36 43.3855 238.815 43.4882 239.221 43.6935C239.632 43.8989 239.956 44.1952 240.194 44.5825C240.437 44.9652 240.558 45.4249 240.558 45.9615C240.558 46.2229 240.516 46.4795 240.432 46.7315C240.348 46.9835 240.229 47.2052 240.075 47.3965C239.921 47.5879 239.734 47.7232 239.515 47.8025C239.814 47.8772 240.061 48.0125 240.257 48.2085C240.458 48.3999 240.616 48.6239 240.733 48.8805C240.85 49.1372 240.931 49.4032 240.978 49.6785C241.029 49.9539 241.055 50.2152 241.055 50.4625C241.055 50.9852 240.929 51.4519 240.677 51.8625C240.425 52.2732 240.087 52.5975 239.662 52.8355C239.242 53.0689 238.778 53.1855 238.269 53.1855H234.377ZM235.833 51.9255H238.129C238.428 51.9255 238.698 51.8509 238.941 51.7015C239.188 51.5522 239.384 51.3469 239.529 51.0855C239.674 50.8195 239.746 50.5209 239.746 50.1895C239.746 49.9002 239.674 49.6272 239.529 49.3705C239.384 49.1092 239.188 48.8992 238.941 48.7405C238.698 48.5819 238.428 48.5025 238.129 48.5025H235.833V51.9255ZM235.833 47.2635H237.702C238.085 47.2635 238.414 47.1469 238.689 46.9135C238.964 46.6802 239.102 46.3605 239.102 45.9545C239.102 45.5205 238.964 45.1962 238.689 44.9815C238.414 44.7622 238.085 44.6525 237.702 44.6525H235.833V47.2635ZM242.448 53.1855V43.3855H243.904V53.1855H242.448ZM245.793 53.1855V43.3855H247.249V51.7295H251.47V53.1855H245.793ZM256.375 53.1855V46.1855H257.831V46.9275C258.074 46.6382 258.372 46.4095 258.727 46.2415C259.082 46.0735 259.464 45.9895 259.875 45.9895C260.136 45.9895 260.395 46.0245 260.652 46.0945L260.071 47.5645C259.889 47.4945 259.707 47.4595 259.525 47.4595C259.217 47.4595 258.935 47.5365 258.678 47.6905C258.421 47.8399 258.216 48.0429 258.062 48.2995C257.908 48.5562 257.831 48.8409 257.831 49.1535V53.1855H256.375ZM266.579 46.1855H268.035V53.1855H266.572L266.516 52.1705C266.311 52.5299 266.033 52.8192 265.683 53.0385C265.333 53.2579 264.92 53.3675 264.444 53.3675C263.931 53.3675 263.448 53.2719 262.995 53.0805C262.542 52.8845 262.143 52.6139 261.798 52.2685C261.457 51.9232 261.191 51.5265 261 51.0785C260.809 50.6259 260.713 50.1405 260.713 49.6225C260.713 49.1232 260.806 48.6542 260.993 48.2155C261.18 47.7722 261.439 47.3849 261.77 47.0535C262.101 46.7222 262.484 46.4632 262.918 46.2765C263.357 46.0852 263.826 45.9895 264.325 45.9895C264.834 45.9895 265.282 46.1062 265.669 46.3395C266.061 46.5682 266.385 46.8622 266.642 47.2215L266.579 46.1855ZM264.409 51.9605C264.82 51.9605 265.179 51.8602 265.487 51.6595C265.795 51.4542 266.033 51.1789 266.201 50.8335C266.374 50.4882 266.46 50.1055 266.46 49.6855C266.46 49.2609 266.374 48.8759 266.201 48.5305C266.028 48.1852 265.788 47.9122 265.48 47.7115C265.177 47.5062 264.82 47.4035 264.409 47.4035C264.003 47.4035 263.632 47.5062 263.296 47.7115C262.96 47.9169 262.694 48.1922 262.498 48.5375C262.302 48.8829 262.204 49.2655 262.204 49.6855C262.204 50.1102 262.304 50.4952 262.505 50.8405C262.71 51.1812 262.979 51.4542 263.31 51.6595C263.646 51.8602 264.012 51.9605 264.409 51.9605ZM273.128 47.6415H271.658L271.651 53.1855H270.195L270.202 47.6415H269.089V46.1855H270.202L270.195 43.9875H271.651L271.658 46.1855H273.128V47.6415ZM274.285 46.1855H275.741V53.1855H274.285V46.1855ZM275.027 45.1705C274.803 45.1705 274.617 45.0982 274.467 44.9535C274.318 44.8089 274.243 44.6269 274.243 44.4075C274.243 44.1929 274.318 44.0132 274.467 43.8685C274.617 43.7192 274.801 43.6445 275.02 43.6445C275.235 43.6445 275.417 43.7192 275.566 43.8685C275.716 44.0132 275.79 44.1929 275.79 44.4075C275.79 44.6269 275.716 44.8089 275.566 44.9535C275.422 45.0982 275.242 45.1705 275.027 45.1705ZM283.661 48.7965V53.1855H282.205V49.1535C282.205 48.8409 282.128 48.5562 281.974 48.2995C281.825 48.0429 281.622 47.8399 281.365 47.6905C281.113 47.5365 280.829 47.4595 280.511 47.4595C280.203 47.4595 279.921 47.5365 279.664 47.6905C279.408 47.8399 279.202 48.0429 279.048 48.2995C278.894 48.5562 278.817 48.8409 278.817 49.1535V53.1855H277.361V46.1855H278.817V46.9275C279.06 46.6382 279.359 46.4095 279.713 46.2415C280.068 46.0735 280.451 45.9895 280.861 45.9895C281.379 45.9895 281.851 46.1155 282.275 46.3675C282.7 46.6195 283.036 46.9579 283.283 47.3825C283.535 47.8072 283.661 48.2785 283.661 48.7965ZM290.249 46.1855H291.705V53.3675C291.705 53.8482 291.602 54.2915 291.397 54.6975C291.196 55.1035 290.923 55.4535 290.578 55.7475C290.233 56.0462 289.836 56.2772 289.388 56.4405C288.945 56.6039 288.48 56.6855 287.995 56.6855C287.505 56.6855 287.034 56.5805 286.581 56.3705C286.128 56.1652 285.729 55.8852 285.384 55.5305C285.043 55.1759 284.789 54.7745 284.621 54.3265L285.958 53.7245C286.051 54.0139 286.201 54.2705 286.406 54.4945C286.616 54.7185 286.859 54.8959 287.134 55.0265C287.414 55.1572 287.701 55.2225 287.995 55.2225C288.284 55.2225 288.562 55.1759 288.828 55.0825C289.099 54.9939 289.339 54.8679 289.549 54.7045C289.764 54.5412 289.934 54.3452 290.06 54.1165C290.186 53.8879 290.249 53.6382 290.249 53.3675V52.1845C290.02 52.5392 289.726 52.8262 289.367 53.0455C289.008 53.2602 288.59 53.3675 288.114 53.3675C287.619 53.3675 287.153 53.2719 286.714 53.0805C286.275 52.8892 285.89 52.6255 285.559 52.2895C285.228 51.9489 284.969 51.5569 284.782 51.1135C284.595 50.6702 284.502 50.1942 284.502 49.6855C284.502 49.1769 284.595 48.7009 284.782 48.2575C284.969 47.8095 285.228 47.4175 285.559 47.0815C285.89 46.7409 286.275 46.4749 286.714 46.2835C287.153 46.0922 287.619 45.9965 288.114 45.9965C288.59 45.9965 289.008 46.1062 289.367 46.3255C289.726 46.5402 290.02 46.8272 290.249 47.1865V46.1855ZM288.128 51.9605C288.534 51.9605 288.889 51.8579 289.192 51.6525C289.495 51.4425 289.731 51.1649 289.899 50.8195C290.067 50.4742 290.151 50.0962 290.151 49.6855C290.151 49.2655 290.065 48.8852 289.892 48.5445C289.724 48.1992 289.488 47.9239 289.185 47.7185C288.882 47.5085 288.529 47.4035 288.128 47.4035C287.736 47.4035 287.377 47.5062 287.05 47.7115C286.728 47.9169 286.471 48.1922 286.28 48.5375C286.089 48.8829 285.993 49.2655 285.993 49.6855C285.993 50.1055 286.089 50.4882 286.28 50.8335C286.476 51.1789 286.735 51.4542 287.057 51.6595C287.384 51.8602 287.741 51.9605 288.128 51.9605Z" fill="#6C6C6C"/>
<path d="M109.49 265.262V256.918H108.321L108.72 255.462H110.946V265.262H109.49ZM116.288 265.444C115.71 265.444 115.187 265.313 114.72 265.052C114.258 264.786 113.859 264.419 113.523 263.953C113.187 263.486 112.931 262.947 112.753 262.336C112.576 261.72 112.487 261.062 112.487 260.362C112.487 259.662 112.576 259.004 112.753 258.388C112.931 257.772 113.187 257.233 113.523 256.771C113.859 256.304 114.258 255.94 114.72 255.679C115.187 255.413 115.71 255.28 116.288 255.28C116.858 255.28 117.376 255.413 117.842 255.679C118.309 255.94 118.706 256.304 119.032 256.771C119.364 257.233 119.618 257.772 119.795 258.388C119.973 259.004 120.061 259.662 120.061 260.362C120.061 261.062 119.973 261.72 119.795 262.336C119.618 262.947 119.364 263.486 119.032 263.953C118.706 264.419 118.309 264.786 117.842 265.052C117.376 265.313 116.858 265.444 116.288 265.444ZM116.288 263.988C116.825 263.988 117.271 263.82 117.625 263.484C117.985 263.143 118.253 262.697 118.43 262.147C118.608 261.596 118.696 261.001 118.696 260.362C118.696 259.69 118.603 259.081 118.416 258.535C118.234 257.984 117.964 257.548 117.604 257.226C117.25 256.899 116.811 256.736 116.288 256.736C115.873 256.736 115.511 256.834 115.203 257.03C114.9 257.226 114.648 257.494 114.447 257.835C114.251 258.175 114.102 258.563 113.999 258.997C113.901 259.431 113.852 259.886 113.852 260.362C113.852 261.001 113.943 261.596 114.125 262.147C114.307 262.697 114.578 263.143 114.937 263.484C115.301 263.82 115.752 263.988 116.288 263.988ZM124.679 265.262V258.262H126.135V259.004C126.378 258.714 126.674 258.486 127.024 258.318C127.379 258.15 127.761 258.066 128.172 258.066C128.671 258.066 129.131 258.187 129.551 258.43C129.971 258.668 130.305 258.985 130.552 259.382C130.799 258.985 131.128 258.668 131.539 258.43C131.954 258.187 132.412 258.066 132.911 258.066C133.429 258.066 133.9 258.192 134.325 258.444C134.75 258.696 135.088 259.034 135.34 259.459C135.592 259.883 135.718 260.355 135.718 260.873V265.262H134.262V261.244C134.262 260.936 134.187 260.653 134.038 260.397C133.889 260.14 133.688 259.932 133.436 259.774C133.184 259.615 132.904 259.536 132.596 259.536C132.288 259.536 132.008 259.61 131.756 259.76C131.504 259.909 131.303 260.112 131.154 260.369C131.005 260.625 130.93 260.917 130.93 261.244V265.262H129.474V261.244C129.474 260.917 129.399 260.625 129.25 260.369C129.101 260.112 128.898 259.909 128.641 259.76C128.389 259.61 128.109 259.536 127.801 259.536C127.498 259.536 127.218 259.615 126.961 259.774C126.709 259.932 126.508 260.14 126.359 260.397C126.21 260.653 126.135 260.936 126.135 261.244V265.262H124.679ZM137.12 258.262H138.576V265.262H137.12V258.262ZM137.862 257.247C137.638 257.247 137.452 257.174 137.302 257.03C137.153 256.885 137.078 256.703 137.078 256.484C137.078 256.269 137.153 256.089 137.302 255.945C137.452 255.795 137.636 255.721 137.855 255.721C138.07 255.721 138.252 255.795 138.401 255.945C138.551 256.089 138.625 256.269 138.625 256.484C138.625 256.703 138.551 256.885 138.401 257.03C138.257 257.174 138.077 257.247 137.862 257.247ZM140.278 265.262V254.762H141.734V265.262H140.278ZM143.409 265.262V254.762H144.865V265.262H143.409ZM146.54 258.262H147.996V265.262H146.54V258.262ZM147.282 257.247C147.058 257.247 146.872 257.174 146.722 257.03C146.573 256.885 146.498 256.703 146.498 256.484C146.498 256.269 146.573 256.089 146.722 255.945C146.872 255.795 147.056 255.721 147.275 255.721C147.49 255.721 147.672 255.795 147.821 255.945C147.971 256.089 148.045 256.269 148.045 256.484C148.045 256.703 147.971 256.885 147.821 257.03C147.677 257.174 147.497 257.247 147.282 257.247ZM152.628 265.444C151.984 265.444 151.396 265.278 150.864 264.947C150.337 264.615 149.914 264.172 149.597 263.617C149.284 263.057 149.128 262.438 149.128 261.762C149.128 261.248 149.219 260.77 149.401 260.327C149.583 259.879 149.833 259.487 150.15 259.151C150.472 258.81 150.845 258.544 151.27 258.353C151.695 258.161 152.147 258.066 152.628 258.066C153.272 258.066 153.858 258.231 154.385 258.563C154.917 258.894 155.339 259.34 155.652 259.9C155.969 260.46 156.128 261.08 156.128 261.762C156.128 262.27 156.037 262.746 155.855 263.19C155.673 263.633 155.421 264.025 155.099 264.366C154.782 264.702 154.411 264.965 153.986 265.157C153.566 265.348 153.113 265.444 152.628 265.444ZM152.628 263.988C153.015 263.988 153.363 263.885 153.671 263.68C153.979 263.474 154.222 263.204 154.399 262.868C154.581 262.527 154.672 262.158 154.672 261.762C154.672 261.356 154.579 260.982 154.392 260.642C154.21 260.301 153.965 260.03 153.657 259.83C153.349 259.624 153.006 259.522 152.628 259.522C152.245 259.522 151.898 259.624 151.585 259.83C151.277 260.035 151.032 260.308 150.85 260.649C150.673 260.989 150.584 261.36 150.584 261.762C150.584 262.177 150.677 262.553 150.864 262.889C151.051 263.225 151.298 263.493 151.606 263.694C151.919 263.89 152.259 263.988 152.628 263.988ZM163.559 260.873V265.262H162.103V261.23C162.103 260.917 162.026 260.632 161.872 260.376C161.723 260.119 161.52 259.916 161.263 259.767C161.011 259.613 160.726 259.536 160.409 259.536C160.101 259.536 159.819 259.613 159.562 259.767C159.305 259.916 159.1 260.119 158.946 260.376C158.792 260.632 158.715 260.917 158.715 261.23V265.262H157.259V258.262H158.715V259.004C158.958 258.714 159.256 258.486 159.611 258.318C159.966 258.15 160.348 258.066 160.759 258.066C161.277 258.066 161.748 258.192 162.173 258.444C162.598 258.696 162.934 259.034 163.181 259.459C163.433 259.883 163.559 260.355 163.559 260.873ZM167.448 264.562V261.79H164.676V260.334H167.448V257.562H168.904V260.334H171.676V261.79H168.904V264.562H167.448ZM176.161 262.637V258.262H177.617V262.28C177.617 262.592 177.694 262.877 177.848 263.134C178.002 263.39 178.207 263.596 178.464 263.75C178.72 263.899 179.003 263.974 179.311 263.974C179.623 263.974 179.906 263.899 180.158 263.75C180.414 263.596 180.617 263.39 180.767 263.134C180.921 262.877 180.998 262.592 180.998 262.28V258.262H182.454L182.461 265.262H181.005L180.998 264.506C180.76 264.795 180.463 265.024 180.109 265.192C179.754 265.36 179.374 265.444 178.968 265.444C178.45 265.444 177.978 265.318 177.554 265.066C177.129 264.814 176.791 264.475 176.539 264.051C176.287 263.626 176.161 263.155 176.161 262.637ZM185.964 265.395C185.596 265.371 185.236 265.297 184.886 265.171C184.536 265.045 184.228 264.874 183.962 264.66C183.701 264.44 183.505 264.184 183.374 263.89L184.613 263.358C184.674 263.484 184.779 263.607 184.928 263.729C185.082 263.85 185.262 263.95 185.467 264.03C185.673 264.104 185.887 264.142 186.111 264.142C186.331 264.142 186.534 264.111 186.72 264.051C186.912 263.985 187.068 263.887 187.189 263.757C187.311 263.626 187.371 263.47 187.371 263.288C187.371 263.082 187.301 262.924 187.161 262.812C187.026 262.695 186.856 262.606 186.65 262.546C186.445 262.485 186.24 262.427 186.034 262.371C185.577 262.268 185.157 262.128 184.774 261.951C184.396 261.769 184.095 261.538 183.871 261.258C183.647 260.973 183.535 260.625 183.535 260.215C183.535 259.767 183.657 259.379 183.899 259.053C184.142 258.721 184.459 258.467 184.851 258.29C185.248 258.112 185.67 258.024 186.118 258.024C186.678 258.024 187.192 258.143 187.658 258.381C188.125 258.619 188.482 258.945 188.729 259.361L187.574 260.047C187.504 259.907 187.399 259.781 187.259 259.669C187.119 259.557 186.961 259.468 186.783 259.403C186.606 259.333 186.422 259.293 186.23 259.284C185.992 259.274 185.771 259.302 185.565 259.368C185.365 259.428 185.204 259.526 185.082 259.662C184.961 259.797 184.9 259.97 184.9 260.18C184.9 260.385 184.973 260.539 185.117 260.642C185.262 260.74 185.444 260.819 185.663 260.88C185.887 260.94 186.116 261.008 186.349 261.083C186.765 261.213 187.154 261.374 187.518 261.566C187.882 261.752 188.176 261.983 188.4 262.259C188.624 262.534 188.732 262.87 188.722 263.267C188.722 263.705 188.589 264.09 188.323 264.422C188.062 264.753 187.721 265.005 187.301 265.178C186.881 265.35 186.436 265.423 185.964 265.395ZM192.905 265.444C192.261 265.444 191.673 265.278 191.141 264.947C190.614 264.615 190.192 264.172 189.874 263.617C189.562 263.057 189.405 262.438 189.405 261.762C189.405 261.248 189.496 260.77 189.678 260.327C189.86 259.879 190.11 259.487 190.427 259.151C190.749 258.81 191.123 258.544 191.547 258.353C191.972 258.161 192.425 258.066 192.905 258.066C193.442 258.066 193.934 258.178 194.382 258.402C194.83 258.621 195.213 258.927 195.53 259.319C195.848 259.706 196.081 260.154 196.23 260.663C196.38 261.167 196.424 261.703 196.363 262.273H190.966C191.027 262.595 191.144 262.886 191.316 263.148C191.494 263.404 191.718 263.607 191.988 263.757C192.264 263.906 192.569 263.983 192.905 263.988C193.26 263.988 193.582 263.899 193.871 263.722C194.165 263.544 194.406 263.299 194.592 262.987L196.069 263.33C195.789 263.95 195.367 264.459 194.802 264.856C194.238 265.248 193.605 265.444 192.905 265.444ZM190.917 261.16H194.893C194.847 260.824 194.728 260.52 194.536 260.25C194.35 259.974 194.114 259.757 193.829 259.599C193.549 259.435 193.241 259.354 192.905 259.354C192.574 259.354 192.266 259.433 191.981 259.592C191.701 259.75 191.468 259.967 191.281 260.243C191.099 260.513 190.978 260.819 190.917 261.16ZM197.523 265.262V258.262H198.979V259.004C199.221 258.714 199.52 258.486 199.875 258.318C200.229 258.15 200.612 258.066 201.023 258.066C201.284 258.066 201.543 258.101 201.8 258.171L201.219 259.641C201.037 259.571 200.855 259.536 200.673 259.536C200.365 259.536 200.082 259.613 199.826 259.767C199.569 259.916 199.364 260.119 199.21 260.376C199.056 260.632 198.979 260.917 198.979 261.23V265.262H197.523ZM204.709 265.395C204.34 265.371 203.981 265.297 203.631 265.171C203.281 265.045 202.973 264.874 202.707 264.66C202.445 264.44 202.249 264.184 202.119 263.89L203.358 263.358C203.418 263.484 203.523 263.607 203.673 263.729C203.827 263.85 204.006 263.95 204.212 264.03C204.417 264.104 204.632 264.142 204.856 264.142C205.075 264.142 205.278 264.111 205.465 264.051C205.656 263.985 205.812 263.887 205.934 263.757C206.055 263.626 206.116 263.47 206.116 263.288C206.116 263.082 206.046 262.924 205.906 262.812C205.77 262.695 205.6 262.606 205.395 262.546C205.189 262.485 204.984 262.427 204.779 262.371C204.321 262.268 203.901 262.128 203.519 261.951C203.141 261.769 202.84 261.538 202.616 261.258C202.392 260.973 202.28 260.625 202.28 260.215C202.28 259.767 202.401 259.379 202.644 259.053C202.886 258.721 203.204 258.467 203.596 258.29C203.992 258.112 204.415 258.024 204.863 258.024C205.423 258.024 205.936 258.143 206.403 258.381C206.869 258.619 207.226 258.945 207.474 259.361L206.319 260.047C206.249 259.907 206.144 259.781 206.004 259.669C205.864 259.557 205.705 259.468 205.528 259.403C205.35 259.333 205.166 259.293 204.975 259.284C204.737 259.274 204.515 259.302 204.31 259.368C204.109 259.428 203.948 259.526 203.827 259.662C203.705 259.797 203.645 259.97 203.645 260.18C203.645 260.385 203.717 260.539 203.862 260.642C204.006 260.74 204.188 260.819 204.408 260.88C204.632 260.94 204.86 261.008 205.094 261.083C205.509 261.213 205.899 261.374 206.263 261.566C206.627 261.752 206.921 261.983 207.145 262.259C207.369 262.534 207.476 262.87 207.467 263.267C207.467 263.705 207.334 264.09 207.068 264.422C206.806 264.753 206.466 265.005 206.046 265.178C205.626 265.35 205.18 265.423 204.709 265.395ZM218.328 260.873V265.262H216.872V261.23C216.872 260.917 216.795 260.632 216.641 260.376C216.492 260.119 216.289 259.916 216.032 259.767C215.78 259.613 215.496 259.536 215.178 259.536C214.87 259.536 214.588 259.613 214.331 259.767C214.075 259.916 213.869 260.119 213.715 260.376C213.561 260.632 213.484 260.917 213.484 261.23V265.262H212.028V254.762H213.484V259.004C213.727 258.714 214.026 258.486 214.38 258.318C214.735 258.15 215.118 258.066 215.528 258.066C216.046 258.066 216.518 258.192 216.942 258.444C217.367 258.696 217.703 259.034 217.95 259.459C218.202 259.883 218.328 260.355 218.328 260.873ZM225.035 258.262H226.491V265.262H225.028L224.972 264.247C224.767 264.606 224.489 264.895 224.139 265.115C223.789 265.334 223.376 265.444 222.9 265.444C222.387 265.444 221.904 265.348 221.451 265.157C220.998 264.961 220.599 264.69 220.254 264.345C219.913 263.999 219.647 263.603 219.456 263.155C219.265 262.702 219.169 262.217 219.169 261.699C219.169 261.199 219.262 260.73 219.449 260.292C219.636 259.848 219.895 259.461 220.226 259.13C220.557 258.798 220.94 258.539 221.374 258.353C221.813 258.161 222.282 258.066 222.781 258.066C223.29 258.066 223.738 258.182 224.125 258.416C224.517 258.644 224.841 258.938 225.098 259.298L225.035 258.262ZM222.865 264.037C223.276 264.037 223.635 263.936 223.943 263.736C224.251 263.53 224.489 263.255 224.657 262.91C224.83 262.564 224.916 262.182 224.916 261.762C224.916 261.337 224.83 260.952 224.657 260.607C224.484 260.261 224.244 259.988 223.936 259.788C223.633 259.582 223.276 259.48 222.865 259.48C222.459 259.48 222.088 259.582 221.752 259.788C221.416 259.993 221.15 260.268 220.954 260.614C220.758 260.959 220.66 261.342 220.66 261.762C220.66 262.186 220.76 262.571 220.961 262.917C221.166 263.257 221.435 263.53 221.766 263.736C222.102 263.936 222.468 264.037 222.865 264.037ZM231.632 265.262H229.763L227.208 258.248H228.762L230.694 263.582L232.633 258.248H234.18L231.632 265.262ZM238.064 265.444C237.42 265.444 236.832 265.278 236.3 264.947C235.772 264.615 235.35 264.172 235.033 263.617C234.72 263.057 234.564 262.438 234.564 261.762C234.564 261.248 234.655 260.77 234.837 260.327C235.019 259.879 235.268 259.487 235.586 259.151C235.908 258.81 236.281 258.544 236.706 258.353C237.13 258.161 237.583 258.066 238.064 258.066C238.6 258.066 239.093 258.178 239.541 258.402C239.989 258.621 240.371 258.927 240.689 259.319C241.006 259.706 241.239 260.154 241.389 260.663C241.538 261.167 241.582 261.703 241.522 262.273H236.125C236.185 262.595 236.302 262.886 236.475 263.148C236.652 263.404 236.876 263.607 237.147 263.757C237.422 263.906 237.728 263.983 238.064 263.988C238.418 263.988 238.74 263.899 239.03 263.722C239.324 263.544 239.564 263.299 239.751 262.987L241.228 263.33C240.948 263.95 240.525 264.459 239.961 264.856C239.396 265.248 238.764 265.444 238.064 265.444ZM236.076 261.16H240.052C240.005 260.824 239.886 260.52 239.695 260.25C239.508 259.974 239.272 259.757 238.988 259.599C238.708 259.435 238.4 259.354 238.064 259.354C237.732 259.354 237.424 259.433 237.14 259.592C236.86 259.75 236.626 259.967 236.44 260.243C236.258 260.513 236.136 260.819 236.076 261.16ZM251.613 258.262H253.069V265.262H251.606L251.55 264.247C251.345 264.606 251.067 264.895 250.717 265.115C250.367 265.334 249.954 265.444 249.478 265.444C248.965 265.444 248.482 265.348 248.029 265.157C247.576 264.961 247.177 264.69 246.832 264.345C246.491 263.999 246.225 263.603 246.034 263.155C245.843 262.702 245.747 262.217 245.747 261.699C245.747 261.199 245.84 260.73 246.027 260.292C246.214 259.848 246.473 259.461 246.804 259.13C247.135 258.798 247.518 258.539 247.952 258.353C248.391 258.161 248.86 258.066 249.359 258.066C249.868 258.066 250.316 258.182 250.703 258.416C251.095 258.644 251.419 258.938 251.676 259.298L251.613 258.262ZM249.443 264.037C249.854 264.037 250.213 263.936 250.521 263.736C250.829 263.53 251.067 263.255 251.235 262.91C251.408 262.564 251.494 262.182 251.494 261.762C251.494 261.337 251.408 260.952 251.235 260.607C251.062 260.261 250.822 259.988 250.514 259.788C250.211 259.582 249.854 259.48 249.443 259.48C249.037 259.48 248.666 259.582 248.33 259.788C247.994 259.993 247.728 260.268 247.532 260.614C247.336 260.959 247.238 261.342 247.238 261.762C247.238 262.186 247.338 262.571 247.539 262.917C247.744 263.257 248.013 263.53 248.344 263.736C248.68 263.936 249.046 264.037 249.443 264.037ZM254.521 265.262V254.762H255.977V265.262H254.521ZM257.652 265.262V258.262H259.108V259.004C259.35 258.714 259.649 258.486 260.004 258.318C260.358 258.15 260.741 258.066 261.152 258.066C261.413 258.066 261.672 258.101 261.929 258.171L261.348 259.641C261.166 259.571 260.984 259.536 260.802 259.536C260.494 259.536 260.211 259.613 259.955 259.767C259.698 259.916 259.493 260.119 259.339 260.376C259.185 260.632 259.108 260.917 259.108 261.23V265.262H257.652ZM265.489 265.444C264.845 265.444 264.257 265.278 263.725 264.947C263.198 264.615 262.776 264.172 262.458 263.617C262.146 263.057 261.989 262.438 261.989 261.762C261.989 261.248 262.08 260.77 262.262 260.327C262.444 259.879 262.694 259.487 263.011 259.151C263.333 258.81 263.707 258.544 264.131 258.353C264.556 258.161 265.009 258.066 265.489 258.066C266.026 258.066 266.518 258.178 266.966 258.402C267.414 258.621 267.797 258.927 268.114 259.319C268.432 259.706 268.665 260.154 268.814 260.663C268.964 261.167 269.008 261.703 268.947 262.273H263.55C263.611 262.595 263.728 262.886 263.9 263.148C264.078 263.404 264.302 263.607 264.572 263.757C264.848 263.906 265.153 263.983 265.489 263.988C265.844 263.988 266.166 263.899 266.455 263.722C266.749 263.544 266.99 263.299 267.176 262.987L268.653 263.33C268.373 263.95 267.951 264.459 267.386 264.856C266.822 265.248 266.189 265.444 265.489 265.444ZM263.501 261.16H267.477C267.431 260.824 267.312 260.52 267.12 260.25C266.934 259.974 266.698 259.757 266.413 259.599C266.133 259.435 265.825 259.354 265.489 259.354C265.158 259.354 264.85 259.433 264.565 259.592C264.285 259.75 264.052 259.967 263.865 260.243C263.683 260.513 263.562 260.819 263.501 261.16ZM275.539 258.262H276.995V265.262H275.532L275.476 264.247C275.271 264.606 274.993 264.895 274.643 265.115C274.293 265.334 273.88 265.444 273.404 265.444C272.891 265.444 272.408 265.348 271.955 265.157C271.502 264.961 271.103 264.69 270.758 264.345C270.417 263.999 270.151 263.603 269.96 263.155C269.769 262.702 269.673 262.217 269.673 261.699C269.673 261.199 269.766 260.73 269.953 260.292C270.14 259.848 270.399 259.461 270.73 259.13C271.061 258.798 271.444 258.539 271.878 258.353C272.317 258.161 272.786 258.066 273.285 258.066C273.794 258.066 274.242 258.182 274.629 258.416C275.021 258.644 275.345 258.938 275.602 259.298L275.539 258.262ZM273.369 264.037C273.78 264.037 274.139 263.936 274.447 263.736C274.755 263.53 274.993 263.255 275.161 262.91C275.334 262.564 275.42 262.182 275.42 261.762C275.42 261.337 275.334 260.952 275.161 260.607C274.988 260.261 274.748 259.988 274.44 259.788C274.137 259.582 273.78 259.48 273.369 259.48C272.963 259.48 272.592 259.582 272.256 259.788C271.92 259.993 271.654 260.268 271.458 260.614C271.262 260.959 271.164 261.342 271.164 261.762C271.164 262.186 271.264 262.571 271.465 262.917C271.67 263.257 271.939 263.53 272.27 263.736C272.606 263.936 272.972 264.037 273.369 264.037ZM283.708 254.762H285.164V265.262H283.708V264.233C283.479 264.597 283.181 264.891 282.812 265.115C282.443 265.334 282.012 265.444 281.517 265.444C281.008 265.444 280.532 265.348 280.089 265.157C279.646 264.965 279.254 264.702 278.913 264.366C278.577 264.025 278.313 263.633 278.122 263.19C277.931 262.746 277.835 262.27 277.835 261.762C277.835 261.253 277.931 260.777 278.122 260.334C278.313 259.886 278.577 259.494 278.913 259.158C279.254 258.817 279.646 258.551 280.089 258.36C280.532 258.168 281.008 258.073 281.517 258.073C282.012 258.073 282.443 258.185 282.812 258.409C283.181 258.628 283.479 258.917 283.708 259.277V254.762ZM281.531 264.037C281.942 264.037 282.301 263.936 282.609 263.736C282.917 263.53 283.155 263.255 283.323 262.91C283.496 262.564 283.582 262.182 283.582 261.762C283.582 261.337 283.496 260.952 283.323 260.607C283.15 260.261 282.91 259.988 282.602 259.788C282.299 259.582 281.942 259.48 281.531 259.48C281.125 259.48 280.754 259.582 280.418 259.788C280.087 259.993 279.821 260.268 279.62 260.614C279.424 260.959 279.326 261.342 279.326 261.762C279.326 262.186 279.426 262.571 279.627 262.917C279.832 263.257 280.101 263.53 280.432 263.736C280.768 263.936 281.134 264.037 281.531 264.037ZM291.253 258.262H292.807L288.971 268.762H287.424L288.691 265.262L286.178 258.262H287.767L289.419 263.267L291.253 258.262ZM302.144 263.274L303.446 263.981C303.129 264.424 302.725 264.779 302.235 265.045C301.75 265.311 301.223 265.444 300.653 265.444C300.009 265.444 299.421 265.278 298.889 264.947C298.362 264.615 297.94 264.172 297.622 263.617C297.31 263.057 297.153 262.438 297.153 261.762C297.153 261.248 297.244 260.77 297.426 260.327C297.608 259.879 297.858 259.487 298.175 259.151C298.497 258.81 298.871 258.544 299.295 258.353C299.72 258.161 300.173 258.066 300.653 258.066C301.223 258.066 301.75 258.199 302.235 258.465C302.725 258.731 303.129 259.088 303.446 259.536L302.144 260.243C301.948 260.009 301.72 259.832 301.458 259.711C301.197 259.585 300.929 259.522 300.653 259.522C300.271 259.522 299.923 259.627 299.61 259.837C299.302 260.042 299.057 260.315 298.875 260.656C298.698 260.992 298.609 261.36 298.609 261.762C298.609 262.158 298.7 262.527 298.882 262.868C299.064 263.204 299.309 263.474 299.617 263.68C299.93 263.885 300.275 263.988 300.653 263.988C300.943 263.988 301.218 263.922 301.479 263.792C301.741 263.661 301.962 263.488 302.144 263.274ZM310.832 260.873V265.262H309.376V261.23C309.376 260.917 309.299 260.632 309.145 260.376C308.996 260.119 308.793 259.916 308.536 259.767C308.284 259.613 308 259.536 307.682 259.536C307.374 259.536 307.092 259.613 306.835 259.767C306.579 259.916 306.373 260.119 306.219 260.376C306.065 260.632 305.988 260.917 305.988 261.23V265.262H304.532V254.762H305.988V259.004C306.231 258.714 306.53 258.486 306.884 258.318C307.239 258.15 307.622 258.066 308.032 258.066C308.55 258.066 309.022 258.192 309.446 258.444C309.871 258.696 310.207 259.034 310.454 259.459C310.706 259.883 310.832 260.355 310.832 260.873ZM315.173 265.444C314.529 265.444 313.941 265.278 313.409 264.947C312.882 264.615 312.459 264.172 312.142 263.617C311.829 263.057 311.673 262.438 311.673 261.762C311.673 261.248 311.764 260.77 311.946 260.327C312.128 259.879 312.378 259.487 312.695 259.151C313.017 258.81 313.39 258.544 313.815 258.353C314.24 258.161 314.692 258.066 315.173 258.066C315.71 258.066 316.202 258.178 316.65 258.402C317.098 258.621 317.481 258.927 317.798 259.319C318.115 259.706 318.349 260.154 318.498 260.663C318.647 261.167 318.692 261.703 318.631 262.273H313.234C313.295 262.595 313.411 262.886 313.584 263.148C313.761 263.404 313.985 263.607 314.256 263.757C314.531 263.906 314.837 263.983 315.173 263.988C315.528 263.988 315.85 263.899 316.139 263.722C316.433 263.544 316.673 263.299 316.86 262.987L318.337 263.33C318.057 263.95 317.635 264.459 317.07 264.856C316.505 265.248 315.873 265.444 315.173 265.444ZM313.185 261.16H317.161C317.114 260.824 316.995 260.52 316.804 260.25C316.617 259.974 316.382 259.757 316.097 259.599C315.817 259.435 315.509 259.354 315.173 259.354C314.842 259.354 314.534 259.433 314.249 259.592C313.969 259.75 313.736 259.967 313.549 260.243C313.367 260.513 313.246 260.819 313.185 261.16ZM324.348 263.274L325.65 263.981C325.332 264.424 324.929 264.779 324.439 265.045C323.953 265.311 323.426 265.444 322.857 265.444C322.213 265.444 321.625 265.278 321.093 264.947C320.565 264.615 320.143 264.172 319.826 263.617C319.513 263.057 319.357 262.438 319.357 261.762C319.357 261.248 319.448 260.77 319.63 260.327C319.812 259.879 320.061 259.487 320.379 259.151C320.701 258.81 321.074 258.544 321.499 258.353C321.923 258.161 322.376 258.066 322.857 258.066C323.426 258.066 323.953 258.199 324.439 258.465C324.929 258.731 325.332 259.088 325.65 259.536L324.348 260.243C324.152 260.009 323.923 259.832 323.662 259.711C323.4 259.585 323.132 259.522 322.857 259.522C322.474 259.522 322.126 259.627 321.814 259.837C321.506 260.042 321.261 260.315 321.079 260.656C320.901 260.992 320.813 261.36 320.813 261.762C320.813 262.158 320.904 262.527 321.086 262.868C321.268 263.204 321.513 263.474 321.821 263.68C322.133 263.885 322.479 263.988 322.857 263.988C323.146 263.988 323.421 263.922 323.683 263.792C323.944 263.661 324.166 263.488 324.348 263.274ZM332.721 265.262H331.041L329.319 262.294L328.192 263.638V265.262H326.736V254.762H328.192V261.377L330.796 258.262H332.7L330.313 261.111L332.721 265.262ZM336.515 265.444C335.871 265.444 335.283 265.278 334.751 264.947C334.223 264.615 333.801 264.172 333.484 263.617C333.171 263.057 333.015 262.438 333.015 261.762C333.015 261.248 333.106 260.77 333.288 260.327C333.47 259.879 333.719 259.487 334.037 259.151C334.359 258.81 334.732 258.544 335.157 258.353C335.581 258.161 336.034 258.066 336.515 258.066C337.051 258.066 337.544 258.178 337.992 258.402C338.44 258.621 338.822 258.927 339.14 259.319C339.457 259.706 339.69 260.154 339.84 260.663C339.989 261.167 340.033 261.703 339.973 262.273H334.576C334.636 262.595 334.753 262.886 334.926 263.148C335.103 263.404 335.327 263.607 335.598 263.757C335.873 263.906 336.179 263.983 336.515 263.988C336.869 263.988 337.191 263.899 337.481 263.722C337.775 263.544 338.015 263.299 338.202 262.987L339.679 263.33C339.399 263.95 338.976 264.459 338.412 264.856C337.847 265.248 337.215 265.444 336.515 265.444ZM334.527 261.16H338.503C338.456 260.824 338.337 260.52 338.146 260.25C337.959 259.974 337.723 259.757 337.439 259.599C337.159 259.435 336.851 259.354 336.515 259.354C336.183 259.354 335.875 259.433 335.591 259.592C335.311 259.75 335.077 259.967 334.891 260.243C334.709 260.513 334.587 260.819 334.527 261.16ZM346.571 254.762H348.027V265.262H346.571V264.233C346.343 264.597 346.044 264.891 345.675 265.115C345.307 265.334 344.875 265.444 344.38 265.444C343.872 265.444 343.396 265.348 342.952 265.157C342.509 264.965 342.117 264.702 341.776 264.366C341.44 264.025 341.177 263.633 340.985 263.19C340.794 262.746 340.698 262.27 340.698 261.762C340.698 261.253 340.794 260.777 340.985 260.334C341.177 259.886 341.44 259.494 341.776 259.158C342.117 258.817 342.509 258.551 342.952 258.36C343.396 258.168 343.872 258.073 344.38 258.073C344.875 258.073 345.307 258.185 345.675 258.409C346.044 258.628 346.343 258.917 346.571 259.277V254.762ZM344.394 264.037C344.805 264.037 345.164 263.936 345.472 263.736C345.78 263.53 346.018 263.255 346.186 262.91C346.359 262.564 346.445 262.182 346.445 261.762C346.445 261.337 346.359 260.952 346.186 260.607C346.014 260.261 345.773 259.988 345.465 259.788C345.162 259.582 344.805 259.48 344.394 259.48C343.988 259.48 343.617 259.582 343.281 259.788C342.95 259.993 342.684 260.268 342.483 260.614C342.287 260.959 342.189 261.342 342.189 261.762C342.189 262.186 342.29 262.571 342.49 262.917C342.696 263.257 342.964 263.53 343.295 263.736C343.631 263.936 343.998 264.037 344.394 264.037Z" fill="#6C6C6C"/>
<path d="M94.6133 251.762L96.8616 257.167L102.697 257.635L98.2511 261.444L99.6095 267.138L94.6133 264.087L89.6171 267.138L90.9755 261.444L86.5293 257.635L92.365 257.167L94.6133 251.762Z" fill="#FBBC04"/>
<defs>
<filter id="filter0_d_58_4608" x="85.8809" y="63.127" width="263.678" height="161.838" filterUnits="userSpaceOnUse" color-interpolation-filters="sRGB">
<feFlood flood-opacity="0" result="BackgroundImageFix"/>
<feColorMatrix in="SourceAlpha" type="matrix" values="0 0 0 0 0 0 0 0 0 0 0 0 0 0 0 0 0 0 127 0" result="hardAlpha"/>
<feOffset dy="-20"/>
<feGaussianBlur stdDeviation="15"/>
<feComposite in2="hardAlpha" operator="out"/>
<feColorMatrix type="matrix" values="0 0 0 0 0 0 0 0 0 0 0 0 0 0 0 0 0 0 0.1 0"/>
<feBlend mode="normal" in2="BackgroundImageFix" result="effect1_dropShadow_58_4608"/>
<feBlend mode="normal" in="SourceGraphic" in2="effect1_dropShadow_58_4608" result="shape"/>
</filter>
</defs>
</svg>
